<?xml version="1.0" encoding="UTF-8" standalone="no"?><!DOCTYPE svg PUBLIC "-//W3C//DTD SVG 1.1//EN" "http://www.w3.org/Graphics/SVG/1.1/DTD/svg11.dtd"><svg width="100%" height="100%" viewBox="0 0 40 18" version="1.1" xmlns="http://www.w3.org/2000/svg" xmlns:xlink="http://www.w3.org/1999/xlink" xml:space="preserve" xmlns:serif="http://www.serif.com/" style="fill-rule:evenodd;clip-rule:evenodd;stroke-linejoin:round;stroke-miterlimit:2;"><g><ellipse cx="8.332" cy="9.287" rx="8.332" ry="8.446" style="fill:#fff;"/><path d="M20.962,12.015c0.274,2.394 5.693,4.934 10.204,4.895l-14.056,0c0.295,-2.311 1.892,-4.161 3.852,-4.895Z" style="fill:#fff;"/><path d="M22.891,0.84c2.988,0 5.415,2.427 5.415,5.415c-0,2.401 -1.887,4.501 -4.213,5.092c-0,-3.285 -3.001,-6.336 -6.286,-6.336c0.546,-2.32 2.7,-4.171 5.084,-4.171Z" style="fill:#fff;"/><path d="M35.922,0c-0,9.734 1.157,12.035 3.709,12.015l-5.155,5.413c-0,-2.673 -1.634,-3.876 -6.997,-3.857l8.443,-13.571Z" style="fill:#fff;"/></g></svg>