  0
SECTION
  2
HEADER
  9
$ACADVER
  1
AC1009
  9
$INSBASE
 10
0.0
 20
0.0
 30
0.0
  9
$EXTMIN
 10
0.0
 20
0.0
 30
0.0
  9
$EXTMAX
 10
0.0
 20
0.0
 30
0.0
  0
ENDSEC
  0
SECTION
  2
TABLES
  0
TABLE
  2
VPORT
 70
1
  0
VPORT
  2
*ACTIVE
 70
0
 10
0.0
 20
0.0
 11
1.0
 21
1.0
 12
-5.0
 22
1.0
 13
0.0
 23
0.0
 14
0.1
 24
0.1
 15
0.1
 25
0.1
 16
0.0
 26
0.0
 36
1.0
 17
0.0
 27
0.0
 37
0.0
 40
10.0
 41
1.0
 42
50.0
 43
0.0
 44
0.0
 50
0.0
 51
0.0
 71
0
 72
100
 73
1
 74
1
 75
0
 76
0
 77
0
 78
0
  0
ENDTAB
  0
TABLE
  2
LTYPE
 70
8
  0
LTYPE
  2
CONTINUOUS
 70
0
  3
Solid line
 72
65
 73
0
 40
0.0
  0
LTYPE
  2
DOT
 70
0
  3
. . . . . . .
 72
65
 73
2
 40
0.25
 49
0.0
 49
-0.25
  0
LTYPE
  2
DASHED
 70
0
  3
__ __ __ __ __
 72
65
 73
2
 40
0.8
 49
0.5
 49
-0.3
  0
LTYPE
  2
DASHDOT
 70
0
  3
__ . __ . __ .
 72
65
 73
4
 40
1.0
 49
0.5
 49
-0.25
 49
0.0
 49
-0.25
  0
LTYPE
  2
DIVIDE
 70
0
  3
____ . . ____ . . 
 72
65
 73
6
 40
1.25
 49
0.5
 49
-0.25
 49
0.0
 49
-0.25
 49
0.0
 49
-0.25
  0
LTYPE
  2
BORDER
 70
0
  3
__ __ . __ __ . 
 72
65
 73
6
 40
1.75
 49
0.5
 49
-0.25
 49
0.5
 49
-0.25
 49
0.0
 49
-0.25
  0
LTYPE
  2
HIDDEN
 70
0
  3
__ __ __ __ __
 72
65
 73
2
 40
0.4
 49
0.25
 49
-0.25
  0
LTYPE
  2
CENTER
 70
0
  3
____ _ ____ _ __
 72
65
 73
4
 40
2.0
 49
1.25
 49
-0.25
 49
0.25
 49
-0.25
  0
ENDTAB
  0
TABLE
  2
LAYER
 70
1
  0
LAYER
  2
PYDXF
 70
64
 62
7
  6
continuous
  0
ENDTAB
  0
TABLE
  2
STYLE
 70
1
  0
STYLE
  2
STANDARD
 70
0
 40
0
 41
1.0
 50
0.0
 71
0
 42
1
 3
ARIAL.TTF
 4

  0
ENDTAB
  0
TABLE
  2
VIEW
 70
1
  0
VIEW
  2
BF_TOPVIEW
 70
0
 40
120.0
 10
0.0
 20
0.0
 41
200.0
 11
0.0
 21
0.0
 31
1.0
 12
0.0
 22
0.0
 32
0.0
 42
50.0
 43
0.0
 44
0.0
 50
0.0
 71
0
  0
ENDTAB
  0
ENDSEC
  0
SECTION
  2
BLOCKS
  0
ENDSEC
  0
SECTION
  2
ENTITIES
  0
LINE
  8
0
 10
-37.5323600769043
 20
3.772508144378662
 30
-2.384185791015625e-06
 11
-38.13140106201172
 21
3.520808219909668
 31
-2.384185791015625e-06
  0
LINE
  8
0
 10
-41.159324645996094
 20
1.8914495706558228
 30
-3.337860107421875e-06
 11
-41.75023651123047
 21
1.4792826175689697
 31
-2.384185791015625e-06
  0
LINE
  8
0
 10
-41.159324645996094
 20
1.8914495706558228
 30
-3.337860107421875e-06
 11
-40.638221740722656
 21
2.2301249504089355
 31
-2.86102294921875e-06
  0
LINE
  8
0
 10
-46.241275787353516
 20
-3.058896541595459
 30
-2.384185791015625e-06
 11
-45.4316291809082
 21
-2.016343116760254
 31
-2.86102294921875e-06
  0
LINE
  8
0
 10
-37.5323600769043
 20
3.772508144378662
 30
-2.384185791015625e-06
 11
-36.91649627685547
 21
4.018523216247559
 31
-1.430511474609375e-06
  0
LINE
  8
0
 10
-35.702186584472656
 20
-32.40195846557617
 30
-3.6954879760742188e-06
 11
-34.182254791259766
 21
-33.0063362121582
 31
-3.1888484954833984e-06
  0
LINE
  8
0
 10
-35.702186584472656
 20
-32.40195846557617
 30
-3.6954879760742188e-06
 11
-37.137962341308594
 21
-31.775259017944336
 31
-2.473592758178711e-06
  0
LINE
  8
0
 10
-44.63462829589844
 20
-26.956260681152344
 30
-7.271766662597656e-06
 11
-42.01216125488281
 21
-28.97665786743164
 31
-2.86102294921875e-06
  0
LINE
  8
0
 10
-29.23355484008789
 20
-34.6563835144043
 30
-2.2444874048233032e-06
 11
-30.936864852905273
 21
-34.140235900878906
 31
-2.652406692504883e-06
  0
LINE
  8
0
 10
-29.23355484008789
 20
-34.6563835144043
 30
-2.2444874048233032e-06
 11
-27.541133880615234
 21
-35.112709045410156
 31
-4.105269908905029e-06
  0
LINE
  8
0
 10
-37.137962341308594
 20
-31.775259017944336
 30
-2.473592758178711e-06
 11
-38.48507308959961
 21
-31.122987747192383
 31
-2.7418136596679688e-06
  0
LINE
  8
0
 10
-43.00822067260742
 20
0.48142528533935547
 30
-2.384185791015625e-06
 11
-43.752193450927734
 21
-0.17792963981628418
 31
-3.337860107421875e-06
  0
LINE
  8
0
 10
-40.15345001220703
 20
2.518977642059326
 30
-1.9073486328125e-06
 11
-39.658424377441406
 21
2.7909021377563477
 31
-2.86102294921875e-06
  0
LINE
  8
0
 10
-40.638221740722656
 20
2.2301249504089355
 30
-2.86102294921875e-06
 11
-40.15345001220703
 21
2.518977642059326
 31
-1.9073486328125e-06
  0
LINE
  8
0
 10
-45.4316291809082
 20
-2.016343116760254
 30
-2.86102294921875e-06
 11
-44.57760238647461
 21
-1.0334372520446777
 31
-4.291534423828125e-06
  0
LINE
  8
0
 10
-47.643028259277344
 20
-5.237287521362305
 30
-1.9073486328125e-06
 11
-46.98042678833008
 21
-4.134504318237305
 31
-3.337860107421875e-06
  0
LINE
  8
0
 10
-47.643028259277344
 20
-5.237287521362305
 30
-1.9073486328125e-06
 11
-48.23069763183594
 21
-6.34743595123291
 31
-2.86102294921875e-06
  0
LINE
  8
0
 10
-43.752193450927734
 20
-0.17792963981628418
 30
-3.337860107421875e-06
 11
-44.57760238647461
 21
-1.0334372520446777
 31
-4.291534423828125e-06
  0
LINE
  8
0
 10
-36.91649627685547
 20
4.018523216247559
 30
-1.430511474609375e-06
 11
-36.28167724609375
 21
4.25900411605835
 31
-2.384185791015625e-06
  0
LINE
  8
0
 10
-36.28167724609375
 20
4.25900411605835
 30
-2.384185791015625e-06
 11
-35.628700256347656
 21
4.493080139160156
 31
-2.384185791015625e-06
  0
LINE
  8
0
 10
-49.35390090942383
 20
-9.217336654663086
 30
-2.86102294921875e-06
 11
-49.1386604309082
 21
-8.521285057067871
 31
-3.814697265625e-06
  0
LINE
  8
0
 10
-41.75023651123047
 20
1.4792826175689697
 30
-2.384185791015625e-06
 11
-42.3090934753418
 21
1.0739003419876099
 31
-2.384185791015625e-06
  0
LINE
  8
0
 10
-49.1386604309082
 20
-8.521285057067871
 30
-3.814697265625e-06
 11
-48.72795104980469
 21
-7.441854476928711
 31
-2.384185791015625e-06
  0
LINE
  8
0
 10
-43.00822067260742
 20
0.48142528533935547
 30
-2.384185791015625e-06
 11
-42.3090934753418
 21
1.0739003419876099
 31
-2.384185791015625e-06
  0
LINE
  8
0
 10
-35.628700256347656
 20
4.493080139160156
 30
-2.384185791015625e-06
 11
-34.98234558105469
 21
4.711987495422363
 31
-2.86102294921875e-06
  0
LINE
  8
0
 10
-46.241275787353516
 20
-3.058896541595459
 30
-2.384185791015625e-06
 11
-46.98042678833008
 21
-4.134504318237305
 31
-3.337860107421875e-06
  0
LINE
  8
0
 10
-48.23069763183594
 20
-6.34743595123291
 30
-2.86102294921875e-06
 11
-48.72795104980469
 21
-7.441854476928711
 31
-2.384185791015625e-06
  0
LINE
  8
0
 10
-30.936864852905273
 20
-34.140235900878906
 30
-2.652406692504883e-06
 11
-32.58919906616211
 21
-33.58759307861328
 31
-3.56137752532959e-06
  0
LINE
  8
0
 10
-34.182254791259766
 20
-33.0063362121582
 30
-3.1888484954833984e-06
 11
-32.58919906616211
 21
-33.58759307861328
 31
-3.56137752532959e-06
  0
LINE
  8
0
 10
-38.68474197387695
 20
3.277096748352051
 30
-3.337860107421875e-06
 11
-39.171226501464844
 21
3.045375108718872
 31
-1.9073486328125e-06
  0
LINE
  8
0
 10
-39.7445068359375
 20
-30.440677642822266
 30
-4.112720489501953e-06
 11
-40.9193229675293
 21
-29.725357055664062
 31
-4.351139068603516e-06
  0
LINE
  8
0
 10
-38.48507308959961
 20
-31.122987747192383
 30
-2.7418136596679688e-06
 11
-39.7445068359375
 21
-30.440677642822266
 31
-4.112720489501953e-06
  0
LINE
  8
0
 10
-38.13140106201172
 20
3.520808219909668
 30
-2.384185791015625e-06
 11
-38.68474197387695
 21
3.277096748352051
 31
-3.337860107421875e-06
  0
LINE
  8
0
 10
-39.658424377441406
 20
2.7909021377563477
 30
-2.86102294921875e-06
 11
-39.171226501464844
 21
3.045375108718872
 31
-1.9073486328125e-06
  0
LINE
  8
0
 10
-42.01216125488281
 20
-28.97665786743164
 30
-2.86102294921875e-06
 11
-40.9193229675293
 21
-29.725357055664062
 31
-4.351139068603516e-06
  0
LINE
  8
0
 10
-27.541133880615234
 20
-35.112709045410156
 30
-4.105269908905029e-06
 11
-25.9249324798584
 21
-35.43433380126953
 31
-1.8998980522155762e-06
  0
LINE
  8
0
 10
-29.423141479492188
 20
6.0959601402282715
 30
-9.5367431640625e-06
 11
-28.688392639160156
 21
6.220489978790283
 31
-1.1444091796875e-05
  0
LINE
  8
0
 10
-29.423141479492188
 20
6.0959601402282715
 30
-9.5367431640625e-06
 11
-30.150354385375977
 21
5.96229887008667
 31
-1.1444091796875e-05
  0
LINE
  8
0
 10
-28.688392639160156
 20
6.220489978790283
 30
-1.1444091796875e-05
 11
-27.9228458404541
 21
6.337000370025635
 31
-9.5367431640625e-06
  0
LINE
  8
0
 10
-26.220657348632812
 20
6.554179668426514
 30
-1.0967254638671875e-05
 11
-27.10519790649414
 21
6.447523593902588
 31
-1.1920928955078125e-05
  0
LINE
  8
0
 10
-32.16397476196289
 20
5.507312774658203
 30
-1.0967254638671875e-05
 11
-31.466428756713867
 21
5.682048797607422
 31
-1.239776611328125e-05
  0
LINE
  8
0
 10
-23.227397918701172
 20
6.809348106384277
 30
-1.049041748046875e-05
 11
-24.290624618530273
 21
6.745929718017578
 31
-1.0967254638671875e-05
  0
LINE
  8
0
 10
-31.466428756713867
 20
5.682048797607422
 30
-1.239776611328125e-05
 11
-30.819974899291992
 21
5.833775997161865
 31
-1.0013580322265625e-05
  0
LINE
  8
0
 10
-30.150354385375977
 20
5.96229887008667
 30
-1.1444091796875e-05
 11
-30.819974899291992
 21
5.833775997161865
 31
-1.0013580322265625e-05
  0
LINE
  8
0
 10
-33.57076644897461
 20
5.12154483795166
 30
-1.1920928955078125e-05
 11
-34.29606246948242
 21
4.906414985656738
 31
-1.1920928955078125e-05
  0
LINE
  8
0
 10
-33.57076644897461
 20
5.12154483795166
 30
-1.1920928955078125e-05
 11
-32.866024017333984
 21
5.320322036743164
 31
-1.1920928955078125e-05
  0
LINE
  8
0
 10
-27.9228458404541
 20
6.337000370025635
 30
-9.5367431640625e-06
 11
-27.10519790649414
 21
6.447523593902588
 31
-1.1920928955078125e-05
  0
LINE
  8
0
 10
-32.16397476196289
 20
5.507312774658203
 30
-1.0967254638671875e-05
 11
-32.866024017333984
 21
5.320322036743164
 31
-1.1920928955078125e-05
  0
LINE
  8
0
 10
-26.220657348632812
 20
6.554179668426514
 30
-1.0967254638671875e-05
 11
-25.27982521057129
 21
6.6567606925964355
 31
-1.1444091796875e-05
  0
LINE
  8
0
 10
-24.290624618530273
 20
6.745929718017578
 30
-1.0967254638671875e-05
 11
-25.27982521057129
 21
6.6567606925964355
 31
-1.1444091796875e-05
  0
LINE
  8
0
 10
-34.98234558105469
 20
4.711987495422363
 30
-2.86102294921875e-06
 11
-34.29606246948242
 21
4.906414985656738
 31
-1.1920928955078125e-05
  0
LINE
  8
0
 10
-23.227397918701172
 20
6.809348106384277
 30
-1.049041748046875e-05
 11
-22.08417320251465
 21
6.8456807136535645
 31
-5.245208740234375e-06
  0
LINE
  8
0
 10
-51.743465423583984
 20
-18.53230857849121
 30
-3.814697265625e-06
 11
-51.743465423583984
 21
-15.552308082580566
 31
-5.245208740234375e-06
  0
LINE
  8
0
 10
-43.573463439941406
 20
-18.53230857849121
 30
-3.814697265625e-06
 11
-46.29679870605469
 21
-18.53230857849121
 31
-3.814697265625e-06
  0
LINE
  8
0
 10
-43.573463439941406
 20
-9.592306137084961
 30
-4.291534423828125e-06
 11
-43.573463439941406
 21
-12.572307586669922
 31
-4.76837158203125e-06
  0
LINE
  8
0
 10
-51.743465423583984
 20
-9.592306137084961
 30
-4.291534423828125e-06
 11
-49.02013397216797
 21
-9.592306137084961
 31
-4.291534423828125e-06
  0
LINE
  8
0
 10
-27.799489974975586
 20
-9.799884796142578
 30
-2.86102294921875e-06
 11
-27.799489974975586
 21
-5.933219909667969
 31
-3.337860107421875e-06
  0
LINE
  8
0
 10
-22.199491500854492
 20
-9.799884796142578
 30
-2.86102294921875e-06
 11
-24.066158294677734
 21
-9.799884796142578
 31
-2.86102294921875e-06
  0
LINE
  8
0
 10
-22.199491500854492
 20
1.8001147508621216
 30
-1.9073486328125e-06
 11
-22.199491500854492
 21
-2.0665526390075684
 31
-1.430511474609375e-06
  0
LINE
  8
0
 10
-27.799489974975586
 20
1.8001147508621216
 30
-1.9073486328125e-06
 11
-25.932823181152344
 21
1.8001147508621216
 31
-1.9073486328125e-06
  0
LINE
  8
0
 10
-29.796804428100586
 20
-24.15734100341797
 30
-2.384185791015625e-06
 11
-29.796804428100586
 21
-22.290672302246094
 31
-1.430511474609375e-06
  0
LINE
  8
0
 10
-22.196805953979492
 20
-24.15734100341797
 30
-2.384185791015625e-06
 11
-24.730138778686523
 21
-24.15734100341797
 31
-2.384185791015625e-06
  0
LINE
  8
0
 10
-22.196805953979492
 20
-18.55733871459961
 30
-1.430511474609375e-06
 11
-22.196805953979492
 21
-20.424007415771484
 31
-1.430511474609375e-06
  0
LINE
  8
0
 10
-29.796804428100586
 20
-18.55733871459961
 30
-1.430511474609375e-06
 11
-27.263471603393555
 21
-18.55733871459961
 31
-1.430511474609375e-06
  0
LINE
  8
0
 10
-51.743465423583984
 20
-9.592306137084961
 30
-4.291534423828125e-06
 11
-51.743465423583984
 21
-12.572307586669922
 31
-4.76837158203125e-06
  0
LINE
  8
0
 10
-51.743465423583984
 20
-18.53230857849121
 30
-3.814697265625e-06
 11
-49.0201301574707
 21
-18.53230857849121
 31
-3.814697265625e-06
  0
LINE
  8
0
 10
-43.573463439941406
 20
-18.53230857849121
 30
-3.814697265625e-06
 11
-43.573463439941406
 21
-15.552308082580566
 31
-4.291534423828125e-06
  0
LINE
  8
0
 10
-43.573463439941406
 20
-9.592306137084961
 30
-4.291534423828125e-06
 11
-46.29679870605469
 21
-9.592306137084961
 31
-4.291534423828125e-06
  0
LINE
  8
0
 10
-27.799489974975586
 20
1.8001147508621216
 30
-1.9073486328125e-06
 11
-27.799489974975586
 21
-2.0665526390075684
 31
-2.384185791015625e-06
  0
LINE
  8
0
 10
-27.799489974975586
 20
-9.799884796142578
 30
-2.86102294921875e-06
 11
-25.932823181152344
 21
-9.799884796142578
 31
-2.86102294921875e-06
  0
LINE
  8
0
 10
-22.199491500854492
 20
-9.799884796142578
 30
-2.86102294921875e-06
 11
-22.199491500854492
 21
-5.933219909667969
 31
-2.384185791015625e-06
  0
LINE
  8
0
 10
-22.199491500854492
 20
1.8001147508621216
 30
-1.9073486328125e-06
 11
-24.066158294677734
 21
1.8001147508621216
 31
-1.9073486328125e-06
  0
LINE
  8
0
 10
-29.796804428100586
 20
-18.55733871459961
 30
-1.430511474609375e-06
 11
-29.796804428100586
 21
-20.424007415771484
 31
-1.430511474609375e-06
  0
LINE
  8
0
 10
-29.796804428100586
 20
-24.15734100341797
 30
-2.384185791015625e-06
 11
-27.263471603393555
 21
-24.15734100341797
 31
-2.384185791015625e-06
  0
LINE
  8
0
 10
-22.196805953979492
 20
-24.15734100341797
 30
-2.384185791015625e-06
 11
-22.196805953979492
 21
-22.290672302246094
 31
-1.430511474609375e-06
  0
LINE
  8
0
 10
-22.196805953979492
 20
-18.55733871459961
 30
-1.430511474609375e-06
 11
-24.730138778686523
 21
-18.55733871459961
 31
-1.430511474609375e-06
  0
LINE
  8
0
 10
-25.9249324798584
 20
-35.43433380126953
 30
-1.8998980522155762e-06
 11
-23.209938049316406
 21
-35.434326171875
 31
-9.5367431640625e-07
  0
LINE
  8
0
 10
-38.02531433105469
 20
4.975477695465088
 30
-2.86102294921875e-06
 11
-38.64522933959961
 21
4.715002536773682
 31
-2.384185791015625e-06
  0
LINE
  8
0
 10
-41.88559341430664
 20
2.9698691368103027
 30
-2.86102294921875e-06
 11
-42.50381851196289
 21
2.538646697998047
 31
-3.337860107421875e-06
  0
LINE
  8
0
 10
-41.88559341430664
 20
2.9698691368103027
 30
-2.86102294921875e-06
 11
-41.32541275024414
 21
3.3339385986328125
 31
-2.384185791015625e-06
  0
LINE
  8
0
 10
-47.29124069213867
 20
-2.2914295196533203
 30
-2.86102294921875e-06
 11
-46.436424255371094
 21
-1.190709114074707
 31
-2.86102294921875e-06
  0
LINE
  8
0
 10
-38.02531433105469
 20
4.975477695465088
 30
-2.86102294921875e-06
 11
-37.38792037963867
 21
5.230091094970703
 31
-1.9073486328125e-06
  0
LINE
  8
0
 10
-36.20252227783203
 20
-33.602012634277344
 30
-4.32133674621582e-06
 11
-34.64531707763672
 21
-34.22120666503906
 31
-2.771615982055664e-06
  0
LINE
  8
0
 10
-36.20252227783203
 20
-33.602012634277344
 30
-4.32133674621582e-06
 11
-37.68146896362305
 21
-32.95647048950195
 31
-3.159046173095703e-06
  0
LINE
  8
0
 10
-43.847415924072266
 20
-29.203805923461914
 30
-3.5762786865234375e-06
 11
-42.77682113647461
 21
-30.028614044189453
 31
-2.2649765014648438e-06
  0
LINE
  8
0
 10
-29.591358184814453
 20
-35.906333923339844
 30
-1.7285346984863281e-06
 11
-31.331623077392578
 21
-35.378990173339844
 31
-2.346932888031006e-06
  0
LINE
  8
0
 10
-29.591358184814453
 20
-35.906333923339844
 30
-1.7285346984863281e-06
 11
-27.837543487548828
 21
-36.379215240478516
 31
-3.635883331298828e-06
  0
LINE
  8
0
 10
-37.68146896362305
 20
-32.95647048950195
 30
-3.159046173095703e-06
 11
-39.078277587890625
 21
-32.28013229370117
 31
-2.9206275939941406e-06
  0
LINE
  8
0
 10
-43.859683990478516
 20
1.4638835191726685
 30
-2.86102294921875e-06
 11
-44.652462005615234
 21
0.7612682580947876
 31
-3.814697265625e-06
  0
LINE
  8
0
 10
-40.79931640625
 20
3.647418975830078
 30
-2.384185791015625e-06
 11
-40.272369384765625
 21
3.936877727508545
 31
-2.86102294921875e-06
  0
LINE
  8
0
 10
-41.32541275024414
 20
3.3339385986328125
 30
-2.384185791015625e-06
 11
-40.79931640625
 21
3.647418975830078
 31
-2.384185791015625e-06
  0
LINE
  8
0
 10
-46.436424255371094
 20
-1.190709114074707
 30
-2.86102294921875e-06
 11
-45.53668975830078
 21
-0.15519464015960693
 31
-3.814697265625e-06
  0
LINE
  8
0
 10
-48.77549743652344
 20
-4.597944259643555
 30
-2.384185791015625e-06
 11
-48.074310302734375
 21
-3.4309468269348145
 31
-3.337860107421875e-06
  0
LINE
  8
0
 10
-48.77549743652344
 20
-4.597944259643555
 30
-2.384185791015625e-06
 11
-49.39801788330078
 21
-5.773931980133057
 31
-2.384185791015625e-06
  0
LINE
  8
0
 10
-44.652462005615234
 20
0.7612682580947876
 30
-3.814697265625e-06
 11
-45.53668975830078
 21
-0.15519464015960693
 31
-3.814697265625e-06
  0
LINE
  8
0
 10
-37.38792037963867
 20
5.230091094970703
 30
-1.9073486328125e-06
 11
-36.731319427490234
 21
5.478819370269775
 31
-1.430511474609375e-06
  0
LINE
  8
0
 10
-36.731319427490234
 20
5.478819370269775
 30
-1.430511474609375e-06
 11
-36.056583404541016
 21
5.720700263977051
 31
-2.86102294921875e-06
  0
LINE
  8
0
 10
-50.714637756347656
 20
-9.217336654663086
 30
-2.86102294921875e-06
 11
-50.368404388427734
 21
-8.097674369812012
 31
-3.337860107421875e-06
  0
LINE
  8
0
 10
-42.50381851196289
 20
2.538646697998047
 30
-3.337860107421875e-06
 11
-43.11212921142578
 21
2.0973944664001465
 31
-2.86102294921875e-06
  0
LINE
  8
0
 10
-50.368404388427734
 20
-8.097674369812012
 30
-3.337860107421875e-06
 11
-49.928428649902344
 21
-6.941332817077637
 31
-2.86102294921875e-06
  0
LINE
  8
0
 10
-43.859683990478516
 20
1.4638835191726685
 30
-2.86102294921875e-06
 11
-43.11212921142578
 21
2.0973944664001465
 31
-2.86102294921875e-06
  0
LINE
  8
0
 10
-36.056583404541016
 20
5.720700263977051
 30
-2.86102294921875e-06
 11
-35.36827087402344
 21
5.953814506530762
 31
-3.337860107421875e-06
  0
LINE
  8
0
 10
-47.29124069213867
 20
-2.2914295196533203
 30
-2.86102294921875e-06
 11
-48.074310302734375
 21
-3.4309468269348145
 31
-3.337860107421875e-06
  0
LINE
  8
0
 10
-49.39801788330078
 20
-5.773931980133057
 30
-2.384185791015625e-06
 11
-49.928428649902344
 21
-6.941332817077637
 31
-2.86102294921875e-06
  0
LINE
  8
0
 10
-31.331623077392578
 20
-35.378990173339844
 30
-2.346932888031006e-06
 11
-33.01824951171875
 21
-34.814876556396484
 31
-2.551823854446411e-06
  0
LINE
  8
0
 10
-34.64531707763672
 20
-34.22120666503906
 30
-2.771615982055664e-06
 11
-33.01824951171875
 21
-34.814876556396484
 31
-2.551823854446411e-06
  0
LINE
  8
0
 10
-39.226375579833984
 20
4.459043979644775
 30
-3.814697265625e-06
 11
-39.75186538696289
 21
4.208747863769531
 31
-1.9073486328125e-06
  0
LINE
  8
0
 10
-40.39258575439453
 20
-31.568096160888672
 30
-3.7848949432373047e-06
 11
-41.625240325927734
 21
-30.817556381225586
 31
-3.7550926208496094e-06
  0
LINE
  8
0
 10
-39.078277587890625
 20
-32.28013229370117
 30
-2.9206275939941406e-06
 11
-40.39258575439453
 21
-31.568096160888672
 31
-3.7848949432373047e-06
  0
LINE
  8
0
 10
-38.64522933959961
 20
4.715002536773682
 30
-2.384185791015625e-06
 11
-39.226375579833984
 21
4.459043979644775
 31
-3.814697265625e-06
  0
LINE
  8
0
 10
-40.272369384765625
 20
3.936877727508545
 30
-2.86102294921875e-06
 11
-39.75186538696289
 21
4.208747863769531
 31
-1.9073486328125e-06
  0
LINE
  8
0
 10
-42.77682113647461
 20
-30.028614044189453
 30
-2.2649765014648438e-06
 11
-41.625240325927734
 21
-30.817556381225586
 31
-3.7550926208496094e-06
  0
LINE
  8
0
 10
-27.837543487548828
 20
-36.379215240478516
 30
-3.635883331298828e-06
 11
-26.053024291992188
 21
-36.73433303833008
 31
-1.7583370208740234e-06
  0
LINE
  8
0
 10
-50.749324798583984
 20
-18.904949188232422
 30
-2.86102294921875e-06
 11
-50.714637756347656
 21
-9.217336654663086
 31
-2.86102294921875e-06
  0
LINE
  8
0
 10
-29.64927101135254
 20
7.376175403594971
 30
-9.5367431640625e-06
 11
-28.894821166992188
 21
7.504040718078613
 31
-1.1444091796875e-05
  0
LINE
  8
0
 10
-29.64927101135254
 20
7.376175403594971
 30
-9.5367431640625e-06
 11
-30.390382766723633
 21
7.239956855773926
 31
-1.0967254638671875e-05
  0
LINE
  8
0
 10
-28.894821166992188
 20
7.504040718078613
 30
-1.1444091796875e-05
 11
-28.107728958129883
 21
7.623831748962402
 31
-1.0013580322265625e-05
  0
LINE
  8
0
 10
-26.368927001953125
 20
7.845719337463379
 30
-1.0967254638671875e-05
 11
-27.270092010498047
 21
7.737061023712158
 31
-1.239776611328125e-05
  0
LINE
  8
0
 10
-32.48923110961914
 20
6.766005516052246
 30
-1.1444091796875e-05
 11
-31.772911071777344
 21
6.945441246032715
 31
-1.1444091796875e-05
  0
LINE
  8
0
 10
-23.286758422851562
 20
8.108118057250977
 30
-1.0013580322265625e-05
 11
-24.38770294189453
 21
8.042450904846191
 31
-1.1444091796875e-05
  0
LINE
  8
0
 10
-31.772911071777344
 20
6.945441246032715
 30
-1.1444091796875e-05
 11
-31.09113311767578
 21
7.105458736419678
 31
-9.5367431640625e-06
  0
LINE
  8
0
 10
-30.390382766723633
 20
7.239956855773926
 30
-1.0967254638671875e-05
 11
-31.09113311767578
 21
7.105458736419678
 31
-9.5367431640625e-06
  0
LINE
  8
0
 10
-33.932071685791016
 20
6.370355606079102
 30
-1.1920928955078125e-05
 11
-34.65808868408203
 21
6.155014514923096
 31
-1.1920928955078125e-05
  0
LINE
  8
0
 10
-33.932071685791016
 20
6.370355606079102
 30
-1.1920928955078125e-05
 11
-33.20979309082031
 21
6.57408332824707
 31
-1.239776611328125e-05
  0
LINE
  8
0
 10
-28.107728958129883
 20
7.623831748962402
 30
-1.0013580322265625e-05
 11
-27.270092010498047
 21
7.737061023712158
 31
-1.239776611328125e-05
  0
LINE
  8
0
 10
-32.48923110961914
 20
6.766005516052246
 30
-1.1444091796875e-05
 11
-33.20979309082031
 21
6.57408332824707
 31
-1.239776611328125e-05
  0
LINE
  8
0
 10
-26.368927001953125
 20
7.845719337463379
 30
-1.0967254638671875e-05
 11
-25.408645629882812
 21
7.950423717498779
 31
-1.239776611328125e-05
  0
LINE
  8
0
 10
-24.38770294189453
 20
8.042450904846191
 30
-1.1444091796875e-05
 11
-25.408645629882812
 21
7.950423717498779
 31
-1.239776611328125e-05
  0
LINE
  8
0
 10
-35.36827087402344
 20
5.953814506530762
 30
-3.337860107421875e-06
 11
-34.65808868408203
 21
6.155014514923096
 31
-1.1920928955078125e-05
  0
LINE
  8
0
 10
-23.286758422851562
 20
8.108118057250977
 30
-1.0013580322265625e-05
 11
-22.108837127685547
 21
8.145557403564453
 31
-5.7220458984375e-06
  0
LINE
  8
0
 10
-50.749324798583984
 20
-18.904949188232422
 30
-2.86102294921875e-06
 11
-43.847415924072266
 21
-18.904949188232422
 31
-3.814697265625e-06
  0
LINE
  8
0
 10
-43.847415924072266
 20
-29.203805923461914
 30
-3.5762786865234375e-06
 11
-43.847415924072266
 21
-18.904949188232422
 31
-3.814697265625e-06
  0
LINE
  8
0
 10
-21.200000762939453
 20
-36.73432159423828
 30
-1.6093254089355469e-06
 11
-21.200000762939453
 21
8.151164054870605
 31
-6.198883056640625e-06
  0
LINE
  8
0
 10
-26.053024291992188
 20
-36.73433303833008
 30
-1.7583370208740234e-06
 11
-21.200000762939453
 21
-36.73432159423828
 31
-1.6093254089355469e-06
  0
LINE
  8
0
 10
-22.108837127685547
 20
8.145557403564453
 30
-5.7220458984375e-06
 11
-21.200000762939453
 21
8.151164054870605
 31
-6.198883056640625e-06
  0
LINE
  8
0
 10
-49.35390090942383
 20
-9.217336654663086
 30
-2.86102294921875e-06
 11
-51.46866989135742
 21
-9.217336654663086
 31
-2.86102294921875e-06
  0
LINE
  8
0
 10
-22.08417320251465
 20
6.8456807136535645
 30
-5.245208740234375e-06
 11
-20.240278244018555
 21
6.862593173980713
 31
-4.291534423828125e-06
  0
LINE
  8
0
 10
-23.209938049316406
 20
-35.434326171875
 30
-9.5367431640625e-07
 11
-23.009937286376953
 21
-39.87403869628906
 31
-8.344650268554688e-07
  0
ENDSEC
  0
EOF
