  0
SECTION
  2
HEADER
  9
$ACADVER
  1
AC1009
  9
$INSBASE
 10
0.0
 20
0.0
 30
0.0
  9
$EXTMIN
 10
0.0
 20
0.0
 30
0.0
  9
$EXTMAX
 10
0.0
 20
0.0
 30
0.0
  0
ENDSEC
  0
SECTION
  2
TABLES
  0
TABLE
  2
VPORT
 70
1
  0
VPORT
  2
*ACTIVE
 70
0
 10
0.0
 20
0.0
 11
1.0
 21
1.0
 12
-5.0
 22
1.0
 13
0.0
 23
0.0
 14
0.1
 24
0.1
 15
0.1
 25
0.1
 16
0.0
 26
0.0
 36
1.0
 17
0.0
 27
0.0
 37
0.0
 40
10.0
 41
1.0
 42
50.0
 43
0.0
 44
0.0
 50
0.0
 51
0.0
 71
0
 72
100
 73
1
 74
1
 75
0
 76
0
 77
0
 78
0
  0
ENDTAB
  0
TABLE
  2
LTYPE
 70
8
  0
LTYPE
  2
CONTINUOUS
 70
0
  3
Solid line
 72
65
 73
0
 40
0.0
  0
LTYPE
  2
DOT
 70
0
  3
. . . . . . .
 72
65
 73
2
 40
0.25
 49
0.0
 49
-0.25
  0
LTYPE
  2
DASHED
 70
0
  3
__ __ __ __ __
 72
65
 73
2
 40
0.8
 49
0.5
 49
-0.3
  0
LTYPE
  2
DASHDOT
 70
0
  3
__ . __ . __ .
 72
65
 73
4
 40
1.0
 49
0.5
 49
-0.25
 49
0.0
 49
-0.25
  0
LTYPE
  2
DIVIDE
 70
0
  3
____ . . ____ . . 
 72
65
 73
6
 40
1.25
 49
0.5
 49
-0.25
 49
0.0
 49
-0.25
 49
0.0
 49
-0.25
  0
LTYPE
  2
BORDER
 70
0
  3
__ __ . __ __ . 
 72
65
 73
6
 40
1.75
 49
0.5
 49
-0.25
 49
0.5
 49
-0.25
 49
0.0
 49
-0.25
  0
LTYPE
  2
HIDDEN
 70
0
  3
__ __ __ __ __
 72
65
 73
2
 40
0.4
 49
0.25
 49
-0.25
  0
LTYPE
  2
CENTER
 70
0
  3
____ _ ____ _ __
 72
65
 73
4
 40
2.0
 49
1.25
 49
-0.25
 49
0.25
 49
-0.25
  0
ENDTAB
  0
TABLE
  2
LAYER
 70
1
  0
LAYER
  2
PYDXF
 70
64
 62
7
  6
continuous
  0
ENDTAB
  0
TABLE
  2
STYLE
 70
1
  0
STYLE
  2
STANDARD
 70
0
 40
0
 41
1.0
 50
0.0
 71
0
 42
1
 3
ARIAL.TTF
 4

  0
ENDTAB
  0
TABLE
  2
VIEW
 70
1
  0
VIEW
  2
BF_TOPVIEW
 70
0
 40
120.0
 10
0.0
 20
0.0
 41
200.0
 11
0.0
 21
0.0
 31
1.0
 12
0.0
 22
0.0
 32
0.0
 42
50.0
 43
0.0
 44
0.0
 50
0.0
 71
0
  0
ENDTAB
  0
ENDSEC
  0
SECTION
  2
BLOCKS
  0
ENDSEC
  0
SECTION
  2
ENTITIES
  0
LINE
  8
0
 10
-11.652462005615234
 20
13.761265754699707
 30
-5.245208740234375e-06
 11
-17.714637756347656
 21
3.7826597690582275
 31
-3.6954879760742188e-06
  0
LINE
  8
0
 10
-18.743465423583984
 20
-5.53231143951416
 30
-4.231929779052734e-06
 11
-18.743465423583984
 21
-2.552311420440674
 31
-5.081295967102051e-06
  0
LINE
  8
0
 10
-10.573463439941406
 20
-5.53231143951416
 30
-4.231929779052734e-06
 11
-13.296798706054688
 21
-5.53231143951416
 31
-4.231929779052734e-06
  0
LINE
  8
0
 10
-10.573463439941406
 20
3.407689094543457
 30
-4.887580871582031e-06
 11
-10.573463439941406
 21
0.42768898606300354
 31
-4.976987838745117e-06
  0
LINE
  8
0
 10
-18.743465423583984
 20
3.407689094543457
 30
-4.887580871582031e-06
 11
-16.02013397216797
 21
3.407689094543457
 31
-4.887580871582031e-06
  0
LINE
  8
0
 10
10.800000190734863
 20
-13.535000801086426
 30
-1.1920928955078125e-07
 11
8.733333587646484
 21
-13.535000801086426
 31
-1.1920928955078125e-07
  0
LINE
  8
0
 10
4.600000381469727
 20
-0.6100003123283386
 30
0.0
 11
6.6666669845581055
 21
-0.6100003123283386
 31
0.0
  0
LINE
  8
0
 10
1.203195571899414
 20
8.342658042907715
 30
-1.5497207641601562e-06
 11
1.203195571899414
 21
10.209324836730957
 31
-1.430511474609375e-06
  0
LINE
  8
0
 10
8.803194046020508
 20
8.342658042907715
 30
-1.5497207641601562e-06
 11
6.269861221313477
 21
8.342658042907715
 31
-1.5497207641601562e-06
  0
LINE
  8
0
 10
8.803194046020508
 20
13.942658424377441
 30
-1.1920928955078125e-06
 11
8.803194046020508
 21
12.0759916305542
 31
-1.430511474609375e-06
  0
LINE
  8
0
 10
1.203195571899414
 20
13.942658424377441
 30
-1.1920928955078125e-06
 11
3.7365283966064453
 21
13.942658424377441
 31
-1.1920928955078125e-06
  0
LINE
  8
0
 10
-18.743465423583984
 20
3.407689094543457
 30
-4.887580871582031e-06
 11
-18.743465423583984
 21
0.42768898606300354
 31
-4.976987838745117e-06
  0
LINE
  8
0
 10
-18.743465423583984
 20
-5.53231143951416
 30
-4.231929779052734e-06
 11
-16.020130157470703
 21
-5.53231143951416
 31
-4.231929779052734e-06
  0
LINE
  8
0
 10
-10.573463439941406
 20
-5.53231143951416
 30
-4.231929779052734e-06
 11
-10.573463439941406
 21
-2.552311420440674
 31
-4.127621650695801e-06
  0
LINE
  8
0
 10
-10.573463439941406
 20
3.407689094543457
 30
-4.887580871582031e-06
 11
-13.296798706054688
 21
3.407689094543457
 31
-4.887580871582031e-06
  0
LINE
  8
0
 10
10.800000190734863
 20
-0.035000335425138474
 30
0.0
 11
10.800000190734863
 21
-2.000000238418579
 31
-1.4901161193847656e-08
  0
LINE
  8
0
 10
4.600000381469727
 20
-0.6100003123283386
 30
0.0
 11
4.600000381469727
 21
-12.960000991821289
 31
-1.1920928955078125e-07
  0
LINE
  8
0
 10
1.203195571899414
 20
13.942658424377441
 30
-1.1920928955078125e-06
 11
1.203195571899414
 21
12.0759916305542
 31
-1.430511474609375e-06
  0
LINE
  8
0
 10
1.203195571899414
 20
8.342658042907715
 30
-1.5497207641601562e-06
 11
3.7365283966064453
 21
8.342658042907715
 31
-1.5497207641601562e-06
  0
LINE
  8
0
 10
8.803194046020508
 20
8.342658042907715
 30
-1.5497207641601562e-06
 11
8.803194046020508
 21
10.209324836730957
 31
-1.430511474609375e-06
  0
LINE
  8
0
 10
8.803194046020508
 20
13.942658424377441
 30
-1.1920928955078125e-06
 11
6.269861221313477
 21
13.942658424377441
 31
-1.1920928955078125e-06
  0
LINE
  8
0
 10
5.162456512451172
 20
-23.37921714782715
 30
-2.6226043701171875e-06
 11
9.162456512451172
 21
-19.37921714782715
 31
-2.86102294921875e-06
  0
LINE
  8
0
 10
-17.749324798583984
 20
-5.904951572418213
 30
-2.8014183044433594e-06
 11
-17.714637756347656
 21
3.7826597690582275
 31
-3.6954879760742188e-06
  0
LINE
  8
0
 10
-10.847415924072266
 20
-16.20380973815918
 30
-3.0994415283203125e-06
 11
5.162456512451172
 21
-23.37921714782715
 31
-2.6226043701171875e-06
  0
LINE
  8
0
 10
17.000003814697266
 20
21.000001907348633
 30
-7.62939453125e-06
 11
10.0
 21
21.000001907348633
 31
-3.814697265625e-06
  0
LINE
  8
0
 10
-17.749324798583984
 20
-5.904951572418213
 30
-2.8014183044433594e-06
 11
-10.847415924072266
 21
-5.904952049255371
 31
-3.7550926208496094e-06
  0
LINE
  8
0
 10
-10.847415924072266
 20
-16.20380973815918
 30
-3.0994415283203125e-06
 11
-10.847415924072266
 21
-5.904952049255371
 31
-3.7550926208496094e-06
  0
LINE
  8
0
 10
17.000003814697266
 20
-19.37921714782715
 30
-2.1457672119140625e-06
 11
17.000003814697266
 21
21.000001907348633
 31
-7.62939453125e-06
  0
LINE
  8
0
 10
4.600000381469727
 20
-12.960000991821289
 30
-1.1920928955078125e-07
 11
6.6666669845581055
 21
-12.960000991821289
 31
-1.1920928955078125e-07
  0
LINE
  8
0
 10
10.800000190734863
 20
-0.035000335425138474
 30
0.0
 11
8.733333587646484
 21
-0.035000335425138474
 31
0.0
  0
LINE
  8
0
 10
10.800000190734863
 20
-13.535000801086426
 30
-1.1920928955078125e-07
 11
10.800000190734863
 21
-11.570000648498535
 31
-1.1920928955078125e-07
  0
LINE
  8
0
 10
10.0
 20
15.000001907348633
 30
-2.384185791015625e-07
 11
10.0
 21
17.333335876464844
 31
-4.76837158203125e-07
  0
LINE
  8
0
 10
17.000003814697266
 20
15.000001907348633
 30
-2.384185791015625e-07
 11
14.666664123535156
 21
15.000001907348633
 31
-2.384185791015625e-07
  0
LINE
  8
0
 10
17.0
 20
22.000001907348633
 30
-2.384185791015625e-07
 11
17.0
 21
19.666667938232422
 31
-2.384185791015625e-07
  0
LINE
  8
0
 10
10.0
 20
22.000001907348633
 30
-2.384185791015625e-07
 11
12.333335876464844
 21
22.000001907348633
 31
-2.384185791015625e-07
  0
LINE
  8
0
 10
10.0
 20
22.000001907348633
 30
-2.384185791015625e-07
 11
10.0
 21
19.666667938232422
 31
-2.384185791015625e-07
  0
LINE
  8
0
 10
10.0
 20
15.000001907348633
 30
-2.384185791015625e-07
 11
12.333332061767578
 21
15.000001907348633
 31
-2.384185791015625e-07
  0
LINE
  8
0
 10
17.000003814697266
 20
15.000001907348633
 30
-2.384185791015625e-07
 11
17.0
 21
17.333335876464844
 31
-4.76837158203125e-07
  0
LINE
  8
0
 10
17.0
 20
22.000001907348633
 30
-2.384185791015625e-07
 11
14.666667938232422
 21
22.000001907348633
 31
-2.384185791015625e-07
  0
LINE
  8
0
 10
-11.652462005615234
 20
13.761265754699707
 30
-5.245208740234375e-06
 11
10.0
 21
21.000001907348633
 31
-3.814697265625e-06
  0
LINE
  8
0
 10
9.162456512451172
 20
-19.37921714782715
 30
-2.86102294921875e-06
 11
17.000003814697266
 21
-19.37921714782715
 31
-2.1457672119140625e-06
  0
ENDSEC
  0
EOF
