  0
SECTION
  2
HEADER
  9
$ACADVER
  1
AC1009
  9
$INSBASE
 10
0.0
 20
0.0
 30
0.0
  9
$EXTMIN
 10
0.0
 20
0.0
 30
0.0
  9
$EXTMAX
 10
0.0
 20
0.0
 30
0.0
  0
ENDSEC
  0
SECTION
  2
TABLES
  0
TABLE
  2
VPORT
 70
1
  0
VPORT
  2
*ACTIVE
 70
0
 10
0.0
 20
0.0
 11
1.0
 21
1.0
 12
-5.0
 22
1.0
 13
0.0
 23
0.0
 14
0.1
 24
0.1
 15
0.1
 25
0.1
 16
0.0
 26
0.0
 36
1.0
 17
0.0
 27
0.0
 37
0.0
 40
10.0
 41
1.0
 42
50.0
 43
0.0
 44
0.0
 50
0.0
 51
0.0
 71
0
 72
100
 73
1
 74
1
 75
0
 76
0
 77
0
 78
0
  0
ENDTAB
  0
TABLE
  2
LTYPE
 70
8
  0
LTYPE
  2
CONTINUOUS
 70
0
  3
Solid line
 72
65
 73
0
 40
0.0
  0
LTYPE
  2
DOT
 70
0
  3
. . . . . . .
 72
65
 73
2
 40
0.25
 49
0.0
 49
-0.25
  0
LTYPE
  2
DASHED
 70
0
  3
__ __ __ __ __
 72
65
 73
2
 40
0.8
 49
0.5
 49
-0.3
  0
LTYPE
  2
DASHDOT
 70
0
  3
__ . __ . __ .
 72
65
 73
4
 40
1.0
 49
0.5
 49
-0.25
 49
0.0
 49
-0.25
  0
LTYPE
  2
DIVIDE
 70
0
  3
____ . . ____ . . 
 72
65
 73
6
 40
1.25
 49
0.5
 49
-0.25
 49
0.0
 49
-0.25
 49
0.0
 49
-0.25
  0
LTYPE
  2
BORDER
 70
0
  3
__ __ . __ __ . 
 72
65
 73
6
 40
1.75
 49
0.5
 49
-0.25
 49
0.5
 49
-0.25
 49
0.0
 49
-0.25
  0
LTYPE
  2
HIDDEN
 70
0
  3
__ __ __ __ __
 72
65
 73
2
 40
0.4
 49
0.25
 49
-0.25
  0
LTYPE
  2
CENTER
 70
0
  3
____ _ ____ _ __
 72
65
 73
4
 40
2.0
 49
1.25
 49
-0.25
 49
0.25
 49
-0.25
  0
ENDTAB
  0
TABLE
  2
LAYER
 70
1
  0
LAYER
  2
PYDXF
 70
64
 62
7
  6
continuous
  0
ENDTAB
  0
TABLE
  2
STYLE
 70
1
  0
STYLE
  2
STANDARD
 70
0
 40
0
 41
1.0
 50
0.0
 71
0
 42
1
 3
ARIAL.TTF
 4

  0
ENDTAB
  0
TABLE
  2
VIEW
 70
1
  0
VIEW
  2
BF_TOPVIEW
 70
0
 40
120.0
 10
0.0
 20
0.0
 41
200.0
 11
0.0
 21
0.0
 31
1.0
 12
0.0
 22
0.0
 32
0.0
 42
50.0
 43
0.0
 44
0.0
 50
0.0
 71
0
  0
ENDTAB
  0
ENDSEC
  0
SECTION
  2
BLOCKS
  0
ENDSEC
  0
SECTION
  2
ENTITIES
  0
LINE
  8
0
 10
-44.652462005615234
 20
0.7612652778625488
 30
-5.245208740234375e-06
 11
-50.714637756347656
 21
-9.217340469360352
 31
-3.6954879760742188e-06
  0
LINE
  8
0
 10
-51.743465423583984
 20
-18.532312393188477
 30
-4.231929779052734e-06
 11
-51.743465423583984
 21
-15.552311897277832
 31
-5.081295967102051e-06
  0
LINE
  8
0
 10
-43.573463439941406
 20
-18.532312393188477
 30
-4.231929779052734e-06
 11
-46.29679870605469
 21
-18.532312393188477
 31
-4.231929779052734e-06
  0
LINE
  8
0
 10
-43.573463439941406
 20
-9.592310905456543
 30
-4.887580871582031e-06
 11
-43.573463439941406
 21
-12.572311401367188
 31
-4.976987838745117e-06
  0
LINE
  8
0
 10
-51.743465423583984
 20
-9.592310905456543
 30
-4.887580871582031e-06
 11
-49.02013397216797
 21
-9.592310905456543
 31
-4.887580871582031e-06
  0
LINE
  8
0
 10
-17.0
 20
-26.53499984741211
 30
-1.1920928955078125e-07
 11
-19.066665649414062
 21
-26.53499984741211
 31
-1.1920928955078125e-07
  0
LINE
  8
0
 10
-23.200000762939453
 20
-13.610000610351562
 30
0.0
 11
-21.133333206176758
 21
-13.610000610351562
 31
0.0
  0
LINE
  8
0
 10
-24.596805572509766
 20
-4.657341957092285
 30
-1.5497207641601562e-06
 11
-24.596805572509766
 21
-2.790675640106201
 31
-1.430511474609375e-06
  0
LINE
  8
0
 10
-16.996807098388672
 20
-4.657341957092285
 30
-1.5497207641601562e-06
 11
-19.530139923095703
 21
-4.657341957092285
 31
-1.5497207641601562e-06
  0
LINE
  8
0
 10
-16.996807098388672
 20
0.9426583051681519
 30
-1.1920928955078125e-06
 11
-16.996807098388672
 21
-0.9240081906318665
 31
-1.430511474609375e-06
  0
LINE
  8
0
 10
-24.596805572509766
 20
0.9426583051681519
 30
-1.1920928955078125e-06
 11
-22.063472747802734
 21
0.9426583051681519
 31
-1.1920928955078125e-06
  0
LINE
  8
0
 10
-51.743465423583984
 20
-9.592310905456543
 30
-4.887580871582031e-06
 11
-51.743465423583984
 21
-12.572311401367188
 31
-4.976987838745117e-06
  0
LINE
  8
0
 10
-51.743465423583984
 20
-18.532312393188477
 30
-4.231929779052734e-06
 11
-49.0201301574707
 21
-18.532312393188477
 31
-4.231929779052734e-06
  0
LINE
  8
0
 10
-43.573463439941406
 20
-18.532312393188477
 30
-4.231929779052734e-06
 11
-43.573463439941406
 21
-15.552310943603516
 31
-4.127621650695801e-06
  0
LINE
  8
0
 10
-43.573463439941406
 20
-9.592310905456543
 30
-4.887580871582031e-06
 11
-46.29679870605469
 21
-9.592310905456543
 31
-4.887580871582031e-06
  0
LINE
  8
0
 10
-17.0
 20
-13.035000801086426
 30
0.0
 11
-17.0
 21
-15.0
 31
-1.4901161193847656e-08
  0
LINE
  8
0
 10
-23.200000762939453
 20
-13.610000610351562
 30
0.0
 11
-23.200000762939453
 21
-25.96000099182129
 31
-1.1920928955078125e-07
  0
LINE
  8
0
 10
-24.596805572509766
 20
0.9426583051681519
 30
-1.1920928955078125e-06
 11
-24.596805572509766
 21
-0.9240081906318665
 31
-1.430511474609375e-06
  0
LINE
  8
0
 10
-24.596805572509766
 20
-4.657341957092285
 30
-1.5497207641601562e-06
 11
-22.063472747802734
 21
-4.657341957092285
 31
-1.5497207641601562e-06
  0
LINE
  8
0
 10
-16.996807098388672
 20
-4.657341957092285
 30
-1.5497207641601562e-06
 11
-16.996807098388672
 21
-2.790675640106201
 31
-1.430511474609375e-06
  0
LINE
  8
0
 10
-16.996807098388672
 20
0.9426583051681519
 30
-1.1920928955078125e-06
 11
-19.530139923095703
 21
0.9426583051681519
 31
-1.1920928955078125e-06
  0
LINE
  8
0
 10
-27.837543487548828
 20
-36.37921905517578
 30
-2.6226043701171875e-06
 11
-23.837543487548828
 21
-32.37921905517578
 31
-2.86102294921875e-06
  0
LINE
  8
0
 10
-50.749324798583984
 20
-18.904951095581055
 30
-2.8014183044433594e-06
 11
-50.714637756347656
 21
-9.217340469360352
 31
-3.6954879760742188e-06
  0
LINE
  8
0
 10
-43.847415924072266
 20
-29.20380973815918
 30
-3.0994415283203125e-06
 11
-27.837543487548828
 21
-36.37921905517578
 31
-2.6226043701171875e-06
  0
LINE
  8
0
 10
-15.999996185302734
 20
8.000001907348633
 30
-7.62939453125e-06
 11
-23.0
 21
8.000001907348633
 31
-3.814697265625e-06
  0
LINE
  8
0
 10
-50.749324798583984
 20
-18.904951095581055
 30
-2.8014183044433594e-06
 11
-43.847415924072266
 21
-18.904951095581055
 31
-3.7550926208496094e-06
  0
LINE
  8
0
 10
-43.847415924072266
 20
-29.20380973815918
 30
-3.0994415283203125e-06
 11
-43.847415924072266
 21
-18.904951095581055
 31
-3.7550926208496094e-06
  0
LINE
  8
0
 10
-15.999996185302734
 20
-32.37921905517578
 30
-2.1457672119140625e-06
 11
-15.999996185302734
 21
8.000001907348633
 31
-7.62939453125e-06
  0
LINE
  8
0
 10
-23.200000762939453
 20
-25.96000099182129
 30
-1.1920928955078125e-07
 11
-21.133333206176758
 21
-25.96000099182129
 31
-1.1920928955078125e-07
  0
LINE
  8
0
 10
-17.0
 20
-13.035000801086426
 30
0.0
 11
-19.066665649414062
 21
-13.035000801086426
 31
0.0
  0
LINE
  8
0
 10
-17.0
 20
-26.53499984741211
 30
-1.1920928955078125e-07
 11
-17.0
 21
-24.56999969482422
 31
-1.1920928955078125e-07
  0
LINE
  8
0
 10
-23.0
 20
2.000001907348633
 30
-2.384185791015625e-07
 11
-23.0
 21
4.333336353302002
 31
-4.76837158203125e-07
  0
LINE
  8
0
 10
-15.999996185302734
 20
2.000001907348633
 30
-2.384185791015625e-07
 11
-18.333335876464844
 21
2.000001907348633
 31
-2.384185791015625e-07
  0
LINE
  8
0
 10
-16.0
 20
9.000001907348633
 30
-2.384185791015625e-07
 11
-16.0
 21
6.666668891906738
 31
-2.384185791015625e-07
  0
LINE
  8
0
 10
-23.0
 20
9.000001907348633
 30
-2.384185791015625e-07
 11
-20.666664123535156
 21
9.000001907348633
 31
-2.384185791015625e-07
  0
LINE
  8
0
 10
-23.0
 20
9.000001907348633
 30
-2.384185791015625e-07
 11
-23.0
 21
6.666668891906738
 31
-2.384185791015625e-07
  0
LINE
  8
0
 10
-23.0
 20
2.000001907348633
 30
-2.384185791015625e-07
 11
-20.666667938232422
 21
2.000001907348633
 31
-2.384185791015625e-07
  0
LINE
  8
0
 10
-15.999996185302734
 20
2.000001907348633
 30
-2.384185791015625e-07
 11
-16.0
 21
4.333336353302002
 31
-4.76837158203125e-07
  0
LINE
  8
0
 10
-16.0
 20
9.000001907348633
 30
-2.384185791015625e-07
 11
-18.333332061767578
 21
9.000001907348633
 31
-2.384185791015625e-07
  0
LINE
  8
0
 10
-44.652462005615234
 20
0.7612652778625488
 30
-5.245208740234375e-06
 11
-23.0
 21
8.000001907348633
 31
-3.814697265625e-06
  0
LINE
  8
0
 10
-23.837543487548828
 20
-32.37921905517578
 30
-2.86102294921875e-06
 11
-15.999996185302734
 21
-32.37921905517578
 31
-2.1457672119140625e-06
  0
ENDSEC
  0
EOF
