  0
SECTION
  2
HEADER
  9
$ACADVER
  1
AC1009
  9
$INSBASE
 10
0.0
 20
0.0
 30
0.0
  9
$EXTMIN
 10
0.0
 20
0.0
 30
0.0
  9
$EXTMAX
 10
0.0
 20
0.0
 30
0.0
  0
ENDSEC
  0
SECTION
  2
TABLES
  0
TABLE
  2
VPORT
 70
1
  0
VPORT
  2
*ACTIVE
 70
0
 10
0.0
 20
0.0
 11
1.0
 21
1.0
 12
-5.0
 22
1.0
 13
0.0
 23
0.0
 14
0.1
 24
0.1
 15
0.1
 25
0.1
 16
0.0
 26
0.0
 36
1.0
 17
0.0
 27
0.0
 37
0.0
 40
10.0
 41
1.0
 42
50.0
 43
0.0
 44
0.0
 50
0.0
 51
0.0
 71
0
 72
100
 73
1
 74
1
 75
0
 76
0
 77
0
 78
0
  0
ENDTAB
  0
TABLE
  2
LTYPE
 70
8
  0
LTYPE
  2
CONTINUOUS
 70
0
  3
Solid line
 72
65
 73
0
 40
0.0
  0
LTYPE
  2
DOT
 70
0
  3
. . . . . . .
 72
65
 73
2
 40
0.25
 49
0.0
 49
-0.25
  0
LTYPE
  2
DASHED
 70
0
  3
__ __ __ __ __
 72
65
 73
2
 40
0.8
 49
0.5
 49
-0.3
  0
LTYPE
  2
DASHDOT
 70
0
  3
__ . __ . __ .
 72
65
 73
4
 40
1.0
 49
0.5
 49
-0.25
 49
0.0
 49
-0.25
  0
LTYPE
  2
DIVIDE
 70
0
  3
____ . . ____ . . 
 72
65
 73
6
 40
1.25
 49
0.5
 49
-0.25
 49
0.0
 49
-0.25
 49
0.0
 49
-0.25
  0
LTYPE
  2
BORDER
 70
0
  3
__ __ . __ __ . 
 72
65
 73
6
 40
1.75
 49
0.5
 49
-0.25
 49
0.5
 49
-0.25
 49
0.0
 49
-0.25
  0
LTYPE
  2
HIDDEN
 70
0
  3
__ __ __ __ __
 72
65
 73
2
 40
0.4
 49
0.25
 49
-0.25
  0
LTYPE
  2
CENTER
 70
0
  3
____ _ ____ _ __
 72
65
 73
4
 40
2.0
 49
1.25
 49
-0.25
 49
0.25
 49
-0.25
  0
ENDTAB
  0
TABLE
  2
LAYER
 70
1
  0
LAYER
  2
PYDXF
 70
64
 62
7
  6
continuous
  0
ENDTAB
  0
TABLE
  2
STYLE
 70
1
  0
STYLE
  2
STANDARD
 70
0
 40
0
 41
1.0
 50
0.0
 71
0
 42
1
 3
ARIAL.TTF
 4

  0
ENDTAB
  0
TABLE
  2
VIEW
 70
1
  0
VIEW
  2
BF_TOPVIEW
 70
0
 40
120.0
 10
0.0
 20
0.0
 41
200.0
 11
0.0
 21
0.0
 31
1.0
 12
0.0
 22
0.0
 32
0.0
 42
50.0
 43
0.0
 44
0.0
 50
0.0
 71
0
  0
ENDTAB
  0
ENDSEC
  0
SECTION
  2
BLOCKS
  0
ENDSEC
  0
SECTION
  2
ENTITIES
  0
LINE
  8
0
 10
-1.5323600769042969
 20
17.77250862121582
 30
-3.814697265625e-06
 11
-2.1314010620117188
 21
17.52080726623535
 31
-3.337860107421875e-06
  0
LINE
  8
0
 10
-5.159324645996094
 20
15.891448974609375
 30
-4.291534423828125e-06
 11
-5.750236511230469
 21
15.47928237915039
 31
-3.814697265625e-06
  0
LINE
  8
0
 10
-5.159324645996094
 20
15.891448974609375
 30
-4.291534423828125e-06
 11
-4.638221740722656
 21
16.230125427246094
 31
-3.814697265625e-06
  0
LINE
  8
0
 10
-10.241275787353516
 20
10.941102981567383
 30
-3.337860107421875e-06
 11
-9.431629180908203
 21
11.983656883239746
 31
-3.814697265625e-06
  0
LINE
  8
0
 10
-1.5323600769042969
 20
17.77250862121582
 30
-3.814697265625e-06
 11
-0.9164962768554688
 21
18.018522262573242
 31
-2.384185791015625e-06
  0
LINE
  8
0
 10
0.29781341552734375
 20
-18.401958465576172
 30
-3.7848949432373047e-06
 11
1.8177452087402344
 21
-19.00633430480957
 31
-3.248453140258789e-06
  0
LINE
  8
0
 10
0.29781341552734375
 20
-18.401958465576172
 30
-3.7848949432373047e-06
 11
-1.1379623413085938
 21
-17.77526092529297
 31
-2.562999725341797e-06
  0
LINE
  8
0
 10
-8.634628295898438
 20
-12.956260681152344
 30
-7.510185241699219e-06
 11
-6.0121612548828125
 21
-14.976658821105957
 31
-3.039836883544922e-06
  0
LINE
  8
0
 10
6.766445159912109
 20
-20.65638542175293
 30
-2.2435560822486877e-06
 11
5.063135147094727
 21
-20.140235900878906
 31
-2.6673078536987305e-06
  0
LINE
  8
0
 10
6.766445159912109
 20
-20.65638542175293
 30
-2.2435560822486877e-06
 11
8.458866119384766
 21
-21.11271095275879
 31
-4.090368747711182e-06
  0
LINE
  8
0
 10
-1.1379623413085938
 20
-17.77526092529297
 30
-2.562999725341797e-06
 11
-2.4850730895996094
 21
-17.122987747192383
 31
-2.86102294921875e-06
  0
LINE
  8
0
 10
-7.008220672607422
 20
14.481425285339355
 30
-3.337860107421875e-06
 11
-7.752193450927734
 21
13.822070121765137
 31
-4.76837158203125e-06
  0
LINE
  8
0
 10
-4.153450012207031
 20
16.518978118896484
 30
-3.337860107421875e-06
 11
-3.6584243774414062
 21
16.79090118408203
 31
-3.814697265625e-06
  0
LINE
  8
0
 10
-4.638221740722656
 20
16.230125427246094
 30
-3.814697265625e-06
 11
-4.153450012207031
 21
16.518978118896484
 31
-3.337860107421875e-06
  0
LINE
  8
0
 10
-9.431629180908203
 20
11.983656883239746
 30
-3.814697265625e-06
 11
-8.57760238647461
 21
12.966562271118164
 31
-5.245208740234375e-06
  0
LINE
  8
0
 10
-11.643028259277344
 20
8.762712478637695
 30
-2.86102294921875e-06
 11
-10.980426788330078
 21
9.865495681762695
 31
-4.291534423828125e-06
  0
LINE
  8
0
 10
-11.643028259277344
 20
8.762712478637695
 30
-2.86102294921875e-06
 11
-12.230697631835938
 21
7.652563571929932
 31
-3.337860107421875e-06
  0
LINE
  8
0
 10
-7.752193450927734
 20
13.822070121765137
 30
-4.76837158203125e-06
 11
-8.57760238647461
 21
12.966562271118164
 31
-5.245208740234375e-06
  0
LINE
  8
0
 10
-0.9164962768554688
 20
18.018522262573242
 30
-2.384185791015625e-06
 11
-0.28167724609375
 21
18.259004592895508
 31
-3.337860107421875e-06
  0
LINE
  8
0
 10
-0.28167724609375
 20
18.259004592895508
 30
-3.337860107421875e-06
 11
0.37129974365234375
 21
18.493080139160156
 31
-3.337860107421875e-06
  0
LINE
  8
0
 10
-13.353900909423828
 20
4.782662868499756
 30
-3.5762786865234375e-06
 11
-13.138660430908203
 21
5.478714466094971
 31
-4.76837158203125e-06
  0
LINE
  8
0
 10
-5.750236511230469
 20
15.47928237915039
 30
-3.814697265625e-06
 11
-6.309093475341797
 21
15.07390022277832
 31
-3.337860107421875e-06
  0
LINE
  8
0
 10
-13.138660430908203
 20
5.478714466094971
 30
-4.76837158203125e-06
 11
-12.727951049804688
 21
6.558145046234131
 31
-3.337860107421875e-06
  0
LINE
  8
0
 10
-7.008220672607422
 20
14.481425285339355
 30
-3.337860107421875e-06
 11
-6.309093475341797
 21
15.07390022277832
 31
-3.337860107421875e-06
  0
LINE
  8
0
 10
0.37129974365234375
 20
18.493080139160156
 30
-3.337860107421875e-06
 11
1.0176544189453125
 21
18.711986541748047
 31
-3.814697265625e-06
  0
LINE
  8
0
 10
-10.241275787353516
 20
10.941102981567383
 30
-3.337860107421875e-06
 11
-10.980426788330078
 21
9.865495681762695
 31
-4.291534423828125e-06
  0
LINE
  8
0
 10
-12.230697631835938
 20
7.652563571929932
 30
-3.337860107421875e-06
 11
-12.727951049804688
 21
6.558145046234131
 31
-3.337860107421875e-06
  0
LINE
  8
0
 10
5.063135147094727
 20
-20.140235900878906
 30
-2.6673078536987305e-06
 11
3.4108009338378906
 21
-19.58759117126465
 31
-3.591179847717285e-06
  0
LINE
  8
0
 10
1.8177452087402344
 20
-19.00633430480957
 30
-3.248453140258789e-06
 11
3.4108009338378906
 21
-19.58759117126465
 31
-3.591179847717285e-06
  0
LINE
  8
0
 10
-2.684741973876953
 20
17.277095794677734
 30
-4.76837158203125e-06
 11
-3.1712265014648438
 21
17.045373916625977
 31
-2.86102294921875e-06
  0
LINE
  8
0
 10
-3.7445068359375
 20
-16.4406795501709
 30
-4.231929779052734e-06
 11
-4.919322967529297
 21
-15.725357055664062
 31
-4.470348358154297e-06
  0
LINE
  8
0
 10
-2.4850730895996094
 20
-17.122987747192383
 30
-2.86102294921875e-06
 11
-3.7445068359375
 21
-16.4406795501709
 31
-4.231929779052734e-06
  0
LINE
  8
0
 10
-2.1314010620117188
 20
17.52080726623535
 30
-3.337860107421875e-06
 11
-2.684741973876953
 21
17.277095794677734
 31
-4.76837158203125e-06
  0
LINE
  8
0
 10
-3.6584243774414062
 20
16.79090118408203
 30
-3.814697265625e-06
 11
-3.1712265014648438
 21
17.045373916625977
 31
-2.86102294921875e-06
  0
LINE
  8
0
 10
-6.0121612548828125
 20
-14.976658821105957
 30
-3.039836883544922e-06
 11
-4.919322967529297
 21
-15.725357055664062
 31
-4.470348358154297e-06
  0
LINE
  8
0
 10
8.458866119384766
 20
-21.11271095275879
 30
-4.090368747711182e-06
 11
10.075067520141602
 21
-21.4343318939209
 31
-1.8775463104248047e-06
  0
LINE
  8
0
 10
6.5768585205078125
 20
20.09596061706543
 30
-1.0967254638671875e-05
 11
7.311607360839844
 21
20.220489501953125
 31
-1.239776611328125e-05
  0
LINE
  8
0
 10
6.5768585205078125
 20
20.09596061706543
 30
-1.0967254638671875e-05
 11
5.849645614624023
 21
19.962299346923828
 31
-1.2874603271484375e-05
  0
LINE
  8
0
 10
7.311607360839844
 20
20.220489501953125
 30
-1.239776611328125e-05
 11
8.077154159545898
 21
20.336999893188477
 31
-1.049041748046875e-05
  0
LINE
  8
0
 10
9.779342651367188
 20
20.554180145263672
 30
-1.1920928955078125e-05
 11
8.89480209350586
 21
20.44752311706543
 31
-1.33514404296875e-05
  0
LINE
  8
0
 10
3.8360252380371094
 20
19.507312774658203
 30
-1.1920928955078125e-05
 11
4.533571243286133
 21
19.682048797607422
 31
-1.3828277587890625e-05
  0
LINE
  8
0
 10
12.772602081298828
 20
20.80934715270996
 30
-1.1444091796875e-05
 11
11.709375381469727
 21
20.745929718017578
 31
-1.1920928955078125e-05
  0
LINE
  8
0
 10
4.533571243286133
 20
19.682048797607422
 30
-1.3828277587890625e-05
 11
5.180025100708008
 21
19.833776473999023
 31
-1.1444091796875e-05
  0
LINE
  8
0
 10
5.849645614624023
 20
19.962299346923828
 30
-1.2874603271484375e-05
 11
5.180025100708008
 21
19.833776473999023
 31
-1.1444091796875e-05
  0
LINE
  8
0
 10
2.4292335510253906
 20
19.121543884277344
 30
-1.2874603271484375e-05
 11
1.7039375305175781
 21
18.906414031982422
 31
-1.2874603271484375e-05
  0
LINE
  8
0
 10
2.4292335510253906
 20
19.121543884277344
 30
-1.2874603271484375e-05
 11
3.1339759826660156
 21
19.320322036743164
 31
-1.2874603271484375e-05
  0
LINE
  8
0
 10
8.077154159545898
 20
20.336999893188477
 30
-1.049041748046875e-05
 11
8.89480209350586
 21
20.44752311706543
 31
-1.33514404296875e-05
  0
LINE
  8
0
 10
3.8360252380371094
 20
19.507312774658203
 30
-1.1920928955078125e-05
 11
3.1339759826660156
 21
19.320322036743164
 31
-1.2874603271484375e-05
  0
LINE
  8
0
 10
9.779342651367188
 20
20.554180145263672
 30
-1.1920928955078125e-05
 11
10.720174789428711
 21
20.656761169433594
 31
-1.239776611328125e-05
  0
LINE
  8
0
 10
11.709375381469727
 20
20.745929718017578
 30
-1.1920928955078125e-05
 11
10.720174789428711
 21
20.656761169433594
 31
-1.239776611328125e-05
  0
LINE
  8
0
 10
1.0176544189453125
 20
18.711986541748047
 30
-3.814697265625e-06
 11
1.7039375305175781
 21
18.906414031982422
 31
-1.2874603271484375e-05
  0
LINE
  8
0
 10
12.772602081298828
 20
20.80934715270996
 30
-1.1444091796875e-05
 11
13.915826797485352
 21
20.845680236816406
 31
-6.198883056640625e-06
  0
LINE
  8
0
 10
-15.743465423583984
 20
-4.532309055328369
 30
-4.291534423828125e-06
 11
-15.743465423583984
 21
-1.5523083209991455
 31
-5.7220458984375e-06
  0
LINE
  8
0
 10
-7.573463439941406
 20
-4.532309055328369
 30
-4.291534423828125e-06
 11
-10.296798706054688
 21
-4.532309055328369
 31
-4.291534423828125e-06
  0
LINE
  8
0
 10
-7.573463439941406
 20
4.407693386077881
 30
-5.0067901611328125e-06
 11
-7.573463439941406
 21
1.4276915788650513
 31
-5.4836273193359375e-06
  0
LINE
  8
0
 10
-15.743465423583984
 20
4.407693386077881
 30
-5.0067901611328125e-06
 11
-13.020133972167969
 21
4.407693386077881
 31
-5.0067901611328125e-06
  0
LINE
  8
0
 10
8.200510025024414
 20
4.2001142501831055
 30
-3.5762786865234375e-06
 11
8.200510025024414
 21
8.066780090332031
 31
-4.291534423828125e-06
  0
LINE
  8
0
 10
13.800508499145508
 20
4.2001142501831055
 30
-3.5762786865234375e-06
 11
11.933841705322266
 21
4.2001142501831055
 31
-3.5762786865234375e-06
  0
LINE
  8
0
 10
13.800508499145508
 20
15.800114631652832
 30
-3.337860107421875e-06
 11
13.800508499145508
 21
11.933446884155273
 31
-2.384185791015625e-06
  0
LINE
  8
0
 10
8.200510025024414
 20
15.800114631652832
 30
-3.337860107421875e-06
 11
10.067176818847656
 21
15.800114631652832
 31
-3.337860107421875e-06
  0
LINE
  8
0
 10
6.203195571899414
 20
-10.157341003417969
 30
-2.6226043701171875e-06
 11
6.203195571899414
 21
-8.290674209594727
 31
-1.7881393432617188e-06
  0
LINE
  8
0
 10
13.803194046020508
 20
-10.157341003417969
 30
-2.6226043701171875e-06
 11
11.269861221313477
 21
-10.157341003417969
 31
-2.6226043701171875e-06
  0
LINE
  8
0
 10
13.803194046020508
 20
-4.557339668273926
 30
-1.9073486328125e-06
 11
13.803194046020508
 21
-6.424007415771484
 31
-1.9073486328125e-06
  0
LINE
  8
0
 10
6.203195571899414
 20
-4.557339668273926
 30
-1.9073486328125e-06
 11
8.736528396606445
 21
-4.557339668273926
 31
-1.9073486328125e-06
  0
LINE
  8
0
 10
-15.743465423583984
 20
4.407693386077881
 30
-5.0067901611328125e-06
 11
-15.743465423583984
 21
1.4276915788650513
 31
-5.4836273193359375e-06
  0
LINE
  8
0
 10
-15.743465423583984
 20
-4.532309055328369
 30
-4.291534423828125e-06
 11
-13.020130157470703
 21
-4.532309055328369
 31
-4.291534423828125e-06
  0
LINE
  8
0
 10
-7.573463439941406
 20
-4.532309055328369
 30
-4.291534423828125e-06
 11
-7.573463439941406
 21
-1.5523080825805664
 31
-4.76837158203125e-06
  0
LINE
  8
0
 10
-7.573463439941406
 20
4.407693386077881
 30
-5.0067901611328125e-06
 11
-10.296798706054688
 21
4.407693386077881
 31
-5.0067901611328125e-06
  0
LINE
  8
0
 10
8.200510025024414
 20
15.800114631652832
 30
-3.337860107421875e-06
 11
8.200510025024414
 21
11.933446884155273
 31
-3.337860107421875e-06
  0
LINE
  8
0
 10
8.200510025024414
 20
4.2001142501831055
 30
-3.5762786865234375e-06
 11
10.067176818847656
 21
4.2001142501831055
 31
-3.5762786865234375e-06
  0
LINE
  8
0
 10
13.800508499145508
 20
4.2001142501831055
 30
-3.5762786865234375e-06
 11
13.800508499145508
 21
8.066780090332031
 31
-3.337860107421875e-06
  0
LINE
  8
0
 10
13.800508499145508
 20
15.800114631652832
 30
-3.337860107421875e-06
 11
11.933841705322266
 21
15.800114631652832
 31
-3.337860107421875e-06
  0
LINE
  8
0
 10
6.203195571899414
 20
-4.557339668273926
 30
-1.9073486328125e-06
 11
6.203195571899414
 21
-6.424007415771484
 31
-1.9073486328125e-06
  0
LINE
  8
0
 10
6.203195571899414
 20
-10.157341003417969
 30
-2.6226043701171875e-06
 11
8.736528396606445
 21
-10.157341003417969
 31
-2.6226043701171875e-06
  0
LINE
  8
0
 10
13.803194046020508
 20
-10.157341003417969
 30
-2.6226043701171875e-06
 11
13.803194046020508
 21
-8.290674209594727
 31
-1.7881393432617188e-06
  0
LINE
  8
0
 10
13.803194046020508
 20
-4.557339668273926
 30
-1.9073486328125e-06
 11
11.269861221313477
 21
-4.557339668273926
 31
-1.9073486328125e-06
  0
LINE
  8
0
 10
10.075067520141602
 20
-21.4343318939209
 30
-1.8775463104248047e-06
 11
12.790061950683594
 21
-21.434326171875
 31
-9.313225746154785e-07
  0
LINE
  8
0
 10
-2.0253143310546875
 20
18.97547721862793
 30
-4.291534423828125e-06
 11
-2.6452293395996094
 21
18.715002059936523
 31
-3.814697265625e-06
  0
LINE
  8
0
 10
-5.885593414306641
 20
16.96986961364746
 30
-3.814697265625e-06
 11
-6.503818511962891
 21
16.538646697998047
 31
-4.291534423828125e-06
  0
LINE
  8
0
 10
-5.885593414306641
 20
16.96986961364746
 30
-3.814697265625e-06
 11
-5.325412750244141
 21
17.333938598632812
 31
-3.337860107421875e-06
  0
LINE
  8
0
 10
-11.291240692138672
 20
11.70857048034668
 30
-3.814697265625e-06
 11
-10.436424255371094
 21
12.809290885925293
 31
-3.814697265625e-06
  0
LINE
  8
0
 10
-2.0253143310546875
 20
18.97547721862793
 30
-4.291534423828125e-06
 11
-1.3879203796386719
 21
19.230091094970703
 31
-3.337860107421875e-06
  0
LINE
  8
0
 10
-0.20252227783203125
 20
-19.60201072692871
 30
-4.351139068603516e-06
 11
1.3546829223632812
 21
-20.221208572387695
 31
-2.779066562652588e-06
  0
LINE
  8
0
 10
-0.20252227783203125
 20
-19.60201072692871
 30
-4.351139068603516e-06
 11
-1.6814689636230469
 21
-18.95646858215332
 31
-3.2186508178710938e-06
  0
LINE
  8
0
 10
-7.847415924072266
 20
-15.20380687713623
 30
-3.7550926208496094e-06
 11
-6.776821136474609
 21
-16.028614044189453
 31
-2.384185791015625e-06
  0
LINE
  8
0
 10
6.408641815185547
 20
-21.906335830688477
 30
-1.6987323760986328e-06
 11
4.668376922607422
 21
-21.37898826599121
 31
-2.3245811462402344e-06
  0
LINE
  8
0
 10
6.408641815185547
 20
-21.906335830688477
 30
-1.6987323760986328e-06
 11
8.162456512451172
 21
-22.379215240478516
 31
-3.5762786865234375e-06
  0
LINE
  8
0
 10
-1.6814689636230469
 20
-18.95646858215332
 30
-3.2186508178710938e-06
 11
-3.078277587890625
 21
-18.280134201049805
 31
-3.0100345611572266e-06
  0
LINE
  8
0
 10
-7.859683990478516
 20
15.463883399963379
 30
-3.814697265625e-06
 11
-8.652462005615234
 21
14.76126766204834
 31
-4.76837158203125e-06
  0
LINE
  8
0
 10
-4.79931640625
 20
17.647418975830078
 30
-3.337860107421875e-06
 11
-4.272369384765625
 21
17.936878204345703
 31
-3.814697265625e-06
  0
LINE
  8
0
 10
-5.325412750244141
 20
17.333938598632812
 30
-3.337860107421875e-06
 11
-4.79931640625
 21
17.647418975830078
 31
-3.337860107421875e-06
  0
LINE
  8
0
 10
-10.436424255371094
 20
12.809290885925293
 30
-3.814697265625e-06
 11
-9.536689758300781
 21
13.844804763793945
 31
-4.76837158203125e-06
  0
LINE
  8
0
 10
-12.775497436523438
 20
9.402055740356445
 30
-3.337860107421875e-06
 11
-12.074310302734375
 21
10.569052696228027
 31
-4.291534423828125e-06
  0
LINE
  8
0
 10
-12.775497436523438
 20
9.402055740356445
 30
-3.337860107421875e-06
 11
-13.398017883300781
 21
8.226067543029785
 31
-2.86102294921875e-06
  0
LINE
  8
0
 10
-8.652462005615234
 20
14.76126766204834
 30
-4.76837158203125e-06
 11
-9.536689758300781
 21
13.844804763793945
 31
-4.76837158203125e-06
  0
LINE
  8
0
 10
-1.3879203796386719
 20
19.230091094970703
 30
-3.337860107421875e-06
 11
-0.7313194274902344
 21
19.478818893432617
 31
-2.86102294921875e-06
  0
LINE
  8
0
 10
-0.7313194274902344
 20
19.478818893432617
 30
-2.86102294921875e-06
 11
-0.056583404541015625
 21
19.720699310302734
 31
-3.814697265625e-06
  0
LINE
  8
0
 10
-14.714637756347656
 20
4.782662868499756
 30
-3.5762786865234375e-06
 11
-14.368404388427734
 21
5.90232515335083
 31
-4.291534423828125e-06
  0
LINE
  8
0
 10
-6.503818511962891
 20
16.538646697998047
 30
-4.291534423828125e-06
 11
-7.112129211425781
 21
16.097394943237305
 31
-3.814697265625e-06
  0
LINE
  8
0
 10
-14.368404388427734
 20
5.90232515335083
 30
-4.291534423828125e-06
 11
-13.928428649902344
 21
7.058667182922363
 31
-3.814697265625e-06
  0
LINE
  8
0
 10
-7.859683990478516
 20
15.463883399963379
 30
-3.814697265625e-06
 11
-7.112129211425781
 21
16.097394943237305
 31
-3.814697265625e-06
  0
LINE
  8
0
 10
-0.056583404541015625
 20
19.720699310302734
 30
-3.814697265625e-06
 11
0.6317291259765625
 21
19.953813552856445
 31
-4.291534423828125e-06
  0
LINE
  8
0
 10
-11.291240692138672
 20
11.70857048034668
 30
-3.814697265625e-06
 11
-12.074310302734375
 21
10.569052696228027
 31
-4.291534423828125e-06
  0
LINE
  8
0
 10
-13.398017883300781
 20
8.226067543029785
 30
-2.86102294921875e-06
 11
-13.928428649902344
 21
7.058667182922363
 31
-3.814697265625e-06
  0
LINE
  8
0
 10
4.668376922607422
 20
-21.37898826599121
 30
-2.3245811462402344e-06
 11
2.98175048828125
 21
-20.81487464904785
 31
-2.5462359189987183e-06
  0
LINE
  8
0
 10
1.3546829223632812
 20
-20.221208572387695
 30
-2.779066562652588e-06
 11
2.98175048828125
 21
-20.81487464904785
 31
-2.5462359189987183e-06
  0
LINE
  8
0
 10
-3.2263755798339844
 20
18.459043502807617
 30
-4.76837158203125e-06
 11
-3.7518653869628906
 21
18.20874786376953
 31
-3.337860107421875e-06
  0
LINE
  8
0
 10
-4.392585754394531
 20
-17.568096160888672
 30
-3.874301910400391e-06
 11
-5.625240325927734
 21
-16.817556381225586
 31
-3.874301910400391e-06
  0
LINE
  8
0
 10
-3.078277587890625
 20
-18.280134201049805
 30
-3.0100345611572266e-06
 11
-4.392585754394531
 21
-17.568096160888672
 31
-3.874301910400391e-06
  0
LINE
  8
0
 10
-2.6452293395996094
 20
18.715002059936523
 30
-3.814697265625e-06
 11
-3.2263755798339844
 21
18.459043502807617
 31
-4.76837158203125e-06
  0
LINE
  8
0
 10
-4.272369384765625
 20
17.936878204345703
 30
-3.814697265625e-06
 11
-3.7518653869628906
 21
18.20874786376953
 31
-3.337860107421875e-06
  0
LINE
  8
0
 10
-6.776821136474609
 20
-16.028614044189453
 30
-2.384185791015625e-06
 11
-5.625240325927734
 21
-16.817556381225586
 31
-3.874301910400391e-06
  0
LINE
  8
0
 10
8.162456512451172
 20
-22.379215240478516
 30
-3.5762786865234375e-06
 11
9.946975708007812
 21
-22.734333038330078
 31
-1.6987323760986328e-06
  0
LINE
  8
0
 10
-14.749324798583984
 20
-4.904949188232422
 30
-3.337860107421875e-06
 11
-14.714637756347656
 21
4.782662868499756
 31
-3.5762786865234375e-06
  0
LINE
  8
0
 10
6.350728988647461
 20
21.376174926757812
 30
-1.049041748046875e-05
 11
7.1051788330078125
 21
21.504039764404297
 31
-1.2874603271484375e-05
  0
LINE
  8
0
 10
6.350728988647461
 20
21.376174926757812
 30
-1.049041748046875e-05
 11
5.609617233276367
 21
21.23995590209961
 31
-1.239776611328125e-05
  0
LINE
  8
0
 10
7.1051788330078125
 20
21.504039764404297
 30
-1.2874603271484375e-05
 11
7.892271041870117
 21
21.62383270263672
 31
-1.0967254638671875e-05
  0
LINE
  8
0
 10
9.631072998046875
 20
21.845718383789062
 30
-1.239776611328125e-05
 11
8.729907989501953
 21
21.737060546875
 31
-1.3828277587890625e-05
  0
LINE
  8
0
 10
3.5107688903808594
 20
20.76600456237793
 30
-1.239776611328125e-05
 11
4.227088928222656
 21
20.9454402923584
 31
-1.2874603271484375e-05
  0
LINE
  8
0
 10
12.713241577148438
 20
22.108118057250977
 30
-1.1444091796875e-05
 11
11.612297058105469
 21
22.042449951171875
 31
-1.239776611328125e-05
  0
LINE
  8
0
 10
4.227088928222656
 20
20.9454402923584
 30
-1.2874603271484375e-05
 11
4.908866882324219
 21
21.105459213256836
 31
-1.0967254638671875e-05
  0
LINE
  8
0
 10
5.609617233276367
 20
21.23995590209961
 30
-1.239776611328125e-05
 11
4.908866882324219
 21
21.105459213256836
 31
-1.0967254638671875e-05
  0
LINE
  8
0
 10
2.0679283142089844
 20
20.3703556060791
 30
-1.2874603271484375e-05
 11
1.3419113159179688
 21
20.155014038085938
 31
-1.33514404296875e-05
  0
LINE
  8
0
 10
2.0679283142089844
 20
20.3703556060791
 30
-1.2874603271484375e-05
 11
2.7902069091796875
 21
20.57408332824707
 31
-1.33514404296875e-05
  0
LINE
  8
0
 10
7.892271041870117
 20
21.62383270263672
 30
-1.0967254638671875e-05
 11
8.729907989501953
 21
21.737060546875
 31
-1.3828277587890625e-05
  0
LINE
  8
0
 10
3.5107688903808594
 20
20.76600456237793
 30
-1.239776611328125e-05
 11
2.7902069091796875
 21
20.57408332824707
 31
-1.33514404296875e-05
  0
LINE
  8
0
 10
9.631072998046875
 20
21.845718383789062
 30
-1.239776611328125e-05
 11
10.591354370117188
 21
21.950424194335938
 31
-1.33514404296875e-05
  0
LINE
  8
0
 10
11.612297058105469
 20
22.042449951171875
 30
-1.239776611328125e-05
 11
10.591354370117188
 21
21.950424194335938
 31
-1.33514404296875e-05
  0
LINE
  8
0
 10
0.6317291259765625
 20
19.953813552856445
 30
-4.291534423828125e-06
 11
1.3419113159179688
 21
20.155014038085938
 31
-1.33514404296875e-05
  0
LINE
  8
0
 10
12.713241577148438
 20
22.108118057250977
 30
-1.1444091796875e-05
 11
13.891162872314453
 21
22.145557403564453
 31
-7.152557373046875e-06
  0
LINE
  8
0
 10
-14.749324798583984
 20
-4.904949188232422
 30
-3.337860107421875e-06
 11
-7.847415924072266
 21
-4.90494966506958
 31
-4.291534423828125e-06
  0
LINE
  8
0
 10
-7.847415924072266
 20
-15.20380687713623
 30
-3.7550926208496094e-06
 11
-7.847415924072266
 21
-4.90494966506958
 31
-4.291534423828125e-06
  0
LINE
  8
0
 10
14.799999237060547
 20
-22.73432159423828
 30
-1.5497207641601562e-06
 11
14.799999237060547
 21
22.151165008544922
 31
-7.62939453125e-06
  0
LINE
  8
0
 10
9.946975708007812
 20
-22.734333038330078
 30
-1.6987323760986328e-06
 11
14.799999237060547
 21
-22.73432159423828
 31
-1.5497207641601562e-06
  0
LINE
  8
0
 10
13.891162872314453
 20
22.145557403564453
 30
-7.152557373046875e-06
 11
14.799999237060547
 21
22.151165008544922
 31
-7.62939453125e-06
  0
LINE
  8
0
 10
-13.353900909423828
 20
4.782662868499756
 30
-3.5762786865234375e-06
 11
-15.468669891357422
 21
4.782662868499756
 31
-3.5762786865234375e-06
  0
LINE
  8
0
 10
13.915826797485352
 20
20.845680236816406
 30
-6.198883056640625e-06
 11
15.759721755981445
 21
20.862592697143555
 31
-5.245208740234375e-06
  0
LINE
  8
0
 10
12.790061950683594
 20
-21.434326171875
 30
-9.313225746154785e-07
 11
12.990062713623047
 21
-25.874038696289062
 31
-7.152557373046875e-07
  0
ENDSEC
  0
EOF
