  0
SECTION
  2
HEADER
  9
$ACADVER
  1
AC1009
  9
$INSBASE
 10
0.0
 20
0.0
 30
0.0
  9
$EXTMIN
 10
0.0
 20
0.0
 30
0.0
  9
$EXTMAX
 10
0.0
 20
0.0
 30
0.0
  0
ENDSEC
  0
SECTION
  2
TABLES
  0
TABLE
  2
VPORT
 70
1
  0
VPORT
  2
*ACTIVE
 70
0
 10
0.0
 20
0.0
 11
1.0
 21
1.0
 12
-5.0
 22
1.0
 13
0.0
 23
0.0
 14
0.1
 24
0.1
 15
0.1
 25
0.1
 16
0.0
 26
0.0
 36
1.0
 17
0.0
 27
0.0
 37
0.0
 40
10.0
 41
1.0
 42
50.0
 43
0.0
 44
0.0
 50
0.0
 51
0.0
 71
0
 72
100
 73
1
 74
1
 75
0
 76
0
 77
0
 78
0
  0
ENDTAB
  0
TABLE
  2
LTYPE
 70
8
  0
LTYPE
  2
CONTINUOUS
 70
0
  3
Solid line
 72
65
 73
0
 40
0.0
  0
LTYPE
  2
DOT
 70
0
  3
. . . . . . .
 72
65
 73
2
 40
0.25
 49
0.0
 49
-0.25
  0
LTYPE
  2
DASHED
 70
0
  3
__ __ __ __ __
 72
65
 73
2
 40
0.8
 49
0.5
 49
-0.3
  0
LTYPE
  2
DASHDOT
 70
0
  3
__ . __ . __ .
 72
65
 73
4
 40
1.0
 49
0.5
 49
-0.25
 49
0.0
 49
-0.25
  0
LTYPE
  2
DIVIDE
 70
0
  3
____ . . ____ . . 
 72
65
 73
6
 40
1.25
 49
0.5
 49
-0.25
 49
0.0
 49
-0.25
 49
0.0
 49
-0.25
  0
LTYPE
  2
BORDER
 70
0
  3
__ __ . __ __ . 
 72
65
 73
6
 40
1.75
 49
0.5
 49
-0.25
 49
0.5
 49
-0.25
 49
0.0
 49
-0.25
  0
LTYPE
  2
HIDDEN
 70
0
  3
__ __ __ __ __
 72
65
 73
2
 40
0.4
 49
0.25
 49
-0.25
  0
LTYPE
  2
CENTER
 70
0
  3
____ _ ____ _ __
 72
65
 73
4
 40
2.0
 49
1.25
 49
-0.25
 49
0.25
 49
-0.25
  0
ENDTAB
  0
TABLE
  2
LAYER
 70
1
  0
LAYER
  2
PYDXF
 70
64
 62
7
  6
continuous
  0
ENDTAB
  0
TABLE
  2
STYLE
 70
1
  0
STYLE
  2
STANDARD
 70
0
 40
0
 41
1.0
 50
0.0
 71
0
 42
1
 3
ARIAL.TTF
 4

  0
ENDTAB
  0
TABLE
  2
VIEW
 70
1
  0
VIEW
  2
BF_TOPVIEW
 70
0
 40
120.0
 10
0.0
 20
0.0
 41
200.0
 11
0.0
 21
0.0
 31
1.0
 12
0.0
 22
0.0
 32
0.0
 42
50.0
 43
0.0
 44
0.0
 50
0.0
 71
0
  0
ENDTAB
  0
ENDSEC
  0
SECTION
  2
BLOCKS
  0
ENDSEC
  0
SECTION
  2
ENTITIES
  0
LINE
  8
0
 10
-44.652462005615234
 20
0.7612634897232056
 30
-5.9604644775390625e-06
 11
-50.714637756347656
 21
-8.717340469360352
 31
-3.933906555175781e-06
  0
LINE
  8
0
 10
-51.743465423583984
 20
-18.532310485839844
 30
-4.0531158447265625e-06
 11
-51.743465423583984
 21
-15.552310943603516
 31
-5.02169132232666e-06
  0
LINE
  8
0
 10
-43.573463439941406
 20
-18.532310485839844
 30
-4.0531158447265625e-06
 11
-46.29679870605469
 21
-18.532310485839844
 31
-4.0531158447265625e-06
  0
LINE
  8
0
 10
-43.573463439941406
 20
-9.592310905456543
 30
-5.185604095458984e-06
 11
-43.573463439941406
 21
-12.572311401367188
 31
-5.066394805908203e-06
  0
LINE
  8
0
 10
-51.743465423583984
 20
-9.592310905456543
 30
-5.185604095458984e-06
 11
-49.02013397216797
 21
-9.592310905456543
 31
-5.185604095458984e-06
  0
LINE
  8
0
 10
-17.0
 20
-26.53499984741211
 30
4.76837158203125e-07
 11
-19.066665649414062
 21
-26.53499984741211
 31
4.76837158203125e-07
  0
LINE
  8
0
 10
-23.200000762939453
 20
-13.610000610351562
 30
-4.470348358154297e-08
 11
-21.133333206176758
 21
-13.610000610351562
 31
-4.470348358154297e-08
  0
LINE
  8
0
 10
-24.596805572509766
 20
-4.657342910766602
 30
-1.9073486328125e-06
 11
-24.596805572509766
 21
-2.7906765937805176
 31
-2.0265579223632812e-06
  0
LINE
  8
0
 10
-16.996807098388672
 20
-4.657342910766602
 30
-1.9073486328125e-06
 11
-19.530139923095703
 21
-4.657342910766602
 31
-1.9073486328125e-06
  0
LINE
  8
0
 10
-16.996807098388672
 20
0.942656397819519
 30
-1.9073486328125e-06
 11
-16.996807098388672
 21
-0.9240100383758545
 31
-2.1457672119140625e-06
  0
LINE
  8
0
 10
-24.596805572509766
 20
0.942656397819519
 30
-1.9073486328125e-06
 11
-22.063472747802734
 21
0.942656397819519
 31
-1.9073486328125e-06
  0
LINE
  8
0
 10
-51.743465423583984
 20
-9.592310905456543
 30
-5.185604095458984e-06
 11
-51.743465423583984
 21
-12.572311401367188
 31
-5.066394805908203e-06
  0
LINE
  8
0
 10
-51.743465423583984
 20
-18.532310485839844
 30
-4.0531158447265625e-06
 11
-49.0201301574707
 21
-18.532310485839844
 31
-4.0531158447265625e-06
  0
LINE
  8
0
 10
-43.573463439941406
 20
-18.532310485839844
 30
-4.0531158447265625e-06
 11
-43.573463439941406
 21
-15.552310943603516
 31
-4.082918167114258e-06
  0
LINE
  8
0
 10
-43.573463439941406
 20
-9.592310905456543
 30
-5.185604095458984e-06
 11
-46.29679870605469
 21
-9.592310905456543
 31
-5.185604095458984e-06
  0
LINE
  8
0
 10
-17.0
 20
-13.035000801086426
 30
-7.450580596923828e-08
 11
-17.0
 21
-15.0
 31
2.2351741790771484e-08
  0
LINE
  8
0
 10
-23.200000762939453
 20
-13.610000610351562
 30
-4.470348358154297e-08
 11
-23.200000762939453
 21
-25.959999084472656
 31
4.76837158203125e-07
  0
LINE
  8
0
 10
-24.596805572509766
 20
0.942656397819519
 30
-1.9073486328125e-06
 11
-24.596805572509766
 21
-0.9240100383758545
 31
-2.1457672119140625e-06
  0
LINE
  8
0
 10
-24.596805572509766
 20
-4.657342910766602
 30
-1.9073486328125e-06
 11
-22.063472747802734
 21
-4.657342910766602
 31
-1.9073486328125e-06
  0
LINE
  8
0
 10
-16.996807098388672
 20
-4.657342910766602
 30
-1.9073486328125e-06
 11
-16.996807098388672
 21
-2.7906765937805176
 31
-2.0265579223632812e-06
  0
LINE
  8
0
 10
-16.996807098388672
 20
0.942656397819519
 30
-1.9073486328125e-06
 11
-19.530139923095703
 21
0.942656397819519
 31
-1.9073486328125e-06
  0
LINE
  8
0
 10
-27.837543487548828
 20
-36.379215240478516
 30
-1.430511474609375e-06
 11
-23.837543487548828
 21
-32.379215240478516
 31
-1.9073486328125e-06
  0
LINE
  8
0
 10
-50.749324798583984
 20
-19.404951095581055
 30
-2.562999725341797e-06
 11
-50.714637756347656
 21
-8.717340469360352
 31
-3.933906555175781e-06
  0
LINE
  8
0
 10
-41.847415924072266
 20
-30.631980895996094
 30
-2.6226043701171875e-06
 11
-27.837543487548828
 21
-36.379215240478516
 31
-1.430511474609375e-06
  0
LINE
  8
0
 10
-15.999996185302734
 20
8.110001564025879
 30
-8.821487426757812e-06
 11
-23.0
 21
8.110001564025879
 31
-5.0067901611328125e-06
  0
LINE
  8
0
 10
-15.999996185302734
 20
-32.379215240478516
 30
-1.1920928955078125e-06
 11
-15.999996185302734
 21
8.110001564025879
 31
-8.821487426757812e-06
  0
LINE
  8
0
 10
-23.200000762939453
 20
-25.959999084472656
 30
4.76837158203125e-07
 11
-21.133333206176758
 21
-25.959999084472656
 31
4.76837158203125e-07
  0
LINE
  8
0
 10
-17.0
 20
-13.035000801086426
 30
-7.450580596923828e-08
 11
-19.066665649414062
 21
-13.035000801086426
 31
-7.450580596923828e-08
  0
LINE
  8
0
 10
-17.0
 20
-26.53499984741211
 30
4.76837158203125e-07
 11
-17.0
 21
-24.569997787475586
 31
3.5762786865234375e-07
  0
LINE
  8
0
 10
-23.0
 20
2.0
 30
-1.1920928955078125e-06
 11
-23.0
 21
4.333334445953369
 31
-1.430511474609375e-06
  0
LINE
  8
0
 10
-15.999996185302734
 20
2.0
 30
-1.1920928955078125e-06
 11
-18.333335876464844
 21
2.0
 31
-1.1920928955078125e-06
  0
LINE
  8
0
 10
-16.0
 20
8.999998092651367
 30
-1.430511474609375e-06
 11
-16.0
 21
6.666665077209473
 31
-1.1920928955078125e-06
  0
LINE
  8
0
 10
-23.0
 20
8.999998092651367
 30
-1.430511474609375e-06
 11
-20.666664123535156
 21
8.999998092651367
 31
-1.430511474609375e-06
  0
LINE
  8
0
 10
-23.0
 20
8.999998092651367
 30
-1.430511474609375e-06
 11
-23.0
 21
6.666665077209473
 31
-1.1920928955078125e-06
  0
LINE
  8
0
 10
-23.0
 20
2.0
 30
-1.1920928955078125e-06
 11
-20.666667938232422
 21
2.0
 31
-1.1920928955078125e-06
  0
LINE
  8
0
 10
-15.999996185302734
 20
2.0
 30
-1.1920928955078125e-06
 11
-16.0
 21
4.333334445953369
 31
-1.430511474609375e-06
  0
LINE
  8
0
 10
-16.0
 20
8.999998092651367
 30
-1.430511474609375e-06
 11
-18.333332061767578
 21
8.999998092651367
 31
-1.430511474609375e-06
  0
LINE
  8
0
 10
-44.652462005615234
 20
0.7612634897232056
 30
-5.9604644775390625e-06
 11
-23.0
 21
8.110001564025879
 31
-5.0067901611328125e-06
  0
LINE
  8
0
 10
-23.837543487548828
 20
-32.379215240478516
 30
-1.9073486328125e-06
 11
-15.999996185302734
 21
-32.379215240478516
 31
-1.1920928955078125e-06
  0
LINE
  8
0
 10
-45.847415924072266
 20
-19.404951095581055
 30
-3.0994415283203125e-06
 11
-45.651145935058594
 21
-19.40976905822754
 31
-3.0994415283203125e-06
  0
LINE
  8
0
 10
-45.651145935058594
 20
-19.40976905822754
 30
-3.0994415283203125e-06
 11
-45.455345153808594
 21
-19.424211502075195
 31
-3.0994415283203125e-06
  0
LINE
  8
0
 10
-45.455345153808594
 20
-19.424211502075195
 30
-3.0994415283203125e-06
 11
-45.260494232177734
 21
-19.448244094848633
 31
-3.039836883544922e-06
  0
LINE
  8
0
 10
-45.260494232177734
 20
-19.448244094848633
 30
-3.039836883544922e-06
 11
-45.067054748535156
 21
-19.481809616088867
 31
-3.159046173095703e-06
  0
LINE
  8
0
 10
-45.067054748535156
 20
-19.481809616088867
 30
-3.159046173095703e-06
 11
-44.87549591064453
 21
-19.524826049804688
 31
-3.159046173095703e-06
  0
LINE
  8
0
 10
-44.87549591064453
 20
-19.524826049804688
 30
-3.159046173095703e-06
 11
-44.686279296875
 21
-19.577190399169922
 31
-3.0994415283203125e-06
  0
LINE
  8
0
 10
-44.686279296875
 20
-19.577190399169922
 30
-3.0994415283203125e-06
 11
-44.499855041503906
 21
-19.638774871826172
 31
-3.159046173095703e-06
  0
LINE
  8
0
 10
-44.499855041503906
 20
-19.638774871826172
 30
-3.159046173095703e-06
 11
-44.316680908203125
 21
-19.70943260192871
 31
-3.2186508178710938e-06
  0
LINE
  8
0
 10
-44.316680908203125
 20
-19.70943260192871
 30
-3.2186508178710938e-06
 11
-44.1371955871582
 21
-19.78899383544922
 31
-3.2186508178710938e-06
  0
LINE
  8
0
 10
-44.1371955871582
 20
-19.78899383544922
 30
-3.2186508178710938e-06
 11
-43.961830139160156
 21
-19.87726593017578
 31
-3.159046173095703e-06
  0
LINE
  8
0
 10
-43.961830139160156
 20
-19.87726593017578
 30
-3.159046173095703e-06
 11
-43.7910041809082
 21
-19.974037170410156
 31
-3.159046173095703e-06
  0
LINE
  8
0
 10
-43.7910041809082
 20
-19.974037170410156
 30
-3.159046173095703e-06
 11
-43.6251335144043
 21
-20.079072952270508
 31
-3.2186508178710938e-06
  0
LINE
  8
0
 10
-43.6251335144043
 20
-20.079072952270508
 30
-3.2186508178710938e-06
 11
-43.46461868286133
 21
-20.192121505737305
 31
-3.2782554626464844e-06
  0
LINE
  8
0
 10
-43.46461868286133
 20
-20.192121505737305
 30
-3.2782554626464844e-06
 11
-43.309844970703125
 21
-20.312910079956055
 31
-3.2186508178710938e-06
  0
LINE
  8
0
 10
-43.309844970703125
 20
-20.312910079956055
 30
-3.2186508178710938e-06
 11
-43.16117858886719
 21
-20.441146850585938
 31
-3.159046173095703e-06
  0
LINE
  8
0
 10
-43.16117858886719
 20
-20.441146850585938
 30
-3.159046173095703e-06
 11
-43.01898956298828
 21
-20.57652473449707
 31
-3.159046173095703e-06
  0
LINE
  8
0
 10
-43.01898956298828
 20
-20.57652473449707
 30
-3.159046173095703e-06
 11
-42.88361358642578
 21
-20.71871566772461
 31
-3.2186508178710938e-06
  0
LINE
  8
0
 10
-42.88361358642578
 20
-20.71871566772461
 30
-3.2186508178710938e-06
 11
-42.755374908447266
 21
-20.86737823486328
 31
-3.2186508178710938e-06
  0
LINE
  8
0
 10
-42.755374908447266
 20
-20.86737823486328
 30
-3.2186508178710938e-06
 11
-42.634586334228516
 21
-21.022153854370117
 31
-3.0994415283203125e-06
  0
LINE
  8
0
 10
-42.634586334228516
 20
-21.022153854370117
 30
-3.0994415283203125e-06
 11
-42.52153778076172
 21
-21.18267059326172
 31
-3.2186508178710938e-06
  0
LINE
  8
0
 10
-42.52153778076172
 20
-21.18267059326172
 30
-3.2186508178710938e-06
 11
-42.416500091552734
 21
-21.348539352416992
 31
-3.2186508178710938e-06
  0
LINE
  8
0
 10
-42.416500091552734
 20
-21.348539352416992
 30
-3.2186508178710938e-06
 11
-42.319732666015625
 21
-21.519363403320312
 31
-3.0994415283203125e-06
  0
LINE
  8
0
 10
-42.319732666015625
 20
-21.519363403320312
 30
-3.0994415283203125e-06
 11
-42.23146057128906
 21
-21.694730758666992
 31
-3.2186508178710938e-06
  0
LINE
  8
0
 10
-42.23146057128906
 20
-21.694730758666992
 30
-3.2186508178710938e-06
 11
-42.15189743041992
 21
-21.874217987060547
 31
-3.0994415283203125e-06
  0
LINE
  8
0
 10
-42.15189743041992
 20
-21.874217987060547
 30
-3.0994415283203125e-06
 11
-42.08123779296875
 21
-22.057392120361328
 31
-3.2186508178710938e-06
  0
LINE
  8
0
 10
-42.08123779296875
 20
-22.057392120361328
 30
-3.2186508178710938e-06
 11
-42.0196533203125
 21
-22.243812561035156
 31
-3.2186508178710938e-06
  0
LINE
  8
0
 10
-42.0196533203125
 20
-22.243812561035156
 30
-3.2186508178710938e-06
 11
-41.96729278564453
 21
-22.433029174804688
 31
-3.0994415283203125e-06
  0
LINE
  8
0
 10
-41.96729278564453
 20
-22.433029174804688
 30
-3.0994415283203125e-06
 11
-41.92427444458008
 21
-22.624589920043945
 31
-3.2186508178710938e-06
  0
LINE
  8
0
 10
-41.92427444458008
 20
-22.624589920043945
 30
-3.2186508178710938e-06
 11
-41.890708923339844
 21
-22.818029403686523
 31
-3.0994415283203125e-06
  0
LINE
  8
0
 10
-41.890708923339844
 20
-22.818029403686523
 30
-3.0994415283203125e-06
 11
-41.866676330566406
 21
-23.012882232666016
 31
-2.9802322387695312e-06
  0
LINE
  8
0
 10
-41.866676330566406
 20
-23.012882232666016
 30
-2.9802322387695312e-06
 11
-41.85223388671875
 21
-23.20867919921875
 31
-3.0994415283203125e-06
  0
LINE
  8
0
 10
-41.847415924072266
 20
-23.404951095581055
 30
-3.0994415283203125e-06
 11
-41.85223388671875
 21
-23.20867919921875
 31
-3.0994415283203125e-06
  0
LINE
  8
0
 10
-50.749324798583984
 20
-19.404951095581055
 30
-2.562999725341797e-06
 11
-45.847415924072266
 21
-19.404951095581055
 31
-3.0994415283203125e-06
  0
LINE
  8
0
 10
-41.847415924072266
 20
-30.631980895996094
 30
-2.6226043701171875e-06
 11
-41.847415924072266
 21
-23.404951095581055
 31
-3.0994415283203125e-06
  0
ENDSEC
  0
EOF
