  0
SECTION
  2
HEADER
  9
$ACADVER
  1
AC1009
  9
$INSBASE
 10
0.0
 20
0.0
 30
0.0
  9
$EXTMIN
 10
0.0
 20
0.0
 30
0.0
  9
$EXTMAX
 10
0.0
 20
0.0
 30
0.0
  0
ENDSEC
  0
SECTION
  2
TABLES
  0
TABLE
  2
VPORT
 70
1
  0
VPORT
  2
*ACTIVE
 70
0
 10
0.0
 20
0.0
 11
1.0
 21
1.0
 12
-5.0
 22
1.0
 13
0.0
 23
0.0
 14
0.1
 24
0.1
 15
0.1
 25
0.1
 16
0.0
 26
0.0
 36
1.0
 17
0.0
 27
0.0
 37
0.0
 40
10.0
 41
1.0
 42
50.0
 43
0.0
 44
0.0
 50
0.0
 51
0.0
 71
0
 72
100
 73
1
 74
1
 75
0
 76
0
 77
0
 78
0
  0
ENDTAB
  0
TABLE
  2
LTYPE
 70
8
  0
LTYPE
  2
CONTINUOUS
 70
0
  3
Solid line
 72
65
 73
0
 40
0.0
  0
LTYPE
  2
DOT
 70
0
  3
. . . . . . .
 72
65
 73
2
 40
0.25
 49
0.0
 49
-0.25
  0
LTYPE
  2
DASHED
 70
0
  3
__ __ __ __ __
 72
65
 73
2
 40
0.8
 49
0.5
 49
-0.3
  0
LTYPE
  2
DASHDOT
 70
0
  3
__ . __ . __ .
 72
65
 73
4
 40
1.0
 49
0.5
 49
-0.25
 49
0.0
 49
-0.25
  0
LTYPE
  2
DIVIDE
 70
0
  3
____ . . ____ . . 
 72
65
 73
6
 40
1.25
 49
0.5
 49
-0.25
 49
0.0
 49
-0.25
 49
0.0
 49
-0.25
  0
LTYPE
  2
BORDER
 70
0
  3
__ __ . __ __ . 
 72
65
 73
6
 40
1.75
 49
0.5
 49
-0.25
 49
0.5
 49
-0.25
 49
0.0
 49
-0.25
  0
LTYPE
  2
HIDDEN
 70
0
  3
__ __ __ __ __
 72
65
 73
2
 40
0.4
 49
0.25
 49
-0.25
  0
LTYPE
  2
CENTER
 70
0
  3
____ _ ____ _ __
 72
65
 73
4
 40
2.0
 49
1.25
 49
-0.25
 49
0.25
 49
-0.25
  0
ENDTAB
  0
TABLE
  2
LAYER
 70
1
  0
LAYER
  2
PYDXF
 70
64
 62
7
  6
continuous
  0
ENDTAB
  0
TABLE
  2
STYLE
 70
1
  0
STYLE
  2
STANDARD
 70
0
 40
0
 41
1.0
 50
0.0
 71
0
 42
1
 3
ARIAL.TTF
 4

  0
ENDTAB
  0
TABLE
  2
VIEW
 70
1
  0
VIEW
  2
BF_TOPVIEW
 70
0
 40
120.0
 10
0.0
 20
0.0
 41
200.0
 11
0.0
 21
0.0
 31
1.0
 12
0.0
 22
0.0
 32
0.0
 42
50.0
 43
0.0
 44
0.0
 50
0.0
 71
0
  0
ENDTAB
  0
ENDSEC
  0
SECTION
  2
BLOCKS
  0
ENDSEC
  0
SECTION
  2
ENTITIES
  0
LINE
  8
0
 10
-7.140787124633789
 20
-18.382244110107422
 30
-5.7220458984375e-06
 11
-7.982813835144043
 21
-17.862346649169922
 31
-4.76837158203125e-06
  0
LINE
  8
0
 10
-11.569990158081055
 20
-15.200505256652832
 30
-2.86102294921875e-06
 11
-12.148869514465332
 21
-14.6849946975708
 31
-2.1457672119140625e-06
  0
LINE
  8
0
 10
-10.869501113891602
 20
-15.791707992553711
 30
-3.0994415283203125e-06
 11
-11.569990158081055
 21
-15.200505256652832
 31
-2.86102294921875e-06
  0
LINE
  8
0
 10
-11.782590866088867
 20
15.079792976379395
 30
8.106231689453125e-06
 11
-11.241762161254883
 21
15.509079933166504
 31
8.106231689453125e-06
  0
LINE
  8
0
 10
-9.625917434692383
 20
-16.75552749633789
 30
-3.5762786865234375e-06
 11
-10.396956443786621
 21
-16.186464309692383
 31
-3.0994415283203125e-06
  0
LINE
  8
0
 10
-8.812097549438477
 20
-17.32016372680664
 30
-4.5299530029296875e-06
 11
-9.625917434692383
 21
-16.75552749633789
 31
-3.5762786865234375e-06
  0
LINE
  8
0
 10
-7.982813835144043
 20
-17.862346649169922
 30
-4.76837158203125e-06
 11
-8.812097549438477
 21
-17.32016372680664
 31
-4.5299530029296875e-06
  0
LINE
  8
0
 10
-10.352065086364746
 20
16.131990432739258
 30
7.152557373046875e-06
 11
-9.390360832214355
 21
16.73190689086914
 31
6.9141387939453125e-06
  0
LINE
  8
0
 10
-11.241762161254883
 20
15.509079933166504
 30
8.106231689453125e-06
 11
-10.352065086364746
 21
16.131990432739258
 31
7.152557373046875e-06
  0
LINE
  8
0
 10
-9.390360832214355
 20
16.73190689086914
 30
6.9141387939453125e-06
 11
-8.358902931213379
 21
17.30309295654297
 31
6.67572021484375e-06
  0
LINE
  8
0
 10
-10.396956443786621
 20
-16.186464309692383
 30
-3.0994415283203125e-06
 11
-10.869501113891602
 21
-15.791707992553711
 31
-3.0994415283203125e-06
  0
LINE
  8
0
 10
-12.176130294799805
 20
-12.658023834228516
 30
-1.430511474609375e-06
 11
-12.25451374053955
 21
-12.660247802734375
 31
-1.6689300537109375e-06
  0
LINE
  8
0
 10
-12.25451374053955
 20
-12.660247802734375
 30
-1.6689300537109375e-06
 11
-12.330953598022461
 21
-12.677720069885254
 31
-1.1920928955078125e-06
  0
LINE
  8
0
 10
-12.330953598022461
 20
-12.677720069885254
 30
-1.1920928955078125e-06
 11
-12.402521133422852
 21
-12.709771156311035
 31
-1.430511474609375e-06
  0
LINE
  8
0
 10
-12.402521133422852
 20
-12.709771156311035
 30
-1.430511474609375e-06
 11
-12.466458320617676
 21
-12.755167007446289
 31
-1.430511474609375e-06
  0
LINE
  8
0
 10
-12.466458320617676
 20
-12.755167007446289
 30
-1.430511474609375e-06
 11
-12.520309448242188
 21
-12.812164306640625
 31
-1.430511474609375e-06
  0
LINE
  8
0
 10
-12.520309448242188
 20
-12.812164306640625
 30
-1.430511474609375e-06
 11
-12.562006950378418
 21
-12.878571510314941
 31
-1.1920928955078125e-06
  0
LINE
  8
0
 10
-12.562006950378418
 20
-12.878571510314941
 30
-1.1920928955078125e-06
 11
-12.589948654174805
 21
-12.951838493347168
 31
-1.430511474609375e-06
  0
LINE
  8
0
 10
-12.589948654174805
 20
-12.951838493347168
 30
-1.430511474609375e-06
 11
-12.603059768676758
 21
-13.029147148132324
 31
-1.1920928955078125e-06
  0
LINE
  8
0
 10
-12.603059768676758
 20
-13.029147148132324
 30
-1.1920928955078125e-06
 11
-12.600835800170898
 21
-13.10753059387207
 31
-1.1920928955078125e-06
  0
LINE
  8
0
 10
-12.600835800170898
 20
-13.10753059387207
 30
-1.1920928955078125e-06
 11
-12.583362579345703
 21
-13.183971405029297
 31
-1.1920928955078125e-06
  0
LINE
  8
0
 10
-12.583362579345703
 20
-13.183971405029297
 30
-1.1920928955078125e-06
 11
-12.551312446594238
 21
-13.255537033081055
 31
-1.430511474609375e-06
  0
LINE
  8
0
 10
-12.551312446594238
 20
-13.255537033081055
 30
-1.430511474609375e-06
 11
-12.505918502807617
 21
-13.319473266601562
 31
-1.6689300537109375e-06
  0
LINE
  8
0
 10
-12.505918502807617
 20
-13.319473266601562
 30
-1.6689300537109375e-06
 11
-12.448921203613281
 21
-13.373326301574707
 31
-1.430511474609375e-06
  0
LINE
  8
0
 10
-12.448921203613281
 20
-13.373326301574707
 30
-1.430511474609375e-06
 11
-12.382511138916016
 21
-13.415023803710938
 31
-1.430511474609375e-06
  0
LINE
  8
0
 10
-12.382511138916016
 20
-13.415023803710938
 30
-1.430511474609375e-06
 11
-12.309246063232422
 21
-13.442965507507324
 31
-1.6689300537109375e-06
  0
LINE
  8
0
 10
-12.309246063232422
 20
-13.442965507507324
 30
-1.6689300537109375e-06
 11
-12.231935501098633
 21
-13.456075668334961
 31
-1.430511474609375e-06
  0
LINE
  8
0
 10
-12.231935501098633
 20
-13.456075668334961
 30
-1.430511474609375e-06
 11
-12.153552055358887
 21
-13.453852653503418
 31
-1.6689300537109375e-06
  0
LINE
  8
0
 10
-12.153552055358887
 20
-13.453852653503418
 30
-1.6689300537109375e-06
 11
-12.077112197875977
 21
-13.436379432678223
 31
-1.9073486328125e-06
  0
LINE
  8
0
 10
-12.077112197875977
 20
-13.436379432678223
 30
-1.9073486328125e-06
 11
-12.005545616149902
 21
-13.404330253601074
 31
-1.9073486328125e-06
  0
LINE
  8
0
 10
-12.005545616149902
 20
-13.404330253601074
 30
-1.9073486328125e-06
 11
-11.941607475280762
 21
-13.35893440246582
 31
-1.6689300537109375e-06
  0
LINE
  8
0
 10
-11.941607475280762
 20
-13.35893440246582
 30
-1.6689300537109375e-06
 11
-11.88775634765625
 21
-13.301937103271484
 31
-1.430511474609375e-06
  0
LINE
  8
0
 10
-11.88775634765625
 20
-13.301937103271484
 30
-1.430511474609375e-06
 11
-11.846057891845703
 21
-13.235529899597168
 31
-1.6689300537109375e-06
  0
LINE
  8
0
 10
-11.846057891845703
 20
-13.235529899597168
 30
-1.6689300537109375e-06
 11
-11.818117141723633
 21
-13.162263870239258
 31
-1.6689300537109375e-06
  0
LINE
  8
0
 10
-11.818117141723633
 20
-13.162263870239258
 30
-1.6689300537109375e-06
 11
-11.80500602722168
 21
-13.084952354431152
 31
-1.6689300537109375e-06
  0
LINE
  8
0
 10
-11.80500602722168
 20
-13.084952354431152
 30
-1.6689300537109375e-06
 11
-11.807229995727539
 21
-13.006571769714355
 31
-1.9073486328125e-06
  0
LINE
  8
0
 10
-11.807229995727539
 20
-13.006571769714355
 30
-1.9073486328125e-06
 11
-11.824702262878418
 21
-12.930129051208496
 31
-1.6689300537109375e-06
  0
LINE
  8
0
 10
-11.824702262878418
 20
-12.930129051208496
 30
-1.6689300537109375e-06
 11
-11.856752395629883
 21
-12.858564376831055
 31
-1.9073486328125e-06
  0
LINE
  8
0
 10
-11.856752395629883
 20
-12.858564376831055
 30
-1.9073486328125e-06
 11
-11.90214729309082
 21
-12.794628143310547
 31
-1.430511474609375e-06
  0
LINE
  8
0
 10
-11.90214729309082
 20
-12.794628143310547
 30
-1.430511474609375e-06
 11
-11.959144592285156
 21
-12.740775108337402
 31
-1.430511474609375e-06
  0
LINE
  8
0
 10
-11.959144592285156
 20
-12.740775108337402
 30
-1.430511474609375e-06
 11
-12.025554656982422
 21
-12.699075698852539
 31
-1.6689300537109375e-06
  0
LINE
  8
0
 10
-12.025554656982422
 20
-12.699075698852539
 30
-1.6689300537109375e-06
 11
-12.098819732666016
 21
-12.671134948730469
 31
-1.6689300537109375e-06
  0
LINE
  8
0
 10
-12.176130294799805
 20
-12.658023834228516
 30
-1.430511474609375e-06
 11
-12.098819732666016
 21
-12.671134948730469
 31
-1.6689300537109375e-06
  0
LINE
  8
0
 10
-12.172772407531738
 20
-10.118026733398438
 30
-4.76837158203125e-07
 11
-12.251155853271484
 21
-10.120250701904297
 31
-4.76837158203125e-07
  0
LINE
  8
0
 10
-12.251155853271484
 20
-10.120250701904297
 30
-4.76837158203125e-07
 11
-12.327595710754395
 21
-10.137723922729492
 31
-4.76837158203125e-07
  0
LINE
  8
0
 10
-12.327595710754395
 20
-10.137723922729492
 30
-4.76837158203125e-07
 11
-12.399162292480469
 21
-10.169772148132324
 31
-4.76837158203125e-07
  0
LINE
  8
0
 10
-12.399162292480469
 20
-10.169772148132324
 30
-4.76837158203125e-07
 11
-12.46310043334961
 21
-10.215167999267578
 31
-2.384185791015625e-07
  0
LINE
  8
0
 10
-12.46310043334961
 20
-10.215167999267578
 30
-2.384185791015625e-07
 11
-12.516951560974121
 21
-10.272165298461914
 31
-4.76837158203125e-07
  0
LINE
  8
0
 10
-12.516951560974121
 20
-10.272165298461914
 30
-4.76837158203125e-07
 11
-12.558649063110352
 21
-10.338573455810547
 31
-3.5762786865234375e-07
  0
LINE
  8
0
 10
-12.558649063110352
 20
-10.338573455810547
 30
-3.5762786865234375e-07
 11
-12.586590766906738
 21
-10.411840438842773
 31
-4.76837158203125e-07
  0
LINE
  8
0
 10
-12.586590766906738
 20
-10.411840438842773
 30
-4.76837158203125e-07
 11
-12.599702835083008
 21
-10.489150047302246
 31
-3.5762786865234375e-07
  0
LINE
  8
0
 10
-12.599702835083008
 20
-10.489150047302246
 30
-3.5762786865234375e-07
 11
-12.597477912902832
 21
-10.56753158569336
 31
-4.76837158203125e-07
  0
LINE
  8
0
 10
-12.597477912902832
 20
-10.56753158569336
 30
-4.76837158203125e-07
 11
-12.580005645751953
 21
-10.643974304199219
 31
-2.384185791015625e-07
  0
LINE
  8
0
 10
-12.580005645751953
 20
-10.643974304199219
 30
-2.384185791015625e-07
 11
-12.547954559326172
 21
-10.715538024902344
 31
-5.960464477539062e-07
  0
LINE
  8
0
 10
-12.547954559326172
 20
-10.715538024902344
 30
-5.960464477539062e-07
 11
-12.50256061553955
 21
-10.779476165771484
 31
-4.76837158203125e-07
  0
LINE
  8
0
 10
-12.50256061553955
 20
-10.779476165771484
 30
-4.76837158203125e-07
 11
-12.445562362670898
 21
-10.833327293395996
 31
-5.960464477539062e-07
  0
LINE
  8
0
 10
-12.445562362670898
 20
-10.833327293395996
 30
-5.960464477539062e-07
 11
-12.37915325164795
 21
-10.875027656555176
 31
-4.76837158203125e-07
  0
LINE
  8
0
 10
-12.37915325164795
 20
-10.875027656555176
 30
-4.76837158203125e-07
 11
-12.305889129638672
 21
-10.902968406677246
 31
-7.152557373046875e-07
  0
LINE
  8
0
 10
-12.305889129638672
 20
-10.902968406677246
 30
-7.152557373046875e-07
 11
-12.228577613830566
 21
-10.9160795211792
 31
-7.152557373046875e-07
  0
LINE
  8
0
 10
-12.228577613830566
 20
-10.9160795211792
 30
-7.152557373046875e-07
 11
-12.15019416809082
 21
-10.91385555267334
 31
-7.152557373046875e-07
  0
LINE
  8
0
 10
-12.15019416809082
 20
-10.91385555267334
 30
-7.152557373046875e-07
 11
-12.07375431060791
 21
-10.896382331848145
 31
-7.152557373046875e-07
  0
LINE
  8
0
 10
-12.07375431060791
 20
-10.896382331848145
 30
-7.152557373046875e-07
 11
-12.002187728881836
 21
-10.864331245422363
 31
-8.344650268554688e-07
  0
LINE
  8
0
 10
-12.002187728881836
 20
-10.864331245422363
 30
-8.344650268554688e-07
 11
-11.938249588012695
 21
-10.818937301635742
 31
-7.152557373046875e-07
  0
LINE
  8
0
 10
-11.938249588012695
 20
-10.818937301635742
 30
-7.152557373046875e-07
 11
-11.8843994140625
 21
-10.761938095092773
 31
-8.344650268554688e-07
  0
LINE
  8
0
 10
-11.8843994140625
 20
-10.761938095092773
 30
-8.344650268554688e-07
 11
-11.842700958251953
 21
-10.695531845092773
 31
-7.152557373046875e-07
  0
LINE
  8
0
 10
-11.842700958251953
 20
-10.695531845092773
 30
-7.152557373046875e-07
 11
-11.814759254455566
 21
-10.622264862060547
 31
-7.152557373046875e-07
  0
LINE
  8
0
 10
-11.814759254455566
 20
-10.622264862060547
 30
-7.152557373046875e-07
 11
-11.801648139953613
 21
-10.544955253601074
 31
-8.344650268554688e-07
  0
LINE
  8
0
 10
-11.801648139953613
 20
-10.544955253601074
 30
-8.344650268554688e-07
 11
-11.803872108459473
 21
-10.466573715209961
 31
-7.152557373046875e-07
  0
LINE
  8
0
 10
-11.803872108459473
 20
-10.466573715209961
 30
-7.152557373046875e-07
 11
-11.821344375610352
 21
-10.390130996704102
 31
-5.960464477539062e-07
  0
LINE
  8
0
 10
-11.821344375610352
 20
-10.390130996704102
 30
-5.960464477539062e-07
 11
-11.853395462036133
 21
-10.318565368652344
 31
-7.152557373046875e-07
  0
LINE
  8
0
 10
-11.853395462036133
 20
-10.318565368652344
 30
-7.152557373046875e-07
 11
-11.898789405822754
 21
-10.254629135131836
 31
-7.152557373046875e-07
  0
LINE
  8
0
 10
-11.898789405822754
 20
-10.254629135131836
 30
-7.152557373046875e-07
 11
-11.955787658691406
 21
-10.200776100158691
 31
-7.152557373046875e-07
  0
LINE
  8
0
 10
-11.955787658691406
 20
-10.200776100158691
 30
-7.152557373046875e-07
 11
-12.022196769714355
 21
-10.159078598022461
 31
-4.76837158203125e-07
  0
LINE
  8
0
 10
-12.022196769714355
 20
-10.159078598022461
 30
-4.76837158203125e-07
 11
-12.09546184539795
 21
-10.13113784790039
 31
-4.76837158203125e-07
  0
LINE
  8
0
 10
-12.172772407531738
 20
-10.118026733398438
 30
-4.76837158203125e-07
 11
-12.09546184539795
 21
-10.13113784790039
 31
-4.76837158203125e-07
  0
LINE
  8
0
 10
-7.09613561630249
 20
-12.664741516113281
 30
-3.814697265625e-06
 11
-7.174518585205078
 21
-12.666964530944824
 31
-3.814697265625e-06
  0
LINE
  8
0
 10
-7.174518585205078
 20
-12.666964530944824
 30
-3.814697265625e-06
 11
-7.2509589195251465
 21
-12.68443775177002
 31
-3.933906555175781e-06
  0
LINE
  8
0
 10
-7.2509589195251465
 20
-12.68443775177002
 30
-3.933906555175781e-06
 11
-7.322525501251221
 21
-12.716487884521484
 31
-3.933906555175781e-06
  0
LINE
  8
0
 10
-7.322525501251221
 20
-12.716487884521484
 30
-3.933906555175781e-06
 11
-7.386463642120361
 21
-12.761883735656738
 31
-3.5762786865234375e-06
  0
LINE
  8
0
 10
-7.386463642120361
 20
-12.761883735656738
 30
-3.5762786865234375e-06
 11
-7.440314292907715
 21
-12.818880081176758
 31
-3.814697265625e-06
  0
LINE
  8
0
 10
-7.440314292907715
 20
-12.818880081176758
 30
-3.814697265625e-06
 11
-7.482012748718262
 21
-12.88528823852539
 31
-3.5762786865234375e-06
  0
LINE
  8
0
 10
-7.482012748718262
 20
-12.88528823852539
 30
-3.5762786865234375e-06
 11
-7.50995397567749
 21
-12.958555221557617
 31
-3.814697265625e-06
  0
LINE
  8
0
 10
-7.50995397567749
 20
-12.958555221557617
 30
-3.814697265625e-06
 11
-7.523065090179443
 21
-13.03586483001709
 31
-4.0531158447265625e-06
  0
LINE
  8
0
 10
-7.523065090179443
 20
-13.03586483001709
 30
-4.0531158447265625e-06
 11
-7.520840644836426
 21
-13.11424732208252
 31
-3.814697265625e-06
  0
LINE
  8
0
 10
-7.520840644836426
 20
-13.11424732208252
 30
-3.814697265625e-06
 11
-7.503368377685547
 21
-13.190688133239746
 31
-3.814697265625e-06
  0
LINE
  8
0
 10
-7.503368377685547
 20
-13.190688133239746
 30
-3.814697265625e-06
 11
-7.471317768096924
 21
-13.262253761291504
 31
-3.814697265625e-06
  0
LINE
  8
0
 10
-7.471317768096924
 20
-13.262253761291504
 30
-3.814697265625e-06
 11
-7.425923824310303
 21
-13.326189994812012
 31
-3.814697265625e-06
  0
LINE
  8
0
 10
-7.425923824310303
 20
-13.326189994812012
 30
-3.814697265625e-06
 11
-7.368926048278809
 21
-13.380043029785156
 31
-3.814697265625e-06
  0
LINE
  8
0
 10
-7.368926048278809
 20
-13.380043029785156
 30
-3.814697265625e-06
 11
-7.302515983581543
 21
-13.42174243927002
 31
-3.814697265625e-06
  0
LINE
  8
0
 10
-7.302515983581543
 20
-13.42174243927002
 30
-3.814697265625e-06
 11
-7.229251861572266
 21
-13.44968318939209
 31
-4.291534423828125e-06
  0
LINE
  8
0
 10
-7.229251861572266
 20
-13.44968318939209
 30
-4.291534423828125e-06
 11
-7.151940822601318
 21
-13.462793350219727
 31
-3.814697265625e-06
  0
LINE
  8
0
 10
-7.151940822601318
 20
-13.462793350219727
 30
-3.814697265625e-06
 11
-7.073557376861572
 21
-13.460570335388184
 31
-4.291534423828125e-06
  0
LINE
  8
0
 10
-7.073557376861572
 20
-13.460570335388184
 30
-4.291534423828125e-06
 11
-6.997117042541504
 21
-13.443097114562988
 31
-3.814697265625e-06
  0
LINE
  8
0
 10
-6.997117042541504
 20
-13.443097114562988
 30
-3.814697265625e-06
 11
-6.92555046081543
 21
-13.411046981811523
 31
-4.291534423828125e-06
  0
LINE
  8
0
 10
-6.92555046081543
 20
-13.411046981811523
 30
-4.291534423828125e-06
 11
-6.861612796783447
 21
-13.36565113067627
 31
-4.291534423828125e-06
  0
LINE
  8
0
 10
-6.861612796783447
 20
-13.36565113067627
 30
-4.291534423828125e-06
 11
-6.807762145996094
 21
-13.308653831481934
 31
-4.0531158447265625e-06
  0
LINE
  8
0
 10
-6.807762145996094
 20
-13.308653831481934
 30
-4.0531158447265625e-06
 11
-6.766063690185547
 21
-13.242246627807617
 31
-4.291534423828125e-06
  0
LINE
  8
0
 10
-6.766063690185547
 20
-13.242246627807617
 30
-4.291534423828125e-06
 11
-6.738122463226318
 21
-13.168980598449707
 31
-4.291534423828125e-06
  0
LINE
  8
0
 10
-6.738122463226318
 20
-13.168980598449707
 30
-4.291534423828125e-06
 11
-6.725010871887207
 21
-13.091670036315918
 31
-4.0531158447265625e-06
  0
LINE
  8
0
 10
-6.725010871887207
 20
-13.091670036315918
 30
-4.0531158447265625e-06
 11
-6.727235317230225
 21
-13.013288497924805
 31
-3.814697265625e-06
  0
LINE
  8
0
 10
-6.727235317230225
 20
-13.013288497924805
 30
-3.814697265625e-06
 11
-6.7447075843811035
 21
-12.936845779418945
 31
-4.0531158447265625e-06
  0
LINE
  8
0
 10
-6.7447075843811035
 20
-12.936845779418945
 30
-4.0531158447265625e-06
 11
-6.776758193969727
 21
-12.865281105041504
 31
-4.291534423828125e-06
  0
LINE
  8
0
 10
-6.776758193969727
 20
-12.865281105041504
 30
-4.291534423828125e-06
 11
-6.822152614593506
 21
-12.801344871520996
 31
-4.0531158447265625e-06
  0
LINE
  8
0
 10
-6.822152614593506
 20
-12.801344871520996
 30
-4.0531158447265625e-06
 11
-6.879150390625
 21
-12.747491836547852
 31
-4.172325134277344e-06
  0
LINE
  8
0
 10
-6.879150390625
 20
-12.747491836547852
 30
-4.172325134277344e-06
 11
-6.945559978485107
 21
-12.705792427062988
 31
-3.933906555175781e-06
  0
LINE
  8
0
 10
-6.945559978485107
 20
-12.705792427062988
 30
-3.933906555175781e-06
 11
-7.018824577331543
 21
-12.677851676940918
 31
-3.814697265625e-06
  0
LINE
  8
0
 10
-7.09613561630249
 20
-12.664741516113281
 30
-3.814697265625e-06
 11
-7.018824577331543
 21
-12.677851676940918
 31
-3.814697265625e-06
  0
LINE
  8
0
 10
-7.092777729034424
 20
-10.124743461608887
 30
-3.0994415283203125e-06
 11
-7.171160697937012
 21
-10.126967430114746
 31
-2.86102294921875e-06
  0
LINE
  8
0
 10
-7.171160697937012
 20
-10.126967430114746
 30
-2.86102294921875e-06
 11
-7.24760103225708
 21
-10.144440650939941
 31
-2.86102294921875e-06
  0
LINE
  8
0
 10
-7.24760103225708
 20
-10.144440650939941
 30
-2.86102294921875e-06
 11
-7.319167613983154
 21
-10.176488876342773
 31
-2.86102294921875e-06
  0
LINE
  8
0
 10
-7.319167613983154
 20
-10.176488876342773
 30
-2.86102294921875e-06
 11
-7.383105278015137
 21
-10.221884727478027
 31
-2.9802322387695312e-06
  0
LINE
  8
0
 10
-7.383105278015137
 20
-10.221884727478027
 30
-2.9802322387695312e-06
 11
-7.436956405639648
 21
-10.278882026672363
 31
-2.86102294921875e-06
  0
LINE
  8
0
 10
-7.436956405639648
 20
-10.278882026672363
 30
-2.86102294921875e-06
 11
-7.478654861450195
 21
-10.345290184020996
 31
-2.86102294921875e-06
  0
LINE
  8
0
 10
-7.478654861450195
 20
-10.345290184020996
 30
-2.86102294921875e-06
 11
-7.506596088409424
 21
-10.418557167053223
 31
-2.9802322387695312e-06
  0
LINE
  8
0
 10
-7.506596088409424
 20
-10.418557167053223
 30
-2.9802322387695312e-06
 11
-7.519707202911377
 21
-10.495866775512695
 31
-2.86102294921875e-06
  0
LINE
  8
0
 10
-7.519707202911377
 20
-10.495866775512695
 30
-2.86102294921875e-06
 11
-7.517482757568359
 21
-10.574248313903809
 31
-2.86102294921875e-06
  0
LINE
  8
0
 10
-7.517482757568359
 20
-10.574248313903809
 30
-2.86102294921875e-06
 11
-7.5000104904174805
 21
-10.650691986083984
 31
-2.9802322387695312e-06
  0
LINE
  8
0
 10
-7.5000104904174805
 20
-10.650691986083984
 30
-2.9802322387695312e-06
 11
-7.467959880828857
 21
-10.72225570678711
 31
-3.0994415283203125e-06
  0
LINE
  8
0
 10
-7.467959880828857
 20
-10.72225570678711
 30
-3.0994415283203125e-06
 11
-7.422565937042236
 21
-10.78619384765625
 31
-2.86102294921875e-06
  0
LINE
  8
0
 10
-7.422565937042236
 20
-10.78619384765625
 30
-2.86102294921875e-06
 11
-7.365567684173584
 21
-10.840044021606445
 31
-3.337860107421875e-06
  0
LINE
  8
0
 10
-7.365567684173584
 20
-10.840044021606445
 30
-3.337860107421875e-06
 11
-7.299158096313477
 21
-10.881744384765625
 31
-3.0994415283203125e-06
  0
LINE
  8
0
 10
-7.299158096313477
 20
-10.881744384765625
 30
-3.0994415283203125e-06
 11
-7.225893974304199
 21
-10.909685134887695
 31
-3.2186508178710938e-06
  0
LINE
  8
0
 10
-7.225893974304199
 20
-10.909685134887695
 30
-3.2186508178710938e-06
 11
-7.148582935333252
 21
-10.922796249389648
 31
-3.0994415283203125e-06
  0
LINE
  8
0
 10
-7.148582935333252
 20
-10.922796249389648
 30
-3.0994415283203125e-06
 11
-7.070199489593506
 21
-10.920572280883789
 31
-3.4570693969726562e-06
  0
LINE
  8
0
 10
-7.070199489593506
 20
-10.920572280883789
 30
-3.4570693969726562e-06
 11
-6.9937591552734375
 21
-10.90310001373291
 31
-3.0994415283203125e-06
  0
LINE
  8
0
 10
-6.9937591552734375
 20
-10.90310001373291
 30
-3.0994415283203125e-06
 11
-6.922192573547363
 21
-10.871047973632812
 31
-3.337860107421875e-06
  0
LINE
  8
0
 10
-6.922192573547363
 20
-10.871047973632812
 30
-3.337860107421875e-06
 11
-6.858254909515381
 21
-10.825654983520508
 31
-3.337860107421875e-06
  0
LINE
  8
0
 10
-6.858254909515381
 20
-10.825654983520508
 30
-3.337860107421875e-06
 11
-6.804403781890869
 21
-10.768655776977539
 31
-3.4570693969726562e-06
  0
LINE
  8
0
 10
-6.804403781890869
 20
-10.768655776977539
 30
-3.4570693969726562e-06
 11
-6.762705326080322
 21
-10.702249526977539
 31
-3.4570693969726562e-06
  0
LINE
  8
0
 10
-6.762705326080322
 20
-10.702249526977539
 30
-3.4570693969726562e-06
 11
-6.734764575958252
 21
-10.628981590270996
 31
-3.337860107421875e-06
  0
LINE
  8
0
 10
-6.734764575958252
 20
-10.628981590270996
 30
-3.337860107421875e-06
 11
-6.721652984619141
 21
-10.551671981811523
 31
-3.337860107421875e-06
  0
LINE
  8
0
 10
-6.721652984619141
 20
-10.551671981811523
 30
-3.337860107421875e-06
 11
-6.723877429962158
 21
-10.47329044342041
 31
-3.4570693969726562e-06
  0
LINE
  8
0
 10
-6.723877429962158
 20
-10.47329044342041
 30
-3.4570693969726562e-06
 11
-6.741349697113037
 21
-10.39684772491455
 31
-3.337860107421875e-06
  0
LINE
  8
0
 10
-6.741349697113037
 20
-10.39684772491455
 30
-3.337860107421875e-06
 11
-6.77340030670166
 21
-10.325282096862793
 31
-3.0994415283203125e-06
  0
LINE
  8
0
 10
-6.77340030670166
 20
-10.325282096862793
 30
-3.0994415283203125e-06
 11
-6.818794250488281
 21
-10.261345863342285
 31
-3.337860107421875e-06
  0
LINE
  8
0
 10
-6.818794250488281
 20
-10.261345863342285
 30
-3.337860107421875e-06
 11
-6.875792503356934
 21
-10.20749282836914
 31
-3.0994415283203125e-06
  0
LINE
  8
0
 10
-6.875792503356934
 20
-10.20749282836914
 30
-3.0994415283203125e-06
 11
-6.942202091217041
 21
-10.165796279907227
 31
-3.0994415283203125e-06
  0
LINE
  8
0
 10
-6.942202091217041
 20
-10.165796279907227
 30
-3.0994415283203125e-06
 11
-7.015466690063477
 21
-10.13785457611084
 31
-2.86102294921875e-06
  0
LINE
  8
0
 10
-7.092777729034424
 20
-10.124743461608887
 30
-3.0994415283203125e-06
 11
-7.015466690063477
 21
-10.13785457611084
 31
-2.86102294921875e-06
  0
LINE
  8
0
 10
-4.556136131286621
 20
-12.668099403381348
 30
-5.125999450683594e-06
 11
-4.634519577026367
 21
-12.670323371887207
 31
-5.245208740234375e-06
  0
LINE
  8
0
 10
-4.634519577026367
 20
-12.670323371887207
 30
-5.245208740234375e-06
 11
-4.710959434509277
 21
-12.687796592712402
 31
-5.0067901611328125e-06
  0
LINE
  8
0
 10
-4.710959434509277
 20
-12.687796592712402
 30
-5.0067901611328125e-06
 11
-4.782526016235352
 21
-12.719846725463867
 31
-4.887580871582031e-06
  0
LINE
  8
0
 10
-4.782526016235352
 20
-12.719846725463867
 30
-4.887580871582031e-06
 11
-4.846464157104492
 21
-12.765241622924805
 31
-4.887580871582031e-06
  0
LINE
  8
0
 10
-4.846464157104492
 20
-12.765241622924805
 30
-4.887580871582031e-06
 11
-4.900314807891846
 21
-12.822239875793457
 31
-4.887580871582031e-06
  0
LINE
  8
0
 10
-4.900314807891846
 20
-12.822239875793457
 30
-4.887580871582031e-06
 11
-4.942013263702393
 21
-12.888646125793457
 31
-5.0067901611328125e-06
  0
LINE
  8
0
 10
-4.942013263702393
 20
-12.888646125793457
 30
-5.0067901611328125e-06
 11
-4.969954490661621
 21
-12.9619140625
 31
-4.887580871582031e-06
  0
LINE
  8
0
 10
-4.969954490661621
 20
-12.9619140625
 30
-4.887580871582031e-06
 11
-4.983066082000732
 21
-13.039223670959473
 31
-5.0067901611328125e-06
  0
LINE
  8
0
 10
-4.983066082000732
 20
-13.039223670959473
 30
-5.0067901611328125e-06
 11
-4.980841636657715
 21
-13.117606163024902
 31
-4.76837158203125e-06
  0
LINE
  8
0
 10
-4.980841636657715
 20
-13.117606163024902
 30
-4.76837158203125e-06
 11
-4.963369369506836
 21
-13.194047927856445
 31
-4.76837158203125e-06
  0
LINE
  8
0
 10
-4.963369369506836
 20
-13.194047927856445
 30
-4.76837158203125e-06
 11
-4.931318283081055
 21
-13.265612602233887
 31
-5.245208740234375e-06
  0
LINE
  8
0
 10
-4.931318283081055
 20
-13.265612602233887
 30
-5.245208740234375e-06
 11
-4.885924339294434
 21
-13.329549789428711
 31
-5.245208740234375e-06
  0
LINE
  8
0
 10
-4.885924339294434
 20
-13.329549789428711
 30
-5.245208740234375e-06
 11
-4.8289265632629395
 21
-13.383401870727539
 31
-5.0067901611328125e-06
  0
LINE
  8
0
 10
-4.8289265632629395
 20
-13.383401870727539
 30
-5.0067901611328125e-06
 11
-4.762516975402832
 21
-13.42509937286377
 31
-5.245208740234375e-06
  0
LINE
  8
0
 10
-4.762516975402832
 20
-13.42509937286377
 30
-5.245208740234375e-06
 11
-4.6892523765563965
 21
-13.453041076660156
 31
-5.245208740234375e-06
  0
LINE
  8
0
 10
-4.6892523765563965
 20
-13.453041076660156
 30
-5.245208740234375e-06
 11
-4.611941337585449
 21
-13.46615219116211
 31
-5.7220458984375e-06
  0
LINE
  8
0
 10
-4.611941337585449
 20
-13.46615219116211
 30
-5.7220458984375e-06
 11
-4.533557891845703
 21
-13.46392822265625
 31
-5.245208740234375e-06
  0
LINE
  8
0
 10
-4.533557891845703
 20
-13.46392822265625
 30
-5.245208740234375e-06
 11
-4.457118034362793
 21
-13.446455001831055
 31
-5.7220458984375e-06
  0
LINE
  8
0
 10
-4.457118034362793
 20
-13.446455001831055
 30
-5.7220458984375e-06
 11
-4.385551452636719
 21
-13.414405822753906
 31
-5.4836273193359375e-06
  0
LINE
  8
0
 10
-4.385551452636719
 20
-13.414405822753906
 30
-5.4836273193359375e-06
 11
-4.321613311767578
 21
-13.369009971618652
 31
-5.245208740234375e-06
  0
LINE
  8
0
 10
-4.321613311767578
 20
-13.369009971618652
 30
-5.245208740234375e-06
 11
-4.267762660980225
 21
-13.312012672424316
 31
-5.7220458984375e-06
  0
LINE
  8
0
 10
-4.267762660980225
 20
-13.312012672424316
 30
-5.7220458984375e-06
 11
-4.226064205169678
 21
-13.24560546875
 31
-5.245208740234375e-06
  0
LINE
  8
0
 10
-4.226064205169678
 20
-13.24560546875
 30
-5.245208740234375e-06
 11
-4.198122978210449
 21
-13.17233943939209
 31
-5.245208740234375e-06
  0
LINE
  8
0
 10
-4.198122978210449
 20
-13.17233943939209
 30
-5.245208740234375e-06
 11
-4.185011863708496
 21
-13.0950288772583
 31
-5.602836608886719e-06
  0
LINE
  8
0
 10
-4.185011863708496
 20
-13.0950288772583
 30
-5.602836608886719e-06
 11
-4.1872358322143555
 21
-13.016647338867188
 31
-5.4836273193359375e-06
  0
LINE
  8
0
 10
-4.1872358322143555
 20
-13.016647338867188
 30
-5.4836273193359375e-06
 11
-4.204708099365234
 21
-12.940203666687012
 31
-5.364418029785156e-06
  0
LINE
  8
0
 10
-4.204708099365234
 20
-12.940203666687012
 30
-5.364418029785156e-06
 11
-4.236759185791016
 21
-12.868639945983887
 31
-5.4836273193359375e-06
  0
LINE
  8
0
 10
-4.236759185791016
 20
-12.868639945983887
 30
-5.4836273193359375e-06
 11
-4.282153129577637
 21
-12.804701805114746
 31
-5.245208740234375e-06
  0
LINE
  8
0
 10
-4.282153129577637
 20
-12.804701805114746
 30
-5.245208740234375e-06
 11
-4.339150428771973
 21
-12.750850677490234
 31
-5.245208740234375e-06
  0
LINE
  8
0
 10
-4.339150428771973
 20
-12.750850677490234
 30
-5.245208740234375e-06
 11
-4.405560493469238
 21
-12.709152221679688
 31
-5.245208740234375e-06
  0
LINE
  8
0
 10
-4.405560493469238
 20
-12.709152221679688
 30
-5.245208740234375e-06
 11
-4.478825092315674
 21
-12.6812105178833
 31
-5.245208740234375e-06
  0
LINE
  8
0
 10
-4.556136131286621
 20
-12.668099403381348
 30
-5.125999450683594e-06
 11
-4.478825092315674
 21
-12.6812105178833
 31
-5.245208740234375e-06
  0
LINE
  8
0
 10
-4.552778244018555
 20
-10.128103256225586
 30
-4.291534423828125e-06
 11
-4.631161689758301
 21
-10.130326271057129
 31
-4.0531158447265625e-06
  0
LINE
  8
0
 10
-4.631161689758301
 20
-10.130326271057129
 30
-4.0531158447265625e-06
 11
-4.707602024078369
 21
-10.147797584533691
 31
-4.172325134277344e-06
  0
LINE
  8
0
 10
-4.707602024078369
 20
-10.147797584533691
 30
-4.172325134277344e-06
 11
-4.779168605804443
 21
-10.179847717285156
 31
-4.172325134277344e-06
  0
LINE
  8
0
 10
-4.779168605804443
 20
-10.179847717285156
 30
-4.172325134277344e-06
 11
-4.843106746673584
 21
-10.225244522094727
 31
-4.172325134277344e-06
  0
LINE
  8
0
 10
-4.843106746673584
 20
-10.225244522094727
 30
-4.172325134277344e-06
 11
-4.8969573974609375
 21
-10.282240867614746
 31
-4.172325134277344e-06
  0
LINE
  8
0
 10
-4.8969573974609375
 20
-10.282240867614746
 30
-4.172325134277344e-06
 11
-4.938655853271484
 21
-10.348649978637695
 31
-4.0531158447265625e-06
  0
LINE
  8
0
 10
-4.938655853271484
 20
-10.348649978637695
 30
-4.0531158447265625e-06
 11
-4.966597080230713
 21
-10.421916007995605
 31
-4.172325134277344e-06
  0
LINE
  8
0
 10
-4.966597080230713
 20
-10.421916007995605
 30
-4.172325134277344e-06
 11
-4.979708671569824
 21
-10.499225616455078
 31
-4.0531158447265625e-06
  0
LINE
  8
0
 10
-4.979708671569824
 20
-10.499225616455078
 30
-4.0531158447265625e-06
 11
-4.977483749389648
 21
-10.577608108520508
 31
-4.172325134277344e-06
  0
LINE
  8
0
 10
-4.977483749389648
 20
-10.577608108520508
 30
-4.172325134277344e-06
 11
-4.9600114822387695
 21
-10.65404987335205
 31
-4.291534423828125e-06
  0
LINE
  8
0
 10
-4.9600114822387695
 20
-10.65404987335205
 30
-4.291534423828125e-06
 11
-4.9279608726501465
 21
-10.725614547729492
 31
-4.291534423828125e-06
  0
LINE
  8
0
 10
-4.9279608726501465
 20
-10.725614547729492
 30
-4.291534423828125e-06
 11
-4.882566928863525
 21
-10.789551734924316
 31
-4.291534423828125e-06
  0
LINE
  8
0
 10
-4.882566928863525
 20
-10.789551734924316
 30
-4.291534423828125e-06
 11
-4.825569152832031
 21
-10.843403816223145
 31
-4.291534423828125e-06
  0
LINE
  8
0
 10
-4.825569152832031
 20
-10.843403816223145
 30
-4.291534423828125e-06
 11
-4.759159564971924
 21
-10.885103225708008
 31
-4.5299530029296875e-06
  0
LINE
  8
0
 10
-4.759159564971924
 20
-10.885103225708008
 30
-4.5299530029296875e-06
 11
-4.685894966125488
 21
-10.913044929504395
 31
-4.5299530029296875e-06
  0
LINE
  8
0
 10
-4.685894966125488
 20
-10.913044929504395
 30
-4.5299530029296875e-06
 11
-4.608583450317383
 21
-10.926154136657715
 31
-4.649162292480469e-06
  0
LINE
  8
0
 10
-4.608583450317383
 20
-10.926154136657715
 30
-4.649162292480469e-06
 11
-4.530200481414795
 21
-10.923932075500488
 31
-4.649162292480469e-06
  0
LINE
  8
0
 10
-4.530200481414795
 20
-10.923932075500488
 30
-4.649162292480469e-06
 11
-4.453760147094727
 21
-10.906458854675293
 31
-4.887580871582031e-06
  0
LINE
  8
0
 10
-4.453760147094727
 20
-10.906458854675293
 30
-4.887580871582031e-06
 11
-4.382193565368652
 21
-10.874407768249512
 31
-4.649162292480469e-06
  0
LINE
  8
0
 10
-4.382193565368652
 20
-10.874407768249512
 30
-4.649162292480469e-06
 11
-4.318255424499512
 21
-10.829011917114258
 31
-4.649162292480469e-06
  0
LINE
  8
0
 10
-4.318255424499512
 20
-10.829011917114258
 30
-4.649162292480469e-06
 11
-4.264405250549316
 21
-10.772014617919922
 31
-4.649162292480469e-06
  0
LINE
  8
0
 10
-4.264405250549316
 20
-10.772014617919922
 30
-4.649162292480469e-06
 11
-4.2227067947387695
 21
-10.705607414245605
 31
-4.649162292480469e-06
  0
LINE
  8
0
 10
-4.2227067947387695
 20
-10.705607414245605
 30
-4.649162292480469e-06
 11
-4.194765567779541
 21
-10.632341384887695
 31
-4.76837158203125e-06
  0
LINE
  8
0
 10
-4.194765567779541
 20
-10.632341384887695
 30
-4.76837158203125e-06
 11
-4.18165397644043
 21
-10.555030822753906
 31
-4.649162292480469e-06
  0
LINE
  8
0
 10
-4.18165397644043
 20
-10.555030822753906
 30
-4.649162292480469e-06
 11
-4.183878421783447
 21
-10.47665023803711
 31
-4.76837158203125e-06
  0
LINE
  8
0
 10
-4.183878421783447
 20
-10.47665023803711
 30
-4.76837158203125e-06
 11
-4.201351165771484
 21
-10.40020751953125
 31
-4.649162292480469e-06
  0
LINE
  8
0
 10
-4.201351165771484
 20
-10.40020751953125
 30
-4.649162292480469e-06
 11
-4.233401298522949
 21
-10.328640937805176
 31
-4.5299530029296875e-06
  0
LINE
  8
0
 10
-4.233401298522949
 20
-10.328640937805176
 30
-4.5299530029296875e-06
 11
-4.27879524230957
 21
-10.264704704284668
 31
-4.5299530029296875e-06
  0
LINE
  8
0
 10
-4.27879524230957
 20
-10.264704704284668
 30
-4.5299530029296875e-06
 11
-4.335793495178223
 21
-10.210851669311523
 31
-4.5299530029296875e-06
  0
LINE
  8
0
 10
-4.335793495178223
 20
-10.210851669311523
 30
-4.5299530029296875e-06
 11
-4.402202606201172
 21
-10.169153213500977
 31
-4.5299530029296875e-06
  0
LINE
  8
0
 10
-4.402202606201172
 20
-10.169153213500977
 30
-4.5299530029296875e-06
 11
-4.475467681884766
 21
-10.141213417053223
 31
-4.172325134277344e-06
  0
LINE
  8
0
 10
-4.552778244018555
 20
-10.128103256225586
 30
-4.291534423828125e-06
 11
-4.475467681884766
 21
-10.141213417053223
 31
-4.172325134277344e-06
  0
LINE
  8
0
 10
-2.016136646270752
 20
-12.67145824432373
 30
-6.4373016357421875e-06
 11
-2.094520092010498
 21
-12.67368221282959
 31
-6.4373016357421875e-06
  0
LINE
  8
0
 10
-2.094520092010498
 20
-12.67368221282959
 30
-6.4373016357421875e-06
 11
-2.1709604263305664
 21
-12.691155433654785
 31
-6.4373016357421875e-06
  0
LINE
  8
0
 10
-2.1709604263305664
 20
-12.691155433654785
 30
-6.4373016357421875e-06
 11
-2.2425270080566406
 21
-12.723203659057617
 31
-6.318092346191406e-06
  0
LINE
  8
0
 10
-2.2425270080566406
 20
-12.723203659057617
 30
-6.318092346191406e-06
 11
-2.3064651489257812
 21
-12.768601417541504
 31
-6.4373016357421875e-06
  0
LINE
  8
0
 10
-2.3064651489257812
 20
-12.768601417541504
 30
-6.4373016357421875e-06
 11
-2.3603157997131348
 21
-12.825596809387207
 31
-6.318092346191406e-06
  0
LINE
  8
0
 10
-2.3603157997131348
 20
-12.825596809387207
 30
-6.318092346191406e-06
 11
-2.4020137786865234
 21
-12.892005920410156
 31
-6.4373016357421875e-06
  0
LINE
  8
0
 10
-2.4020137786865234
 20
-12.892005920410156
 30
-6.4373016357421875e-06
 11
-2.42995548248291
 21
-12.965271949768066
 31
-6.318092346191406e-06
  0
LINE
  8
0
 10
-2.42995548248291
 20
-12.965271949768066
 30
-6.318092346191406e-06
 11
-2.4430665969848633
 21
-13.042581558227539
 31
-6.318092346191406e-06
  0
LINE
  8
0
 10
-2.4430665969848633
 20
-13.042581558227539
 30
-6.318092346191406e-06
 11
-2.4408421516418457
 21
-13.120965003967285
 31
-6.4373016357421875e-06
  0
LINE
  8
0
 10
-2.4408421516418457
 20
-13.120965003967285
 30
-6.4373016357421875e-06
 11
-2.4233694076538086
 21
-13.197406768798828
 31
-6.4373016357421875e-06
  0
LINE
  8
0
 10
-2.4233694076538086
 20
-13.197406768798828
 30
-6.4373016357421875e-06
 11
-2.3913192749023438
 21
-13.26897144317627
 31
-6.4373016357421875e-06
  0
LINE
  8
0
 10
-2.3913192749023438
 20
-13.26897144317627
 30
-6.4373016357421875e-06
 11
-2.3459253311157227
 21
-13.332908630371094
 31
-6.198883056640625e-06
  0
LINE
  8
0
 10
-2.3459253311157227
 20
-13.332908630371094
 30
-6.198883056640625e-06
 11
-2.2889275550842285
 21
-13.386759757995605
 31
-6.4373016357421875e-06
  0
LINE
  8
0
 10
-2.2889275550842285
 20
-13.386759757995605
 30
-6.4373016357421875e-06
 11
-2.222517490386963
 21
-13.428459167480469
 31
-6.67572021484375e-06
  0
LINE
  8
0
 10
-2.222517490386963
 20
-13.428459167480469
 30
-6.67572021484375e-06
 11
-2.1492533683776855
 21
-13.456399917602539
 31
-6.4373016357421875e-06
  0
LINE
  8
0
 10
-2.1492533683776855
 20
-13.456399917602539
 30
-6.4373016357421875e-06
 11
-2.07194185256958
 21
-13.469510078430176
 31
-6.67572021484375e-06
  0
LINE
  8
0
 10
-2.07194185256958
 20
-13.469510078430176
 30
-6.67572021484375e-06
 11
-1.9935593605041504
 21
-13.467287063598633
 31
-7.152557373046875e-06
  0
LINE
  8
0
 10
-1.9935593605041504
 20
-13.467287063598633
 30
-7.152557373046875e-06
 11
-1.9171185493469238
 21
-13.449814796447754
 31
-6.9141387939453125e-06
  0
LINE
  8
0
 10
-1.9171185493469238
 20
-13.449814796447754
 30
-6.9141387939453125e-06
 11
-1.8455519676208496
 21
-13.417763710021973
 31
-6.67572021484375e-06
  0
LINE
  8
0
 10
-1.8455519676208496
 20
-13.417763710021973
 30
-6.67572021484375e-06
 11
-1.7816143035888672
 21
-13.372368812561035
 31
-6.9141387939453125e-06
  0
LINE
  8
0
 10
-1.7816143035888672
 20
-13.372368812561035
 30
-6.9141387939453125e-06
 11
-1.7277631759643555
 21
-13.315372467041016
 31
-6.9141387939453125e-06
  0
LINE
  8
0
 10
-1.7277631759643555
 20
-13.315372467041016
 30
-6.9141387939453125e-06
 11
-1.6860647201538086
 21
-13.248964309692383
 31
-6.9141387939453125e-06
  0
LINE
  8
0
 10
-1.6860647201538086
 20
-13.248964309692383
 30
-6.9141387939453125e-06
 11
-1.65812349319458
 21
-13.175697326660156
 31
-6.4373016357421875e-06
  0
LINE
  8
0
 10
-1.65812349319458
 20
-13.175697326660156
 30
-6.4373016357421875e-06
 11
-1.6450119018554688
 21
-13.098386764526367
 31
-6.794929504394531e-06
  0
LINE
  8
0
 10
-1.6450119018554688
 20
-13.098386764526367
 30
-6.794929504394531e-06
 11
-1.6472368240356445
 21
-13.020005226135254
 31
-6.794929504394531e-06
  0
LINE
  8
0
 10
-1.6472368240356445
 20
-13.020005226135254
 30
-6.794929504394531e-06
 11
-1.6647090911865234
 21
-12.943562507629395
 31
-6.67572021484375e-06
  0
LINE
  8
0
 10
-1.6647090911865234
 20
-12.943562507629395
 30
-6.67572021484375e-06
 11
-1.6967597007751465
 21
-12.871997833251953
 31
-6.556510925292969e-06
  0
LINE
  8
0
 10
-1.6967597007751465
 20
-12.871997833251953
 30
-6.556510925292969e-06
 11
-1.7421541213989258
 21
-12.808061599731445
 31
-6.67572021484375e-06
  0
LINE
  8
0
 10
-1.7421541213989258
 20
-12.808061599731445
 30
-6.67572021484375e-06
 11
-1.7991514205932617
 21
-12.754207611083984
 31
-6.556510925292969e-06
  0
LINE
  8
0
 10
-1.7991514205932617
 20
-12.754207611083984
 30
-6.556510925292969e-06
 11
-1.8655614852905273
 21
-12.71251106262207
 31
-6.67572021484375e-06
  0
LINE
  8
0
 10
-1.8655614852905273
 20
-12.71251106262207
 30
-6.67572021484375e-06
 11
-1.938826084136963
 21
-12.684569358825684
 31
-6.4373016357421875e-06
  0
LINE
  8
0
 10
-2.016136646270752
 20
-12.67145824432373
 30
-6.4373016357421875e-06
 11
-1.938826084136963
 21
-12.684569358825684
 31
-6.4373016357421875e-06
  0
LINE
  8
0
 10
-2.0127792358398438
 20
-10.131460189819336
 30
-5.602836608886719e-06
 11
-2.09116268157959
 21
-10.133684158325195
 31
-5.602836608886719e-06
  0
LINE
  8
0
 10
-2.09116268157959
 20
-10.133684158325195
 30
-5.602836608886719e-06
 11
-2.1676025390625
 21
-10.15115737915039
 31
-5.602836608886719e-06
  0
LINE
  8
0
 10
-2.1676025390625
 20
-10.15115737915039
 30
-5.602836608886719e-06
 11
-2.2391695976257324
 21
-10.183207511901855
 31
-5.602836608886719e-06
  0
LINE
  8
0
 10
-2.2391695976257324
 20
-10.183207511901855
 30
-5.602836608886719e-06
 11
-2.303107738494873
 21
-10.228602409362793
 31
-5.602836608886719e-06
  0
LINE
  8
0
 10
-2.303107738494873
 20
-10.228602409362793
 30
-5.602836608886719e-06
 11
-2.3569583892822266
 21
-10.285598754882812
 31
-5.364418029785156e-06
  0
LINE
  8
0
 10
-2.3569583892822266
 20
-10.285598754882812
 30
-5.364418029785156e-06
 11
-2.3986563682556152
 21
-10.352007865905762
 31
-5.602836608886719e-06
  0
LINE
  8
0
 10
-2.3986563682556152
 20
-10.352007865905762
 30
-5.602836608886719e-06
 11
-2.426598072052002
 21
-10.425275802612305
 31
-5.364418029785156e-06
  0
LINE
  8
0
 10
-2.426598072052002
 20
-10.425275802612305
 30
-5.364418029785156e-06
 11
-2.439708709716797
 21
-10.502582550048828
 31
-5.602836608886719e-06
  0
LINE
  8
0
 10
-2.439708709716797
 20
-10.502582550048828
 30
-5.602836608886719e-06
 11
-2.4374847412109375
 21
-10.58096694946289
 31
-5.364418029785156e-06
  0
LINE
  8
0
 10
-2.4374847412109375
 20
-10.58096694946289
 30
-5.364418029785156e-06
 11
-2.4200119972229004
 21
-10.65740966796875
 31
-5.602836608886719e-06
  0
LINE
  8
0
 10
-2.4200119972229004
 20
-10.65740966796875
 30
-5.602836608886719e-06
 11
-2.3879618644714355
 21
-10.728972434997559
 31
-5.7220458984375e-06
  0
LINE
  8
0
 10
-2.3879618644714355
 20
-10.728972434997559
 30
-5.7220458984375e-06
 11
-2.3425679206848145
 21
-10.792911529541016
 31
-5.602836608886719e-06
  0
LINE
  8
0
 10
-2.3425679206848145
 20
-10.792911529541016
 30
-5.602836608886719e-06
 11
-2.285569667816162
 21
-10.846762657165527
 31
-5.7220458984375e-06
  0
LINE
  8
0
 10
-2.285569667816162
 20
-10.846762657165527
 30
-5.7220458984375e-06
 11
-2.2191600799560547
 21
-10.888461112976074
 31
-5.841255187988281e-06
  0
LINE
  8
0
 10
-2.2191600799560547
 20
-10.888461112976074
 30
-5.841255187988281e-06
 11
-2.145895481109619
 21
-10.916401863098145
 31
-5.841255187988281e-06
  0
LINE
  8
0
 10
-2.145895481109619
 20
-10.916401863098145
 30
-5.841255187988281e-06
 11
-2.068584442138672
 21
-10.929512977600098
 31
-5.841255187988281e-06
  0
LINE
  8
0
 10
-2.068584442138672
 20
-10.929512977600098
 30
-5.841255187988281e-06
 11
-1.990201473236084
 21
-10.927289962768555
 31
-5.841255187988281e-06
  0
LINE
  8
0
 10
-1.990201473236084
 20
-10.927289962768555
 30
-5.841255187988281e-06
 11
-1.9137611389160156
 21
-10.90981674194336
 31
-5.841255187988281e-06
  0
LINE
  8
0
 10
-1.9137611389160156
 20
-10.90981674194336
 30
-5.841255187988281e-06
 11
-1.8421940803527832
 21
-10.877765655517578
 31
-5.9604644775390625e-06
  0
LINE
  8
0
 10
-1.8421940803527832
 20
-10.877765655517578
 30
-5.9604644775390625e-06
 11
-1.778256893157959
 21
-10.832371711730957
 31
-5.841255187988281e-06
  0
LINE
  8
0
 10
-1.778256893157959
 20
-10.832371711730957
 30
-5.841255187988281e-06
 11
-1.7244057655334473
 21
-10.775373458862305
 31
-5.9604644775390625e-06
  0
LINE
  8
0
 10
-1.7244057655334473
 20
-10.775373458862305
 30
-5.9604644775390625e-06
 11
-1.6827073097229004
 21
-10.708966255187988
 31
-5.841255187988281e-06
  0
LINE
  8
0
 10
-1.6827073097229004
 20
-10.708966255187988
 30
-5.841255187988281e-06
 11
-1.6547660827636719
 21
-10.635699272155762
 31
-5.841255187988281e-06
  0
LINE
  8
0
 10
-1.6547660827636719
 20
-10.635699272155762
 30
-5.841255187988281e-06
 11
-1.6416544914245605
 21
-10.558389663696289
 31
-5.9604644775390625e-06
  0
LINE
  8
0
 10
-1.6416544914245605
 20
-10.558389663696289
 30
-5.9604644775390625e-06
 11
-1.6438794136047363
 21
-10.480008125305176
 31
-5.841255187988281e-06
  0
LINE
  8
0
 10
-1.6438794136047363
 20
-10.480008125305176
 30
-5.841255187988281e-06
 11
-1.6613516807556152
 21
-10.403564453125
 31
-6.079673767089844e-06
  0
LINE
  8
0
 10
-1.6613516807556152
 20
-10.403564453125
 30
-6.079673767089844e-06
 11
-1.6934022903442383
 21
-10.331999778747559
 31
-5.841255187988281e-06
  0
LINE
  8
0
 10
-1.6934022903442383
 20
-10.331999778747559
 30
-5.841255187988281e-06
 11
-1.7387967109680176
 21
-10.268062591552734
 31
-5.841255187988281e-06
  0
LINE
  8
0
 10
-1.7387967109680176
 20
-10.268062591552734
 30
-5.841255187988281e-06
 11
-1.7957940101623535
 21
-10.214210510253906
 31
-5.602836608886719e-06
  0
LINE
  8
0
 10
-1.7957940101623535
 20
-10.214210510253906
 30
-5.602836608886719e-06
 11
-1.862203598022461
 21
-10.172513008117676
 31
-5.841255187988281e-06
  0
LINE
  8
0
 10
-1.862203598022461
 20
-10.172513008117676
 30
-5.841255187988281e-06
 11
-1.9354686737060547
 21
-10.144572257995605
 31
-5.602836608886719e-06
  0
LINE
  8
0
 10
-2.0127792358398438
 20
-10.131460189819336
 30
-5.602836608886719e-06
 11
-1.9354686737060547
 21
-10.144572257995605
 31
-5.602836608886719e-06
  0
LINE
  8
0
 10
-12.175054550170898
 20
11.141975402832031
 30
6.556510925292969e-06
 11
-12.253437042236328
 21
11.139749526977539
 31
6.556510925292969e-06
  0
LINE
  8
0
 10
-12.253437042236328
 20
11.139749526977539
 30
6.556510925292969e-06
 11
-12.329877853393555
 21
11.122278213500977
 31
6.556510925292969e-06
  0
LINE
  8
0
 10
-12.329877853393555
 20
11.122278213500977
 30
6.556510925292969e-06
 11
-12.401443481445312
 21
11.090229034423828
 31
6.556510925292969e-06
  0
LINE
  8
0
 10
-12.401443481445312
 20
11.090229034423828
 30
6.556510925292969e-06
 11
-12.465381622314453
 21
11.044832229614258
 31
6.556510925292969e-06
  0
LINE
  8
0
 10
-12.465381622314453
 20
11.044832229614258
 30
6.556510925292969e-06
 11
-12.519232749938965
 21
10.987835884094238
 31
6.794929504394531e-06
  0
LINE
  8
0
 10
-12.519232749938965
 20
10.987835884094238
 30
6.794929504394531e-06
 11
-12.560931205749512
 21
10.921426773071289
 31
6.556510925292969e-06
  0
LINE
  8
0
 10
-12.560931205749512
 20
10.921426773071289
 30
6.556510925292969e-06
 11
-12.588871955871582
 21
10.848162651062012
 31
6.4373016357421875e-06
  0
LINE
  8
0
 10
-12.588871955871582
 20
10.848162651062012
 30
6.4373016357421875e-06
 11
-12.601984024047852
 21
10.770851135253906
 31
6.556510925292969e-06
  0
LINE
  8
0
 10
-12.601984024047852
 20
10.770851135253906
 30
6.556510925292969e-06
 11
-12.599759101867676
 21
10.692468643188477
 31
6.556510925292969e-06
  0
LINE
  8
0
 10
-12.599759101867676
 20
10.692468643188477
 30
6.556510925292969e-06
 11
-12.582286834716797
 21
10.616026878356934
 31
6.67572021484375e-06
  0
LINE
  8
0
 10
-12.582286834716797
 20
10.616026878356934
 30
6.67572021484375e-06
 11
-12.550235748291016
 21
10.544464111328125
 31
6.67572021484375e-06
  0
LINE
  8
0
 10
-12.550235748291016
 20
10.544464111328125
 30
6.67572021484375e-06
 11
-12.504842758178711
 21
10.480523109436035
 31
6.318092346191406e-06
  0
LINE
  8
0
 10
-12.504842758178711
 20
10.480523109436035
 30
6.318092346191406e-06
 11
-12.447844505310059
 21
10.42667293548584
 31
6.4373016357421875e-06
  0
LINE
  8
0
 10
-12.447844505310059
 20
10.42667293548584
 30
6.4373016357421875e-06
 11
-12.38143539428711
 21
10.38497543334961
 31
6.198883056640625e-06
  0
LINE
  8
0
 10
-12.38143539428711
 20
10.38497543334961
 30
6.198883056640625e-06
 11
-12.308170318603516
 21
10.357029914855957
 31
6.4373016357421875e-06
  0
LINE
  8
0
 10
-12.308170318603516
 20
10.357029914855957
 30
6.4373016357421875e-06
 11
-12.230859756469727
 21
10.343921661376953
 31
6.079673767089844e-06
  0
LINE
  8
0
 10
-12.230859756469727
 20
10.343921661376953
 30
6.079673767089844e-06
 11
-12.152475357055664
 21
10.346142768859863
 31
6.4373016357421875e-06
  0
LINE
  8
0
 10
-12.152475357055664
 20
10.346142768859863
 30
6.4373016357421875e-06
 11
-12.07603645324707
 21
10.363619804382324
 31
6.198883056640625e-06
  0
LINE
  8
0
 10
-12.07603645324707
 20
10.363619804382324
 30
6.198883056640625e-06
 11
-12.00446891784668
 21
10.395668983459473
 31
6.198883056640625e-06
  0
LINE
  8
0
 10
-12.00446891784668
 20
10.395668983459473
 30
6.198883056640625e-06
 11
-11.940530776977539
 21
10.441061973571777
 31
6.079673767089844e-06
  0
LINE
  8
0
 10
-11.940530776977539
 20
10.441061973571777
 30
6.079673767089844e-06
 11
-11.886680603027344
 21
10.498064041137695
 31
6.198883056640625e-06
  0
LINE
  8
0
 10
-11.886680603027344
 20
10.498064041137695
 30
6.198883056640625e-06
 11
-11.844982147216797
 21
10.564469337463379
 31
6.198883056640625e-06
  0
LINE
  8
0
 10
-11.844982147216797
 20
10.564469337463379
 30
6.198883056640625e-06
 11
-11.81704044342041
 21
10.637735366821289
 31
6.079673767089844e-06
  0
LINE
  8
0
 10
-11.81704044342041
 20
10.637735366821289
 30
6.079673767089844e-06
 11
-11.803929328918457
 21
10.715045928955078
 31
6.079673767089844e-06
  0
LINE
  8
0
 10
-11.803929328918457
 20
10.715045928955078
 30
6.079673767089844e-06
 11
-11.806154251098633
 21
10.793428421020508
 31
6.079673767089844e-06
  0
LINE
  8
0
 10
-11.806154251098633
 20
10.793428421020508
 30
6.079673767089844e-06
 11
-11.823625564575195
 21
10.869869232177734
 31
6.079673767089844e-06
  0
LINE
  8
0
 10
-11.823625564575195
 20
10.869869232177734
 30
6.079673767089844e-06
 11
-11.855676651000977
 21
10.941435813903809
 31
6.318092346191406e-06
  0
LINE
  8
0
 10
-11.855676651000977
 20
10.941435813903809
 30
6.318092346191406e-06
 11
-11.901070594787598
 21
11.00537109375
 31
6.318092346191406e-06
  0
LINE
  8
0
 10
-11.901070594787598
 20
11.00537109375
 30
6.318092346191406e-06
 11
-11.95806884765625
 21
11.059225082397461
 31
6.318092346191406e-06
  0
LINE
  8
0
 10
-11.95806884765625
 20
11.059225082397461
 30
6.318092346191406e-06
 11
-12.024478912353516
 21
11.100922584533691
 31
6.556510925292969e-06
  0
LINE
  8
0
 10
-12.024478912353516
 20
11.100922584533691
 30
6.556510925292969e-06
 11
-12.097742080688477
 21
11.128862380981445
 31
6.556510925292969e-06
  0
LINE
  8
0
 10
-12.175054550170898
 20
11.141975402832031
 30
6.556510925292969e-06
 11
-12.097742080688477
 21
11.128862380981445
 31
6.556510925292969e-06
  0
LINE
  8
0
 10
-12.171696662902832
 20
13.681971549987793
 30
7.867813110351562e-06
 11
-12.250080108642578
 21
13.679749488830566
 31
7.3909759521484375e-06
  0
LINE
  8
0
 10
-12.250080108642578
 20
13.679749488830566
 30
7.3909759521484375e-06
 11
-12.326519966125488
 21
13.662276268005371
 31
7.62939453125e-06
  0
LINE
  8
0
 10
-12.326519966125488
 20
13.662276268005371
 30
7.62939453125e-06
 11
-12.398086547851562
 21
13.630227088928223
 31
7.62939453125e-06
  0
LINE
  8
0
 10
-12.398086547851562
 20
13.630227088928223
 30
7.62939453125e-06
 11
-12.462024688720703
 21
13.584830284118652
 31
7.867813110351562e-06
  0
LINE
  8
0
 10
-12.462024688720703
 20
13.584830284118652
 30
7.867813110351562e-06
 11
-12.515874862670898
 21
13.527832984924316
 31
7.3909759521484375e-06
  0
LINE
  8
0
 10
-12.515874862670898
 20
13.527832984924316
 30
7.3909759521484375e-06
 11
-12.557573318481445
 21
13.46142864227295
 31
7.62939453125e-06
  0
LINE
  8
0
 10
-12.557573318481445
 20
13.46142864227295
 30
7.62939453125e-06
 11
-12.585514068603516
 21
13.388158798217773
 31
7.510185241699219e-06
  0
LINE
  8
0
 10
-12.585514068603516
 20
13.388158798217773
 30
7.510185241699219e-06
 11
-12.598626136779785
 21
13.310846328735352
 31
7.510185241699219e-06
  0
LINE
  8
0
 10
-12.598626136779785
 20
13.310846328735352
 30
7.510185241699219e-06
 11
-12.59640121459961
 21
13.232467651367188
 31
7.748603820800781e-06
  0
LINE
  8
0
 10
-12.59640121459961
 20
13.232467651367188
 30
7.748603820800781e-06
 11
-12.578929901123047
 21
13.156023025512695
 31
7.3909759521484375e-06
  0
LINE
  8
0
 10
-12.578929901123047
 20
13.156023025512695
 30
7.3909759521484375e-06
 11
-12.546878814697266
 21
13.084461212158203
 31
7.033348083496094e-06
  0
LINE
  8
0
 10
-12.546878814697266
 20
13.084461212158203
 30
7.033348083496094e-06
 11
-12.501484870910645
 21
13.020524978637695
 31
6.794929504394531e-06
  0
LINE
  8
0
 10
-12.501484870910645
 20
13.020524978637695
 30
6.794929504394531e-06
 11
-12.444486618041992
 21
12.966670036315918
 31
7.510185241699219e-06
  0
LINE
  8
0
 10
-12.444486618041992
 20
12.966670036315918
 30
7.510185241699219e-06
 11
-12.378077507019043
 21
12.924970626831055
 31
7.152557373046875e-06
  0
LINE
  8
0
 10
-12.378077507019043
 20
12.924970626831055
 30
7.152557373046875e-06
 11
-12.30481243133545
 21
12.89703369140625
 31
7.271766662597656e-06
  0
LINE
  8
0
 10
-12.30481243133545
 20
12.89703369140625
 30
7.271766662597656e-06
 11
-12.22750186920166
 21
12.883920669555664
 31
7.271766662597656e-06
  0
LINE
  8
0
 10
-12.22750186920166
 20
12.883920669555664
 30
7.271766662597656e-06
 11
-12.149118423461914
 21
12.886146545410156
 31
7.271766662597656e-06
  0
LINE
  8
0
 10
-12.149118423461914
 20
12.886146545410156
 30
7.271766662597656e-06
 11
-12.072678565979004
 21
12.903615951538086
 31
6.67572021484375e-06
  0
LINE
  8
0
 10
-12.072678565979004
 20
12.903615951538086
 30
6.67572021484375e-06
 11
-12.00111198425293
 21
12.93566608428955
 31
7.033348083496094e-06
  0
LINE
  8
0
 10
-12.00111198425293
 20
12.93566608428955
 30
7.033348083496094e-06
 11
-11.937173843383789
 21
12.981063842773438
 31
6.318092346191406e-06
  0
LINE
  8
0
 10
-11.937173843383789
 20
12.981063842773438
 30
6.318092346191406e-06
 11
-11.883323669433594
 21
13.038061141967773
 31
6.556510925292969e-06
  0
LINE
  8
0
 10
-11.883323669433594
 20
13.038061141967773
 30
6.556510925292969e-06
 11
-11.84162425994873
 21
13.10446548461914
 31
6.9141387939453125e-06
  0
LINE
  8
0
 10
-11.84162425994873
 20
13.10446548461914
 30
6.9141387939453125e-06
 11
-11.813682556152344
 21
13.177734375
 31
7.271766662597656e-06
  0
LINE
  8
0
 10
-11.813682556152344
 20
13.177734375
 30
7.271766662597656e-06
 11
-11.80057144165039
 21
13.255041122436523
 31
7.033348083496094e-06
  0
LINE
  8
0
 10
-11.80057144165039
 20
13.255041122436523
 30
7.033348083496094e-06
 11
-11.802796363830566
 21
13.333425521850586
 31
7.033348083496094e-06
  0
LINE
  8
0
 10
-11.802796363830566
 20
13.333425521850586
 30
7.033348083496094e-06
 11
-11.820268630981445
 21
13.409871101379395
 31
7.152557373046875e-06
  0
LINE
  8
0
 10
-11.820268630981445
 20
13.409871101379395
 30
7.152557373046875e-06
 11
-11.852319717407227
 21
13.481432914733887
 31
6.9141387939453125e-06
  0
LINE
  8
0
 10
-11.852319717407227
 20
13.481432914733887
 30
6.9141387939453125e-06
 11
-11.897712707519531
 21
13.545369148254395
 31
7.3909759521484375e-06
  0
LINE
  8
0
 10
-11.897712707519531
 20
13.545369148254395
 30
7.3909759521484375e-06
 11
-11.954710960388184
 21
13.599223136901855
 31
7.152557373046875e-06
  0
LINE
  8
0
 10
-11.954710960388184
 20
13.599223136901855
 30
7.152557373046875e-06
 11
-12.02112102508545
 21
13.640921592712402
 31
7.152557373046875e-06
  0
LINE
  8
0
 10
-12.02112102508545
 20
13.640921592712402
 30
7.152557373046875e-06
 11
-12.094385147094727
 21
13.668862342834473
 31
7.3909759521484375e-06
  0
LINE
  8
0
 10
-12.171696662902832
 20
13.681971549987793
 30
7.867813110351562e-06
 11
-12.094385147094727
 21
13.668862342834473
 31
7.3909759521484375e-06
  0
LINE
  8
0
 10
-7.095059394836426
 20
11.135254859924316
 30
4.172325134277344e-06
 11
-7.173442840576172
 21
11.133030891418457
 31
3.933906555175781e-06
  0
LINE
  8
0
 10
-7.173442840576172
 20
11.133030891418457
 30
3.933906555175781e-06
 11
-7.249882698059082
 21
11.115560531616211
 31
4.291534423828125e-06
  0
LINE
  8
0
 10
-7.249882698059082
 20
11.115560531616211
 30
4.291534423828125e-06
 11
-7.321449279785156
 21
11.083510398864746
 31
4.172325134277344e-06
  0
LINE
  8
0
 10
-7.321449279785156
 20
11.083510398864746
 30
4.172325134277344e-06
 11
-7.385387420654297
 21
11.038115501403809
 31
3.814697265625e-06
  0
LINE
  8
0
 10
-7.385387420654297
 20
11.038115501403809
 30
3.814697265625e-06
 11
-7.43923807144165
 21
10.981119155883789
 31
3.814697265625e-06
  0
LINE
  8
0
 10
-7.43923807144165
 20
10.981119155883789
 30
3.814697265625e-06
 11
-7.480936527252197
 21
10.91471004486084
 31
4.172325134277344e-06
  0
LINE
  8
0
 10
-7.480936527252197
 20
10.91471004486084
 30
4.172325134277344e-06
 11
-7.508877754211426
 21
10.841442108154297
 31
4.172325134277344e-06
  0
LINE
  8
0
 10
-7.508877754211426
 20
10.841442108154297
 30
4.172325134277344e-06
 11
-7.521988868713379
 21
10.764134407043457
 31
4.172325134277344e-06
  0
LINE
  8
0
 10
-7.521988868713379
 20
10.764134407043457
 30
4.172325134277344e-06
 11
-7.5197649002075195
 21
10.685751914978027
 31
4.0531158447265625e-06
  0
LINE
  8
0
 10
-7.5197649002075195
 20
10.685751914978027
 30
4.0531158447265625e-06
 11
-7.502292156219482
 21
10.609309196472168
 31
3.814697265625e-06
  0
LINE
  8
0
 10
-7.502292156219482
 20
10.609309196472168
 30
3.814697265625e-06
 11
-7.470242023468018
 21
10.537742614746094
 31
4.0531158447265625e-06
  0
LINE
  8
0
 10
-7.470242023468018
 20
10.537742614746094
 30
4.0531158447265625e-06
 11
-7.424847602844238
 21
10.473807334899902
 31
4.0531158447265625e-06
  0
LINE
  8
0
 10
-7.424847602844238
 20
10.473807334899902
 30
4.0531158447265625e-06
 11
-7.367849826812744
 21
10.41995620727539
 31
3.4570693969726562e-06
  0
LINE
  8
0
 10
-7.367849826812744
 20
10.41995620727539
 30
3.4570693969726562e-06
 11
-7.301440238952637
 21
10.378253936767578
 31
4.0531158447265625e-06
  0
LINE
  8
0
 10
-7.301440238952637
 20
10.378253936767578
 30
4.0531158447265625e-06
 11
-7.228175640106201
 21
10.35031509399414
 31
3.814697265625e-06
  0
LINE
  8
0
 10
-7.228175640106201
 20
10.35031509399414
 30
3.814697265625e-06
 11
-7.150864601135254
 21
10.337204933166504
 31
3.814697265625e-06
  0
LINE
  8
0
 10
-7.150864601135254
 20
10.337204933166504
 30
3.814697265625e-06
 11
-7.072481155395508
 21
10.339427947998047
 31
3.814697265625e-06
  0
LINE
  8
0
 10
-7.072481155395508
 20
10.339427947998047
 30
3.814697265625e-06
 11
-6.996041297912598
 21
10.35689926147461
 31
3.814697265625e-06
  0
LINE
  8
0
 10
-6.996041297912598
 20
10.35689926147461
 30
3.814697265625e-06
 11
-6.924474239349365
 21
10.388952255249023
 31
3.4570693969726562e-06
  0
LINE
  8
0
 10
-6.924474239349365
 20
10.388952255249023
 30
3.4570693969726562e-06
 11
-6.860536575317383
 21
10.434346199035645
 31
3.814697265625e-06
  0
LINE
  8
0
 10
-6.860536575317383
 20
10.434346199035645
 30
3.814697265625e-06
 11
-6.806685924530029
 21
10.491342544555664
 31
3.814697265625e-06
  0
LINE
  8
0
 10
-6.806685924530029
 20
10.491342544555664
 30
3.814697265625e-06
 11
-6.764987468719482
 21
10.557751655578613
 31
3.5762786865234375e-06
  0
LINE
  8
0
 10
-6.764987468719482
 20
10.557751655578613
 30
3.5762786865234375e-06
 11
-6.737046241760254
 21
10.63101863861084
 31
3.5762786865234375e-06
  0
LINE
  8
0
 10
-6.737046241760254
 20
10.63101863861084
 30
3.5762786865234375e-06
 11
-6.723934650421143
 21
10.708329200744629
 31
3.6954879760742188e-06
  0
LINE
  8
0
 10
-6.723934650421143
 20
10.708329200744629
 30
3.6954879760742188e-06
 11
-6.72615909576416
 21
10.786707878112793
 31
3.6954879760742188e-06
  0
LINE
  8
0
 10
-6.72615909576416
 20
10.786707878112793
 30
3.6954879760742188e-06
 11
-6.743631362915039
 21
10.863152503967285
 31
3.933906555175781e-06
  0
LINE
  8
0
 10
-6.743631362915039
 20
10.863152503967285
 30
3.933906555175781e-06
 11
-6.775681972503662
 21
10.93471908569336
 31
3.5762786865234375e-06
  0
LINE
  8
0
 10
-6.775681972503662
 20
10.93471908569336
 30
3.5762786865234375e-06
 11
-6.821076393127441
 21
10.99865436553955
 31
3.5762786865234375e-06
  0
LINE
  8
0
 10
-6.821076393127441
 20
10.99865436553955
 30
3.5762786865234375e-06
 11
-6.8780741691589355
 21
11.052506446838379
 31
3.933906555175781e-06
  0
LINE
  8
0
 10
-6.8780741691589355
 20
11.052506446838379
 30
3.933906555175781e-06
 11
-6.944483757019043
 21
11.094205856323242
 31
4.0531158447265625e-06
  0
LINE
  8
0
 10
-6.944483757019043
 20
11.094205856323242
 30
4.0531158447265625e-06
 11
-7.0177483558654785
 21
11.122143745422363
 31
3.933906555175781e-06
  0
LINE
  8
0
 10
-7.095059394836426
 20
11.135254859924316
 30
4.172325134277344e-06
 11
-7.0177483558654785
 21
11.122143745422363
 31
3.933906555175781e-06
  0
LINE
  8
0
 10
-7.091701507568359
 20
13.675254821777344
 30
4.76837158203125e-06
 11
-7.1700849533081055
 21
13.673028945922852
 31
4.76837158203125e-06
  0
LINE
  8
0
 10
-7.1700849533081055
 20
13.673028945922852
 30
4.76837158203125e-06
 11
-7.246524810791016
 21
13.655559539794922
 31
4.5299530029296875e-06
  0
LINE
  8
0
 10
-7.246524810791016
 20
13.655559539794922
 30
4.5299530029296875e-06
 11
-7.31809139251709
 21
13.623506546020508
 31
5.245208740234375e-06
  0
LINE
  8
0
 10
-7.31809139251709
 20
13.623506546020508
 30
5.245208740234375e-06
 11
-7.3820295333862305
 21
13.57811164855957
 31
5.245208740234375e-06
  0
LINE
  8
0
 10
-7.3820295333862305
 20
13.57811164855957
 30
5.245208740234375e-06
 11
-7.435880184173584
 21
13.52111530303955
 31
5.245208740234375e-06
  0
LINE
  8
0
 10
-7.435880184173584
 20
13.52111530303955
 30
5.245208740234375e-06
 11
-7.477579116821289
 21
13.454707145690918
 31
5.0067901611328125e-06
  0
LINE
  8
0
 10
-7.477579116821289
 20
13.454707145690918
 30
5.0067901611328125e-06
 11
-7.505520343780518
 21
13.381440162658691
 31
5.245208740234375e-06
  0
LINE
  8
0
 10
-7.505520343780518
 20
13.381440162658691
 30
5.245208740234375e-06
 11
-7.518631458282471
 21
13.304134368896484
 31
4.76837158203125e-06
  0
LINE
  8
0
 10
-7.518631458282471
 20
13.304134368896484
 30
4.76837158203125e-06
 11
-7.516407012939453
 21
13.225750923156738
 31
4.76837158203125e-06
  0
LINE
  8
0
 10
-7.516407012939453
 20
13.225750923156738
 30
4.76837158203125e-06
 11
-7.498934745788574
 21
13.149306297302246
 31
5.0067901611328125e-06
  0
LINE
  8
0
 10
-7.498934745788574
 20
13.149306297302246
 30
5.0067901611328125e-06
 11
-7.466884136199951
 21
13.077744483947754
 31
5.0067901611328125e-06
  0
LINE
  8
0
 10
-7.466884136199951
 20
13.077744483947754
 30
5.0067901611328125e-06
 11
-7.42149019241333
 21
13.01380443572998
 31
4.887580871582031e-06
  0
LINE
  8
0
 10
-7.42149019241333
 20
13.01380443572998
 30
4.887580871582031e-06
 11
-7.364491939544678
 21
12.959955215454102
 31
5.125999450683594e-06
  0
LINE
  8
0
 10
-7.364491939544678
 20
12.959955215454102
 30
5.125999450683594e-06
 11
-7.29808235168457
 21
12.918253898620605
 31
4.172325134277344e-06
  0
LINE
  8
0
 10
-7.29808235168457
 20
12.918253898620605
 30
4.172325134277344e-06
 11
-7.224818229675293
 21
12.890313148498535
 31
4.76837158203125e-06
  0
LINE
  8
0
 10
-7.224818229675293
 20
12.890313148498535
 30
4.76837158203125e-06
 11
-7.1475067138671875
 21
12.877203941345215
 31
4.410743713378906e-06
  0
LINE
  8
0
 10
-7.1475067138671875
 20
12.877203941345215
 30
4.410743713378906e-06
 11
-7.0691237449646
 21
12.879426002502441
 31
4.76837158203125e-06
  0
LINE
  8
0
 10
-7.0691237449646
 20
12.879426002502441
 30
4.76837158203125e-06
 11
-6.992683410644531
 21
12.89689826965332
 31
4.172325134277344e-06
  0
LINE
  8
0
 10
-6.992683410644531
 20
12.89689826965332
 30
4.172325134277344e-06
 11
-6.921116828918457
 21
12.928951263427734
 31
4.649162292480469e-06
  0
LINE
  8
0
 10
-6.921116828918457
 20
12.928951263427734
 30
4.649162292480469e-06
 11
-6.857179164886475
 21
12.974343299865723
 31
4.887580871582031e-06
  0
LINE
  8
0
 10
-6.857179164886475
 20
12.974343299865723
 30
4.887580871582031e-06
 11
-6.803328037261963
 21
13.031344413757324
 31
4.5299530029296875e-06
  0
LINE
  8
0
 10
-6.803328037261963
 20
13.031344413757324
 30
4.5299530029296875e-06
 11
-6.761630058288574
 21
13.097748756408691
 31
4.5299530029296875e-06
  0
LINE
  8
0
 10
-6.761630058288574
 20
13.097748756408691
 30
4.5299530029296875e-06
 11
-6.7336883544921875
 21
13.17101764678955
 31
4.291534423828125e-06
  0
LINE
  8
0
 10
-6.7336883544921875
 20
13.17101764678955
 30
4.291534423828125e-06
 11
-6.720577239990234
 21
13.248329162597656
 31
4.291534423828125e-06
  0
LINE
  8
0
 10
-6.720577239990234
 20
13.248329162597656
 30
4.291534423828125e-06
 11
-6.722801685333252
 21
13.326706886291504
 31
4.76837158203125e-06
  0
LINE
  8
0
 10
-6.722801685333252
 20
13.326706886291504
 30
4.76837158203125e-06
 11
-6.740273952484131
 21
13.403149604797363
 31
4.5299530029296875e-06
  0
LINE
  8
0
 10
-6.740273952484131
 20
13.403149604797363
 30
4.5299530029296875e-06
 11
-6.772324085235596
 21
13.474715232849121
 31
4.291534423828125e-06
  0
LINE
  8
0
 10
-6.772324085235596
 20
13.474715232849121
 30
4.291534423828125e-06
 11
-6.817718505859375
 21
13.538650512695312
 31
4.76837158203125e-06
  0
LINE
  8
0
 10
-6.817718505859375
 20
13.538650512695312
 30
4.76837158203125e-06
 11
-6.874716281890869
 21
13.59250259399414
 31
4.76837158203125e-06
  0
LINE
  8
0
 10
-6.874716281890869
 20
13.59250259399414
 30
4.76837158203125e-06
 11
-6.941125392913818
 21
13.634203910827637
 31
4.5299530029296875e-06
  0
LINE
  8
0
 10
-6.941125392913818
 20
13.634203910827637
 30
4.5299530029296875e-06
 11
-7.014390468597412
 21
13.662141799926758
 31
4.76837158203125e-06
  0
LINE
  8
0
 10
-7.091701507568359
 20
13.675254821777344
 30
4.76837158203125e-06
 11
-7.014390468597412
 21
13.662141799926758
 31
4.76837158203125e-06
  0
LINE
  8
0
 10
-4.555059909820557
 20
11.13189697265625
 30
2.7418136596679688e-06
 11
-4.633443355560303
 21
11.12967586517334
 31
2.6226043701171875e-06
  0
LINE
  8
0
 10
-4.633443355560303
 20
11.12967586517334
 30
2.6226043701171875e-06
 11
-4.709883689880371
 21
11.112199783325195
 31
2.6226043701171875e-06
  0
LINE
  8
0
 10
-4.709883689880371
 20
11.112199783325195
 30
2.6226043701171875e-06
 11
-4.781450271606445
 21
11.080151557922363
 31
2.7418136596679688e-06
  0
LINE
  8
0
 10
-4.781450271606445
 20
11.080151557922363
 30
2.7418136596679688e-06
 11
-4.845387935638428
 21
11.03475570678711
 31
2.9802322387695312e-06
  0
LINE
  8
0
 10
-4.845387935638428
 20
11.03475570678711
 30
2.9802322387695312e-06
 11
-4.899238586425781
 21
10.977758407592773
 31
2.9802322387695312e-06
  0
LINE
  8
0
 10
-4.899238586425781
 20
10.977758407592773
 30
2.9802322387695312e-06
 11
-4.940937042236328
 21
10.911352157592773
 31
2.9802322387695312e-06
  0
LINE
  8
0
 10
-4.940937042236328
 20
10.911352157592773
 30
2.9802322387695312e-06
 11
-4.968878746032715
 21
10.838083267211914
 31
2.9802322387695312e-06
  0
LINE
  8
0
 10
-4.968878746032715
 20
10.838083267211914
 30
2.9802322387695312e-06
 11
-4.981989860534668
 21
10.760772705078125
 31
3.0994415283203125e-06
  0
LINE
  8
0
 10
-4.981989860534668
 20
10.760772705078125
 30
3.0994415283203125e-06
 11
-4.979765892028809
 21
10.682390213012695
 31
2.9802322387695312e-06
  0
LINE
  8
0
 10
-4.979765892028809
 20
10.682390213012695
 30
2.9802322387695312e-06
 11
-4.962292671203613
 21
10.605949401855469
 31
2.86102294921875e-06
  0
LINE
  8
0
 10
-4.962292671203613
 20
10.605949401855469
 30
2.86102294921875e-06
 11
-4.930242538452148
 21
10.534385681152344
 31
3.0994415283203125e-06
  0
LINE
  8
0
 10
-4.930242538452148
 20
10.534385681152344
 30
3.0994415283203125e-06
 11
-4.884848117828369
 21
10.470449447631836
 31
2.86102294921875e-06
  0
LINE
  8
0
 10
-4.884848117828369
 20
10.470449447631836
 30
2.86102294921875e-06
 11
-4.827850341796875
 21
10.416596412658691
 31
2.86102294921875e-06
  0
LINE
  8
0
 10
-4.827850341796875
 20
10.416596412658691
 30
2.86102294921875e-06
 11
-4.761440753936768
 21
10.374897003173828
 31
2.7418136596679688e-06
  0
LINE
  8
0
 10
-4.761440753936768
 20
10.374897003173828
 30
2.7418136596679688e-06
 11
-4.688176155090332
 21
10.346959114074707
 31
2.384185791015625e-06
  0
LINE
  8
0
 10
-4.688176155090332
 20
10.346959114074707
 30
2.384185791015625e-06
 11
-4.610865116119385
 21
10.333846092224121
 31
2.6226043701171875e-06
  0
LINE
  8
0
 10
-4.610865116119385
 20
10.333846092224121
 30
2.6226043701171875e-06
 11
-4.532481670379639
 21
10.336071968078613
 31
2.384185791015625e-06
  0
LINE
  8
0
 10
-4.532481670379639
 20
10.336071968078613
 30
2.384185791015625e-06
 11
-4.4560418128967285
 21
10.353541374206543
 31
2.7418136596679688e-06
  0
LINE
  8
0
 10
-4.4560418128967285
 20
10.353541374206543
 30
2.7418136596679688e-06
 11
-4.384474754333496
 21
10.385592460632324
 31
2.86102294921875e-06
  0
LINE
  8
0
 10
-4.384474754333496
 20
10.385592460632324
 30
2.86102294921875e-06
 11
-4.320537090301514
 21
10.430989265441895
 31
2.384185791015625e-06
  0
LINE
  8
0
 10
-4.320537090301514
 20
10.430989265441895
 30
2.384185791015625e-06
 11
-4.26668643951416
 21
10.487985610961914
 31
2.6226043701171875e-06
  0
LINE
  8
0
 10
-4.26668643951416
 20
10.487985610961914
 30
2.6226043701171875e-06
 11
-4.224987983703613
 21
10.554391860961914
 31
2.384185791015625e-06
  0
LINE
  8
0
 10
-4.224987983703613
 20
10.554391860961914
 30
2.384185791015625e-06
 11
-4.197047233581543
 21
10.627656936645508
 31
2.5033950805664062e-06
  0
LINE
  8
0
 10
-4.197047233581543
 20
10.627656936645508
 30
2.5033950805664062e-06
 11
-4.183935642242432
 21
10.70496654510498
 31
2.6226043701171875e-06
  0
LINE
  8
0
 10
-4.183935642242432
 20
10.70496654510498
 30
2.6226043701171875e-06
 11
-4.186160087585449
 21
10.783349990844727
 31
2.5033950805664062e-06
  0
LINE
  8
0
 10
-4.186160087585449
 20
10.783349990844727
 30
2.5033950805664062e-06
 11
-4.203632354736328
 21
10.859794616699219
 31
2.5033950805664062e-06
  0
LINE
  8
0
 10
-4.203632354736328
 20
10.859794616699219
 30
2.5033950805664062e-06
 11
-4.235682487487793
 21
10.931358337402344
 31
2.5033950805664062e-06
  0
LINE
  8
0
 10
-4.235682487487793
 20
10.931358337402344
 30
2.5033950805664062e-06
 11
-4.281076908111572
 21
10.995295524597168
 31
2.5033950805664062e-06
  0
LINE
  8
0
 10
-4.281076908111572
 20
10.995295524597168
 30
2.5033950805664062e-06
 11
-4.338074684143066
 21
11.049147605895996
 31
2.7418136596679688e-06
  0
LINE
  8
0
 10
-4.338074684143066
 20
11.049147605895996
 30
2.7418136596679688e-06
 11
-4.404484748840332
 21
11.09084415435791
 31
2.6226043701171875e-06
  0
LINE
  8
0
 10
-4.404484748840332
 20
11.09084415435791
 30
2.6226043701171875e-06
 11
-4.477748870849609
 21
11.118788719177246
 31
2.6226043701171875e-06
  0
LINE
  8
0
 10
-4.555059909820557
 20
11.13189697265625
 30
2.7418136596679688e-06
 11
-4.477748870849609
 21
11.118788719177246
 31
2.6226043701171875e-06
  0
LINE
  8
0
 10
-4.55170202255249
 20
13.671894073486328
 30
3.814697265625e-06
 11
-4.630085468292236
 21
13.669671058654785
 31
4.0531158447265625e-06
  0
LINE
  8
0
 10
-4.630085468292236
 20
13.669671058654785
 30
4.0531158447265625e-06
 11
-4.7065253257751465
 21
13.652200698852539
 31
4.0531158447265625e-06
  0
LINE
  8
0
 10
-4.7065253257751465
 20
13.652200698852539
 30
4.0531158447265625e-06
 11
-4.778092384338379
 21
13.620149612426758
 31
4.0531158447265625e-06
  0
LINE
  8
0
 10
-4.778092384338379
 20
13.620149612426758
 30
4.0531158447265625e-06
 11
-4.842030048370361
 21
13.57475471496582
 31
3.5762786865234375e-06
  0
LINE
  8
0
 10
-4.842030048370361
 20
13.57475471496582
 30
3.5762786865234375e-06
 11
-4.895880699157715
 21
13.5177583694458
 31
3.5762786865234375e-06
  0
LINE
  8
0
 10
-4.895880699157715
 20
13.5177583694458
 30
3.5762786865234375e-06
 11
-4.937579154968262
 21
13.451350212097168
 31
4.0531158447265625e-06
  0
LINE
  8
0
 10
-4.937579154968262
 20
13.451350212097168
 30
4.0531158447265625e-06
 11
-4.96552038192749
 21
13.378081321716309
 31
3.814697265625e-06
  0
LINE
  8
0
 10
-4.96552038192749
 20
13.378081321716309
 30
3.814697265625e-06
 11
-4.978631496429443
 21
13.300773620605469
 31
3.814697265625e-06
  0
LINE
  8
0
 10
-4.978631496429443
 20
13.300773620605469
 30
3.814697265625e-06
 11
-4.976408004760742
 21
13.222392082214355
 31
3.814697265625e-06
  0
LINE
  8
0
 10
-4.976408004760742
 20
13.222392082214355
 30
3.814697265625e-06
 11
-4.958935260772705
 21
13.14594841003418
 31
3.5762786865234375e-06
  0
LINE
  8
0
 10
-4.958935260772705
 20
13.14594841003418
 30
3.5762786865234375e-06
 11
-4.92688512802124
 21
13.074382781982422
 31
3.814697265625e-06
  0
LINE
  8
0
 10
-4.92688512802124
 20
13.074382781982422
 30
3.814697265625e-06
 11
-4.881490707397461
 21
13.010446548461914
 31
3.814697265625e-06
  0
LINE
  8
0
 10
-4.881490707397461
 20
13.010446548461914
 30
3.814697265625e-06
 11
-4.824492931365967
 21
12.956596374511719
 31
3.814697265625e-06
  0
LINE
  8
0
 10
-4.824492931365967
 20
12.956596374511719
 30
3.814697265625e-06
 11
-4.758083343505859
 21
12.914894104003906
 31
3.5762786865234375e-06
  0
LINE
  8
0
 10
-4.758083343505859
 20
12.914894104003906
 30
3.5762786865234375e-06
 11
-4.684818744659424
 21
12.886955261230469
 31
3.5762786865234375e-06
  0
LINE
  8
0
 10
-4.684818744659424
 20
12.886955261230469
 30
3.5762786865234375e-06
 11
-4.607507705688477
 21
12.873844146728516
 31
3.814697265625e-06
  0
LINE
  8
0
 10
-4.607507705688477
 20
12.873844146728516
 30
3.814697265625e-06
 11
-4.5291242599487305
 21
12.876068115234375
 31
3.5762786865234375e-06
  0
LINE
  8
0
 10
-4.5291242599487305
 20
12.876068115234375
 30
3.5762786865234375e-06
 11
-4.45268440246582
 21
12.893538475036621
 31
3.5762786865234375e-06
  0
LINE
  8
0
 10
-4.45268440246582
 20
12.893538475036621
 30
3.5762786865234375e-06
 11
-4.381117820739746
 21
12.925592422485352
 31
3.337860107421875e-06
  0
LINE
  8
0
 10
-4.381117820739746
 20
12.925592422485352
 30
3.337860107421875e-06
 11
-4.3171796798706055
 21
12.970986366271973
 31
3.337860107421875e-06
  0
LINE
  8
0
 10
-4.3171796798706055
 20
12.970986366271973
 30
3.337860107421875e-06
 11
-4.263329029083252
 21
13.027981758117676
 31
3.337860107421875e-06
  0
LINE
  8
0
 10
-4.263329029083252
 20
13.027981758117676
 30
3.337860107421875e-06
 11
-4.221630573272705
 21
13.094390869140625
 31
3.0994415283203125e-06
  0
LINE
  8
0
 10
-4.221630573272705
 20
13.094390869140625
 30
3.0994415283203125e-06
 11
-4.193689346313477
 21
13.167657852172852
 31
3.337860107421875e-06
  0
LINE
  8
0
 10
-4.193689346313477
 20
13.167657852172852
 30
3.337860107421875e-06
 11
-4.180577278137207
 21
13.24496841430664
 31
3.337860107421875e-06
  0
LINE
  8
0
 10
-4.180577278137207
 20
13.24496841430664
 30
3.337860107421875e-06
 11
-4.182802200317383
 21
13.323348045349121
 31
3.337860107421875e-06
  0
LINE
  8
0
 10
-4.182802200317383
 20
13.323348045349121
 30
3.337860107421875e-06
 11
-4.200274467468262
 21
13.399791717529297
 31
3.5762786865234375e-06
  0
LINE
  8
0
 10
-4.200274467468262
 20
13.399791717529297
 30
3.5762786865234375e-06
 11
-4.232324600219727
 21
13.471358299255371
 31
3.0994415283203125e-06
  0
LINE
  8
0
 10
-4.232324600219727
 20
13.471358299255371
 30
3.0994415283203125e-06
 11
-4.277718544006348
 21
13.535294532775879
 31
3.0994415283203125e-06
  0
LINE
  8
0
 10
-4.277718544006348
 20
13.535294532775879
 30
3.0994415283203125e-06
 11
-4.334716796875
 21
13.58914566040039
 31
3.5762786865234375e-06
  0
LINE
  8
0
 10
-4.334716796875
 20
13.58914566040039
 30
3.5762786865234375e-06
 11
-4.401126384735107
 21
13.630845069885254
 31
4.0531158447265625e-06
  0
LINE
  8
0
 10
-4.401126384735107
 20
13.630845069885254
 30
4.0531158447265625e-06
 11
-4.474390983581543
 21
13.658783912658691
 31
4.0531158447265625e-06
  0
LINE
  8
0
 10
-4.55170202255249
 20
13.671894073486328
 30
3.814697265625e-06
 11
-4.474390983581543
 21
13.658783912658691
 31
4.0531158447265625e-06
  0
LINE
  8
0
 10
-2.0150609016418457
 20
11.1285400390625
 30
1.430511474609375e-06
 11
-2.0934438705444336
 21
11.126317024230957
 31
1.6689300537109375e-06
  0
LINE
  8
0
 10
-2.0934438705444336
 20
11.126317024230957
 30
1.6689300537109375e-06
 11
-2.169884204864502
 21
11.108841896057129
 31
1.6689300537109375e-06
  0
LINE
  8
0
 10
-2.169884204864502
 20
11.108841896057129
 30
1.6689300537109375e-06
 11
-2.241450786590576
 21
11.076794624328613
 31
1.6689300537109375e-06
  0
LINE
  8
0
 10
-2.241450786590576
 20
11.076794624328613
 30
1.6689300537109375e-06
 11
-2.3053884506225586
 21
11.031397819519043
 31
1.5497207641601562e-06
  0
LINE
  8
0
 10
-2.3053884506225586
 20
11.031397819519043
 30
1.5497207641601562e-06
 11
-2.359239101409912
 21
10.974401473999023
 31
1.430511474609375e-06
  0
LINE
  8
0
 10
-2.359239101409912
 20
10.974401473999023
 30
1.430511474609375e-06
 11
-2.400938034057617
 21
10.907990455627441
 31
1.5497207641601562e-06
  0
LINE
  8
0
 10
-2.400938034057617
 20
10.907990455627441
 30
1.5497207641601562e-06
 11
-2.4288787841796875
 21
10.834725379943848
 31
1.6689300537109375e-06
  0
LINE
  8
0
 10
-2.4288787841796875
 20
10.834725379943848
 30
1.6689300537109375e-06
 11
-2.441990852355957
 21
10.757415771484375
 31
1.7881393432617188e-06
  0
LINE
  8
0
 10
-2.441990852355957
 20
10.757415771484375
 30
1.7881393432617188e-06
 11
-2.4397659301757812
 21
10.679031372070312
 31
1.6689300537109375e-06
  0
LINE
  8
0
 10
-2.4397659301757812
 20
10.679031372070312
 30
1.6689300537109375e-06
 11
-2.4222936630249023
 21
10.602591514587402
 31
1.3113021850585938e-06
  0
LINE
  8
0
 10
-2.4222936630249023
 20
10.602591514587402
 30
1.3113021850585938e-06
 11
-2.390242576599121
 21
10.531028747558594
 31
1.5497207641601562e-06
  0
LINE
  8
0
 10
-2.390242576599121
 20
10.531028747558594
 30
1.5497207641601562e-06
 11
-2.344849109649658
 21
10.467087745666504
 31
1.1920928955078125e-06
  0
LINE
  8
0
 10
-2.344849109649658
 20
10.467087745666504
 30
1.1920928955078125e-06
 11
-2.287850856781006
 21
10.413238525390625
 31
1.430511474609375e-06
  0
LINE
  8
0
 10
-2.287850856781006
 20
10.413238525390625
 30
1.430511474609375e-06
 11
-2.2214417457580566
 21
10.371539115905762
 31
1.430511474609375e-06
  0
LINE
  8
0
 10
-2.2214417457580566
 20
10.371539115905762
 30
1.430511474609375e-06
 11
-2.148176670074463
 21
10.343597412109375
 31
1.430511474609375e-06
  0
LINE
  8
0
 10
-2.148176670074463
 20
10.343597412109375
 30
1.430511474609375e-06
 11
-2.070866107940674
 21
10.330486297607422
 31
1.3113021850585938e-06
  0
LINE
  8
0
 10
-2.070866107940674
 20
10.330486297607422
 30
1.3113021850585938e-06
 11
-1.9924826622009277
 21
10.332710266113281
 31
1.430511474609375e-06
  0
LINE
  8
0
 10
-1.9924826622009277
 20
10.332710266113281
 30
1.430511474609375e-06
 11
-1.9160423278808594
 21
10.350183486938477
 31
1.1920928955078125e-06
  0
LINE
  8
0
 10
-1.9160423278808594
 20
10.350183486938477
 30
1.1920928955078125e-06
 11
-1.8444757461547852
 21
10.382234573364258
 31
1.1920928955078125e-06
  0
LINE
  8
0
 10
-1.8444757461547852
 20
10.382234573364258
 30
1.1920928955078125e-06
 11
-1.7805376052856445
 21
10.427627563476562
 31
9.5367431640625e-07
  0
LINE
  8
0
 10
-1.7805376052856445
 20
10.427627563476562
 30
9.5367431640625e-07
 11
-1.7266864776611328
 21
10.484626770019531
 31
1.3113021850585938e-06
  0
LINE
  8
0
 10
-1.7266864776611328
 20
10.484626770019531
 30
1.3113021850585938e-06
 11
-1.6849889755249023
 21
10.551034927368164
 31
1.0728836059570312e-06
  0
LINE
  8
0
 10
-1.6849889755249023
 20
10.551034927368164
 30
1.0728836059570312e-06
 11
-1.6570472717285156
 21
10.624299049377441
 31
1.1920928955078125e-06
  0
LINE
  8
0
 10
-1.6570472717285156
 20
10.624299049377441
 30
1.1920928955078125e-06
 11
-1.6439361572265625
 21
10.70160961151123
 31
1.3113021850585938e-06
  0
LINE
  8
0
 10
-1.6439361572265625
 20
10.70160961151123
 30
1.3113021850585938e-06
 11
-1.6461601257324219
 21
10.779993057250977
 31
1.1920928955078125e-06
  0
LINE
  8
0
 10
-1.6461601257324219
 20
10.779993057250977
 30
1.1920928955078125e-06
 11
-1.6636333465576172
 21
10.856433868408203
 31
1.3113021850585938e-06
  0
LINE
  8
0
 10
-1.6636333465576172
 20
10.856433868408203
 30
1.3113021850585938e-06
 11
-1.6956830024719238
 21
10.928000450134277
 31
1.430511474609375e-06
  0
LINE
  8
0
 10
-1.6956830024719238
 20
10.928000450134277
 30
1.430511474609375e-06
 11
-1.7410774230957031
 21
10.991937637329102
 31
1.0728836059570312e-06
  0
LINE
  8
0
 10
-1.7410774230957031
 20
10.991937637329102
 30
1.0728836059570312e-06
 11
-1.7980756759643555
 21
11.045790672302246
 31
1.1920928955078125e-06
  0
LINE
  8
0
 10
-1.7980756759643555
 20
11.045790672302246
 30
1.1920928955078125e-06
 11
-1.864485263824463
 21
11.087486267089844
 31
1.1920928955078125e-06
  0
LINE
  8
0
 10
-1.864485263824463
 20
11.087486267089844
 30
1.1920928955078125e-06
 11
-1.9377493858337402
 21
11.115429878234863
 31
1.6689300537109375e-06
  0
LINE
  8
0
 10
-2.0150609016418457
 20
11.1285400390625
 30
1.430511474609375e-06
 11
-1.9377493858337402
 21
11.115429878234863
 31
1.6689300537109375e-06
  0
LINE
  8
0
 10
-2.0117030143737793
 20
13.668537139892578
 30
2.384185791015625e-06
 11
-2.090085983276367
 21
13.666316032409668
 31
2.1457672119140625e-06
  0
LINE
  8
0
 10
-2.090085983276367
 20
13.666316032409668
 30
2.1457672119140625e-06
 11
-2.1665267944335938
 21
13.648838996887207
 31
2.384185791015625e-06
  0
LINE
  8
0
 10
-2.1665267944335938
 20
13.648838996887207
 30
2.384185791015625e-06
 11
-2.2380928993225098
 21
13.616790771484375
 31
2.86102294921875e-06
  0
LINE
  8
0
 10
-2.2380928993225098
 20
13.616790771484375
 30
2.86102294921875e-06
 11
-2.3020310401916504
 21
13.571394920349121
 31
2.384185791015625e-06
  0
LINE
  8
0
 10
-2.3020310401916504
 20
13.571394920349121
 30
2.384185791015625e-06
 11
-2.355881690979004
 21
13.514398574829102
 31
2.6226043701171875e-06
  0
LINE
  8
0
 10
-2.355881690979004
 20
13.514398574829102
 30
2.6226043701171875e-06
 11
-2.397580623626709
 21
13.44798755645752
 31
2.1457672119140625e-06
  0
LINE
  8
0
 10
-2.397580623626709
 20
13.44798755645752
 30
2.1457672119140625e-06
 11
-2.4255218505859375
 21
13.374722480773926
 31
2.384185791015625e-06
  0
LINE
  8
0
 10
-2.4255218505859375
 20
13.374722480773926
 30
2.384185791015625e-06
 11
-2.4386329650878906
 21
13.297416687011719
 31
2.1457672119140625e-06
  0
LINE
  8
0
 10
-2.4386329650878906
 20
13.297416687011719
 30
2.1457672119140625e-06
 11
-2.436408519744873
 21
13.219029426574707
 31
2.384185791015625e-06
  0
LINE
  8
0
 10
-2.436408519744873
 20
13.219029426574707
 30
2.384185791015625e-06
 11
-2.418936252593994
 21
13.14258861541748
 31
2.1457672119140625e-06
  0
LINE
  8
0
 10
-2.418936252593994
 20
13.14258861541748
 30
2.1457672119140625e-06
 11
-2.386885166168213
 21
13.071025848388672
 31
2.1457672119140625e-06
  0
LINE
  8
0
 10
-2.386885166168213
 20
13.071025848388672
 30
2.1457672119140625e-06
 11
-2.341491222381592
 21
13.007084846496582
 31
2.6226043701171875e-06
  0
LINE
  8
0
 10
-2.341491222381592
 20
13.007084846496582
 30
2.6226043701171875e-06
 11
-2.284493923187256
 21
12.953235626220703
 31
2.384185791015625e-06
  0
LINE
  8
0
 10
-2.284493923187256
 20
12.953235626220703
 30
2.384185791015625e-06
 11
-2.2180838584899902
 21
12.91153621673584
 31
2.1457672119140625e-06
  0
LINE
  8
0
 10
-2.2180838584899902
 20
12.91153621673584
 30
2.1457672119140625e-06
 11
-2.1448192596435547
 21
12.88359546661377
 31
2.384185791015625e-06
  0
LINE
  8
0
 10
-2.1448192596435547
 20
12.88359546661377
 30
2.384185791015625e-06
 11
-2.0675086975097656
 21
12.8704833984375
 31
2.384185791015625e-06
  0
LINE
  8
0
 10
-2.0675086975097656
 20
12.8704833984375
 30
2.384185791015625e-06
 11
-1.9891247749328613
 21
12.872708320617676
 31
2.384185791015625e-06
  0
LINE
  8
0
 10
-1.9891247749328613
 20
12.872708320617676
 30
2.384185791015625e-06
 11
-1.9126849174499512
 21
12.890180587768555
 31
2.1457672119140625e-06
  0
LINE
  8
0
 10
-1.9126849174499512
 20
12.890180587768555
 30
2.1457672119140625e-06
 11
-1.841118335723877
 21
12.922232627868652
 31
2.384185791015625e-06
  0
LINE
  8
0
 10
-1.841118335723877
 20
12.922232627868652
 30
2.384185791015625e-06
 11
-1.7771801948547363
 21
12.96762466430664
 31
2.6226043701171875e-06
  0
LINE
  8
0
 10
-1.7771801948547363
 20
12.96762466430664
 30
2.6226043701171875e-06
 11
-1.7233295440673828
 21
13.024624824523926
 31
2.1457672119140625e-06
  0
LINE
  8
0
 10
-1.7233295440673828
 20
13.024624824523926
 30
2.1457672119140625e-06
 11
-1.681631088256836
 21
13.091032028198242
 31
2.1457672119140625e-06
  0
LINE
  8
0
 10
-1.681631088256836
 20
13.091032028198242
 30
2.1457672119140625e-06
 11
-1.6536898612976074
 21
13.164297103881836
 31
2.384185791015625e-06
  0
LINE
  8
0
 10
-1.6536898612976074
 20
13.164297103881836
 30
2.384185791015625e-06
 11
-1.6405787467956543
 21
13.241610527038574
 31
2.1457672119140625e-06
  0
LINE
  8
0
 10
-1.6405787467956543
 20
13.241610527038574
 30
2.1457672119140625e-06
 11
-1.6428031921386719
 21
13.319990158081055
 31
2.384185791015625e-06
  0
LINE
  8
0
 10
-1.6428031921386719
 20
13.319990158081055
 30
2.384185791015625e-06
 11
-1.6602754592895508
 21
13.396430969238281
 31
2.1457672119140625e-06
  0
LINE
  8
0
 10
-1.6602754592895508
 20
13.396430969238281
 30
2.1457672119140625e-06
 11
-1.6923255920410156
 21
13.467997550964355
 31
2.6226043701171875e-06
  0
LINE
  8
0
 10
-1.6923255920410156
 20
13.467997550964355
 30
2.6226043701171875e-06
 11
-1.737720012664795
 21
13.53193473815918
 31
2.384185791015625e-06
  0
LINE
  8
0
 10
-1.737720012664795
 20
13.53193473815918
 30
2.384185791015625e-06
 11
-1.794717788696289
 21
13.585787773132324
 31
2.86102294921875e-06
  0
LINE
  8
0
 10
-1.794717788696289
 20
13.585787773132324
 30
2.86102294921875e-06
 11
-1.8611278533935547
 21
13.627483367919922
 31
2.384185791015625e-06
  0
LINE
  8
0
 10
-1.8611278533935547
 20
13.627483367919922
 30
2.384185791015625e-06
 11
-1.934391975402832
 21
13.655427932739258
 31
2.1457672119140625e-06
  0
LINE
  8
0
 10
-2.0117030143737793
 20
13.668537139892578
 30
2.384185791015625e-06
 11
-1.934391975402832
 21
13.655427932739258
 31
2.1457672119140625e-06
  0
LINE
  8
0
 10
-4.234974384307861
 20
-3.1764655113220215
 30
-2.115964889526367e-06
 11
-5.504973411560059
 21
-3.1764652729034424
 31
-1.3709068298339844e-06
  0
LINE
  8
0
 10
-5.504973411560059
 20
-3.1764652729034424
 30
-1.3709068298339844e-06
 11
-5.5049729347229
 21
-5.462466239929199
 31
-2.1457672119140625e-06
  0
LINE
  8
0
 10
-5.5049729347229
 20
-5.462466239929199
 30
-2.1457672119140625e-06
 11
-4.234973907470703
 21
-5.462465763092041
 31
-2.9802322387695312e-06
  0
LINE
  8
0
 10
-4.234973907470703
 20
-5.462465763092041
 30
-2.9802322387695312e-06
 11
-4.234974384307861
 21
-3.1764655113220215
 31
-2.115964889526367e-06
  0
LINE
  8
0
 10
-6.1399736404418945
 20
-3.176464796066284
 30
-1.4901161193847656e-06
 11
-7.409973621368408
 21
-3.1764655113220215
 31
-5.662441253662109e-07
  0
LINE
  8
0
 10
-7.409973621368408
 20
-3.1764655113220215
 30
-5.662441253662109e-07
 11
-7.409973621368408
 21
-5.462466716766357
 31
-1.2516975402832031e-06
  0
LINE
  8
0
 10
-7.409973621368408
 20
-5.462466716766357
 30
-1.2516975402832031e-06
 11
-6.139973163604736
 21
-5.462464809417725
 31
-1.8477439880371094e-06
  0
LINE
  8
0
 10
-6.139973163604736
 20
-5.462464809417725
 30
-1.8477439880371094e-06
 11
-6.1399736404418945
 21
-3.176464796066284
 31
-1.4901161193847656e-06
  0
LINE
  8
0
 10
-11.194572448730469
 20
1.3955334424972534
 30
2.8461217880249023e-06
 11
-11.189006805419922
 21
1.4782323837280273
 31
2.816319465637207e-06
  0
LINE
  8
0
 10
-11.189006805419922
 20
1.4782323837280273
 30
2.816319465637207e-06
 11
-11.17279052734375
 21
1.557555913925171
 31
3.0100345611572266e-06
  0
LINE
  8
0
 10
-11.17279052734375
 20
1.557555913925171
 30
3.0100345611572266e-06
 11
-11.146656036376953
 21
1.6327766180038452
 31
2.8014183044433594e-06
  0
LINE
  8
0
 10
-11.146656036376953
 20
1.6327766180038452
 30
2.8014183044433594e-06
 11
-11.111324310302734
 21
1.7031670808792114
 31
2.9802322387695312e-06
  0
LINE
  8
0
 10
-11.111324310302734
 20
1.7031670808792114
 30
2.9802322387695312e-06
 11
-11.067525863647461
 21
1.7680011987686157
 31
2.8014183044433594e-06
  0
LINE
  8
0
 10
-11.067525863647461
 20
1.7680011987686157
 30
2.8014183044433594e-06
 11
-11.015989303588867
 21
1.8265503644943237
 31
2.950429916381836e-06
  0
LINE
  8
0
 10
-11.015989303588867
 20
1.8265503644943237
 30
2.950429916381836e-06
 11
-10.957441329956055
 21
1.8780875205993652
 31
2.8014183044433594e-06
  0
LINE
  8
0
 10
-10.957441329956055
 20
1.8780875205993652
 30
2.8014183044433594e-06
 11
-10.892607688903809
 21
1.9218840599060059
 31
3.069639205932617e-06
  0
LINE
  8
0
 10
-10.892607688903809
 20
1.9218840599060059
 30
3.069639205932617e-06
 11
-10.822216987609863
 21
1.9572148323059082
 31
2.86102294921875e-06
  0
LINE
  8
0
 10
-10.822216987609863
 20
1.9572148323059082
 30
2.86102294921875e-06
 11
-10.74699592590332
 21
1.9833520650863647
 31
2.9206275939941406e-06
  0
LINE
  8
0
 10
-10.74699592590332
 20
1.9833520650863647
 30
2.9206275939941406e-06
 11
-10.667671203613281
 21
1.999567985534668
 31
2.8014183044433594e-06
  0
LINE
  8
0
 10
-10.667671203613281
 20
1.999567985534668
 30
2.8014183044433594e-06
 11
-10.584973335266113
 21
2.0051350593566895
 31
2.8312206268310547e-06
  0
LINE
  8
0
 10
-10.584973335266113
 20
2.0051350593566895
 30
2.8312206268310547e-06
 11
-10.502274513244629
 21
1.9995678663253784
 31
2.5331974029541016e-06
  0
LINE
  8
0
 10
-10.502274513244629
 20
1.9995678663253784
 30
2.5331974029541016e-06
 11
-10.422950744628906
 21
1.983351707458496
 31
2.652406692504883e-06
  0
LINE
  8
0
 10
-10.422950744628906
 20
1.983351707458496
 30
2.652406692504883e-06
 11
-10.34773063659668
 21
1.957215666770935
 31
2.9206275939941406e-06
  0
LINE
  8
0
 10
-10.34773063659668
 20
1.957215666770935
 30
2.9206275939941406e-06
 11
-10.277339935302734
 21
1.921883463859558
 31
2.8014183044433594e-06
  0
LINE
  8
0
 10
-10.277339935302734
 20
1.921883463859558
 30
2.8014183044433594e-06
 11
-10.212506294250488
 21
1.878088116645813
 31
2.384185791015625e-06
  0
LINE
  8
0
 10
-10.212506294250488
 20
1.878088116645813
 30
2.384185791015625e-06
 11
-10.15395736694336
 21
1.8265494108200073
 31
2.637505531311035e-06
  0
LINE
  8
0
 10
-10.15395736694336
 20
1.8265494108200073
 30
2.637505531311035e-06
 11
-10.102420806884766
 21
1.7680007219314575
 31
2.5033950805664062e-06
  0
LINE
  8
0
 10
-10.102420806884766
 20
1.7680007219314575
 30
2.5033950805664062e-06
 11
-10.058622360229492
 21
1.7031673192977905
 31
2.2798776626586914e-06
  0
LINE
  8
0
 10
-10.058622360229492
 20
1.7031673192977905
 30
2.2798776626586914e-06
 11
-10.02329158782959
 21
1.632775902748108
 31
2.4437904357910156e-06
  0
LINE
  8
0
 10
-10.02329158782959
 20
1.632775902748108
 30
2.4437904357910156e-06
 11
-9.99715518951416
 21
1.5575556755065918
 31
2.4437904357910156e-06
  0
LINE
  8
0
 10
-9.99715518951416
 20
1.5575556755065918
 30
2.4437904357910156e-06
 11
-9.980939865112305
 21
1.4782322645187378
 31
2.3990869522094727e-06
  0
LINE
  8
0
 10
-9.980939865112305
 20
1.4782322645187378
 30
2.3990869522094727e-06
 11
-9.975373268127441
 21
1.3955340385437012
 31
2.428889274597168e-06
  0
LINE
  8
0
 10
-9.975373268127441
 20
1.3955340385437012
 30
2.428889274597168e-06
 11
-9.980939865112305
 21
1.3128350973129272
 31
2.2351741790771484e-06
  0
LINE
  8
0
 10
-9.980939865112305
 20
1.3128350973129272
 30
2.2351741790771484e-06
 11
-9.99715518951416
 21
1.2335116863250732
 31
2.294778823852539e-06
  0
LINE
  8
0
 10
-9.99715518951416
 20
1.2335116863250732
 30
2.294778823852539e-06
 11
-10.023292541503906
 21
1.158290982246399
 31
2.250075340270996e-06
  0
LINE
  8
0
 10
-10.023292541503906
 20
1.158290982246399
 30
2.250075340270996e-06
 11
-10.058622360229492
 21
1.0879004001617432
 31
2.3096799850463867e-06
  0
LINE
  8
0
 10
-10.058622360229492
 20
1.0879004001617432
 30
2.3096799850463867e-06
 11
-10.102420806884766
 21
1.0230672359466553
 31
2.339482307434082e-06
  0
LINE
  8
0
 10
-10.102420806884766
 20
1.0230672359466553
 30
2.339482307434082e-06
 11
-10.15395736694336
 21
0.9645180702209473
 31
2.1979212760925293e-06
  0
LINE
  8
0
 10
-10.15395736694336
 20
0.9645180702209473
 30
2.1979212760925293e-06
 11
-10.212506294250488
 21
0.9129809737205505
 31
2.339482307434082e-06
  0
LINE
  8
0
 10
-10.212506294250488
 20
0.9129809737205505
 30
2.339482307434082e-06
 11
-10.277339935302734
 21
0.8691834211349487
 31
2.2202730178833008e-06
  0
LINE
  8
0
 10
-10.277339935302734
 20
0.8691834211349487
 30
2.2202730178833008e-06
 11
-10.34773063659668
 21
0.8338537812232971
 31
2.5257468223571777e-06
  0
LINE
  8
0
 10
-10.34773063659668
 20
0.8338537812232971
 30
2.5257468223571777e-06
 11
-10.422950744628906
 21
0.8077163100242615
 31
2.4512410163879395e-06
  0
LINE
  8
0
 10
-10.422950744628906
 20
0.8077163100242615
 30
2.4512410163879395e-06
 11
-10.502274513244629
 21
0.791500449180603
 31
2.562999725341797e-06
  0
LINE
  8
0
 10
-10.502274513244629
 20
0.791500449180603
 30
2.562999725341797e-06
 11
-10.584972381591797
 21
0.7859334349632263
 31
2.5406479835510254e-06
  0
LINE
  8
0
 10
-10.584972381591797
 20
0.7859334349632263
 30
2.5406479835510254e-06
 11
-10.667671203613281
 21
0.791500449180603
 31
2.3692846298217773e-06
  0
LINE
  8
0
 10
-10.667671203613281
 20
0.791500449180603
 30
2.3692846298217773e-06
 11
-10.74699592590332
 21
0.8077176809310913
 31
2.339482307434082e-06
  0
LINE
  8
0
 10
-10.74699592590332
 20
0.8077176809310913
 30
2.339482307434082e-06
 11
-10.822216033935547
 21
0.8338527083396912
 31
2.689659595489502e-06
  0
LINE
  8
0
 10
-10.822216033935547
 20
0.8338527083396912
 30
2.689659595489502e-06
 11
-10.892608642578125
 21
0.8691842555999756
 31
2.726912498474121e-06
  0
LINE
  8
0
 10
-10.892608642578125
 20
0.8691842555999756
 30
2.726912498474121e-06
 11
-10.957441329956055
 21
0.9129814505577087
 31
2.853572368621826e-06
  0
LINE
  8
0
 10
-10.957441329956055
 20
0.9129814505577087
 30
2.853572368621826e-06
 11
-11.015990257263184
 21
0.9645181894302368
 31
2.8908252716064453e-06
  0
LINE
  8
0
 10
-11.015990257263184
 20
0.9645181894302368
 30
2.8908252716064453e-06
 11
-11.067525863647461
 21
1.023067831993103
 31
2.637505531311035e-06
  0
LINE
  8
0
 10
-11.067525863647461
 20
1.023067831993103
 30
2.637505531311035e-06
 11
-11.111324310302734
 21
1.0879002809524536
 31
2.7641654014587402e-06
  0
LINE
  8
0
 10
-11.111324310302734
 20
1.0879002809524536
 30
2.7641654014587402e-06
 11
-11.14665412902832
 21
1.1582915782928467
 31
2.6226043701171875e-06
  0
LINE
  8
0
 10
-11.14665412902832
 20
1.1582915782928467
 30
2.6226043701171875e-06
 11
-11.17279052734375
 21
1.2335118055343628
 31
2.8461217880249023e-06
  0
LINE
  8
0
 10
-11.17279052734375
 20
1.2335118055343628
 30
2.8461217880249023e-06
 11
-11.189006805419922
 21
1.3128352165222168
 31
2.905726432800293e-06
  0
LINE
  8
0
 10
-11.194572448730469
 20
1.3955334424972534
 30
2.8461217880249023e-06
 11
-11.189006805419922
 21
1.3128352165222168
 31
2.905726432800293e-06
  0
LINE
  8
0
 10
-11.194572448730469
 20
-1.1444662809371948
 30
1.9371509552001953e-06
 11
-11.189006805419922
 21
-1.0617672204971313
 31
2.130866050720215e-06
  0
LINE
  8
0
 10
-11.189006805419922
 20
-1.0617672204971313
 30
2.130866050720215e-06
 11
-11.17279052734375
 21
-0.9824438691139221
 31
2.086162567138672e-06
  0
LINE
  8
0
 10
-11.17279052734375
 20
-0.9824438691139221
 30
2.086162567138672e-06
 11
-11.146655082702637
 21
-0.9072231650352478
 31
2.1010637283325195e-06
  0
LINE
  8
0
 10
-11.146655082702637
 20
-0.9072231650352478
 30
2.1010637283325195e-06
 11
-11.111324310302734
 21
-0.8368326425552368
 31
2.041459083557129e-06
  0
LINE
  8
0
 10
-11.111324310302734
 20
-0.8368326425552368
 30
2.041459083557129e-06
 11
-11.067525863647461
 21
-0.7719985246658325
 31
2.3245811462402344e-06
  0
LINE
  8
0
 10
-11.067525863647461
 20
-0.7719985246658325
 30
2.3245811462402344e-06
 11
-11.015989303588867
 21
-0.7134501934051514
 31
2.1457672119140625e-06
  0
LINE
  8
0
 10
-11.015989303588867
 20
-0.7134501934051514
 30
2.1457672119140625e-06
 11
-10.957441329956055
 21
-0.6619131565093994
 31
2.250075340270996e-06
  0
LINE
  8
0
 10
-10.957441329956055
 20
-0.6619131565093994
 30
2.250075340270996e-06
 11
-10.892608642578125
 21
-0.6181156635284424
 31
2.1457672119140625e-06
  0
LINE
  8
0
 10
-10.892608642578125
 20
-0.6181156635284424
 30
2.1457672119140625e-06
 11
-10.822216033935547
 21
-0.5827840566635132
 31
1.773238182067871e-06
  0
LINE
  8
0
 10
-10.822216033935547
 20
-0.5827840566635132
 30
1.773238182067871e-06
 11
-10.74699592590332
 21
-0.556647539138794
 31
1.996755599975586e-06
  0
LINE
  8
0
 10
-10.74699592590332
 20
-0.556647539138794
 30
1.996755599975586e-06
 11
-10.667671203613281
 21
-0.5404327511787415
 31
2.0265579223632812e-06
  0
LINE
  8
0
 10
-10.667671203613281
 20
-0.5404327511787415
 30
2.0265579223632812e-06
 11
-10.584972381591797
 21
-0.5348649024963379
 31
1.6838312149047852e-06
  0
LINE
  8
0
 10
-10.584972381591797
 20
-0.5348649024963379
 30
1.6838312149047852e-06
 11
-10.502274513244629
 21
-0.5404328107833862
 31
1.996755599975586e-06
  0
LINE
  8
0
 10
-10.502274513244629
 20
-0.5404328107833862
 30
1.996755599975586e-06
 11
-10.422950744628906
 21
-0.5566479563713074
 31
1.952052116394043e-06
  0
LINE
  8
0
 10
-10.422950744628906
 20
-0.5566479563713074
 30
1.952052116394043e-06
 11
-10.34773063659668
 21
-0.5827849507331848
 31
1.8924474716186523e-06
  0
LINE
  8
0
 10
-10.34773063659668
 20
-0.5827849507331848
 30
1.8924474716186523e-06
 11
-10.277339935302734
 21
-0.6181153059005737
 31
1.952052116394043e-06
  0
LINE
  8
0
 10
-10.277339935302734
 20
-0.6181153059005737
 30
1.952052116394043e-06
 11
-10.212506294250488
 21
-0.6619136333465576
 31
1.7434358596801758e-06
  0
LINE
  8
0
 10
-10.212506294250488
 20
-0.6619136333465576
 30
1.7434358596801758e-06
 11
-10.15395736694336
 21
-0.7134503722190857
 31
1.7136335372924805e-06
  0
LINE
  8
0
 10
-10.15395736694336
 20
-0.7134503722190857
 30
1.7136335372924805e-06
 11
-10.102420806884766
 21
-0.7719990611076355
 31
1.8030405044555664e-06
  0
LINE
  8
0
 10
-10.102420806884766
 20
-0.7719990611076355
 30
1.8030405044555664e-06
 11
-10.058623313903809
 21
-0.8368324041366577
 31
1.6093254089355469e-06
  0
LINE
  8
0
 10
-10.058623313903809
 20
-0.8368324041366577
 30
1.6093254089355469e-06
 11
-10.023292541503906
 21
-0.9072228670120239
 31
1.5944242477416992e-06
  0
LINE
  8
0
 10
-10.023292541503906
 20
-0.9072228670120239
 30
1.5944242477416992e-06
 11
-9.997156143188477
 21
-0.9824439883232117
 31
1.7583370208740234e-06
  0
LINE
  8
0
 10
-9.997156143188477
 20
-0.9824439883232117
 30
1.7583370208740234e-06
 11
-9.980939865112305
 21
-1.061767578125
 31
1.475214958190918e-06
  0
LINE
  8
0
 10
-9.980939865112305
 20
-1.061767578125
 30
1.475214958190918e-06
 11
-9.975372314453125
 21
-1.144465684890747
 31
1.7434358596801758e-06
  0
LINE
  8
0
 10
-9.975372314453125
 20
-1.144465684890747
 30
1.7434358596801758e-06
 11
-9.980938911437988
 21
-1.227164626121521
 31
1.5348196029663086e-06
  0
LINE
  8
0
 10
-9.980938911437988
 20
-1.227164626121521
 30
1.5348196029663086e-06
 11
-9.99715518951416
 21
-1.306488037109375
 31
1.5944242477416992e-06
  0
LINE
  8
0
 10
-9.99715518951416
 20
-1.306488037109375
 30
1.5944242477416992e-06
 11
-10.02329158782959
 21
-1.3817088603973389
 31
1.564621925354004e-06
  0
LINE
  8
0
 10
-10.02329158782959
 20
-1.3817088603973389
 30
1.564621925354004e-06
 11
-10.058622360229492
 21
-1.4520994424819946
 31
1.5795230865478516e-06
  0
LINE
  8
0
 10
-10.058622360229492
 20
-1.4520994424819946
 30
1.5795230865478516e-06
 11
-10.10241985321045
 21
-1.516932487487793
 31
1.4007091522216797e-06
  0
LINE
  8
0
 10
-10.10241985321045
 20
-1.516932487487793
 30
1.4007091522216797e-06
 11
-10.15395736694336
 21
-1.575481653213501
 31
1.4901161193847656e-06
  0
LINE
  8
0
 10
-10.15395736694336
 20
-1.575481653213501
 30
1.4901161193847656e-06
 11
-10.212506294250488
 21
-1.627018690109253
 31
1.6689300537109375e-06
  0
LINE
  8
0
 10
-10.212506294250488
 20
-1.627018690109253
 30
1.6689300537109375e-06
 11
-10.277339935302734
 21
-1.6708163022994995
 31
1.3113021850585938e-06
  0
LINE
  8
0
 10
-10.277339935302734
 20
-1.6708163022994995
 30
1.3113021850585938e-06
 11
-10.34773063659668
 21
-1.7061479091644287
 31
1.6391277313232422e-06
  0
LINE
  8
0
 10
-10.34773063659668
 20
-1.7061479091644287
 30
1.6391277313232422e-06
 11
-10.422950744628906
 21
-1.732283353805542
 31
1.519918441772461e-06
  0
LINE
  8
0
 10
-10.422950744628906
 20
-1.732283353805542
 30
1.519918441772461e-06
 11
-10.502274513244629
 21
-1.7484992742538452
 31
1.6391277313232422e-06
  0
LINE
  8
0
 10
-10.502274513244629
 20
-1.7484992742538452
 30
1.6391277313232422e-06
 11
-10.584972381591797
 21
-1.7540671825408936
 31
1.519918441772461e-06
  0
LINE
  8
0
 10
-10.584972381591797
 20
-1.7540671825408936
 30
1.519918441772461e-06
 11
-10.667671203613281
 21
-1.7484992742538452
 31
1.6689300537109375e-06
  0
LINE
  8
0
 10
-10.667671203613281
 20
-1.7484992742538452
 30
1.6689300537109375e-06
 11
-10.74699592590332
 21
-1.7322840690612793
 31
1.4603137969970703e-06
  0
LINE
  8
0
 10
-10.74699592590332
 20
-1.7322840690612793
 30
1.4603137969970703e-06
 11
-10.822216033935547
 21
-1.7061468362808228
 31
1.7583370208740234e-06
  0
LINE
  8
0
 10
-10.822216033935547
 20
-1.7061468362808228
 30
1.7583370208740234e-06
 11
-10.892608642578125
 21
-1.670816421508789
 31
1.9371509552001953e-06
  0
LINE
  8
0
 10
-10.892608642578125
 20
-1.670816421508789
 30
1.9371509552001953e-06
 11
-10.957441329956055
 21
-1.6270183324813843
 31
1.9371509552001953e-06
  0
LINE
  8
0
 10
-10.957441329956055
 20
-1.6270183324813843
 30
1.9371509552001953e-06
 11
-11.015990257263184
 21
-1.575481653213501
 31
1.6987323760986328e-06
  0
LINE
  8
0
 10
-11.015990257263184
 20
-1.575481653213501
 30
1.6987323760986328e-06
 11
-11.067527770996094
 21
-1.5169328451156616
 31
1.8477439880371094e-06
  0
LINE
  8
0
 10
-11.067527770996094
 20
-1.5169328451156616
 30
1.8477439880371094e-06
 11
-11.111324310302734
 21
-1.4520994424819946
 31
2.0563602447509766e-06
  0
LINE
  8
0
 10
-11.111324310302734
 20
-1.4520994424819946
 30
2.0563602447509766e-06
 11
-11.146655082702637
 21
-1.3817089796066284
 31
2.0563602447509766e-06
  0
LINE
  8
0
 10
-11.146655082702637
 20
-1.3817089796066284
 30
2.0563602447509766e-06
 11
-11.17279052734375
 21
-1.3064879179000854
 31
1.9073486328125e-06
  0
LINE
  8
0
 10
-11.17279052734375
 20
-1.3064879179000854
 30
1.9073486328125e-06
 11
-11.189006805419922
 21
-1.227164626121521
 31
2.205371856689453e-06
  0
LINE
  8
0
 10
-11.194572448730469
 20
-1.1444662809371948
 30
1.9371509552001953e-06
 11
-11.189006805419922
 21
-1.227164626121521
 31
2.205371856689453e-06
  0
LINE
  8
0
 10
-4.220218658447266
 20
5.696720600128174
 30
1.1920928955078125e-06
 11
-4.226263046264648
 21
3.4107308387756348
 31
-2.384185791015625e-07
  0
LINE
  8
0
 10
-6.125210762023926
 20
5.701756954193115
 30
2.0265579223632812e-06
 11
-6.131257057189941
 21
3.4157674312591553
 31
1.1324882507324219e-06
  0
LINE
  8
0
 10
-7.401252269744873
 20
3.4191243648529053
 30
2.086162567138672e-06
 11
-7.395206928253174
 21
5.705118179321289
 31
2.384185791015625e-06
  0
LINE
  8
0
 10
-7.401252269744873
 20
3.4191243648529053
 30
2.086162567138672e-06
 11
-6.131257057189941
 21
3.4157674312591553
 31
1.1324882507324219e-06
  0
LINE
  8
0
 10
-7.395206928253174
 20
5.705118179321289
 30
2.384185791015625e-06
 11
-6.125210762023926
 21
5.701756954193115
 31
2.0265579223632812e-06
  0
LINE
  8
0
 10
-5.490212917327881
 20
5.700078010559082
 30
1.7285346984863281e-06
 11
-4.220218658447266
 21
5.696720600128174
 31
1.1920928955078125e-06
  0
LINE
  8
0
 10
-5.49625825881958
 20
3.414088010787964
 30
7.748603820800781e-07
 11
-5.490212917327881
 21
5.700078010559082
 31
1.7285346984863281e-06
  0
LINE
  8
0
 10
-5.49625825881958
 20
3.414088010787964
 30
7.748603820800781e-07
 11
-4.226263046264648
 21
3.4107308387756348
 31
-2.384185791015625e-07
  0
LINE
  8
0
 10
11.957791328430176
 20
0.5945546627044678
 30
-9.328126907348633e-06
 11
11.859814643859863
 21
0.5917750000953674
 31
-9.328126907348633e-06
  0
LINE
  8
0
 10
11.859814643859863
 20
0.5917750000953674
 30
-9.328126907348633e-06
 11
11.764260292053223
 21
0.5699343681335449
 31
-9.328126907348633e-06
  0
LINE
  8
0
 10
11.764260292053223
 20
0.5699343681335449
 30
-9.328126907348633e-06
 11
11.67480754852295
 21
0.5298720598220825
 31
-9.357929229736328e-06
  0
LINE
  8
0
 10
11.67480754852295
 20
0.5298720598220825
 30
-9.357929229736328e-06
 11
11.59488582611084
 21
0.4731273949146271
 31
-9.328126907348633e-06
  0
LINE
  8
0
 10
11.59488582611084
 20
0.4731273949146271
 30
-9.328126907348633e-06
 11
11.527567863464355
 21
0.40188121795654297
 31
-9.387731552124023e-06
  0
LINE
  8
0
 10
11.527567863464355
 20
0.40188121795654297
 30
-9.387731552124023e-06
 11
11.475447654724121
 21
0.31887149810791016
 31
-9.34302806854248e-06
  0
LINE
  8
0
 10
11.475447654724121
 20
0.31887149810791016
 30
-9.34302806854248e-06
 11
11.440520286560059
 21
0.22728823125362396
 31
-9.328126907348633e-06
  0
LINE
  8
0
 10
11.440520286560059
 20
0.22728823125362396
 30
-9.328126907348633e-06
 11
11.424132347106934
 21
0.13065078854560852
 31
-9.34302806854248e-06
  0
LINE
  8
0
 10
11.424132347106934
 20
0.13065078854560852
 30
-9.34302806854248e-06
 11
11.426909446716309
 21
0.032673180103302
 31
-9.328126907348633e-06
  0
LINE
  8
0
 10
11.426909446716309
 20
0.032673180103302
 30
-9.328126907348633e-06
 11
11.448752403259277
 21
-0.06287974119186401
 31
-9.328126907348633e-06
  0
LINE
  8
0
 10
11.448752403259277
 20
-0.06287974119186401
 30
-9.328126907348633e-06
 11
11.488814353942871
 21
-0.15233561396598816
 31
-9.328126907348633e-06
  0
LINE
  8
0
 10
11.488814353942871
 20
-0.15233561396598816
 30
-9.328126907348633e-06
 11
11.545559883117676
 21
-0.23225687444210052
 31
-9.328126907348633e-06
  0
LINE
  8
0
 10
11.545559883117676
 20
-0.23225687444210052
 30
-9.328126907348633e-06
 11
11.616805076599121
 21
-0.299572229385376
 31
-9.298324584960938e-06
  0
LINE
  8
0
 10
11.616805076599121
 20
-0.299572229385376
 30
-9.298324584960938e-06
 11
11.699814796447754
 21
-0.35169458389282227
 31
-9.328126907348633e-06
  0
LINE
  8
0
 10
11.699814796447754
 20
-0.35169458389282227
 30
-9.328126907348633e-06
 11
11.791399955749512
 21
-0.3866210877895355
 31
-9.34302806854248e-06
  0
LINE
  8
0
 10
11.791399955749512
 20
-0.3866210877895355
 30
-9.34302806854248e-06
 11
11.888035774230957
 21
-0.40300944447517395
 31
-9.34302806854248e-06
  0
LINE
  8
0
 10
11.888035774230957
 20
-0.40300944447517395
 30
-9.34302806854248e-06
 11
11.986016273498535
 21
-0.40022990107536316
 31
-9.34302806854248e-06
  0
LINE
  8
0
 10
11.986016273498535
 20
-0.40022990107536316
 30
-9.34302806854248e-06
 11
12.08156681060791
 21
-0.37838923931121826
 31
-9.328126907348633e-06
  0
LINE
  8
0
 10
12.08156681060791
 20
-0.37838923931121826
 30
-9.328126907348633e-06
 11
12.171019554138184
 21
-0.3383268117904663
 31
-9.313225746154785e-06
  0
LINE
  8
0
 10
12.171019554138184
 20
-0.3383268117904663
 30
-9.313225746154785e-06
 11
12.250945091247559
 21
-0.28158220648765564
 31
-9.34302806854248e-06
  0
LINE
  8
0
 10
12.250945091247559
 20
-0.28158220648765564
 30
-9.34302806854248e-06
 11
12.318259239196777
 21
-0.21033605933189392
 31
-9.34302806854248e-06
  0
LINE
  8
0
 10
12.318259239196777
 20
-0.21033605933189392
 30
-9.34302806854248e-06
 11
12.370379447937012
 21
-0.12732619047164917
 31
-9.357929229736328e-06
  0
LINE
  8
0
 10
12.370379447937012
 20
-0.12732619047164917
 30
-9.357929229736328e-06
 11
12.405306816101074
 21
-0.03574293851852417
 31
-9.357929229736328e-06
  0
LINE
  8
0
 10
12.405306816101074
 20
-0.03574293851852417
 30
-9.357929229736328e-06
 11
12.421696662902832
 21
0.06089439243078232
 31
-9.372830390930176e-06
  0
LINE
  8
0
 10
12.421696662902832
 20
0.06089439243078232
 30
-9.372830390930176e-06
 11
12.418917655944824
 21
0.1588721126317978
 31
-9.357929229736328e-06
  0
LINE
  8
0
 10
12.418917655944824
 20
0.1588721126317978
 30
-9.357929229736328e-06
 11
12.397074699401855
 21
0.254425048828125
 31
-9.372830390930176e-06
  0
LINE
  8
0
 10
12.397074699401855
 20
0.254425048828125
 30
-9.372830390930176e-06
 11
12.357012748718262
 21
0.3438807725906372
 31
-9.417533874511719e-06
  0
LINE
  8
0
 10
12.357012748718262
 20
0.3438807725906372
 30
-9.417533874511719e-06
 11
12.300271034240723
 21
0.42380204796791077
 31
-9.357929229736328e-06
  0
LINE
  8
0
 10
12.300271034240723
 20
0.42380204796791077
 30
-9.357929229736328e-06
 11
12.229022026062012
 21
0.4911174774169922
 31
-9.387731552124023e-06
  0
LINE
  8
0
 10
12.229022026062012
 20
0.4911174774169922
 30
-9.387731552124023e-06
 11
12.146012306213379
 21
0.5432397127151489
 31
-9.357929229736328e-06
  0
LINE
  8
0
 10
12.146012306213379
 20
0.5432397127151489
 30
-9.357929229736328e-06
 11
12.054430961608887
 21
0.5781661868095398
 31
-9.328126907348633e-06
  0
LINE
  8
0
 10
11.957791328430176
 20
0.5945546627044678
 30
-9.328126907348633e-06
 11
12.054430961608887
 21
0.5781661868095398
 31
-9.328126907348633e-06
  0
LINE
  8
0
 10
13.674805641174316
 20
0.5272273421287537
 30
-1.0371208190917969e-05
 11
13.594882011413574
 21
0.4704826772212982
 31
-1.0341405868530273e-05
  0
LINE
  8
0
 10
13.764260292053223
 20
0.5672898888587952
 30
-1.0371208190917969e-05
 11
13.674805641174316
 21
0.5272273421287537
 31
-1.0371208190917969e-05
  0
LINE
  8
0
 10
13.85981273651123
 20
0.5891302824020386
 30
-1.0341405868530273e-05
 11
13.764260292053223
 21
0.5672898888587952
 31
-1.0371208190917969e-05
  0
LINE
  8
0
 10
13.957791328430176
 20
0.591910183429718
 30
-1.0371208190917969e-05
 11
13.85981273651123
 21
0.5891302824020386
 31
-1.0341405868530273e-05
  0
LINE
  8
0
 10
13.594882011413574
 20
0.4704826772212982
 30
-1.0341405868530273e-05
 11
13.527569770812988
 21
0.3992367386817932
 31
-1.0401010513305664e-05
  0
LINE
  8
0
 10
13.527569770812988
 20
0.3992367386817932
 30
-1.0401010513305664e-05
 11
13.475447654724121
 21
0.3162270188331604
 31
-1.0341405868530273e-05
  0
LINE
  8
0
 10
13.475447654724121
 20
0.3162270188331604
 30
-1.0341405868530273e-05
 11
13.440518379211426
 21
0.22464363276958466
 31
-1.0371208190917969e-05
  0
LINE
  8
0
 10
13.440518379211426
 20
0.22464363276958466
 30
-1.0371208190917969e-05
 11
13.4241304397583
 21
0.12800629436969757
 31
-1.0341405868530273e-05
  0
LINE
  8
0
 10
13.4241304397583
 20
0.12800629436969757
 30
-1.0341405868530273e-05
 11
13.426911354064941
 21
0.030028581619262695
 31
-1.0341405868530273e-05
  0
LINE
  8
0
 10
13.426911354064941
 20
0.030028581619262695
 30
-1.0341405868530273e-05
 11
13.448752403259277
 21
-0.06552445888519287
 31
-1.0341405868530273e-05
  0
LINE
  8
0
 10
13.448752403259277
 20
-0.06552445888519287
 30
-1.0341405868530273e-05
 11
13.488812446594238
 21
-0.15498033165931702
 31
-1.0326504707336426e-05
  0
LINE
  8
0
 10
13.488812446594238
 20
-0.15498033165931702
 30
-1.0326504707336426e-05
 11
13.545557975769043
 21
-0.23490147292613983
 31
-1.0356307029724121e-05
  0
LINE
  8
0
 10
13.545557975769043
 20
-0.23490147292613983
 30
-1.0356307029724121e-05
 11
13.616806983947754
 21
-0.3022167682647705
 31
-1.0341405868530273e-05
  0
LINE
  8
0
 10
13.616806983947754
 20
-0.3022167682647705
 30
-1.0341405868530273e-05
 11
13.699814796447754
 21
-0.35433924198150635
 31
-1.0326504707336426e-05
  0
LINE
  8
0
 10
13.699814796447754
 20
-0.35433924198150635
 30
-1.0326504707336426e-05
 11
13.791396141052246
 21
-0.38926562666893005
 31
-1.0356307029724121e-05
  0
LINE
  8
0
 10
13.791396141052246
 20
-0.38926562666893005
 30
-1.0356307029724121e-05
 11
13.888033866882324
 21
-0.40565410256385803
 31
-1.0341405868530273e-05
  0
LINE
  8
0
 10
13.888033866882324
 20
-0.40565410256385803
 30
-1.0341405868530273e-05
 11
13.98601245880127
 21
-0.4028744399547577
 31
-1.0356307029724121e-05
  0
LINE
  8
0
 10
13.98601245880127
 20
-0.4028744399547577
 30
-1.0356307029724121e-05
 11
14.081564903259277
 21
-0.38103389739990234
 31
-1.0341405868530273e-05
  0
LINE
  8
0
 10
14.081564903259277
 20
-0.38103389739990234
 30
-1.0341405868530273e-05
 11
14.171021461486816
 21
-0.3409712314605713
 31
-1.0356307029724121e-05
  0
LINE
  8
0
 10
14.171021461486816
 20
-0.3409712314605713
 30
-1.0356307029724121e-05
 11
14.250943183898926
 21
-0.28422683477401733
 31
-1.0371208190917969e-05
  0
LINE
  8
0
 10
14.250943183898926
 20
-0.28422683477401733
 30
-1.0371208190917969e-05
 11
14.318257331848145
 21
-0.21298077702522278
 31
-1.0341405868530273e-05
  0
LINE
  8
0
 10
14.318257331848145
 20
-0.21298077702522278
 30
-1.0341405868530273e-05
 11
14.370379447937012
 21
-0.12997090816497803
 31
-1.0356307029724121e-05
  0
LINE
  8
0
 10
14.370379447937012
 20
-0.12997090816497803
 30
-1.0356307029724121e-05
 11
14.405308723449707
 21
-0.03838753700256348
 31
-1.0356307029724121e-05
  0
LINE
  8
0
 10
14.405308723449707
 20
-0.03838753700256348
 30
-1.0356307029724121e-05
 11
14.4216947555542
 21
0.05824979022145271
 31
-1.0356307029724121e-05
  0
LINE
  8
0
 10
14.4216947555542
 20
0.05824979022145271
 30
-1.0356307029724121e-05
 11
14.418915748596191
 21
0.15622751414775848
 31
-1.0371208190917969e-05
  0
LINE
  8
0
 10
14.418915748596191
 20
0.15622751414775848
 30
-1.0371208190917969e-05
 11
14.397074699401855
 21
0.25178056955337524
 31
-1.0341405868530273e-05
  0
LINE
  8
0
 10
14.397074699401855
 20
0.25178056955337524
 30
-1.0341405868530273e-05
 11
14.357014656066895
 21
0.34123629331588745
 31
-1.0401010513305664e-05
  0
LINE
  8
0
 10
14.357014656066895
 20
0.34123629331588745
 30
-1.0401010513305664e-05
 11
14.300267219543457
 21
0.4211573302745819
 31
-1.0341405868530273e-05
  0
LINE
  8
0
 10
14.300267219543457
 20
0.4211573302745819
 30
-1.0341405868530273e-05
 11
14.229020118713379
 21
0.4884728789329529
 31
-1.0371208190917969e-05
  0
LINE
  8
0
 10
14.229020118713379
 20
0.4884728789329529
 30
-1.0371208190917969e-05
 11
14.146010398864746
 21
0.5405952334403992
 31
-1.0371208190917969e-05
  0
LINE
  8
0
 10
14.146010398864746
 20
0.5405952334403992
 30
-1.0371208190917969e-05
 11
14.054429054260254
 21
0.5755214691162109
 31
-1.0341405868530273e-05
  0
LINE
  8
0
 10
13.957791328430176
 20
0.591910183429718
 30
-1.0371208190917969e-05
 11
14.054429054260254
 21
0.5755214691162109
 31
-1.0341405868530273e-05
  0
LINE
  8
0
 10
-7.254787921905518
 20
17.84326171875
 30
6.9141387939453125e-06
 11
-8.358902931213379
 21
17.30309295654297
 31
6.67572021484375e-06
  0
LINE
  8
0
 10
4.634225845336914
 20
-1.2840664386749268
 30
-6.146728992462158e-06
 11
4.653441429138184
 21
-1.4791821241378784
 31
-6.2212347984313965e-06
  0
LINE
  8
0
 10
4.653441429138184
 20
-1.4791821241378784
 30
-6.2212347984313965e-06
 11
4.7103471755981445
 21
-1.6668505668640137
 31
-6.3478946685791016e-06
  0
LINE
  8
0
 10
4.7103471755981445
 20
-1.6668505668640137
 30
-6.3478946685791016e-06
 11
4.802757263183594
 21
-1.8398593664169312
 31
-6.452202796936035e-06
  0
LINE
  8
0
 10
4.802757263183594
 20
-1.8398593664169312
 30
-6.452202796936035e-06
 11
4.927121162414551
 21
-1.9915603399276733
 31
-6.571412086486816e-06
  0
LINE
  8
0
 10
4.927121162414551
 20
-1.9915603399276733
 30
-6.571412086486816e-06
 11
5.078658103942871
 21
-2.116123676300049
 31
-6.660819053649902e-06
  0
LINE
  8
0
 10
5.078658103942871
 20
-2.116123676300049
 30
-6.660819053649902e-06
 11
5.251543998718262
 21
-2.2087621688842773
 31
-6.794929504394531e-06
  0
LINE
  8
0
 10
5.251543998718262
 20
-2.2087621688842773
 30
-6.794929504394531e-06
 11
5.439136505126953
 21
-2.265915870666504
 31
-6.899237632751465e-06
  0
LINE
  8
0
 10
5.6342267990112305
 20
-2.285388469696045
 30
-7.018446922302246e-06
 11
5.439136505126953
 21
-2.265915870666504
 31
-6.899237632751465e-06
  0
LINE
  8
0
 10
4.634490013122559
 20
1.231388807296753
 30
-5.27501106262207e-06
 11
4.653704643249512
 21
1.426453948020935
 31
-5.245208740234375e-06
  0
LINE
  8
0
 10
4.653704643249512
 20
1.426453948020935
 30
-5.245208740234375e-06
 11
4.710609436035156
 21
1.613971471786499
 31
-5.155801773071289e-06
  0
LINE
  8
0
 10
4.710609436035156
 20
1.613971471786499
 30
-5.155801773071289e-06
 11
4.8030195236206055
 21
1.786736249923706
 31
-5.185604095458984e-06
  0
LINE
  8
0
 10
4.8030195236206055
 20
1.786736249923706
 30
-5.185604095458984e-06
 11
4.927382469177246
 21
1.9381080865859985
 31
-5.185604095458984e-06
  0
LINE
  8
0
 10
4.927382469177246
 20
1.9381080865859985
 30
-5.185604095458984e-06
 11
5.07891845703125
 21
2.0622706413269043
 31
-5.185604095458984e-06
  0
LINE
  8
0
 10
5.07891845703125
 20
2.0622706413269043
 30
-5.185604095458984e-06
 11
5.251805305480957
 21
2.154452085494995
 31
-5.304813385009766e-06
  0
LINE
  8
0
 10
5.251805305480957
 20
2.154452085494995
 30
-5.304813385009766e-06
 11
5.439398765563965
 21
2.2111096382141113
 31
-5.3942203521728516e-06
  0
LINE
  8
0
 10
5.634488105773926
 20
2.2300662994384766
 30
-5.453824996948242e-06
 11
5.439398765563965
 21
2.2111096382141113
 31
-5.3942203521728516e-06
  0
LINE
  8
0
 10
9.18489933013916
 20
-1.2899514436721802
 30
-8.409842848777771e-06
 11
9.165684700012207
 21
-1.4850162267684937
 31
-8.46758484840393e-06
  0
LINE
  8
0
 10
9.165684700012207
 20
-1.4850162267684937
 30
-8.46758484840393e-06
 11
9.108779907226562
 21
-1.6725341081619263
 31
-8.516013622283936e-06
  0
LINE
  8
0
 10
9.108779907226562
 20
-1.6725341081619263
 30
-8.516013622283936e-06
 11
9.016368865966797
 21
-1.8452987670898438
 31
-8.52346420288086e-06
  0
LINE
  8
0
 10
9.016368865966797
 20
-1.8452987670898438
 30
-8.52346420288086e-06
 11
8.892005920410156
 21
-1.9966708421707153
 31
-8.508563041687012e-06
  0
LINE
  8
0
 10
8.892005920410156
 20
-1.9966708421707153
 30
-8.508563041687012e-06
 11
8.740470886230469
 21
-2.120833158493042
 31
-8.478760719299316e-06
  0
LINE
  8
0
 10
8.740470886230469
 20
-2.120833158493042
 30
-8.478760719299316e-06
 11
8.567583084106445
 21
-2.213014841079712
 31
-8.419156074523926e-06
  0
LINE
  8
0
 10
8.567583084106445
 20
-2.213014841079712
 30
-8.419156074523926e-06
 11
8.379990577697754
 21
-2.269672393798828
 31
-8.359551429748535e-06
  0
LINE
  8
0
 10
8.184901237487793
 20
-2.2886290550231934
 30
-8.240342140197754e-06
 11
8.379990577697754
 21
-2.269672393798828
 31
-8.359551429748535e-06
  0
LINE
  8
0
 10
9.185161590576172
 20
1.2255038022994995
 30
-7.569789886474609e-06
 11
9.165946960449219
 21
1.4206196069717407
 31
-7.450580596923828e-06
  0
LINE
  8
0
 10
9.165946960449219
 20
1.4206196069717407
 30
-7.450580596923828e-06
 11
9.109041213989258
 21
1.608288049697876
 31
-7.361173629760742e-06
  0
LINE
  8
0
 10
9.109041213989258
 20
1.608288049697876
 30
-7.361173629760742e-06
 11
9.016632080078125
 21
1.781296968460083
 31
-7.241964340209961e-06
  0
LINE
  8
0
 10
9.016632080078125
 20
1.781296968460083
 30
-7.241964340209961e-06
 11
8.892268180847168
 21
1.9329978227615356
 31
-7.12275505065918e-06
  0
LINE
  8
0
 10
8.892268180847168
 20
1.9329978227615356
 30
-7.12275505065918e-06
 11
8.740731239318848
 21
2.057560920715332
 31
-7.033348083496094e-06
  0
LINE
  8
0
 10
8.740731239318848
 20
2.057560920715332
 30
-7.033348083496094e-06
 11
8.56784439086914
 21
2.1501994132995605
 31
-6.9141387939453125e-06
  0
LINE
  8
0
 10
8.56784439086914
 20
2.1501994132995605
 30
-6.9141387939453125e-06
 11
8.380250930786133
 21
2.2073535919189453
 31
-6.794929504394531e-06
  0
LINE
  8
0
 10
8.185162544250488
 20
2.2268261909484863
 30
-6.67572021484375e-06
 11
8.380250930786133
 21
2.2073535919189453
 31
-6.794929504394531e-06
  0
LINE
  8
0
 10
-6.179940223693848
 20
18.28057098388672
 30
6.198883056640625e-06
 11
-5.999258995056152
 21
18.33487892150879
 31
6.198883056640625e-06
  0
LINE
  8
0
 10
-5.999258995056152
 20
18.33487892150879
 30
6.198883056640625e-06
 11
-5.825572967529297
 21
18.348669052124023
 31
6.198883056640625e-06
  0
LINE
  8
0
 10
-5.825572967529297
 20
18.348669052124023
 30
6.198883056640625e-06
 11
-5.665555000305176
 21
18.321414947509766
 31
5.9604644775390625e-06
  0
LINE
  8
0
 10
-5.665555000305176
 20
18.321414947509766
 30
5.9604644775390625e-06
 11
-5.525355815887451
 21
18.254159927368164
 31
5.4836273193359375e-06
  0
LINE
  8
0
 10
-5.525355815887451
 20
18.254159927368164
 30
5.4836273193359375e-06
 11
-5.41036319732666
 21
18.14948844909668
 31
5.4836273193359375e-06
  0
LINE
  8
0
 10
-5.41036319732666
 20
18.14948844909668
 30
5.4836273193359375e-06
 11
-5.324995040893555
 21
18.011428833007812
 31
5.4836273193359375e-06
  0
LINE
  8
0
 10
-5.324995040893555
 20
18.011428833007812
 30
5.4836273193359375e-06
 11
-5.272533416748047
 21
17.84528160095215
 31
5.0067901611328125e-06
  0
LINE
  8
0
 10
-5.254993438720703
 20
17.657432556152344
 30
5.245208740234375e-06
 11
-5.272533416748047
 21
17.84528160095215
 31
5.0067901611328125e-06
  0
LINE
  8
0
 10
-5.258026599884033
 20
15.364946365356445
 30
4.5299530029296875e-06
 11
-5.239069938659668
 21
15.169831275939941
 31
4.291534423828125e-06
  0
LINE
  8
0
 10
-5.239069938659668
 20
15.169831275939941
 30
4.291534423828125e-06
 11
-5.182412147521973
 21
14.982163429260254
 31
4.0531158447265625e-06
  0
LINE
  8
0
 10
-5.182412147521973
 20
14.982163429260254
 30
4.0531158447265625e-06
 11
-5.090231418609619
 21
14.809154510498047
 31
4.0531158447265625e-06
  0
LINE
  8
0
 10
-5.090231418609619
 20
14.809154510498047
 30
4.0531158447265625e-06
 11
-4.966069221496582
 21
14.657453536987305
 31
4.0531158447265625e-06
  0
LINE
  8
0
 10
-4.966069221496582
 20
14.657453536987305
 30
4.0531158447265625e-06
 11
-4.814697265625
 21
14.532890319824219
 31
3.814697265625e-06
  0
LINE
  8
0
 10
-4.814697265625
 20
14.532890319824219
 30
3.814697265625e-06
 11
-4.641932964324951
 21
14.440252304077148
 31
3.5762786865234375e-06
  0
LINE
  8
0
 10
-4.641932964324951
 20
14.440252304077148
 30
3.5762786865234375e-06
 11
-4.454415321350098
 21
14.383097648620605
 31
3.5762786865234375e-06
  0
LINE
  8
0
 10
-4.259350776672363
 20
14.363625526428223
 30
3.814697265625e-06
 11
-4.454415321350098
 21
14.383097648620605
 31
3.5762786865234375e-06
  0
LINE
  8
0
 10
-1.9093513488769531
 20
14.360518455505371
 30
2.384185791015625e-06
 11
-1.7142863273620605
 21
14.341044425964355
 31
2.1457672119140625e-06
  0
LINE
  8
0
 10
-1.7142863273620605
 20
14.341044425964355
 30
2.1457672119140625e-06
 11
-1.5267682075500488
 21
14.283890724182129
 31
1.9073486328125e-06
  0
LINE
  8
0
 10
-1.5267682075500488
 20
14.283890724182129
 30
1.9073486328125e-06
 11
-1.3540043830871582
 21
14.191252708435059
 31
1.9073486328125e-06
  0
LINE
  8
0
 10
-1.3540043830871582
 20
14.191252708435059
 30
1.9073486328125e-06
 11
-1.202631950378418
 21
14.066689491271973
 31
1.6689300537109375e-06
  0
LINE
  8
0
 10
-1.202631950378418
 20
14.066689491271973
 30
1.6689300537109375e-06
 11
-1.0784697532653809
 21
13.91498851776123
 31
1.6689300537109375e-06
  0
LINE
  8
0
 10
-1.0784697532653809
 20
13.91498851776123
 30
1.6689300537109375e-06
 11
-0.9862890243530273
 21
13.741979598999023
 31
1.430511474609375e-06
  0
LINE
  8
0
 10
-0.9862890243530273
 20
13.741979598999023
 30
1.430511474609375e-06
 11
-0.929631233215332
 21
13.554311752319336
 31
1.430511474609375e-06
  0
LINE
  8
0
 10
-0.9106745719909668
 20
13.359195709228516
 30
1.6689300537109375e-06
 11
-0.929631233215332
 21
13.554311752319336
 31
1.430511474609375e-06
  0
LINE
  8
0
 10
-0.9142446517944336
 20
10.659199714660645
 30
7.152557373046875e-07
 11
-0.9337186813354492
 21
10.46413516998291
 31
7.152557373046875e-07
  0
LINE
  8
0
 10
-0.9337186813354492
 20
10.46413516998291
 30
7.152557373046875e-07
 11
-0.9908714294433594
 21
10.276618003845215
 31
5.960464477539062e-07
  0
LINE
  8
0
 10
-0.9908714294433594
 20
10.276618003845215
 30
5.960464477539062e-07
 11
-1.0835108757019043
 21
10.103852272033691
 31
4.76837158203125e-07
  0
LINE
  8
0
 10
-1.0835108757019043
 20
10.103852272033691
 30
4.76837158203125e-07
 11
-1.2080731391906738
 21
9.952481269836426
 31
4.76837158203125e-07
  0
LINE
  8
0
 10
-1.2080731391906738
 20
9.952481269836426
 30
4.76837158203125e-07
 11
-1.3597745895385742
 21
9.828317642211914
 31
5.960464477539062e-07
  0
LINE
  8
0
 10
-1.3597745895385742
 20
9.828317642211914
 30
5.960464477539062e-07
 11
-1.5327825546264648
 21
9.736136436462402
 31
7.152557373046875e-07
  0
LINE
  8
0
 10
-1.5327825546264648
 20
9.736136436462402
 30
7.152557373046875e-07
 11
-1.7204508781433105
 21
9.679479598999023
 31
7.152557373046875e-07
  0
LINE
  8
0
 10
-1.9155664443969727
 20
9.6605224609375
 30
8.344650268554688e-07
 11
-1.7204508781433105
 21
9.679479598999023
 31
7.152557373046875e-07
  0
LINE
  8
0
 10
-4.865564346313477
 20
9.664422035217285
 30
2.6226043701171875e-06
 11
-5.0606794357299805
 21
9.645465850830078
 31
2.6226043701171875e-06
  0
LINE
  8
0
 10
-5.0606794357299805
 20
9.645465850830078
 30
2.6226043701171875e-06
 11
-5.248347759246826
 21
9.5888090133667
 31
2.7418136596679688e-06
  0
LINE
  8
0
 10
-5.248347759246826
 20
9.5888090133667
 30
2.7418136596679688e-06
 11
-5.421356678009033
 21
9.496626853942871
 31
2.86102294921875e-06
  0
LINE
  8
0
 10
-5.421356678009033
 20
9.496626853942871
 30
2.86102294921875e-06
 11
-5.573057651519775
 21
9.372465133666992
 31
2.9802322387695312e-06
  0
LINE
  8
0
 10
-5.573057651519775
 20
9.372465133666992
 30
2.9802322387695312e-06
 11
-5.697620391845703
 21
9.22109317779541
 31
2.9802322387695312e-06
  0
LINE
  8
0
 10
-5.697620391845703
 20
9.22109317779541
 30
2.9802322387695312e-06
 11
-5.790258884429932
 21
9.048328399658203
 31
2.86102294921875e-06
  0
LINE
  8
0
 10
-5.790258884429932
 20
9.048328399658203
 30
2.86102294921875e-06
 11
-5.847412586212158
 21
8.860810279846191
 31
2.7418136596679688e-06
  0
LINE
  8
0
 10
-5.866885185241699
 20
8.665746688842773
 30
2.7418136596679688e-06
 11
-5.847412586212158
 21
8.860810279846191
 31
2.7418136596679688e-06
  0
LINE
  8
0
 10
-5.868868827819824
 20
7.16574764251709
 30
2.1457672119140625e-06
 11
-5.849912166595459
 21
6.9706315994262695
 31
2.2649765014648438e-06
  0
LINE
  8
0
 10
-5.849912166595459
 20
6.9706315994262695
 30
2.2649765014648438e-06
 11
-5.793254375457764
 21
6.782963752746582
 31
1.9073486328125e-06
  0
LINE
  8
0
 10
-5.793254375457764
 20
6.782963752746582
 30
1.9073486328125e-06
 11
-5.701073169708252
 21
6.609954357147217
 31
1.9073486328125e-06
  0
LINE
  8
0
 10
-5.701073169708252
 20
6.609954357147217
 30
1.9073486328125e-06
 11
-5.576910972595215
 21
6.458253860473633
 31
1.7881393432617188e-06
  0
LINE
  8
0
 10
-5.576910972595215
 20
6.458253860473633
 30
1.7881393432617188e-06
 11
-5.425539016723633
 21
6.333691120147705
 31
1.7881393432617188e-06
  0
LINE
  8
0
 10
-5.425539016723633
 20
6.333691120147705
 30
1.7881393432617188e-06
 11
-5.252774238586426
 21
6.241052150726318
 31
1.5497207641601562e-06
  0
LINE
  8
0
 10
-5.252774238586426
 20
6.241052150726318
 30
1.5497207641601562e-06
 11
-5.065256595611572
 21
6.18389892578125
 31
1.430511474609375e-06
  0
LINE
  8
0
 10
-4.870192050933838
 20
6.164426803588867
 30
1.2516975402832031e-06
 11
-5.065256595611572
 21
6.18389892578125
 31
1.430511474609375e-06
  0
LINE
  8
0
 10
14.779793739318848
 20
6.138443946838379
 30
-8.702278137207031e-06
 11
14.974858283996582
 21
6.11897087097168
 31
-8.702278137207031e-06
  0
LINE
  8
0
 10
14.974858283996582
 20
6.11897087097168
 30
-8.702278137207031e-06
 11
15.162375450134277
 21
6.061816692352295
 31
-8.821487426757812e-06
  0
LINE
  8
0
 10
15.162375450134277
 20
6.061816692352295
 30
-8.821487426757812e-06
 11
15.335139274597168
 21
5.969178199768066
 31
-9.059906005859375e-06
  0
LINE
  8
0
 10
15.335139274597168
 20
5.969178199768066
 30
-9.059906005859375e-06
 11
15.486512184143066
 21
5.844615459442139
 31
-9.059906005859375e-06
  0
LINE
  8
0
 10
15.486512184143066
 20
5.844615459442139
 30
-9.059906005859375e-06
 11
15.610674858093262
 21
5.6929144859313965
 31
-9.059906005859375e-06
  0
LINE
  8
0
 10
15.610674858093262
 20
5.6929144859313965
 30
-9.059906005859375e-06
 11
15.702855110168457
 21
5.519906044006348
 31
-9.298324584960938e-06
  0
LINE
  8
0
 10
15.702855110168457
 20
5.519906044006348
 30
-9.298324584960938e-06
 11
15.759514808654785
 21
5.332237720489502
 31
-9.417533874511719e-06
  0
LINE
  8
0
 10
15.778470039367676
 20
5.137122631072998
 30
-9.5367431640625e-06
 11
15.759514808654785
 21
5.332237720489502
 31
-9.417533874511719e-06
  0
LINE
  8
0
 10
14.763789176940918
 20
-5.961521148681641
 30
-1.2874603271484375e-05
 11
14.958905220031738
 21
-5.942564964294434
 31
-1.2934207916259766e-05
  0
LINE
  8
0
 10
14.958905220031738
 20
-5.942564964294434
 30
-1.2934207916259766e-05
 11
15.146573066711426
 21
-5.885907173156738
 31
-1.2993812561035156e-05
  0
LINE
  8
0
 10
15.146573066711426
 20
-5.885907173156738
 30
-1.2993812561035156e-05
 11
15.319581031799316
 21
-5.793725967407227
 31
-1.3053417205810547e-05
  0
LINE
  8
0
 10
15.319581031799316
 20
-5.793725967407227
 30
-1.3053417205810547e-05
 11
15.471283912658691
 21
-5.669563293457031
 31
-1.3172626495361328e-05
  0
LINE
  8
0
 10
15.471283912658691
 20
-5.669563293457031
 30
-1.3172626495361328e-05
 11
15.595847129821777
 21
-5.518191814422607
 31
-1.3172626495361328e-05
  0
LINE
  8
0
 10
15.595847129821777
 20
-5.518191814422607
 30
-1.3172626495361328e-05
 11
15.68848705291748
 21
-5.3454270362854
 31
-1.3113021850585938e-05
  0
LINE
  8
0
 10
15.68848705291748
 20
-5.3454270362854
 30
-1.3113021850585938e-05
 11
15.745640754699707
 21
-5.157909393310547
 31
-1.3053417205810547e-05
  0
LINE
  8
0
 10
15.765110969543457
 20
-4.9628448486328125
 30
-1.2993812561035156e-05
 11
15.745640754699707
 21
-5.157909393310547
 31
-1.3053417205810547e-05
  0
LINE
  8
0
 10
-5.887516975402832
 20
-6.934216022491455
 30
-2.86102294921875e-06
 11
-5.868044376373291
 21
-6.739150524139404
 31
-2.86102294921875e-06
  0
LINE
  8
0
 10
-5.868044376373291
 20
-6.739150524139404
 30
-2.86102294921875e-06
 11
-5.810890197753906
 21
-6.551632404327393
 31
-2.7418136596679688e-06
  0
LINE
  8
0
 10
-5.810890197753906
 20
-6.551632404327393
 30
-2.7418136596679688e-06
 11
-5.718252182006836
 21
-6.378868103027344
 31
-2.8014183044433594e-06
  0
LINE
  8
0
 10
-5.718252182006836
 20
-6.378868103027344
 30
-2.8014183044433594e-06
 11
-5.59368896484375
 21
-6.227496147155762
 31
-2.86102294921875e-06
  0
LINE
  8
0
 10
-5.59368896484375
 20
-6.227496147155762
 30
-2.86102294921875e-06
 11
-5.441987991333008
 21
-6.103334426879883
 31
-2.86102294921875e-06
  0
LINE
  8
0
 10
-5.441987991333008
 20
-6.103334426879883
 30
-2.86102294921875e-06
 11
-5.268979072570801
 21
-6.011152744293213
 31
-2.9206275939941406e-06
  0
LINE
  8
0
 10
-5.268979072570801
 20
-6.011152744293213
 30
-2.9206275939941406e-06
 11
-5.081311225891113
 21
-5.954494953155518
 31
-3.0994415283203125e-06
  0
LINE
  8
0
 10
-4.886195182800293
 20
-5.9355387687683105
 30
-3.039836883544922e-06
 11
-5.081311225891113
 21
-5.954494953155518
 31
-3.0994415283203125e-06
  0
LINE
  8
0
 10
-4.8908233642578125
 20
-9.435535430908203
 30
-4.172325134277344e-06
 11
-5.085888385772705
 21
-9.416062355041504
 31
-4.0531158447265625e-06
  0
LINE
  8
0
 10
-5.085888385772705
 20
-9.416062355041504
 30
-4.0531158447265625e-06
 11
-5.273406028747559
 21
-9.358908653259277
 31
-3.933906555175781e-06
  0
LINE
  8
0
 10
-5.273406028747559
 20
-9.358908653259277
 30
-3.933906555175781e-06
 11
-5.446170806884766
 21
-9.266271591186523
 31
-3.6954879760742188e-06
  0
LINE
  8
0
 10
-5.446170806884766
 20
-9.266271591186523
 30
-3.6954879760742188e-06
 11
-5.597542762756348
 21
-9.141707420349121
 31
-3.6954879760742188e-06
  0
LINE
  8
0
 10
-5.597542762756348
 20
-9.141707420349121
 30
-3.6954879760742188e-06
 11
-5.721704959869385
 21
-8.990006446838379
 31
-3.6954879760742188e-06
  0
LINE
  8
0
 10
-5.721704959869385
 20
-8.990006446838379
 30
-3.6954879760742188e-06
 11
-5.8138861656188965
 21
-8.816998481750488
 31
-3.4570693969726562e-06
  0
LINE
  8
0
 10
-5.8138861656188965
 20
-8.816998481750488
 30
-3.4570693969726562e-06
 11
-5.870543956756592
 21
-8.629329681396484
 31
-3.4570693969726562e-06
  0
LINE
  8
0
 10
-5.889500141143799
 20
-8.43421459197998
 30
-3.337860107421875e-06
 11
-5.870543956756592
 21
-8.629329681396484
 31
-3.4570693969726562e-06
  0
LINE
  8
0
 10
-0.9421486854553223
 20
-10.440757751464844
 30
-6.4373016357421875e-06
 11
-0.9611048698425293
 21
-10.245640754699707
 31
-6.556510925292969e-06
  0
LINE
  8
0
 10
-0.9611048698425293
 20
-10.245640754699707
 30
-6.556510925292969e-06
 11
-1.0177621841430664
 21
-10.057973861694336
 31
-6.4373016357421875e-06
  0
LINE
  8
0
 10
-1.0177621841430664
 20
-10.057973861694336
 30
-6.4373016357421875e-06
 11
-1.1099443435668945
 21
-9.884964942932129
 31
-6.318092346191406e-06
  0
LINE
  8
0
 10
-1.1099443435668945
 20
-9.884964942932129
 30
-6.318092346191406e-06
 11
-1.2341060638427734
 21
-9.733263969421387
 31
-6.318092346191406e-06
  0
LINE
  8
0
 10
-1.2341060638427734
 20
-9.733263969421387
 30
-6.318092346191406e-06
 11
-1.3854780197143555
 21
-9.608699798583984
 31
-6.079673767089844e-06
  0
LINE
  8
0
 10
-1.3854780197143555
 20
-9.608699798583984
 30
-6.079673767089844e-06
 11
-1.5582427978515625
 21
-9.51606273651123
 31
-5.9604644775390625e-06
  0
LINE
  8
0
 10
-1.5582427978515625
 20
-9.51606273651123
 30
-5.9604644775390625e-06
 11
-1.745760440826416
 21
-9.458908081054688
 31
-5.841255187988281e-06
  0
LINE
  8
0
 10
-1.9408254623413086
 20
-9.439435958862305
 30
-5.7220458984375e-06
 11
-1.745760440826416
 21
-9.458908081054688
 31
-5.841255187988281e-06
  0
LINE
  8
0
 10
-1.94704008102417
 20
-14.139431953430176
 30
-7.3909759521484375e-06
 11
-1.751924991607666
 21
-14.120475769042969
 31
-7.3909759521484375e-06
  0
LINE
  8
0
 10
-1.751924991607666
 20
-14.120475769042969
 30
-7.3909759521484375e-06
 11
-1.5642566680908203
 21
-14.06381893157959
 31
-7.62939453125e-06
  0
LINE
  8
0
 10
-1.5642566680908203
 20
-14.06381893157959
 30
-7.62939453125e-06
 11
-1.3912482261657715
 21
-13.971636772155762
 31
-7.62939453125e-06
  0
LINE
  8
0
 10
-1.3912482261657715
 20
-13.971636772155762
 30
-7.62939453125e-06
 11
-1.2395477294921875
 21
-13.847475051879883
 31
-7.62939453125e-06
  0
LINE
  8
0
 10
-1.2395477294921875
 20
-13.847475051879883
 30
-7.62939453125e-06
 11
-1.1149840354919434
 21
-13.6961030960083
 31
-7.867813110351562e-06
  0
LINE
  8
0
 10
-1.1149840354919434
 20
-13.6961030960083
 30
-7.867813110351562e-06
 11
-1.022346019744873
 21
-13.523338317871094
 31
-7.62939453125e-06
  0
LINE
  8
0
 10
-1.022346019744873
 20
-13.523338317871094
 30
-7.62939453125e-06
 11
-0.9651918411254883
 21
-13.335820198059082
 31
-7.3909759521484375e-06
  0
LINE
  8
0
 10
-0.9457192420959473
 20
-13.140755653381348
 30
-7.152557373046875e-06
 11
-0.9651918411254883
 21
-13.335820198059082
 31
-7.3909759521484375e-06
  0
LINE
  8
0
 10
-5.298358917236328
 20
-15.135003089904785
 30
-5.4836273193359375e-06
 11
-5.278886795043945
 21
-14.939937591552734
 31
-5.7220458984375e-06
  0
LINE
  8
0
 10
-5.278886795043945
 20
-14.939937591552734
 30
-5.7220458984375e-06
 11
-5.221733093261719
 21
-14.752420425415039
 31
-5.7220458984375e-06
  0
LINE
  8
0
 10
-5.221733093261719
 20
-14.752420425415039
 30
-5.7220458984375e-06
 11
-5.12909460067749
 21
-14.579655647277832
 31
-5.4836273193359375e-06
  0
LINE
  8
0
 10
-5.12909460067749
 20
-14.579655647277832
 30
-5.4836273193359375e-06
 11
-5.0045318603515625
 21
-14.428284645080566
 31
-5.7220458984375e-06
  0
LINE
  8
0
 10
-5.0045318603515625
 20
-14.428284645080566
 30
-5.7220458984375e-06
 11
-4.8528313636779785
 21
-14.304121017456055
 31
-5.4836273193359375e-06
  0
LINE
  8
0
 10
-4.8528313636779785
 20
-14.304121017456055
 30
-5.4836273193359375e-06
 11
-4.6798224449157715
 21
-14.211939811706543
 31
-5.4836273193359375e-06
  0
LINE
  8
0
 10
-4.6798224449157715
 20
-14.211939811706543
 30
-5.4836273193359375e-06
 11
-4.492154598236084
 21
-14.155282020568848
 31
-5.7220458984375e-06
  0
LINE
  8
0
 10
-4.297039031982422
 20
-14.136326789855957
 30
-5.4836273193359375e-06
 11
-4.492154598236084
 21
-14.155282020568848
 31
-5.7220458984375e-06
  0
LINE
  8
0
 10
-6.1748857498168945
 20
-18.92739486694336
 30
-6.198883056640625e-06
 11
-6.004961967468262
 21
-19.004070281982422
 31
-6.4373016357421875e-06
  0
LINE
  8
0
 10
-6.004961967468262
 20
-19.004070281982422
 30
-6.4373016357421875e-06
 11
-5.841518402099609
 21
-19.039369583129883
 31
-6.198883056640625e-06
  0
LINE
  8
0
 10
-5.841518402099609
 20
-19.039369583129883
 30
-6.198883056640625e-06
 11
-5.6908345222473145
 21
-19.031936645507812
 31
-6.198883056640625e-06
  0
LINE
  8
0
 10
-5.6908345222473145
 20
-19.031936645507812
 30
-6.198883056640625e-06
 11
-5.558701515197754
 21
-18.9820556640625
 31
-6.4373016357421875e-06
  0
LINE
  8
0
 10
-5.558701515197754
 20
-18.9820556640625
 30
-6.4373016357421875e-06
 11
-5.450197696685791
 21
-18.891645431518555
 31
-6.4373016357421875e-06
  0
LINE
  8
0
 10
-5.450197696685791
 20
-18.891645431518555
 30
-6.4373016357421875e-06
 11
-5.369492530822754
 21
-18.764179229736328
 31
-6.198883056640625e-06
  0
LINE
  8
0
 10
-5.369492530822754
 20
-18.764179229736328
 30
-6.198883056640625e-06
 11
-5.319687366485596
 21
-18.604557037353516
 31
-6.4373016357421875e-06
  0
LINE
  8
0
 10
-5.302696228027344
 20
-18.41891098022461
 30
-6.4373016357421875e-06
 11
-5.319687366485596
 21
-18.604557037353516
 31
-6.4373016357421875e-06
  0
LINE
  8
0
 10
-13.402290344238281
 20
-12.472572326660156
 30
0.0
 11
-13.388486862182617
 21
-12.681021690368652
 31
0.0
  0
LINE
  8
0
 10
-13.388486862182617
 20
-12.681021690368652
 30
0.0
 11
-13.347591400146484
 21
-12.90817642211914
 31
-4.76837158203125e-07
  0
LINE
  8
0
 10
-13.347591400146484
 20
-12.90817642211914
 30
-4.76837158203125e-07
 11
-13.28117561340332
 21
-13.14531135559082
 31
-2.384185791015625e-07
  0
LINE
  8
0
 10
-13.28117561340332
 20
-13.14531135559082
 30
-2.384185791015625e-07
 11
-13.191792488098145
 21
-13.383310317993164
 31
-7.152557373046875e-07
  0
LINE
  8
0
 10
-13.191792488098145
 20
-13.383310317993164
 30
-7.152557373046875e-07
 11
-13.082876205444336
 21
-13.613027572631836
 31
-1.1920928955078125e-06
  0
LINE
  8
0
 10
-13.082876205444336
 20
-13.613027572631836
 30
-1.1920928955078125e-06
 11
-12.958613395690918
 21
-13.82563591003418
 31
-1.1920928955078125e-06
  0
LINE
  8
0
 10
-12.958613395690918
 20
-13.82563591003418
 30
-1.1920928955078125e-06
 11
-12.823779106140137
 21
-14.012964248657227
 31
-1.430511474609375e-06
  0
LINE
  8
0
 10
-12.683553695678711
 20
-14.167816162109375
 30
-1.430511474609375e-06
 11
-12.823779106140137
 21
-14.012964248657227
 31
-1.430511474609375e-06
  0
LINE
  8
0
 10
-12.635756492614746
 20
14.36276626586914
 30
7.62939453125e-06
 11
-12.785107612609863
 21
14.21803092956543
 31
8.106231689453125e-06
  0
LINE
  8
0
 10
-12.785107612609863
 20
14.21803092956543
 30
8.106231689453125e-06
 11
-12.928719520568848
 21
14.040431022644043
 31
8.106231689453125e-06
  0
LINE
  8
0
 10
-12.928719520568848
 20
14.040431022644043
 30
8.106231689453125e-06
 11
-13.061075210571289
 21
13.836787223815918
 31
8.106231689453125e-06
  0
LINE
  8
0
 10
-13.061075210571289
 20
13.836787223815918
 30
8.106231689453125e-06
 11
-13.177087783813477
 21
13.614928245544434
 31
7.867813110351562e-06
  0
LINE
  8
0
 10
-13.177087783813477
 20
13.614928245544434
 30
7.867813110351562e-06
 11
-13.272296905517578
 21
13.383378028869629
 31
7.867813110351562e-06
  0
LINE
  8
0
 10
-13.272296905517578
 20
13.383378028869629
 30
7.867813110351562e-06
 11
-13.343048095703125
 21
13.151036262512207
 31
7.62939453125e-06
  0
LINE
  8
0
 10
-13.343048095703125
 20
13.151036262512207
 30
7.62939453125e-06
 11
-13.386618614196777
 21
12.926830291748047
 31
7.62939453125e-06
  0
LINE
  8
0
 10
-13.401335716247559
 20
12.719378471374512
 30
7.271766662597656e-06
 11
-13.386618614196777
 21
12.926830291748047
 31
7.62939453125e-06
  0
LINE
  8
0
 10
4.634225845336914
 20
-1.2840664386749268
 30
-6.146728992462158e-06
 11
4.634490013122559
 21
1.231388807296753
 31
-5.27501106262207e-06
  0
LINE
  8
0
 10
5.6342267990112305
 20
-2.285388469696045
 30
-7.018446922302246e-06
 11
8.184901237487793
 21
-2.2886290550231934
 31
-8.240342140197754e-06
  0
LINE
  8
0
 10
5.634488105773926
 20
2.2300662994384766
 30
-5.453824996948242e-06
 11
8.185162544250488
 21
2.2268261909484863
 31
-6.67572021484375e-06
  0
LINE
  8
0
 10
9.18489933013916
 20
-1.2899514436721802
 30
-8.409842848777771e-06
 11
9.185161590576172
 21
1.2255038022994995
 31
-7.569789886474609e-06
  0
LINE
  8
0
 10
-7.254787921905518
 20
17.84326171875
 30
6.9141387939453125e-06
 11
-6.179940223693848
 21
18.28057098388672
 31
6.198883056640625e-06
  0
LINE
  8
0
 10
-5.254993438720703
 20
17.657432556152344
 30
5.245208740234375e-06
 11
-5.258026599884033
 21
15.364946365356445
 31
4.5299530029296875e-06
  0
LINE
  8
0
 10
-4.259350776672363
 20
14.363625526428223
 30
3.814697265625e-06
 11
-1.9093513488769531
 21
14.360518455505371
 31
2.384185791015625e-06
  0
LINE
  8
0
 10
-0.9106745719909668
 20
13.359195709228516
 30
1.6689300537109375e-06
 11
-0.9142446517944336
 21
10.659199714660645
 31
7.152557373046875e-07
  0
LINE
  8
0
 10
-1.9155664443969727
 20
9.6605224609375
 30
8.344650268554688e-07
 11
-4.865564346313477
 21
9.664422035217285
 31
2.6226043701171875e-06
  0
LINE
  8
0
 10
-5.866885185241699
 20
8.665746688842773
 30
2.7418136596679688e-06
 11
-5.868868827819824
 21
7.16574764251709
 31
2.1457672119140625e-06
  0
LINE
  8
0
 10
-4.870192050933838
 20
6.164426803588867
 30
1.2516975402832031e-06
 11
14.779793739318848
 21
6.138443946838379
 31
-8.702278137207031e-06
  0
LINE
  8
0
 10
15.778470039367676
 20
5.137122631072998
 30
-9.5367431640625e-06
 11
15.765110969543457
 21
-4.9628448486328125
 31
-1.2993812561035156e-05
  0
LINE
  8
0
 10
14.763789176940918
 20
-5.961521148681641
 30
-1.2874603271484375e-05
 11
-4.886195182800293
 21
-5.9355387687683105
 31
-3.039836883544922e-06
  0
LINE
  8
0
 10
-5.887516975402832
 20
-6.934216022491455
 30
-2.86102294921875e-06
 11
-5.889500141143799
 21
-8.43421459197998
 31
-3.337860107421875e-06
  0
LINE
  8
0
 10
-4.8908233642578125
 20
-9.435535430908203
 30
-4.172325134277344e-06
 11
-1.9408254623413086
 21
-9.439435958862305
 31
-5.7220458984375e-06
  0
LINE
  8
0
 10
-0.9421486854553223
 20
-10.440757751464844
 30
-6.4373016357421875e-06
 11
-0.9457192420959473
 21
-13.140755653381348
 31
-7.152557373046875e-06
  0
LINE
  8
0
 10
-1.94704008102417
 20
-14.139431953430176
 30
-7.3909759521484375e-06
 11
-4.297039031982422
 21
-14.136326789855957
 31
-5.4836273193359375e-06
  0
LINE
  8
0
 10
-5.298358917236328
 20
-15.135003089904785
 30
-5.4836273193359375e-06
 11
-5.302696228027344
 21
-18.41891098022461
 31
-6.4373016357421875e-06
  0
LINE
  8
0
 10
-7.140787124633789
 20
-18.382244110107422
 30
-5.7220458984375e-06
 11
-6.1748857498168945
 21
-18.92739486694336
 31
-6.198883056640625e-06
  0
LINE
  8
0
 10
-13.402290344238281
 20
-12.472572326660156
 30
0.0
 11
-13.401335716247559
 21
12.719378471374512
 31
7.271766662597656e-06
  0
LINE
  8
0
 10
-12.148869514465332
 20
-14.6849946975708
 30
-2.1457672119140625e-06
 11
-12.683553695678711
 21
-14.167816162109375
 31
-1.430511474609375e-06
  0
LINE
  8
0
 10
-11.782590866088867
 20
15.079792976379395
 30
8.106231689453125e-06
 11
-12.635756492614746
 21
14.36276626586914
 31
7.62939453125e-06
  0
ENDSEC
  0
EOF
