<?xml version="1.0" encoding="UTF-8" standalone="no"?><!DOCTYPE svg PUBLIC "-//W3C//DTD SVG 1.1//EN" "http://www.w3.org/Graphics/SVG/1.1/DTD/svg11.dtd"><svg width="100%" height="100%" viewBox="0 0 114 49" version="1.1" xmlns="http://www.w3.org/2000/svg" xmlns:xlink="http://www.w3.org/1999/xlink" xml:space="preserve" xmlns:serif="http://www.serif.com/" style="fill-rule:evenodd;clip-rule:evenodd;stroke-linejoin:round;stroke-miterlimit:2;"><g><path d="M11.339,5.669c-0,-1.503 -0.598,-2.945 -1.661,-4.008c-1.063,-1.064 -2.505,-1.661 -4.009,-1.661c0,-0 0,-0 0,-0c-1.503,0 -2.945,0.597 -4.009,1.661c-1.063,1.063 -1.66,2.505 -1.66,4.008c0,9.273 0,27.578 0,36.851c-0,1.503 0.597,2.945 1.66,4.008c1.064,1.064 2.506,1.661 4.009,1.661c0,-0 0,-0 0,-0c1.504,-0 2.946,-0.597 4.009,-1.661c1.063,-1.063 1.661,-2.505 1.661,-4.008c-0,-9.273 -0,-27.578 -0,-36.851Z" style="fill:none;"/><path d="M22.677,5.669c0,-1.503 -0.597,-2.945 -1.66,-4.008c-1.064,-1.064 -2.506,-1.661 -4.009,-1.661c-0,0 -0,0 -0,0c-1.504,0 -2.946,0.597 -4.009,1.661c-1.063,1.063 -1.66,2.505 -1.66,4.008c-0,9.273 -0,27.578 -0,36.851c-0,1.503 0.597,2.945 1.66,4.008c1.063,1.064 2.505,1.661 4.009,1.661c-0,-0 -0,-0 -0,-0c1.503,-0 2.945,-0.597 4.009,-1.661c1.063,-1.063 1.66,-2.505 1.66,-4.008c0,-9.273 0,-27.578 0,-36.851Z" style="fill:none;"/><path d="M34.016,5.669c-0,-1.503 -0.598,-2.945 -1.661,-4.008c-1.063,-1.064 -2.505,-1.661 -4.009,-1.661c0,0 0,0 0,0c-1.503,0 -2.945,0.597 -4.008,1.661c-1.064,1.063 -1.661,2.505 -1.661,4.008c0,9.273 0,27.578 0,36.851c0,1.503 0.597,2.945 1.661,4.008c1.063,1.064 2.505,1.661 4.008,1.661c0,-0 0,-0 0,-0c1.504,-0 2.946,-0.597 4.009,-1.661c1.063,-1.063 1.661,-2.505 1.661,-4.008c-0,-9.273 -0,-27.578 -0,-36.851Z" style="fill:none;"/><path d="M45.354,5.669c0,-1.503 -0.597,-2.945 -1.66,-4.008c-1.063,-1.064 -2.505,-1.661 -4.009,-1.661c0,0 0,0 0,0c-1.504,0 -2.946,0.597 -4.009,1.661c-1.063,1.063 -1.66,2.505 -1.66,4.008c-0,9.273 -0,27.578 -0,36.851c-0,1.503 0.597,2.945 1.66,4.008c1.063,1.064 2.505,1.661 4.009,1.661c0,-0 0,-0 0,-0c1.504,-0 2.946,-0.597 4.009,-1.661c1.063,-1.063 1.66,-2.505 1.66,-4.008c0,-9.273 0,-27.578 0,-36.851Z" style="fill:none;"/><path d="M56.693,5.669c-0,-1.503 -0.597,-2.945 -1.661,-4.008c-1.063,-1.064 -2.505,-1.661 -4.008,-1.661c-0,0 -0,0 -0,0c-1.504,0 -2.946,0.597 -4.009,1.661c-1.063,1.063 -1.661,2.505 -1.661,4.008c0,9.273 0,27.578 0,36.851c0,1.503 0.598,2.945 1.661,4.008c1.063,1.064 2.505,1.661 4.009,1.661c-0,-0 -0,-0 -0,-0c1.503,-0 2.945,-0.597 4.008,-1.661c1.064,-1.063 1.661,-2.505 1.661,-4.008c-0,-9.273 -0,-27.578 -0,-36.851Z" style="fill:none;"/><path d="M68.031,5.669c0,-1.503 -0.597,-2.945 -1.66,-4.008c-1.063,-1.064 -2.505,-1.661 -4.009,-1.661c0,0 0,0 0,0c-1.503,0 -2.945,0.597 -4.009,1.661c-1.063,1.063 -1.66,2.505 -1.66,4.008c-0,9.273 -0,27.578 -0,36.851c-0,1.503 0.597,2.945 1.66,4.008c1.064,1.064 2.506,1.661 4.009,1.661c0,-0 0,-0 0,-0c1.504,-0 2.946,-0.597 4.009,-1.661c1.063,-1.063 1.66,-2.505 1.66,-4.008c0,-9.273 0,-27.578 0,-36.851Z" style="fill:none;"/><path d="M79.37,5.669c0,-1.503 -0.597,-2.945 -1.66,-4.008c-1.064,-1.064 -2.506,-1.661 -4.009,-1.661c-0,0 -0,0 -0,0c-1.504,0 -2.946,0.597 -4.009,1.661c-1.063,1.063 -1.661,2.505 -1.661,4.008c0,9.273 0,27.578 0,36.851c0,1.503 0.598,2.945 1.661,4.008c1.063,1.064 2.505,1.661 4.009,1.661c-0,-0 -0,-0 -0,-0c1.503,-0 2.945,-0.597 4.009,-1.661c1.063,-1.063 1.66,-2.505 1.66,-4.008c0,-9.273 0,-27.578 0,-36.851Z" style="fill:none;"/><path d="M90.709,5.669c-0,-1.503 -0.598,-2.945 -1.661,-4.008c-1.063,-1.064 -2.505,-1.661 -4.009,-1.661c0,0 0,0 0,0c-1.503,0 -2.945,0.597 -4.008,1.661c-1.064,1.063 -1.661,2.505 -1.661,4.008c0,9.273 0,27.578 0,36.851c0,1.503 0.597,2.945 1.661,4.008c1.063,1.064 2.505,1.661 4.008,1.661c0,-0 0,-0 0,-0c1.504,-0 2.946,-0.597 4.009,-1.661c1.063,-1.063 1.661,-2.505 1.661,-4.008c-0,-9.273 -0,-27.578 -0,-36.851Z" style="fill:none;"/><path d="M102.047,5.669c0,-1.503 -0.597,-2.945 -1.66,-4.008c-1.063,-1.064 -2.505,-1.661 -4.009,-1.661c-0,0 -0,0 -0,0c-1.504,0 -2.946,0.597 -4.009,1.661c-1.063,1.063 -1.66,2.505 -1.66,4.008c-0,9.273 -0,27.578 -0,36.851c-0,1.503 0.597,2.945 1.66,4.008c1.063,1.064 2.505,1.661 4.009,1.661c-0,-0 -0,-0 -0,-0c1.504,-0 2.946,-0.597 4.009,-1.661c1.063,-1.063 1.66,-2.505 1.66,-4.008c0,-9.273 0,-27.578 0,-36.851Z" style="fill:none;"/><path d="M113.386,5.669c-0,-1.503 -0.597,-2.945 -1.661,-4.008c-1.063,-1.064 -2.505,-1.661 -4.008,-1.661c-0,0 -0,0 -0,0c-1.504,0 -2.946,0.597 -4.009,1.661c-1.063,1.063 -1.661,2.505 -1.661,4.008c0,9.273 0,27.578 0,36.851c0,1.503 0.598,2.945 1.661,4.008c1.063,1.064 2.505,1.661 4.009,1.661c-0,-0 -0,-0 -0,-0c1.503,-0 2.945,-0.597 4.008,-1.661c1.064,-1.063 1.661,-2.505 1.661,-4.008c-0,-9.273 -0,-27.578 -0,-36.851Z" style="fill:none;"/></g></svg>