<?xml version="1.0" encoding="UTF-8" standalone="no"?><!DOCTYPE svg PUBLIC "-//W3C//DTD SVG 1.1//EN" "http://www.w3.org/Graphics/SVG/1.1/DTD/svg11.dtd"><svg width="100%" height="100%" viewBox="0 0 114 49" version="1.1" xmlns="http://www.w3.org/2000/svg" xmlns:xlink="http://www.w3.org/1999/xlink" xml:space="preserve" xmlns:serif="http://www.serif.com/" style="fill-rule:evenodd;clip-rule:evenodd;stroke-linecap:round;stroke-linejoin:round;stroke-miterlimit:1.5;"><path d="M5.669,0c0,0 0,0.1 0,0.1c-0.055,0 -0.099,-0.044 -0.1,-0.099c-1.467,0.026 -2.869,0.62 -3.909,1.66c-1.063,1.063 -1.66,2.505 -1.66,4.008c0,9.273 0,27.578 0,36.851c-0,1.503 0.597,2.945 1.66,4.008c1.064,1.064 2.506,1.661 4.009,1.661c0,-0 0,-0 0,-0c1.504,-0 2.946,-0.597 4.009,-1.661c1.063,-1.063 1.661,-2.505 1.661,-4.008c-0,-9.273 -0,-27.578 -0,-36.851c-0,-1.503 -0.598,-2.945 -1.661,-4.008c-1.063,-1.064 -2.505,-1.661 -4.009,-1.661Zm0,48.089c-1.477,-0 -2.893,-0.587 -3.938,-1.631c-1.044,-1.045 -1.631,-2.461 -1.631,-3.938c0,-9.273 0,-27.578 0,-36.851c-0,-1.477 0.587,-2.893 1.631,-3.938c1.045,-1.044 2.461,-1.631 3.938,-1.631c0,0 0,0 0,0c1.477,0 2.894,0.587 3.938,1.631c1.045,1.045 1.632,2.461 1.632,3.938c-0,9.273 -0,27.578 -0,36.851c-0,1.477 -0.587,2.893 -1.632,3.938c-1.044,1.044 -2.461,1.631 -3.938,1.631l0,-0Z"/><path d="M11.29,42.52c-0,1.503 0.597,2.945 1.66,4.008c1.063,1.064 2.505,1.661 4.009,1.661c-0,-0 -0,-0 -0,-0c1.503,-0 2.945,-0.597 4.009,-1.661c1.063,-1.063 1.66,-2.505 1.66,-4.008c0,-9.273 0,-27.578 0,-36.851c0,-1.503 -0.597,-2.945 -1.66,-4.008c-1.064,-1.064 -2.506,-1.661 -4.009,-1.661c-0,0 -0,0 -0,0c-1.504,0 -2.946,0.597 -4.009,1.661c-1.063,1.063 -1.66,2.505 -1.66,4.008" style="fill:none;stroke:#000;stroke-width:0.1px;"/><path d="M22.628,42.52c0,1.503 0.597,2.945 1.661,4.008c1.063,1.064 2.505,1.661 4.008,1.661c0,-0 0,-0 0,-0c1.504,-0 2.946,-0.597 4.009,-1.661c1.063,-1.063 1.661,-2.505 1.661,-4.008c-0,-9.273 -0,-27.578 -0,-36.851c-0,-1.503 -0.598,-2.945 -1.661,-4.008c-1.063,-1.064 -2.505,-1.661 -4.009,-1.661c0,0 0,0 0,0c-1.503,0 -2.945,0.597 -4.008,1.661c-1.064,1.063 -1.661,2.505 -1.661,4.008" style="fill:none;stroke:#000;stroke-width:0.1px;"/><path d="M33.967,42.52c-0,1.503 0.597,2.945 1.66,4.008c1.063,1.064 2.505,1.661 4.009,1.661c-0,-0 0,-0 0,-0c1.504,-0 2.946,-0.597 4.009,-1.661c1.063,-1.063 1.66,-2.505 1.66,-4.008c0,-9.273 0,-27.578 0,-36.851c0,-1.503 -0.597,-2.945 -1.66,-4.008c-1.063,-1.064 -2.505,-1.661 -4.009,-1.661c-0,0 -0,0 -0,0c-1.504,0 -2.946,0.597 -4.009,1.661c-1.063,1.063 -1.66,2.505 -1.66,4.008" style="fill:none;stroke:#000;stroke-width:0.1px;"/><path d="M45.305,42.52c0,1.503 0.598,2.945 1.661,4.008c1.063,1.064 2.505,1.661 4.009,1.661c-0,-0 -0,-0 -0,-0c1.503,-0 2.945,-0.597 4.008,-1.661c1.064,-1.063 1.661,-2.505 1.661,-4.008c-0,-9.273 -0,-27.578 -0,-36.851c-0,-1.503 -0.597,-2.945 -1.661,-4.008c-1.063,-1.064 -2.505,-1.661 -4.008,-1.661c-0,0 -0,0 -0,0c-1.504,0 -2.946,0.597 -4.009,1.661c-1.063,1.063 -1.661,2.505 -1.661,4.008" style="fill:none;stroke:#000;stroke-width:0.1px;"/><path d="M56.644,42.52c-0,1.503 0.597,2.945 1.66,4.008c1.064,1.064 2.506,1.661 4.009,1.661c0,-0 0,-0 0,-0c1.504,-0 2.946,-0.597 4.009,-1.661c1.063,-1.063 1.66,-2.505 1.66,-4.008c0,-9.273 0,-27.578 0,-36.851c0,-1.503 -0.597,-2.945 -1.66,-4.008c-1.063,-1.064 -2.505,-1.661 -4.009,-1.661c0,0 0,0 0,0c-1.503,0 -2.945,0.597 -4.009,1.661c-1.063,1.063 -1.66,2.505 -1.66,4.008" style="fill:none;stroke:#000;stroke-width:0.1px;"/><path d="M67.982,42.52c0,1.503 0.598,2.945 1.661,4.008c1.063,1.064 2.505,1.661 4.009,1.661c-0,-0 -0,-0 -0,-0c1.503,-0 2.945,-0.597 4.009,-1.661c1.063,-1.063 1.66,-2.505 1.66,-4.008c0,-9.273 0,-27.578 0,-36.851c0,-1.503 -0.597,-2.945 -1.66,-4.008c-1.064,-1.064 -2.506,-1.661 -4.009,-1.661c-0,0 -0,0 -0,0c-1.504,0 -2.946,0.597 -4.009,1.661c-1.063,1.063 -1.661,2.505 -1.661,4.008" style="fill:none;stroke:#000;stroke-width:0.1px;"/><path d="M79.321,42.52c0,1.503 0.597,2.945 1.661,4.008c1.063,1.064 2.505,1.661 4.008,1.661c0,-0 0,-0 0,-0c1.504,-0 2.946,-0.597 4.009,-1.661c1.063,-1.063 1.661,-2.505 1.661,-4.008c-0,-9.273 -0,-27.578 -0,-36.851c-0,-1.503 -0.598,-2.945 -1.661,-4.008c-1.063,-1.064 -2.505,-1.661 -4.009,-1.661c0,0 0,0 0,0c-1.503,0 -2.945,0.597 -4.008,1.661c-1.064,1.063 -1.661,2.505 -1.661,4.008" style="fill:none;stroke:#000;stroke-width:0.1px;"/><path d="M90.66,42.52c-0,1.503 0.597,2.945 1.66,4.008c1.063,1.064 2.505,1.661 4.009,1.661c-0,-0 -0,-0 -0,-0c1.504,-0 2.946,-0.597 4.009,-1.661c1.063,-1.063 1.66,-2.505 1.66,-4.008c0,-9.273 0,-27.578 0,-36.851c0,-1.503 -0.597,-2.945 -1.66,-4.008c-1.063,-1.064 -2.505,-1.661 -4.009,-1.661c-0,0 -0,0 -0,0c-1.504,0 -2.946,0.597 -4.009,1.661c-1.063,1.063 -1.66,2.505 -1.66,4.008" style="fill:none;stroke:#000;stroke-width:0.1px;"/><path d="M101.998,42.52c0,1.503 0.597,2.945 1.661,4.008c1.063,1.064 2.505,1.661 4.008,1.661c0,-0 0,-0 0,-0c1.504,-0 2.946,-0.597 4.009,-1.661c1.063,-1.063 1.661,-2.505 1.661,-4.008c-0,-9.273 -0,-27.578 -0,-36.851c-0,-1.503 -0.598,-2.945 -1.661,-4.008c-1.063,-1.064 -2.505,-1.661 -4.009,-1.661c0,0 0,0 0,0c-1.503,0 -2.945,0.597 -4.008,1.661c-1.064,1.063 -1.661,2.505 -1.661,4.008" style="fill:none;stroke:#000;stroke-width:0.1px;"/></svg>