  0
SECTION
  2
HEADER
  9
$ACADVER
  1
AC1009
  9
$INSBASE
 10
0.0
 20
0.0
 30
0.0
  9
$EXTMIN
 10
0.0
 20
0.0
 30
0.0
  9
$EXTMAX
 10
0.0
 20
0.0
 30
0.0
  0
ENDSEC
  0
SECTION
  2
TABLES
  0
TABLE
  2
VPORT
 70
1
  0
VPORT
  2
*ACTIVE
 70
0
 10
0.0
 20
0.0
 11
1.0
 21
1.0
 12
-5.0
 22
1.0
 13
0.0
 23
0.0
 14
0.1
 24
0.1
 15
0.1
 25
0.1
 16
0.0
 26
0.0
 36
1.0
 17
0.0
 27
0.0
 37
0.0
 40
10.0
 41
1.0
 42
50.0
 43
0.0
 44
0.0
 50
0.0
 51
0.0
 71
0
 72
100
 73
1
 74
1
 75
0
 76
0
 77
0
 78
0
  0
ENDTAB
  0
TABLE
  2
LTYPE
 70
8
  0
LTYPE
  2
CONTINUOUS
 70
0
  3
Solid line
 72
65
 73
0
 40
0.0
  0
LTYPE
  2
DOT
 70
0
  3
. . . . . . .
 72
65
 73
2
 40
0.25
 49
0.0
 49
-0.25
  0
LTYPE
  2
DASHED
 70
0
  3
__ __ __ __ __
 72
65
 73
2
 40
0.8
 49
0.5
 49
-0.3
  0
LTYPE
  2
DASHDOT
 70
0
  3
__ . __ . __ .
 72
65
 73
4
 40
1.0
 49
0.5
 49
-0.25
 49
0.0
 49
-0.25
  0
LTYPE
  2
DIVIDE
 70
0
  3
____ . . ____ . . 
 72
65
 73
6
 40
1.25
 49
0.5
 49
-0.25
 49
0.0
 49
-0.25
 49
0.0
 49
-0.25
  0
LTYPE
  2
BORDER
 70
0
  3
__ __ . __ __ . 
 72
65
 73
6
 40
1.75
 49
0.5
 49
-0.25
 49
0.5
 49
-0.25
 49
0.0
 49
-0.25
  0
LTYPE
  2
HIDDEN
 70
0
  3
__ __ __ __ __
 72
65
 73
2
 40
0.4
 49
0.25
 49
-0.25
  0
LTYPE
  2
CENTER
 70
0
  3
____ _ ____ _ __
 72
65
 73
4
 40
2.0
 49
1.25
 49
-0.25
 49
0.25
 49
-0.25
  0
ENDTAB
  0
TABLE
  2
LAYER
 70
1
  0
LAYER
  2
PYDXF
 70
64
 62
7
  6
continuous
  0
ENDTAB
  0
TABLE
  2
STYLE
 70
1
  0
STYLE
  2
STANDARD
 70
0
 40
0
 41
1.0
 50
0.0
 71
0
 42
1
 3
ARIAL.TTF
 4

  0
ENDTAB
  0
TABLE
  2
VIEW
 70
1
  0
VIEW
  2
BF_TOPVIEW
 70
0
 40
120.0
 10
0.0
 20
0.0
 41
200.0
 11
0.0
 21
0.0
 31
1.0
 12
0.0
 22
0.0
 32
0.0
 42
50.0
 43
0.0
 44
0.0
 50
0.0
 71
0
  0
ENDTAB
  0
ENDSEC
  0
SECTION
  2
BLOCKS
  0
ENDSEC
  0
SECTION
  2
ENTITIES
  0
LINE
  8
0
 10
-8.517303466796875
 20
13.986211776733398
 30
-0.20000791549682617
 11
-8.398338317871094
 21
14.190885543823242
 31
-0.20000886917114258
  0
LINE
  8
0
 10
14.780277252197266
 20
-47.4234733581543
 30
-0.20000267028808594
 11
15.34561538696289
 21
-47.284942626953125
 31
-0.2000042200088501
  0
LINE
  8
0
 10
13.933868408203125
 20
14.976675033569336
 30
-0.20000791549682617
 11
10.57806396484375
 21
16.052377700805664
 31
-0.20000743865966797
  0
LINE
  8
0
 10
43.21368408203125
 20
-9.433182716369629
 30
-0.20000553131103516
 11
41.80738067626953
 21
-8.625307083129883
 31
-0.20000648498535156
  0
LINE
  8
0
 10
-52.44950866699219
 20
-13.57928466796875
 30
-0.20000600814819336
 11
-52.44950866699219
 21
-12.378018379211426
 31
-0.20000600814819336
  0
LINE
  8
0
 10
19.27289581298828
 20
-46.51154708862305
 30
-0.20000290870666504
 11
19.825584411621094
 21
-46.429908752441406
 31
-0.2000056505203247
  0
LINE
  8
0
 10
-11.686901092529297
 20
-61.61219024658203
 30
-0.20000362396240234
 11
-11.998188018798828
 21
-61.72477722167969
 31
-0.20000362396240234
  0
LINE
  8
0
 10
10.57806396484375
 20
16.052377700805664
 30
-0.20000743865966797
 11
7.572666168212891
 21
16.880393981933594
 31
-0.20000886917114258
  0
LINE
  8
0
 10
43.21368408203125
 20
-9.433182716369629
 30
-0.20000553131103516
 11
44.61033630371094
 21
-10.254486083984375
 31
-0.20000696182250977
  0
LINE
  8
0
 10
13.933868408203125
 20
14.976675033569336
 30
-0.20000791549682617
 11
17.546199798583984
 21
13.701175689697266
 31
-0.20000886917114258
  0
LINE
  8
0
 10
-5.607536315917969
 20
16.75249671936035
 30
-0.20000743865966797
 11
-5.358783721923828
 21
16.87746238708496
 31
-0.20000839233398438
  0
LINE
  8
0
 10
-6.948692321777344
 20
15.862550735473633
 30
-0.20000791549682617
 11
-6.744384765625
 21
16.027210235595703
 31
-0.20000791549682617
  0
LINE
  8
0
 10
-5.607536315917969
 20
16.75249671936035
 30
-0.20000743865966797
 11
-5.849433898925781
 21
16.620885848999023
 31
-0.20000791549682617
  0
LINE
  8
0
 10
-2.5081405639648438
 20
17.786056518554688
 30
-0.20000791549682617
 11
-2.1847457885742188
 21
17.839265823364258
 31
-0.20000934600830078
  0
LINE
  8
0
 10
5.045619964599609
 20
17.433481216430664
 30
-0.20000886917114258
 11
6.281166076660156
 21
17.17195701599121
 31
-0.20000886917114258
  0
LINE
  8
0
 10
-3.434123992919922
 20
17.580459594726562
 30
-0.20000791549682617
 11
-3.728717803955078
 21
17.4980411529541
 31
-0.20000839233398438
  0
LINE
  8
0
 10
-37.49225616455078
 20
7.543130874633789
 30
-0.20000839233398438
 11
-36.78070068359375
 21
7.798209190368652
 31
-0.20000886917114258
  0
LINE
  8
0
 10
-9.243011474609375
 20
11.539448738098145
 30
-0.20000791549682617
 11
-9.172462463378906
 21
11.966283798217773
 31
-0.20000791549682617
  0
LINE
  8
0
 10
-4.826438903808594
 20
-57.61630630493164
 30
-0.20000290870666504
 11
-4.614398956298828
 21
-57.424076080322266
 31
-0.20000267028808594
  0
LINE
  8
0
 10
-4.826438903808594
 20
-57.61630630493164
 30
-0.20000290870666504
 11
-5.050449371337891
 21
-57.81037902832031
 31
-0.20000410079956055
  0
LINE
  8
0
 10
-41.639644622802734
 20
-33.476036071777344
 30
-0.20000532269477844
 11
-40.21839904785156
 21
-34.238380432128906
 31
-0.20000547170639038
  0
LINE
  8
0
 10
-9.0972900390625
 20
-60.45777893066406
 30
-0.20000433921813965
 11
-9.423370361328125
 21
-60.623573303222656
 31
-0.20000314712524414
  0
LINE
  8
0
 10
55.50880432128906
 20
-39.999576568603516
 30
-0.20000523328781128
 11
55.78032684326172
 21
-40.07667541503906
 31
-0.20000451803207397
  0
LINE
  8
0
 10
55.50880432128906
 20
-39.999576568603516
 30
-0.20000523328781128
 11
55.207740783691406
 21
-39.89144515991211
 31
-0.20000427961349487
  0
LINE
  8
0
 10
-4.414833068847656
 20
-57.23414993286133
 30
-0.20000338554382324
 11
-4.093128204345703
 21
-56.926063537597656
 31
-0.20000362396240234
  0
LINE
  8
0
 10
50.94090270996094
 20
-37.4906005859375
 30
-0.20000576972961426
 11
52.219886779785156
 21
-38.26875305175781
 31
-0.2000051736831665
  0
LINE
  8
0
 10
-1.5361137390136719
 20
-54.809329986572266
 30
-0.20000243186950684
 11
-1.1298828125
 21
-54.51482009887695
 31
-0.20000314712524414
  0
LINE
  8
0
 10
1.9661521911621094
 20
-52.53322219848633
 30
-0.20000338554382324
 11
2.4412994384765625
 21
-52.263607025146484
 31
-0.20000481605529785
  0
LINE
  8
0
 10
5.957374572753906
 20
-50.49329376220703
 30
-0.20000433921813965
 11
6.483180999755859
 21
-50.258934020996094
 31
-0.20000410079956055
  0
LINE
  8
0
 10
61.21417236328125
 20
-8.130226135253906
 30
-0.20000743865966797
 11
61.393409729003906
 21
-8.146917343139648
 31
-0.20000648498535156
  0
LINE
  8
0
 10
10.284175872802734
 20
-48.7679443359375
 30
-0.20000529289245605
 11
10.840435028076172
 21
-48.57784652709961
 31
-0.20000362396240234
  0
LINE
  8
0
 10
62.469886779785156
 20
-8.42517375946045
 30
-0.20000696182250977
 11
62.291908264160156
 21
-8.3513822555542
 31
-0.20000743865966797
  0
LINE
  8
0
 10
65.30689239501953
 20
-25.333045959472656
 30
-0.20000529289245605
 11
65.38861846923828
 21
-24.716279983520508
 31
-0.20000600814819336
  0
LINE
  8
0
 10
65.6470718383789
 20
-19.732553482055664
 30
-0.20000553131103516
 11
65.64928436279297
 21
-20.358821868896484
 31
-0.20000600814819336
  0
LINE
  8
0
 10
65.6470718383789
 20
-19.732553482055664
 30
-0.20000553131103516
 11
65.63745880126953
 21
-19.10578727722168
 31
-0.20000529289245605
  0
LINE
  8
0
 10
23.589385986328125
 20
-46.06721496582031
 30
-0.2000051736831665
 11
24.108184814453125
 21
-46.04560470581055
 31
-0.2000044584274292
  0
LINE
  8
0
 10
63.535621643066406
 20
-32.569786071777344
 30
-0.20000538229942322
 11
63.75579071044922
 21
-31.98731803894043
 31
-0.20000529289245605
  0
LINE
  8
0
 10
64.35350036621094
 20
-10.615968704223633
 30
-0.20000767707824707
 11
64.5137710571289
 21
-11.02770709991455
 31
-0.20000624656677246
  0
LINE
  8
0
 10
64.35350036621094
 20
-10.615968704223633
 30
-0.20000767707824707
 11
64.21078491210938
 21
-10.293161392211914
 31
-0.20000672340393066
  0
LINE
  8
0
 10
63.631141662597656
 20
-9.326610565185547
 30
-0.20000743865966797
 11
63.47565460205078
 21
-9.153570175170898
 31
-0.20000648498535156
  0
LINE
  8
0
 10
-43.77911376953125
 20
4.3314208984375
 30
-0.20000743865966797
 11
-43.114662170410156
 21
4.794888496398926
 31
-0.20000648498535156
  0
LINE
  8
0
 10
61.123939514160156
 20
-37.595577239990234
 30
-0.20000559091567993
 11
61.295806884765625
 21
-37.33857727050781
 31
-0.20000547170639038
  0
LINE
  8
0
 10
59.98370361328125
 20
-8.215425491333008
 30
-0.20000696182250977
 11
60.232810974121094
 21
-8.174497604370117
 31
-0.20000600814819336
  0
LINE
  8
0
 10
61.21417236328125
 20
-8.130226135253906
 30
-0.20000743865966797
 11
61.03361511230469
 21
-8.121293067932129
 31
-0.20000791549682617
  0
LINE
  8
0
 10
-41.639644622802734
 20
-33.476036071777344
 30
-0.20000532269477844
 11
-42.983489990234375
 21
-32.665897369384766
 31
-0.20000523328781128
  0
LINE
  8
0
 10
-40.73448944091797
 20
6.177528381347656
 30
-0.20000791549682617
 11
-41.31134796142578
 21
5.876224517822266
 31
-0.20000743865966797
  0
LINE
  8
0
 10
-46.52369689941406
 20
-29.968835830688477
 30
-0.20000547170639038
 11
-45.42764663696289
 21
-30.90825080871582
 31
-0.20000529289245605
  0
LINE
  8
0
 10
-6.613758087158203
 20
-58.98711395263672
 30
-0.20000314712524414
 11
-6.9049835205078125
 21
-59.180877685546875
 31
-0.20000267028808594
  0
LINE
  8
0
 10
-26.4581298828125
 20
-38.89685821533203
 30
-0.20000535249710083
 11
-28.357967376708984
 21
-38.52253341674805
 31
-0.2000051736831665
  0
LINE
  8
0
 10
-5.358783721923828
 20
16.87746238708496
 30
-0.20000839233398438
 11
-5.103343963623047
 21
16.995939254760742
 31
-0.20000886917114258
  0
LINE
  8
0
 10
-52.44950866699219
 20
-18.229869842529297
 30
-0.20000600814819336
 11
-52.44950866699219
 21
-17.082277297973633
 31
-0.20000624656677246
  0
LINE
  8
0
 10
15.34561538696289
 20
-47.284942626953125
 30
-0.2000042200088501
 11
15.91055679321289
 21
-47.15327453613281
 31
-0.2000042200088501
  0
LINE
  8
0
 10
-9.172462463378906
 20
11.966283798217773
 30
-0.20000791549682617
 11
-9.096443176269531
 21
12.349560737609863
 31
-0.20000886917114258
  0
LINE
  8
0
 10
-0.814117431640625
 20
17.969215393066406
 30
-0.20000886917114258
 11
-0.4513397216796875
 21
17.9815731048584
 31
-0.20000791549682617
  0
LINE
  8
0
 10
-30.076675415039062
 20
9.594675064086914
 30
-0.20000791549682617
 11
-29.387855529785156
 21
9.7274169921875
 31
-0.20000743865966797
  0
LINE
  8
0
 10
-50.122283935546875
 20
-25.940860748291016
 30
-0.2000056505203247
 11
-50.81599426269531
 21
-24.881990432739258
 31
-0.20000576972961426
  0
LINE
  8
0
 10
-52.44950866699219
 20
-9.917437553405762
 30
-0.20000720024108887
 11
-52.418914794921875
 21
-8.652220726013184
 31
-0.20000648498535156
  0
LINE
  8
0
 10
33.17652893066406
 20
-4.109139442443848
 30
-0.20000696182250977
 11
34.638336181640625
 21
-4.8241682052612305
 31
-0.20000600814819336
  0
LINE
  8
0
 10
47.38220977783203
 20
-11.923574447631836
 30
-0.20000696182250977
 11
45.99871063232422
 21
-11.086146354675293
 31
-0.20000624656677246
  0
LINE
  8
0
 10
-6.744384765625
 20
16.027210235595703
 30
-0.20000791549682617
 11
-6.532024383544922
 21
16.185588836669922
 31
-0.20000886917114258
  0
LINE
  8
0
 10
-9.096443176269531
 20
12.349560737609863
 30
-0.20000886917114258
 11
-9.014568328857422
 21
12.694579124450684
 31
-0.20000791549682617
  0
LINE
  8
0
 10
-0.814117431640625
 20
17.969215393066406
 30
-0.20000886917114258
 11
-1.1684112548828125
 21
17.949007034301758
 31
-0.20000886917114258
  0
LINE
  8
0
 10
1.3394813537597656
 20
17.93381118774414
 30
-0.20000743865966797
 11
0.7937850952148438
 21
17.963611602783203
 31
-0.20000839233398438
  0
LINE
  8
0
 10
-4.297954559326172
 20
17.31474494934082
 30
-0.20000791549682617
 11
-4.016609191894531
 21
17.409364700317383
 31
-0.20000791549682617
  0
LINE
  8
0
 10
6.483180999755859
 20
-50.258934020996094
 30
-0.20000410079956055
 11
7.013935089111328
 21
-50.02964782714844
 31
-0.20000362396240234
  0
LINE
  8
0
 10
-11.998188018798828
 20
-61.72477722167969
 30
-0.20000362396240234
 11
-12.304161071777344
 21
-61.82929992675781
 31
-0.20000314712524414
  0
LINE
  8
0
 10
1.3394813537597656
 20
17.93381118774414
 30
-0.20000743865966797
 11
1.948760986328125
 21
17.89508628845215
 31
-0.20000791549682617
  0
LINE
  8
0
 10
33.17652893066406
 20
-4.109139442443848
 30
-0.20000696182250977
 11
31.706451416015625
 21
-3.4044675827026367
 31
-0.20000743865966797
  0
LINE
  8
0
 10
-4.093128204345703
 20
-56.926063537597656
 30
-0.20000362396240234
 11
-3.760112762451172
 21
-56.61903762817383
 31
-0.20000457763671875
  0
LINE
  8
0
 10
19.825584411621094
 20
-46.429908752441406
 30
-0.2000056505203247
 11
20.37517547607422
 21
-46.355648040771484
 31
-0.2000049352645874
  0
LINE
  8
0
 10
63.75579071044922
 20
-31.98731803894043
 30
-0.20000529289245605
 11
63.957298278808594
 21
-31.398651123046875
 31
-0.20000451803207397
  0
LINE
  8
0
 10
63.957298278808594
 20
-31.398651123046875
 30
-0.20000451803207397
 11
64.13116455078125
 21
-30.801504135131836
 31
-0.20000481605529785
  0
LINE
  8
0
 10
64.99453735351562
 20
-27.171810150146484
 30
-0.20000576972961426
 11
65.10950469970703
 21
-26.56087875366211
 31
-0.2000054121017456
  0
LINE
  8
0
 10
62.989158630371094
 20
-8.719651222229004
 30
-0.20000648498535156
 11
63.155242919921875
 21
-8.848182678222656
 31
-0.20000767707824707
  0
LINE
  8
0
 10
61.295806884765625
 20
-37.33857727050781
 30
-0.20000547170639038
 11
61.465057373046875
 21
-37.06277847290039
 31
-0.20000481605529785
  0
LINE
  8
0
 10
60.232810974121094
 20
-8.174497604370117
 30
-0.20000600814819336
 11
60.45477294921875
 21
-8.146058082580566
 31
-0.20000791549682617
  0
LINE
  8
0
 10
-52.44950866699219
 20
-18.229869842529297
 30
-0.20000600814819336
 11
-52.44950866699219
 21
-19.372514724731445
 31
-0.20000672340393066
  0
LINE
  8
0
 10
-1.1298828125
 20
-54.51482009887695
 30
-0.20000314712524414
 11
-0.7141227722167969
 21
-54.22282028198242
 31
-0.20000505447387695
  0
LINE
  8
0
 10
-30.076675415039062
 20
9.594675064086914
 30
-0.20000791549682617
 11
-30.787864685058594
 21
9.448969841003418
 31
-0.20000791549682617
  0
LINE
  8
0
 10
-38.85954284667969
 20
7.011274337768555
 30
-0.20000791549682617
 11
-38.185707092285156
 21
7.280442237854004
 31
-0.20000791549682617
  0
LINE
  8
0
 10
-35.51866912841797
 20
-36.27714920043945
 30
-0.2000049352645874
 11
-37.1551513671875
 21
-35.632869720458984
 31
-0.2000046819448471
  0
LINE
  8
0
 10
-52.44950866699219
 20
-9.917437553405762
 30
-0.20000720024108887
 11
-52.44950866699219
 21
-11.157693862915039
 31
-0.20000624656677246
  0
LINE
  8
0
 10
-36.78070068359375
 20
7.798209190368652
 30
-0.20000886917114258
 11
-36.05278015136719
 21
8.0447359085083
 31
-0.20000886917114258
  0
LINE
  8
0
 10
24.108184814453125
 20
-46.04560470581055
 30
-0.2000044584274292
 11
24.62131118774414
 21
-46.03160095214844
 31
-0.2000049352645874
  0
LINE
  8
0
 10
2.4412994384765625
 20
-52.263607025146484
 30
-0.20000481605529785
 11
2.923828125
 21
-51.997859954833984
 31
-0.20000410079956055
  0
LINE
  8
0
 10
10.840435028076172
 20
-48.57784652709961
 30
-0.20000362396240234
 11
11.399017333984375
 21
-48.39383316040039
 31
-0.20000433921813965
  0
LINE
  8
0
 10
-8.398338317871094
 20
14.190885543823242
 30
-0.20000886917114258
 11
-8.271644592285156
 21
14.389068603515625
 31
-0.20000743865966797
  0
LINE
  8
0
 10
-40.21839904785156
 20
-34.238380432128906
 30
-0.20000547170639038
 11
-38.722679138183594
 21
-34.955440521240234
 31
-0.20000407099723816
  0
LINE
  8
0
 10
-6.9049835205078125
 20
-59.180877685546875
 30
-0.20000267028808594
 11
-7.203174591064453
 21
-59.37270736694336
 31
-0.20000338554382324
  0
LINE
  8
0
 10
47.38220977783203
 20
-11.923574447631836
 30
-0.20000696182250977
 11
51.55242156982422
 21
-10.57557201385498
 31
-0.20000720024108887
  0
LINE
  8
0
 10
-9.423370361328125
 20
-60.623573303222656
 30
-0.20000314712524414
 11
-9.75033950805664
 21
-60.78396224975586
 31
-0.20000219345092773
  0
LINE
  8
0
 10
55.78032684326172
 20
-40.07667541503906
 30
-0.20000451803207397
 11
56.03404998779297
 21
-40.12974166870117
 31
-0.20000553131103516
  0
LINE
  8
0
 10
-4.614398956298828
 20
-57.424076080322266
 30
-0.20000267028808594
 11
-4.414833068847656
 21
-57.23414993286133
 31
-0.20000338554382324
  0
LINE
  8
0
 10
52.219886779785156
 20
-38.26875305175781
 30
-0.2000051736831665
 11
53.16234588623047
 21
-38.82543182373047
 31
-0.20000535249710083
  0
LINE
  8
0
 10
51.55242156982422
 20
-10.57557201385498
 30
-0.20000720024108887
 11
54.51630401611328
 21
-9.655376434326172
 31
-0.20000672340393066
  0
LINE
  8
0
 10
58.35327911376953
 20
-39.98033142089844
 30
-0.2000046968460083
 11
58.11920928955078
 21
-40.048580169677734
 31
-0.20000505447387695
  0
LINE
  8
0
 10
58.35327911376953
 20
-39.98033142089844
 30
-0.2000046968460083
 11
58.59266662597656
 21
-39.88848114013672
 31
-0.20000457763671875
  0
LINE
  8
0
 10
56.516883850097656
 20
-40.18904113769531
 30
-0.20000427961349487
 11
56.752471923828125
 21
-40.2038459777832
 31
-0.20000392198562622
  0
LINE
  8
0
 10
61.393409729003906
 20
-8.146917343139648
 30
-0.20000648498535156
 11
61.572486877441406
 21
-8.17120361328125
 31
-0.20000648498535156
  0
LINE
  8
0
 10
62.989158630371094
 20
-8.719651222229004
 30
-0.20000648498535156
 11
62.81939697265625
 21
-8.606228828430176
 31
-0.20000648498535156
  0
LINE
  8
0
 10
61.572486877441406
 20
-8.17120361328125
 30
-0.20000648498535156
 11
61.751930236816406
 21
-8.20309066772461
 31
-0.20000648498535156
  0
LINE
  8
0
 10
65.38861846923828
 20
-24.716279983520508
 30
-0.20000600814819336
 11
65.4588851928711
 21
-24.097768783569336
 31
-0.2000066041946411
  0
LINE
  8
0
 10
15.91055679321289
 20
-47.15327453613281
 30
-0.2000042200088501
 11
16.474761962890625
 21
-47.02854919433594
 31
-0.20000338554382324
  0
LINE
  8
0
 10
34.638336181640625
 20
-4.8241682052612305
 30
-0.20000600814819336
 11
36.090484619140625
 21
-5.552635192871094
 31
-0.20000743865966797
  0
LINE
  8
0
 10
-5.050449371337891
 20
-57.81037902832031
 30
-0.20000410079956055
 11
-5.285888671875
 21
-58.00582504272461
 31
-0.20000362396240234
  0
LINE
  8
0
 10
-7.203174591064453
 20
-59.37270736694336
 30
-0.20000338554382324
 11
-7.507606506347656
 21
-59.5621452331543
 31
-0.20000362396240234
  0
LINE
  8
0
 10
65.48438262939453
 20
-16.024810791015625
 30
-0.20000553131103516
 11
65.43695831298828
 21
-15.619617462158203
 31
-0.20000672340393066
  0
LINE
  8
0
 10
56.03404998779297
 20
-40.12974166870117
 30
-0.20000553131103516
 11
56.276885986328125
 21
-40.16276168823242
 31
-0.2000051736831665
  0
LINE
  8
0
 10
-3.760112762451172
 20
-56.61903762817383
 30
-0.20000457763671875
 11
-3.4159812927246094
 21
-56.31324768066406
 31
-0.20000481605529785
  0
LINE
  8
0
 10
-0.7141227722167969
 20
-54.22282028198242
 30
-0.20000505447387695
 11
-0.2890815734863281
 21
-53.93350601196289
 31
-0.20000410079956055
  0
LINE
  8
0
 10
56.752471923828125
 20
-40.2038459777832
 30
-0.20000392198562622
 11
56.98375701904297
 21
-40.205230712890625
 31
-0.20000457763671875
  0
LINE
  8
0
 10
7.013935089111328
 20
-50.02964782714844
 30
-0.20000362396240234
 11
7.549312591552734
 21
-49.805572509765625
 31
-0.20000314712524414
  0
LINE
  8
0
 10
11.399017333984375
 20
-48.39383316040039
 30
-0.20000433921813965
 11
11.959579467773438
 21
-48.21601486206055
 31
-0.20000338554382324
  0
LINE
  8
0
 10
-8.271644592285156
 20
14.389068603515625
 30
-0.20000743865966797
 11
-8.136810302734375
 21
14.583375930786133
 31
-0.20000791549682617
  0
LINE
  8
0
 10
65.4588851928711
 20
-24.097768783569336
 30
-0.2000066041946411
 11
65.51763916015625
 21
-23.477649688720703
 31
-0.20000553131103516
  0
LINE
  8
0
 10
20.37517547607422
 20
-46.355648040771484
 30
-0.2000049352645874
 11
20.921348571777344
 21
-46.28881072998047
 31
-0.20000386238098145
  0
LINE
  8
0
 10
65.48438262939453
 20
-16.024810791015625
 30
-0.20000553131103516
 11
65.53958892822266
 21
-16.59609603881836
 31
-0.20000624656677246
  0
LINE
  8
0
 10
24.62131118774414
 20
-46.03160095214844
 30
-0.2000049352645874
 11
25.12845230102539
 21
-46.02521896362305
 31
-0.20000338554382324
  0
LINE
  8
0
 10
63.78162384033203
 20
-9.523694038391113
 30
-0.20000743865966797
 11
63.92646026611328
 21
-9.759317398071289
 31
-0.20000696182250977
  0
LINE
  8
0
 10
63.631141662597656
 20
-9.326610565185547
 30
-0.20000743865966797
 11
63.78162384033203
 21
-9.523694038391113
 31
-0.20000743865966797
  0
LINE
  8
0
 10
59.96229553222656
 20
-38.966712951660156
 30
-0.20000487565994263
 11
60.17076110839844
 21
-38.759578704833984
 31
-0.20000451803207397
  0
LINE
  8
0
 10
61.465057373046875
 20
-37.06277847290039
 30
-0.20000481605529785
 11
61.640541076660156
 21
-36.750648498535156
 31
-0.20000538229942322
  0
LINE
  8
0
 10
60.45477294921875
 20
-8.146058082580566
 30
-0.20000791549682617
 11
60.658180236816406
 21
-8.128460884094238
 31
-0.20000553131103516
  0
LINE
  8
0
 10
65.63745880126953
 20
-19.10578727722168
 30
-0.20000529289245605
 11
65.62158203125
 21
-18.4786434173584
 31
-0.20000624656677246
  0
LINE
  8
0
 10
-52.44950866699219
 20
-17.082277297973633
 30
-0.20000624656677246
 11
-52.44950866699219
 21
-15.929740905761719
 31
-0.20000648498535156
  0
LINE
  8
0
 10
-39.51478576660156
 20
6.7359514236450195
 30
-0.20000743865966797
 11
-38.85954284667969
 21
7.011274337768555
 31
-0.20000791549682617
  0
LINE
  8
0
 10
-29.387855529785156
 20
9.7274169921875
 30
-0.20000743865966797
 11
-28.69293212890625
 21
9.848677635192871
 31
-0.20000839233398438
  0
LINE
  8
0
 10
-26.97954559326172
 20
10.05582332611084
 30
-0.20000791549682617
 11
-27.909759521484375
 21
9.958063125610352
 31
-0.20000839233398438
  0
LINE
  8
0
 10
-49.06810760498047
 20
-0.9926358461380005
 30
-0.20000696182250977
 11
-48.1368408203125
 21
0.20651698112487793
 31
-0.20000743865966797
  0
LINE
  8
0
 10
-49.06810760498047
 20
-0.9926358461380005
 30
-0.20000696182250977
 11
-49.925498962402344
 21
-2.240316390991211
 31
-0.20000743865966797
  0
LINE
  8
0
 10
-52.418914794921875
 20
-8.652220726013184
 30
-0.20000648498535156
 11
-52.26594543457031
 21
-7.376805305480957
 31
-0.20000648498535156
  0
LINE
  8
0
 10
-9.75033950805664
 20
-60.78396224975586
 30
-0.20000219345092773
 11
-10.077415466308594
 21
-60.938560485839844
 31
-0.20000362396240234
  0
LINE
  8
0
 10
-12.304161071777344
 20
-61.82929992675781
 30
-0.20000314712524414
 11
-12.60409164428711
 21
-61.92551803588867
 31
-0.20000457763671875
  0
LINE
  8
0
 10
44.61033630371094
 20
-10.254486083984375
 30
-0.20000696182250977
 11
45.99871063232422
 21
-11.086146354675293
 31
-0.20000624656677246
  0
LINE
  8
0
 10
-5.103343963623047
 20
16.995939254760742
 30
-0.20000886917114258
 11
-4.841339111328125
 21
17.108163833618164
 31
-0.20000886917114258
  0
LINE
  8
0
 10
-6.532024383544922
 20
16.185588836669922
 30
-0.20000886917114258
 11
-6.3119049072265625
 21
16.337421417236328
 31
-0.20000839233398438
  0
LINE
  8
0
 10
-2.1847457885742188
 20
17.839265823364258
 30
-0.20000934600830078
 11
-1.8537063598632812
 21
17.88420295715332
 31
-0.20000791549682617
  0
LINE
  8
0
 10
7.572666168212891
 20
16.880393981933594
 30
-0.20000886917114258
 11
6.281166076660156
 21
17.17195701599121
 31
-0.20000886917114258
  0
LINE
  8
0
 10
-3.728717803955078
 20
17.4980411529541
 30
-0.20000839233398438
 11
-4.016609191894531
 21
17.409364700317383
 31
-0.20000791549682617
  0
LINE
  8
0
 10
2.923828125
 20
-51.997859954833984
 30
-0.20000410079956055
 11
3.4134483337402344
 21
-51.73612976074219
 31
-0.20000529289245605
  0
LINE
  8
0
 10
-45.300621032714844
 20
3.1264960765838623
 30
-0.20000791549682617
 11
-46.175994873046875
 21
2.3506863117218018
 31
-0.20000696182250977
  0
LINE
  8
0
 10
-37.1551513671875
 20
-35.632869720458984
 30
-0.2000046819448471
 11
-38.722679138183594
 21
-34.955440521240234
 31
-0.20000407099723816
  0
LINE
  8
0
 10
-33.029701232910156
 20
8.927370071411133
 30
-0.20000743865966797
 11
-32.27033996582031
 21
9.113532066345215
 31
-0.20000743865966797
  0
LINE
  8
0
 10
-48.487815856933594
 20
-28.003536224365234
 30
-0.2000056505203247
 11
-49.34657287597656
 21
-26.98250961303711
 31
-0.2000061273574829
  0
LINE
  8
0
 10
-7.507606506347656
 20
-59.5621452331543
 30
-0.20000362396240234
 11
-7.817543029785156
 21
-59.748741149902344
 31
-0.20000457763671875
  0
LINE
  8
0
 10
-10.077415466308594
 20
-60.938560485839844
 30
-0.20000362396240234
 11
-10.403812408447266
 21
-61.08699417114258
 31
-0.20000314712524414
  0
LINE
  8
0
 10
-8.136810302734375
 20
14.583375930786133
 30
-0.20000791549682617
 11
-7.993499755859375
 21
14.775020599365234
 31
-0.20000839233398438
  0
LINE
  8
0
 10
-51.417701721191406
 20
-23.8065242767334
 30
-0.20000624656677246
 11
-51.90375518798828
 21
-22.713638305664062
 31
-0.2000058889389038
  0
LINE
  8
0
 10
-3.4159812927246094
 20
-56.31324768066406
 30
-0.20000481605529785
 11
-3.0609474182128906
 21
-56.00888442993164
 31
-0.20000410079956055
  0
LINE
  8
0
 10
65.60090637207031
 20
-17.85123062133789
 30
-0.20000600814819336
 11
65.576904296875
 21
-17.223648071289062
 31
-0.20000600814819336
  0
LINE
  8
0
 10
64.13116455078125
 20
-30.801504135131836
 30
-0.20000481605529785
 11
64.28935241699219
 21
-30.19969367980957
 31
-0.20000535249710083
  0
LINE
  8
0
 10
65.23504638671875
 20
-14.089019775390625
 30
-0.20000672340393066
 11
65.14482879638672
 21
-13.463051795959473
 31
-0.20000648498535156
  0
LINE
  8
0
 10
63.92646026611328
 20
-9.759317398071289
 30
-0.20000696182250977
 11
64.06910705566406
 21
-10.019003868103027
 31
-0.20000529289245605
  0
LINE
  8
0
 10
60.17076110839844
 20
-38.759578704833984
 30
-0.20000451803207397
 11
60.37322998046875
 21
-38.542476654052734
 31
-0.2000042200088501
  0
LINE
  8
0
 10
61.640541076660156
 20
-36.750648498535156
 30
-0.20000538229942322
 11
61.83103942871094
 21
-36.38846969604492
 31
-0.2000044584274292
  0
LINE
  8
0
 10
62.30216979980469
 20
-35.425601959228516
 30
-0.20000505447387695
 11
62.035118103027344
 21
-35.98743438720703
 31
-0.20000436902046204
  0
LINE
  8
0
 10
60.658180236816406
 20
-8.128460884094238
 30
-0.20000553131103516
 11
60.84947967529297
 21
-8.120492935180664
 31
-0.20000648498535156
  0
LINE
  8
0
 10
20.921348571777344
 20
-46.28881072998047
 30
-0.20000386238098145
 11
21.463760375976562
 21
-46.229434967041016
 31
-0.2000035047531128
  0
LINE
  8
0
 10
65.62158203125
 20
-18.4786434173584
 30
-0.20000624656677246
 11
65.60090637207031
 21
-17.85123062133789
 31
-0.20000600814819336
  0
LINE
  8
0
 10
-0.2890815734863281
 20
-53.93350601196289
 30
-0.20000410079956055
 11
0.14498138427734375
 21
-53.64704513549805
 31
-0.20000457763671875
  0
LINE
  8
0
 10
-23.79650115966797
 20
10.315093994140625
 30
-0.20000839233398438
 11
-24.86724090576172
 21
10.22737979888916
 31
-0.20000696182250977
  0
LINE
  8
0
 10
-48.487815856933594
 20
-28.003536224365234
 30
-0.2000056505203247
 11
-47.546119689941406
 21
-29.000139236450195
 31
-0.20000511407852173
  0
LINE
  8
0
 10
-48.1368408203125
 20
0.20651698112487793
 30
-0.20000743865966797
 11
-47.159759521484375
 21
1.3310517072677612
 31
-0.20000696182250977
  0
LINE
  8
0
 10
25.12845230102539
 20
-46.02521896362305
 30
-0.20000338554382324
 11
25.62930679321289
 21
-46.026458740234375
 31
-0.2000044584274292
  0
LINE
  8
0
 10
11.959579467773438
 20
-48.21601486206055
 30
-0.20000338554382324
 11
12.521785736083984
 21
-48.04450225830078
 31
-0.20000314712524414
  0
LINE
  8
0
 10
45.082252502441406
 20
-33.66598892211914
 30
-0.20000483095645905
 11
43.87401580810547
 21
-47.297428131103516
 31
-0.2000054121017456
  0
LINE
  8
0
 10
-5.285888671875
 20
-58.00582504272461
 30
-0.20000362396240234
 11
-5.532188415527344
 21
-58.202171325683594
 31
-0.20000267028808594
  0
LINE
  8
0
 10
-12.60409164428711
 20
-61.92551803588867
 30
-0.20000457763671875
 11
-12.89725112915039
 21
-62.0131950378418
 31
-0.20000362396240234
  0
LINE
  8
0
 10
54.51630401611328
 20
-9.655376434326172
 30
-0.20000672340393066
 11
55.83729553222656
 21
-9.278387069702148
 31
-0.20000648498535156
  0
LINE
  8
0
 10
58.59266662597656
 20
-39.88848114013672
 30
-0.20000457763671875
 11
58.83172607421875
 21
-39.78040313720703
 31
-0.20000439882278442
  0
LINE
  8
0
 10
58.83172607421875
 20
-39.78040313720703
 30
-0.20000439882278442
 11
59.06819152832031
 21
-39.65388107299805
 31
-0.20000487565994263
  0
LINE
  8
0
 10
56.516883850097656
 20
-40.18904113769531
 30
-0.20000427961349487
 11
56.276885986328125
 21
-40.16276168823242
 31
-0.2000051736831665
  0
LINE
  8
0
 10
3.4134483337402344
 20
-51.73612976074219
 30
-0.20000529289245605
 11
3.9098548889160156
 21
-51.47858810424805
 31
-0.20000529289245605
  0
LINE
  8
0
 10
62.30216979980469
 20
-35.425601959228516
 30
-0.20000505447387695
 11
62.56404113769531
 21
-34.86131286621094
 31
-0.20000600814819336
  0
LINE
  8
0
 10
61.751930236816406
 20
-8.20309066772461
 30
-0.20000648498535156
 11
61.93186950683594
 21
-8.242755889892578
 31
-0.20000696182250977
  0
LINE
  8
0
 10
61.93186950683594
 20
-8.242755889892578
 30
-0.20000696182250977
 11
62.11211395263672
 21
-8.29060173034668
 31
-0.20000743865966797
  0
LINE
  8
0
 10
65.51763916015625
 20
-23.477649688720703
 30
-0.20000553131103516
 11
65.56510162353516
 21
-22.856094360351562
 31
-0.2000061273574829
  0
LINE
  8
0
 10
61.83103942871094
 20
-36.38846969604492
 30
-0.2000044584274292
 11
62.035118103027344
 21
-35.98743438720703
 31
-0.20000436902046204
  0
LINE
  8
0
 10
34.535736083984375
 20
6.742673397064209
 30
-0.20000791549682617
 11
30.23149871826172
 21
-2.705559253692627
 31
-0.20000648498535156
  0
LINE
  8
0
 10
34.535736083984375
 20
6.742673397064209
 30
-0.20000791549682617
 11
29.940662384033203
 21
8.732749938964844
 31
-0.20000839233398438
  0
LINE
  8
0
 10
-6.3119049072265625
 20
16.337421417236328
 30
-0.20000839233398438
 11
-6.084293365478516
 21
16.482540130615234
 31
-0.20000886917114258
  0
LINE
  8
0
 10
-23.79650115966797
 20
10.315093994140625
 30
-0.20000839233398438
 11
-9.363685607910156
 21
10.616252899169922
 31
-0.20000839233398438
  0
LINE
  8
0
 10
-9.014568328857422
 20
12.694579124450684
 30
-0.20000791549682617
 11
-8.926864624023438
 21
13.005521774291992
 31
-0.20000791549682617
  0
LINE
  8
0
 10
-1.8537063598632812
 20
17.88420295715332
 30
-0.20000791549682617
 11
-1.5149307250976562
 21
17.920759201049805
 31
-0.20000791549682617
  0
LINE
  8
0
 10
-41.89231872558594
 20
5.557093620300293
 30
-0.20000791549682617
 11
-42.48835754394531
 21
5.2019362449646
 31
-0.20000743865966797
  0
LINE
  8
0
 10
0.7937850952148438
 20
17.963611602783203
 30
-0.20000839233398438
 11
0.3298377990722656
 21
17.980623245239258
 31
-0.20000791549682617
  0
LINE
  8
0
 10
45.082252502441406
 20
-33.66598892211914
 30
-0.20000483095645905
 11
49.406959533691406
 21
-36.54506301879883
 31
-0.20000511407852173
  0
LINE
  8
0
 10
7.549312591552734
 20
-49.805572509765625
 30
-0.20000314712524414
 11
8.0889892578125
 21
-49.58683776855469
 31
-0.20000505447387695
  0
LINE
  8
0
 10
16.474761962890625
 20
-47.02854919433594
 30
-0.20000338554382324
 11
17.03789520263672
 21
-46.91084289550781
 31
-0.2000037431716919
  0
LINE
  8
0
 10
-42.983489990234375
 20
-32.665897369384766
 30
-0.20000523328781128
 11
-44.246986389160156
 21
-31.808849334716797
 31
-0.2000047266483307
  0
LINE
  8
0
 10
-51.417701721191406
 20
-23.8065242767334
 30
-0.20000624656677246
 11
-50.81599426269531
 21
-24.881990432739258
 31
-0.20000576972961426
  0
LINE
  8
0
 10
37.53306198120117
 20
-6.296329021453857
 30
-0.20000648498535156
 11
36.090484619140625
 21
-5.552635192871094
 31
-0.20000743865966797
  0
LINE
  8
0
 10
37.53306198120117
 20
-6.296329021453857
 30
-0.20000648498535156
 11
38.966644287109375
 21
-7.056235313415527
 31
-0.20000696182250977
  0
LINE
  8
0
 10
-5.849433898925781
 20
16.620885848999023
 30
-0.20000791549682617
 11
-6.084293365478516
 21
16.482540130615234
 31
-0.20000886917114258
  0
LINE
  8
0
 10
-1.1684112548828125
 20
17.949007034301758
 30
-0.20000886917114258
 11
-1.5149307250976562
 21
17.920759201049805
 31
-0.20000791549682617
  0
LINE
  8
0
 10
-8.926864624023438
 20
13.005521774291992
 30
-0.20000791549682617
 11
-8.833457946777344
 21
13.285767555236816
 31
-0.20000791549682617
  0
LINE
  8
0
 10
-0.4513397216796875
 20
17.9815731048584
 30
-0.20000791549682617
 11
-0.07535552978515625
 21
17.98582649230957
 31
-0.20000839233398438
  0
LINE
  8
0
 10
-7.6805572509765625
 20
15.151446342468262
 30
-0.20000886917114258
 11
-7.510746002197266
 21
15.335610389709473
 31
-0.20000839233398438
  0
LINE
  8
0
 10
-7.817543029785156
 20
-59.748741149902344
 30
-0.20000457763671875
 11
-8.132247924804688
 21
-59.932037353515625
 31
-0.20000410079956055
  0
LINE
  8
0
 10
-10.403812408447266
 20
-61.08699417114258
 30
-0.20000314712524414
 11
-10.728736877441406
 21
-61.228912353515625
 31
-0.20000267028808594
  0
LINE
  8
0
 10
53.846160888671875
 20
-39.210662841796875
 30
-0.2000046968460083
 11
54.379486083984375
 21
-39.49422073364258
 31
-0.2000042200088501
  0
LINE
  8
0
 10
53.16234588623047
 20
-38.82543182373047
 30
-0.20000535249710083
 11
53.846160888671875
 21
-39.210662841796875
 31
-0.2000046968460083
  0
LINE
  8
0
 10
-3.0609474182128906
 20
-56.00888442993164
 30
-0.20000410079956055
 11
-2.6952171325683594
 21
-55.70612716674805
 31
-0.20000481605529785
  0
LINE
  8
0
 10
0.14498138427734375
 20
-53.64704513549805
 30
-0.20000457763671875
 11
0.5878028869628906
 21
-53.363616943359375
 31
-0.20000386238098145
  0
LINE
  8
0
 10
55.83729553222656
 20
-9.278387069702148
 30
-0.20000648498535156
 11
56.96106719970703
 21
-8.961968421936035
 31
-0.20000672340393066
  0
LINE
  8
0
 10
56.96106719970703
 20
-8.961968421936035
 30
-0.20000672340393066
 11
57.81726837158203
 21
-8.72796630859375
 31
-0.20000743865966797
  0
LINE
  8
0
 10
62.56404113769531
 20
-34.86131286621094
 30
-0.20000600814819336
 11
62.819244384765625
 21
-34.29389572143555
 31
-0.2000044584274292
  0
LINE
  8
0
 10
12.521785736083984
 20
-48.04450225830078
 30
-0.20000314712524414
 11
13.08530044555664
 21
-47.879390716552734
 31
-0.20000338554382324
  0
LINE
  8
0
 10
65.56510162353516
 20
-22.856094360351562
 30
-0.2000061273574829
 11
65.60148620605469
 21
-22.233261108398438
 31
-0.2000056505203247
  0
LINE
  8
0
 10
65.53958892822266
 20
-16.59609603881836
 30
-0.20000624656677246
 11
65.576904296875
 21
-17.223648071289062
 31
-0.20000600814819336
  0
LINE
  8
0
 10
65.43695831298828
 20
-15.619617462158203
 30
-0.20000672340393066
 11
65.40353393554688
 21
-15.341814994812012
 31
-0.20000648498535156
  0
LINE
  8
0
 10
25.62930679321289
 20
-46.026458740234375
 30
-0.2000044584274292
 11
26.12356948852539
 21
-46.035316467285156
 31
-0.2000049352645874
  0
LINE
  8
0
 10
64.28935241699219
 20
-30.19969367980957
 30
-0.20000535249710083
 11
64.44384765625
 21
-29.59703826904297
 31
-0.20000594854354858
  0
LINE
  8
0
 10
65.14482879638672
 20
-13.463051795959473
 30
-0.20000648498535156
 11
65.03376770019531
 21
-12.841251373291016
 31
-0.20000672340393066
  0
LINE
  8
0
 10
65.03376770019531
 20
-12.841251373291016
 30
-0.20000672340393066
 11
64.884521484375
 21
-12.227524757385254
 31
-0.20000600814819336
  0
LINE
  8
0
 10
64.21078491210938
 20
-10.293161392211914
 30
-0.20000672340393066
 11
64.06910705566406
 21
-10.019003868103027
 31
-0.20000529289245605
  0
LINE
  8
0
 10
-5.532188415527344
 20
-58.202171325683594
 30
-0.20000267028808594
 11
-5.788749694824219
 21
-58.398948669433594
 31
-0.20000410079956055
  0
LINE
  8
0
 10
60.37322998046875
 20
-38.542476654052734
 30
-0.2000042200088501
 11
60.56988525390625
 21
-38.316749572753906
 31
-0.20000481605529785
  0
LINE
  8
0
 10
60.56988525390625
 20
-38.316749572753906
 30
-0.20000481605529785
 11
60.76080322265625
 21
-38.08339309692383
 31
-0.2000046968460083
  0
LINE
  8
0
 10
61.03361511230469
 20
-8.121293067932129
 30
-0.20000791549682617
 11
60.84947967529297
 21
-8.120492935180664
 31
-0.20000648498535156
  0
LINE
  8
0
 10
-51.90375518798828
 20
-22.713638305664062
 30
-0.2000058889389038
 11
-52.25763702392578
 21
-21.611099243164062
 31
-0.20000576972961426
  0
LINE
  8
0
 10
-41.31134796142578
 20
5.876224517822266
 30
-0.20000743865966797
 11
-41.89231872558594
 21
5.557093620300293
 31
-0.20000791549682617
  0
LINE
  8
0
 10
-46.175994873046875
 20
2.3506863117218018
 30
-0.20000696182250977
 11
-47.159759521484375
 21
1.3310517072677612
 31
-0.20000696182250977
  0
LINE
  8
0
 10
-32.27033996582031
 20
9.113532066345215
 30
-0.20000743865966797
 11
-31.520599365234375
 21
9.288702011108398
 31
-0.20000839233398438
  0
LINE
  8
0
 10
-42.48835754394531
 20
5.2019362449646
 30
-0.20000743865966797
 11
-43.114662170410156
 21
4.794888496398926
 31
-0.20000648498535156
  0
LINE
  8
0
 10
-30.787864685058594
 20
9.448969841003418
 30
-0.20000791549682617
 11
-31.520599365234375
 21
9.288702011108398
 31
-0.20000839233398438
  0
LINE
  8
0
 10
-12.89725112915039
 20
-62.0131950378418
 30
-0.20000362396240234
 11
-13.182933807373047
 21
-62.09211730957031
 31
-0.20000505447387695
  0
LINE
  8
0
 10
-49.34657287597656
 20
-26.98250961303711
 30
-0.2000061273574829
 11
-50.122283935546875
 21
-25.940860748291016
 31
-0.2000056505203247
  0
LINE
  8
0
 10
-7.6805572509765625
 20
15.151446342468262
 30
-0.20000886917114258
 11
-7.841461181640625
 21
14.964412689208984
 31
-0.20000886917114258
  0
LINE
  8
0
 10
-7.993499755859375
 20
14.775020599365234
 30
-0.20000839233398438
 11
-7.841461181640625
 21
14.964412689208984
 31
-0.20000886917114258
  0
LINE
  8
0
 10
3.9098548889160156
 20
-51.47858810424805
 30
-0.20000529289245605
 11
4.412754058837891
 21
-51.225379943847656
 31
-0.20000433921813965
  0
LINE
  8
0
 10
30.23149871826172
 20
-2.705559253692627
 30
-0.20000648498535156
 11
31.706451416015625
 21
-3.4044675827026367
 31
-0.20000743865966797
  0
LINE
  8
0
 10
17.03789520263672
 20
-46.91084289550781
 30
-0.2000037431716919
 11
17.599609375
 21
-46.80022430419922
 31
-0.20000505447387695
  0
LINE
  8
0
 10
21.463760375976562
 20
-46.229434967041016
 30
-0.2000035047531128
 11
22.002098083496094
 21
-46.17755889892578
 31
-0.2000042200088501
  0
LINE
  8
0
 10
8.0889892578125
 20
-49.58683776855469
 30
-0.20000505447387695
 11
8.632644653320312
 21
-49.37358093261719
 31
-0.20000362396240234
  0
LINE
  8
0
 10
-8.833457946777344
 20
13.285767555236816
 30
-0.20000791549682617
 11
-8.734306335449219
 21
13.53921127319336
 31
-0.20000886917114258
  0
LINE
  8
0
 10
0.3298377990722656
 20
17.980623245239258
 30
-0.20000791549682617
 11
-0.07535552978515625
 21
17.98582649230957
 31
-0.20000839233398438
  0
LINE
  8
0
 10
8.632644653320312
 20
-49.37358093261719
 30
-0.20000362396240234
 11
9.179946899414062
 21
-49.165931701660156
 31
-0.20000362396240234
  0
LINE
  8
0
 10
-13.182933807373047
 20
-62.09211730957031
 30
-0.20000505447387695
 11
-13.460453033447266
 21
-62.16210174560547
 31
-0.20000457763671875
  0
LINE
  8
0
 10
-2.6952171325683594
 20
-55.70612716674805
 30
-0.20000481605529785
 11
-2.319019317626953
 21
-55.40516662597656
 31
-0.20000481605529785
  0
LINE
  8
0
 10
65.40353393554688
 20
-15.341814994812012
 30
-0.20000648498535156
 11
65.3218002319336
 21
-14.71558952331543
 31
-0.20000576972961426
  0
LINE
  8
0
 10
64.44384765625
 20
-29.59703826904297
 30
-0.20000594854354858
 11
64.59304809570312
 21
-28.993202209472656
 31
-0.20000505447387695
  0
LINE
  8
0
 10
64.59304809570312
 20
-28.993202209472656
 30
-0.20000505447387695
 11
64.7353515625
 21
-28.387849807739258
 31
-0.20000547170639038
  0
LINE
  8
0
 10
65.23504638671875
 20
-14.089019775390625
 30
-0.20000672340393066
 11
65.3218002319336
 21
-14.71558952331543
 31
-0.20000576972961426
  0
LINE
  8
0
 10
22.002098083496094
 20
-46.17755889892578
 30
-0.2000042200088501
 11
22.536026000976562
 21
-46.13321304321289
 31
-0.20000457763671875
  0
LINE
  8
0
 10
0.5878028869628906
 20
-53.363616943359375
 30
-0.20000386238098145
 11
1.03912353515625
 21
-53.08339309692383
 31
-0.20000410079956055
  0
LINE
  8
0
 10
-33.81719970703125
 20
-36.89181900024414
 30
-0.20000481605529785
 11
-35.51866912841797
 21
-36.27714920043945
 31
-0.2000049352645874
  0
LINE
  8
0
 10
-38.185707092285156
 20
7.280442237854004
 30
-0.20000791549682617
 11
-37.49225616455078
 21
7.543130874633789
 31
-0.20000839233398438
  0
LINE
  8
0
 10
-34.556739807128906
 20
8.50862979888916
 30
-0.20000696182250977
 11
-35.310577392578125
 21
8.281843185424805
 31
-0.20000743865966797
  0
LINE
  8
0
 10
-52.44950866699219
 20
-14.762744903564453
 30
-0.20000600814819336
 11
-52.44950866699219
 21
-13.57928466796875
 31
-0.20000600814819336
  0
LINE
  8
0
 10
-52.44950866699219
 20
-15.929740905761719
 30
-0.20000648498535156
 11
-52.44950866699219
 21
-14.762744903564453
 31
-0.20000600814819336
  0
LINE
  8
0
 10
26.12356948852539
 20
-46.035316467285156
 30
-0.2000049352645874
 11
26.610946655273438
 21
-46.05179214477539
 31
-0.20000362396240234
  0
LINE
  8
0
 10
13.08530044555664
 20
-47.879390716552734
 30
-0.20000338554382324
 11
13.6497802734375
 21
-47.720787048339844
 31
-0.20000338554382324
  0
LINE
  8
0
 10
-5.788749694824219
 20
-58.398948669433594
 30
-0.20000410079956055
 11
-6.054965972900391
 21
-58.595680236816406
 31
-0.20000290870666504
  0
LINE
  8
0
 10
-8.132247924804688
 20
-59.932037353515625
 30
-0.20000410079956055
 11
-8.450950622558594
 21
-60.111595153808594
 31
-0.20000290870666504
  0
LINE
  8
0
 10
-10.728736877441406
 20
-61.228912353515625
 30
-0.20000267028808594
 11
-11.051410675048828
 21
-61.36396026611328
 31
-0.20000314712524414
  0
LINE
  8
0
 10
54.379486083984375
 20
-39.49422073364258
 30
-0.2000042200088501
 11
54.82512664794922
 21
-39.71613311767578
 31
-0.20000487565994263
  0
LINE
  8
0
 10
57.43833923339844
 20
-40.17222595214844
 30
-0.20000481605529785
 11
57.21192169189453
 21
-40.193790435791016
 31
-0.20000499486923218
  0
LINE
  8
0
 10
57.43833923339844
 20
-40.17222595214844
 30
-0.20000481605529785
 11
57.66404724121094
 21
-40.145023345947266
 31
-0.2000051736831665
  0
LINE
  8
0
 10
59.06819152832031
 20
-39.65388107299805
 30
-0.20000487565994263
 11
59.30030822753906
 21
-39.507938385009766
 31
-0.2000046968460083
  0
LINE
  8
0
 10
4.412754058837891
 20
-51.225379943847656
 30
-0.20000433921813965
 11
4.921848297119141
 21
-50.976661682128906
 31
-0.20000410079956055
  0
LINE
  8
0
 10
57.81726837158203
 20
-8.72796630859375
 30
-0.20000743865966797
 11
58.455101013183594
 21
-8.561491966247559
 31
-0.20000648498535156
  0
LINE
  8
0
 10
62.819244384765625
 20
-34.29389572143555
 30
-0.2000044584274292
 11
63.066810607910156
 21
-33.72301483154297
 31
-0.2000049501657486
  0
LINE
  8
0
 10
62.291908264160156
 20
-8.3513822555542
 30
-0.20000743865966797
 11
62.11211395263672
 21
-8.29060173034668
 31
-0.20000743865966797
  0
LINE
  8
0
 10
65.60148620605469
 20
-22.233261108398438
 30
-0.2000056505203247
 11
65.62728118896484
 21
-21.609329223632812
 31
-0.20000553131103516
  0
LINE
  8
0
 10
-7.510746002197266
 20
15.335610389709473
 30
-0.20000839233398438
 11
-7.3320770263671875
 21
15.51608657836914
 31
-0.20000743865966797
  0
LINE
  8
0
 10
-52.44950866699219
 20
-12.378018379211426
 30
-0.20000600814819336
 11
-52.44950866699219
 21
-11.157693862915039
 31
-0.20000624656677246
  0
LINE
  8
0
 10
17.599609375
 20
-46.80022430419922
 30
-0.20000505447387695
 11
18.159576416015625
 21
-46.69676208496094
 31
-0.2000037431716919
  0
LINE
  8
0
 10
-52.44950866699219
 20
-19.372514724731445
 30
-0.20000672340393066
 11
-52.41753005981445
 21
-20.4969482421875
 31
-0.20000576972961426
  0
LINE
  8
0
 10
-33.81719970703125
 20
-36.89181900024414
 30
-0.20000481605529785
 11
-32.05508804321289
 21
-37.475341796875
 31
-0.2000047266483307
  0
LINE
  8
0
 10
-30.234256744384766
 20
-38.02164077758789
 30
-0.2000049352645874
 11
-28.357967376708984
 21
-38.52253341674805
 31
-0.2000051736831665
  0
LINE
  8
0
 10
-34.556739807128906
 20
8.50862979888916
 30
-0.20000696182250977
 11
-33.794822692871094
 21
8.724163055419922
 31
-0.20000839233398438
  0
LINE
  8
0
 10
-6.054965972900391
 20
-58.595680236816406
 30
-0.20000290870666504
 11
-6.330188751220703
 21
-58.791893005371094
 31
-0.20000362396240234
  0
LINE
  8
0
 10
-52.25763702392578
 20
-21.611099243164062
 30
-0.20000576972961426
 11
-52.41753005981445
 21
-20.4969482421875
 31
-0.20000576972961426
  0
LINE
  8
0
 10
-11.051410675048828
 20
-61.36396026611328
 30
-0.20000314712524414
 11
-11.371055603027344
 21
-61.491825103759766
 31
-0.20000505447387695
  0
LINE
  8
0
 10
55.207740783691406
 20
-39.89144515991211
 30
-0.20000427961349487
 11
54.82512664794922
 21
-39.71613311767578
 31
-0.20000487565994263
  0
LINE
  8
0
 10
-2.319019317626953
 20
-55.40516662597656
 30
-0.20000481605529785
 11
-1.9325714111328125
 21
-55.106170654296875
 31
-0.20000410079956055
  0
LINE
  8
0
 10
59.30030822753906
 20
-39.507938385009766
 30
-0.2000046968460083
 11
59.52698516845703
 21
-39.34331512451172
 31
-0.20000410079956055
  0
LINE
  8
0
 10
4.921848297119141
 20
-50.976661682128906
 30
-0.20000410079956055
 11
5.436824798583984
 21
-50.73258590698242
 31
-0.20000386238098145
  0
LINE
  8
0
 10
13.6497802734375
 20
-47.720787048339844
 30
-0.20000338554382324
 11
14.214885711669922
 21
-47.568782806396484
 31
-0.20000410079956055
  0
LINE
  8
0
 10
65.62728118896484
 20
-21.609329223632812
 30
-0.20000553131103516
 11
65.6429443359375
 21
-20.984468460083008
 31
-0.20000576972961426
  0
LINE
  8
0
 10
63.066810607910156
 20
-33.72301483154297
 30
-0.2000049501657486
 11
63.3057861328125
 21
-33.14833068847656
 31
-0.2000049650669098
  0
LINE
  8
0
 10
63.155242919921875
 20
-8.848182678222656
 30
-0.20000767707824707
 11
63.317420959472656
 21
-8.992557525634766
 31
-0.20000696182250977
  0
LINE
  8
0
 10
63.47565460205078
 20
-9.153570175170898
 30
-0.20000648498535156
 11
63.317420959472656
 21
-8.992557525634766
 31
-0.20000696182250977
  0
LINE
  8
0
 10
59.35759735107422
 20
-8.344244003295898
 30
-0.20000743865966797
 11
59.69635772705078
 21
-8.271074295043945
 31
-0.20000648498535156
  0
LINE
  8
0
 10
-51.90515899658203
 20
-6.092527389526367
 30
-0.20000743865966797
 11
-51.37348175048828
 21
-4.8033905029296875
 31
-0.20000648498535156
  0
LINE
  8
0
 10
-28.69293212890625
 20
9.848677635192871
 30
-0.20000839233398438
 11
-27.909759521484375
 21
9.958063125610352
 31
-0.20000839233398438
  0
LINE
  8
0
 10
-33.794822692871094
 20
8.724163055419922
 30
-0.20000839233398438
 11
-33.029701232910156
 21
8.927370071411133
 31
-0.20000743865966797
  0
LINE
  8
0
 10
-51.90515899658203
 20
-6.092527389526367
 30
-0.20000743865966797
 11
-52.26594543457031
 21
-7.376805305480957
 31
-0.20000648498535156
  0
LINE
  8
0
 10
1.03912353515625
 20
-53.08339309692383
 30
-0.20000410079956055
 11
1.4986648559570312
 21
-52.806541442871094
 31
-0.20000433921813965
  0
LINE
  8
0
 10
41.80738067626953
 20
-8.625307083129883
 30
-0.20000648498535156
 11
40.391510009765625
 21
-7.832671165466309
 31
-0.20000696182250977
  0
LINE
  8
0
 10
-9.363685607910156
 20
10.616252899169922
 30
-0.20000839233398438
 11
-9.309001922607422
 21
11.065670013427734
 31
-0.20000743865966797
  0
LINE
  8
0
 10
-3.13262939453125
 20
17.65623664855957
 30
-0.20000791549682617
 11
-2.82403564453125
 21
17.72491455078125
 31
-0.20000934600830078
  0
LINE
  8
0
 10
-3.434123992919922
 20
17.580459594726562
 30
-0.20000791549682617
 11
-3.13262939453125
 21
17.65623664855957
 31
-0.20000791549682617
  0
LINE
  8
0
 10
9.179946899414062
 20
-49.165931701660156
 30
-0.20000362396240234
 11
9.730567932128906
 21
-48.964012145996094
 31
-0.20000386238098145
  0
LINE
  8
0
 10
26.610946655273438
 20
-46.05179214477539
 30
-0.20000362396240234
 11
27.091140747070312
 21
-46.07587814331055
 31
-0.20000386238098145
  0
LINE
  8
0
 10
-8.450950622558594
 20
-60.111595153808594
 30
-0.20000290870666504
 11
-8.77288818359375
 21
-60.2869873046875
 31
-0.20000362396240234
  0
LINE
  8
0
 10
-13.460453033447266
 20
-62.16210174560547
 30
-0.20000457763671875
 11
-13.729141235351562
 21
-62.22297668457031
 31
-0.20000219345092773
  0
LINE
  8
0
 10
50.94090270996094
 20
-37.4906005859375
 30
-0.20000576972961426
 11
49.406959533691406
 21
-36.54506301879883
 31
-0.20000511407852173
  0
LINE
  8
0
 10
56.98375701904297
 20
-40.205230712890625
 30
-0.20000457763671875
 11
57.21192169189453
 21
-40.193790435791016
 31
-0.20000499486923218
  0
LINE
  8
0
 10
58.455101013183594
 20
-8.561491966247559
 30
-0.20000648498535156
 11
58.95197296142578
 21
-8.438695907592773
 31
-0.20000743865966797
  0
LINE
  8
0
 10
18.159576416015625
 20
-46.69676208496094
 30
-0.2000037431716919
 11
18.717453002929688
 21
-46.60051727294922
 31
-0.20000267028808594
  0
LINE
  8
0
 10
64.884521484375
 20
-12.227524757385254
 30
-0.20000600814819336
 11
64.7076644897461
 21
-11.622724533081055
 31
-0.20000696182250977
  0
LINE
  8
0
 10
60.76080322265625
 20
-38.08339309692383
 30
-0.2000046968460083
 11
60.9456787109375
 21
-37.843021392822266
 31
-0.2000046968460083
  0
LINE
  8
0
 10
59.35759735107422
 20
-8.344244003295898
 30
-0.20000743865966797
 11
58.95197296142578
 21
-8.438695907592773
 31
-0.20000743865966797
  0
LINE
  8
0
 10
-32.05508804321289
 20
-37.475341796875
 30
-0.2000047266483307
 11
-30.234256744384766
 21
-38.02164077758789
 31
-0.2000049352645874
  0
LINE
  8
0
 10
38.966644287109375
 20
-7.056235313415527
 30
-0.20000696182250977
 11
40.391510009765625
 21
-7.832671165466309
 31
-0.20000696182250977
  0
LINE
  8
0
 10
25.56975555419922
 20
10.562969207763672
 30
-0.20000839233398438
 11
21.412113189697266
 21
12.238670349121094
 31
-0.20000791549682617
  0
LINE
  8
0
 10
-7.3320770263671875
 20
15.51608657836914
 30
-0.20000743865966797
 11
-7.1446685791015625
 21
15.691987991333008
 31
-0.20000886917114258
  0
LINE
  8
0
 10
-8.734306335449219
 20
13.53921127319336
 30
-0.20000886917114258
 11
-8.629096984863281
 21
13.770800590515137
 31
-0.20000886917114258
  0
LINE
  8
0
 10
2.8948440551757812
 20
17.78565788269043
 30
-0.20000886917114258
 11
3.9219894409179688
 21
17.634923934936523
 31
-0.20000839233398438
  0
LINE
  8
0
 10
1.948760986328125
 20
17.89508628845215
 30
-0.20000791549682617
 11
2.8948440551757812
 21
17.78565788269043
 31
-0.20000886917114258
  0
LINE
  8
0
 10
22.536026000976562
 20
-46.13321304321289
 30
-0.20000457763671875
 11
23.065231323242188
 21
-46.0964241027832
 31
-0.2000027894973755
  0
LINE
  8
0
 10
18.717453002929688
 20
-46.60051727294922
 30
-0.20000267028808594
 11
19.27289581298828
 21
-46.51154708862305
 31
-0.20000290870666504
  0
LINE
  8
0
 10
65.64928436279297
 20
-20.358821868896484
 30
-0.20000600814819336
 11
65.6429443359375
 21
-20.984468460083008
 31
-0.20000576972961426
  0
LINE
  8
0
 10
63.535621643066406
 20
-32.569786071777344
 30
-0.20000538229942322
 11
63.3057861328125
 21
-33.14833068847656
 31
-0.2000049650669098
  0
LINE
  8
0
 10
64.99453735351562
 20
-27.171810150146484
 30
-0.20000576972961426
 11
64.86957550048828
 21
-27.780786514282227
 31
-0.2000051736831665
  0
LINE
  8
0
 10
65.10950469970703
 20
-26.56087875366211
 30
-0.2000054121017456
 11
65.21373748779297
 21
-25.947935104370117
 31
-0.2000056505203247
  0
LINE
  8
0
 10
64.5137710571289
 20
-11.02770709991455
 30
-0.20000624656677246
 11
64.7076644897461
 21
-11.622724533081055
 31
-0.20000696182250977
  0
LINE
  8
0
 10
59.96229553222656
 20
-38.966712951660156
 30
-0.20000487565994263
 11
59.747703552246094
 21
-39.16206359863281
 31
-0.20000535249710083
  0
LINE
  8
0
 10
61.123939514160156
 20
-37.595577239990234
 30
-0.20000559091567993
 11
60.9456787109375
 21
-37.843021392822266
 31
-0.2000046968460083
  0
LINE
  8
0
 10
23.065231323242188
 20
-46.0964241027832
 30
-0.2000027894973755
 11
23.589385986328125
 21
-46.06721496582031
 31
-0.2000051736831665
  0
LINE
  8
0
 10
59.98370361328125
 20
-8.215425491333008
 30
-0.20000696182250977
 11
59.69635772705078
 21
-8.271074295043945
 31
-0.20000648498535156
  0
LINE
  8
0
 10
-25.943862915039062
 20
10.145461082458496
 30
-0.20000839233398438
 11
-26.97954559326172
 21
10.05582332611084
 31
-0.20000791549682617
  0
LINE
  8
0
 10
64.7353515625
 20
-28.387849807739258
 30
-0.20000547170639038
 11
64.86957550048828
 21
-27.780786514282227
 31
-0.2000051736831665
  0
LINE
  8
0
 10
-44.246986389160156
 20
-31.808849334716797
 30
-0.2000047266483307
 11
-45.42764663696289
 21
-30.90825080871582
 31
-0.20000529289245605
  0
LINE
  8
0
 10
-35.310577392578125
 20
8.281843185424805
 30
-0.20000743865966797
 11
-36.05278015136719
 21
8.0447359085083
 31
-0.20000886917114258
  0
LINE
  8
0
 10
27.091140747070312
 20
-46.07587814331055
 30
-0.20000386238098145
 11
27.563865661621094
 21
-46.10755157470703
 31
-0.20000433921813965
  0
LINE
  8
0
 10
-1.9325714111328125
 20
-55.106170654296875
 30
-0.20000410079956055
 11
-1.5361137390136719
 21
-54.809329986572266
 31
-0.20000243186950684
  0
LINE
  8
0
 10
14.214885711669922
 20
-47.568782806396484
 30
-0.20000410079956055
 11
14.780277252197266
 21
-47.4234733581543
 31
-0.20000267028808594
  0
LINE
  8
0
 10
9.730567932128906
 20
-48.964012145996094
 30
-0.20000386238098145
 11
10.284175872802734
 21
-48.7679443359375
 31
-0.20000529289245605
  0
LINE
  8
0
 10
-6.330188751220703
 20
-58.791893005371094
 30
-0.20000362396240234
 11
-6.613758087158203
 21
-58.98711395263672
 31
-0.20000314712524414
  0
LINE
  8
0
 10
-11.371055603027344
 20
-61.491825103759766
 30
-0.20000505447387695
 11
-11.686901092529297
 21
-61.61219024658203
 31
-0.20000362396240234
  0
LINE
  8
0
 10
-14.2781982421875
 20
-62.339969635009766
 30
-0.20000362396240234
 11
-13.729141235351562
 21
-62.22297668457031
 31
-0.20000219345092773
  0
LINE
  8
0
 10
57.66404724121094
 20
-40.145023345947266
 30
-0.2000051736831665
 11
57.890045166015625
 21
-40.10346221923828
 31
-0.20000439882278442
  0
LINE
  8
0
 10
58.11920928955078
 20
-40.048580169677734
 30
-0.20000505447387695
 11
57.890045166015625
 21
-40.10346221923828
 31
-0.20000439882278442
  0
LINE
  8
0
 10
59.52698516845703
 20
-39.34331512451172
 30
-0.20000410079956055
 11
59.747703552246094
 21
-39.16206359863281
 31
-0.20000535249710083
  0
LINE
  8
0
 10
5.436824798583984
 20
-50.73258590698242
 30
-0.20000386238098145
 11
5.957374572753906
 21
-50.49329376220703
 31
-0.20000433921813965
  0
LINE
  8
0
 10
62.469886779785156
 20
-8.42517375946045
 30
-0.20000696182250977
 11
62.64612579345703
 21
-8.508378982543945
 31
-0.20000648498535156
  0
LINE
  8
0
 10
62.81939697265625
 20
-8.606228828430176
 30
-0.20000648498535156
 11
62.64612579345703
 21
-8.508378982543945
 31
-0.20000648498535156
  0
LINE
  8
0
 10
65.30689239501953
 20
-25.333045959472656
 30
-0.20000529289245605
 11
65.21373748779297
 21
-25.947935104370117
 31
-0.2000056505203247
  0
LINE
  8
0
 10
-40.142982482910156
 20
6.459268093109131
 30
-0.20000886917114258
 11
-40.73448944091797
 21
6.177528381347656
 31
-0.20000791549682617
  0
LINE
  8
0
 10
29.940662384033203
 20
8.732749938964844
 30
-0.20000839233398438
 11
25.56975555419922
 21
10.562969207763672
 31
-0.20000839233398438
  0
LINE
  8
0
 10
-26.22899627685547
 20
-44.5528450012207
 30
-0.20000433921813965
 11
-18.119991302490234
 21
-44.2657585144043
 31
-0.2000042200088501
  0
LINE
  8
0
 10
-4.841339111328125
 20
17.108163833618164
 30
-0.20000886917114258
 11
-4.572856903076172
 21
17.214365005493164
 31
-0.20000839233398438
  0
LINE
  8
0
 10
-50.691978454589844
 20
-3.515982151031494
 30
-0.20000648498535156
 11
-49.925498962402344
 21
-2.240316390991211
 31
-0.20000743865966797
  0
LINE
  8
0
 10
-2.5081405639648438
 20
17.786056518554688
 30
-0.20000791549682617
 11
-2.82403564453125
 21
17.72491455078125
 31
-0.20000934600830078
  0
LINE
  8
0
 10
5.045619964599609
 20
17.433481216430664
 30
-0.20000886917114258
 11
3.9219894409179688
 21
17.634923934936523
 31
-0.20000839233398438
  0
LINE
  8
0
 10
-4.297954559326172
 20
17.31474494934082
 30
-0.20000791549682617
 11
-4.572856903076172
 21
17.214365005493164
 31
-0.20000839233398438
  0
LINE
  8
0
 10
-26.22899627685547
 20
-44.5528450012207
 30
-0.20000433921813965
 11
-26.4581298828125
 21
-38.89685821533203
 31
-0.20000535249710083
  0
LINE
  8
0
 10
1.4986648559570312
 20
-52.806541442871094
 30
-0.20000433921813965
 11
1.9661521911621094
 21
-52.53322219848633
 31
-0.20000338554382324
  0
LINE
  8
0
 10
-25.943862915039062
 20
10.145461082458496
 30
-0.20000839233398438
 11
-24.86724090576172
 21
10.22737979888916
 31
-0.20000696182250977
  0
LINE
  8
0
 10
-51.37348175048828
 20
-4.8033905029296875
 30
-0.20000648498535156
 11
-50.691978454589844
 21
-3.515982151031494
 31
-0.20000648498535156
  0
LINE
  8
0
 10
21.412113189697266
 20
12.238670349121094
 30
-0.20000791549682617
 11
17.546199798583984
 21
13.701175689697266
 31
-0.20000886917114258
  0
LINE
  8
0
 10
-9.243011474609375
 20
11.539448738098145
 30
-0.20000791549682617
 11
-9.309001922607422
 21
11.065670013427734
 31
-0.20000743865966797
  0
LINE
  8
0
 10
-47.546119689941406
 20
-29.000139236450195
 30
-0.20000511407852173
 11
-46.52369689941406
 21
-29.968835830688477
 31
-0.20000547170639038
  0
LINE
  8
0
 10
-44.47111511230469
 20
3.829463481903076
 30
-0.20000743865966797
 11
-43.77911376953125
 21
4.3314208984375
 31
-0.20000743865966797
  0
LINE
  8
0
 10
-44.47111511230469
 20
3.829463481903076
 30
-0.20000743865966797
 11
-45.300621032714844
 21
3.1264960765838623
 31
-0.20000791549682617
  0
LINE
  8
0
 10
43.87401580810547
 20
-47.297428131103516
 30
-0.2000054121017456
 11
27.563865661621094
 21
-46.10755157470703
 31
-0.20000433921813965
  0
LINE
  8
0
 10
-6.948692321777344
 20
15.862550735473633
 30
-0.20000791549682617
 11
-7.1446685791015625
 21
15.691987991333008
 31
-0.20000886917114258
  0
LINE
  8
0
 10
-8.77288818359375
 20
-60.2869873046875
 30
-0.20000362396240234
 11
-9.0972900390625
 21
-60.45777893066406
 31
-0.20000433921813965
  0
LINE
  8
0
 10
-8.517303466796875
 20
13.986211776733398
 30
-0.20000791549682617
 11
-8.629096984863281
 21
13.770800590515137
 31
-0.20000886917114258
  0
LINE
  8
0
 10
-40.142982482910156
 20
6.459268093109131
 30
-0.20000886917114258
 11
-39.51478576660156
 21
6.7359514236450195
 31
-0.20000743865966797
  0
LINE
  8
0
 10
-18.119991302490234
 20
-44.2657585144043
 30
-0.2000042200088501
 11
-17.396873474121094
 21
-47.667762756347656
 31
-0.20000386238098145
  0
LINE
  8
0
 10
-14.2781982421875
 20
-62.339969635009766
 30
-0.20000362396240234
 11
-17.396873474121094
 21
-47.667762756347656
 31
-0.20000386238098145
  0
LINE
  8
0
 10
57.097129821777344
 20
-34.182342529296875
 30
-0.200005441904068
 11
57.196083068847656
 21
-34.21775436401367
 31
-0.2000047266483307
  0
LINE
  8
0
 10
57.097129821777344
 20
-34.182342529296875
 30
-0.200005441904068
 11
56.99517059326172
 21
-34.15680694580078
 31
-0.2000047117471695
  0
LINE
  8
0
 10
56.28136444091797
 20
-34.262691497802734
 30
-0.20000427961349487
 11
56.376380920410156
 21
-34.21775436401367
 31
-0.2000047266483307
  0
LINE
  8
0
 10
-2.7055702209472656
 20
12.980416297912598
 30
-0.20000886917114258
 11
-2.6901473999023438
 21
12.876442909240723
 31
-0.20000839233398438
  0
LINE
  8
0
 10
-2.530231475830078
 20
12.490373611450195
 30
-0.20000839233398438
 11
-2.5842628479003906
 21
12.580520629882812
 31
-0.20000839233398438
  0
LINE
  8
0
 10
-2.530231475830078
 20
12.490373611450195
 30
-0.20000839233398438
 11
-2.467620849609375
 21
12.405952453613281
 31
-0.20000839233398438
  0
LINE
  8
0
 10
-2.2347412109375
 20
12.194877624511719
 30
-0.20000839233398438
 11
-2.319164276123047
 21
12.257487297058105
 31
-0.20000791549682617
  0
LINE
  8
0
 10
-1.7447052001953125
 20
14.151226997375488
 30
-0.20000791549682617
 11
-1.8486709594726562
 21
14.135811805725098
 31
-0.20000839233398438
  0
LINE
  8
0
 10
-2.2347412109375
 20
12.194877624511719
 30
-0.20000839233398438
 11
-2.14459228515625
 21
12.140844345092773
 31
-0.20000839233398438
  0
LINE
  8
0
 10
-1.3288345336914062
 20
12.060504913330078
 30
-0.20000886917114258
 11
-1.4307861328125
 21
12.034961700439453
 31
-0.20000791549682617
  0
LINE
  8
0
 10
-1.3288345336914062
 20
12.060504913330078
 30
-0.20000886917114258
 11
-1.2298736572265625
 21
12.09591007232666
 31
-0.20000743865966797
  0
LINE
  8
0
 10
-1.7447052001953125
 20
14.151226997375488
 30
-0.20000791549682617
 11
-1.6397285461425781
 21
14.156384468078613
 31
-0.20000791549682617
  0
LINE
  8
0
 10
29.69540023803711
 20
-7.955044746398926
 30
-0.20000743865966797
 11
29.71082305908203
 21
-8.0590181350708
 31
-0.20000743865966797
  0
LINE
  8
0
 10
29.870738983154297
 20
-8.445087432861328
 30
-0.20000743865966797
 11
29.81670379638672
 21
-8.354938507080078
 31
-0.20000600814819336
  0
LINE
  8
0
 10
29.870738983154297
 20
-8.445087432861328
 30
-0.20000743865966797
 11
29.933349609375
 21
-8.529508590698242
 31
-0.20000648498535156
  0
LINE
  8
0
 10
30.081809997558594
 20
-7.022177696228027
 30
-0.20000696182250977
 11
30.166229248046875
 21
-6.959570407867432
 31
-0.20000696182250977
  0
LINE
  8
0
 10
30.55229949951172
 20
-8.900497436523438
 30
-0.20000600814819336
 11
30.450347900390625
 21
-8.874959945678711
 31
-0.20000743865966797
  0
LINE
  8
0
 10
30.081809997558594
 20
-7.022177696228027
 30
-0.20000696182250977
 11
30.003929138183594
 21
-7.092764377593994
 31
-0.20000696182250977
  0
LINE
  8
0
 10
31.440677642822266
 20
-7.022177696228027
 30
-0.20000696182250977
 11
31.356258392333984
 21
-6.959570407867432
 31
-0.20000696182250977
  0
LINE
  8
0
 10
31.705780029296875
 20
-7.345203399658203
 30
-0.20000696182250977
 11
31.651748657226562
 21
-7.255059242248535
 31
-0.20000696182250977
  0
LINE
  8
0
 10
7.093807220458984
 20
-45.70249557495117
 30
-0.20000457763671875
 11
7.039772033691406
 21
-45.79264450073242
 31
-0.2000032663345337
  0
LINE
  8
0
 10
31.705780029296875
 20
-7.345203399658203
 30
-0.20000696182250977
 11
31.750717163085938
 21
-7.440216064453125
 31
-0.20000696182250977
  0
LINE
  8
0
 10
31.440677642822266
 20
-7.022177696228027
 30
-0.20000696182250977
 11
31.5185546875
 21
-7.092764377593994
 31
-0.20000696182250977
  0
LINE
  8
0
 10
30.86621856689453
 20
-6.784232139587402
 30
-0.20000648498535156
 11
30.761241912841797
 21
-6.7790727615356445
 31
-0.20000648498535156
  0
LINE
  8
0
 10
5.078269958496094
 20
-45.1976318359375
 30
-0.20000410079956055
 11
5.083427429199219
 21
-45.30260467529297
 31
-0.2000044584274292
  0
LINE
  8
0
 10
5.078269958496094
 20
-45.1976318359375
 30
-0.20000410079956055
 11
5.083427429199219
 21
-45.092655181884766
 31
-0.20000362396240234
  0
LINE
  8
0
 10
5.4698333740234375
 20
-44.36973571777344
 30
-0.20000433921813965
 11
5.391956329345703
 21
-44.4403190612793
 31
-0.2000049352645874
  0
LINE
  8
0
 10
5.4698333740234375
 20
-44.36973571777344
 30
-0.20000433921813965
 11
5.554256439208984
 21
-44.307125091552734
 31
-0.20000410079956055
  0
LINE
  8
0
 10
6.044292449951172
 20
-44.13178634643555
 30
-0.20000362396240234
 11
6.149269104003906
 21
-44.12663269042969
 31
-0.20000290870666504
  0
LINE
  8
0
 10
6.906581878662109
 20
-44.4403190612793
 30
-0.2000049352645874
 11
6.977165222167969
 21
-44.518192291259766
 31
-0.2000042200088501
  0
LINE
  8
0
 10
6.906581878662109
 20
-44.4403190612793
 30
-0.2000049352645874
 11
6.828704833984375
 21
-44.36973571777344
 31
-0.20000433921813965
  0
LINE
  8
0
 10
7.215110778808594
 20
-45.092655181884766
 30
-0.20000338554382324
 11
7.220268249511719
 21
-45.1976318359375
 31
-0.200003981590271
  0
LINE
  8
0
 10
5.258766174316406
 20
-45.79264831542969
 30
-0.20000314712524414
 11
5.321376800537109
 21
-45.8770637512207
 31
-0.2000042200088501
  0
LINE
  8
0
 10
-47.953269958496094
 20
-23.110363006591797
 30
-0.20000696182250977
 11
-47.998207092285156
 21
-23.015352249145508
 31
-0.20000708103179932
  0
LINE
  8
0
 10
-47.68816375732422
 20
-23.433391571044922
 30
-0.20000684261322021
 11
-47.60374450683594
 21
-23.496000289916992
 31
-0.20000624656677246
  0
LINE
  8
0
 10
-47.11370086669922
 20
-23.671340942382812
 30
-0.20000672340393066
 11
-47.217674255371094
 21
-23.655921936035156
 31
-0.20000600814819336
  0
LINE
  8
0
 10
-46.32929229736328
 20
-23.433391571044922
 30
-0.20000684261322021
 11
-46.25141906738281
 21
-23.362808227539062
 31
-0.20000720024108887
  0
LINE
  8
0
 10
-47.68816375732422
 20
-23.433391571044922
 30
-0.20000684261322021
 11
-47.76604461669922
 21
-23.362808227539062
 31
-0.20000720024108887
  0
LINE
  8
0
 10
-46.32929229736328
 20
-23.433391571044922
 30
-0.20000684261322021
 11
-46.413719177246094
 21
-23.496000289916992
 31
-0.20000624656677246
  0
LINE
  8
0
 10
-46.064186096191406
 20
-23.110363006591797
 30
-0.20000696182250977
 11
-46.11822509765625
 21
-23.200515747070312
 31
-0.20000696182250977
  0
LINE
  8
0
 10
-46.064186096191406
 20
-23.110363006591797
 30
-0.20000696182250977
 11
-46.019248962402344
 21
-23.015352249145508
 31
-0.20000708103179932
  0
LINE
  8
0
 10
-47.953269958496094
 20
-23.110363006591797
 30
-0.20000696182250977
 11
-47.89923858642578
 21
-23.200515747070312
 31
-0.20000696182250977
  0
LINE
  8
0
 10
-47.11370086669922
 20
-23.671340942382812
 30
-0.20000672340393066
 11
-47.00872802734375
 21
-23.676498413085938
 31
-0.20000731945037842
  0
LINE
  8
0
 10
-46.90375518798828
 20
-23.671340942382812
 30
-0.20000672340393066
 11
-46.79978942871094
 21
-23.655921936035156
 31
-0.20000600814819336
  0
LINE
  8
0
 10
-46.90375518798828
 20
-23.671340942382812
 30
-0.20000672340393066
 11
-47.00872802734375
 21
-23.676498413085938
 31
-0.20000731945037842
  0
LINE
  8
0
 10
-45.942893981933594
 20
-22.50052261352539
 30
-0.20000672340393066
 11
-45.95830535888672
 21
-22.39655876159668
 31
-0.200006365776062
  0
LINE
  8
0
 10
30.86621856689453
 20
-6.784232139587402
 30
-0.20000648498535156
 11
30.970184326171875
 21
-6.799651145935059
 31
-0.20000743865966797
  0
LINE
  8
0
 10
56.10679626464844
 20
-36.03512191772461
 30
-0.20000532269477844
 11
56.02892303466797
 21
-35.96453857421875
 31
-0.20000502467155457
  0
LINE
  8
0
 10
56.10679626464844
 20
-36.03512191772461
 30
-0.20000532269477844
 11
56.19121551513672
 21
-36.09773254394531
 31
-0.20000497996807098
  0
LINE
  8
0
 10
57.676734924316406
 20
-35.802242279052734
 30
-0.2000051587820053
 11
57.61412811279297
 21
-35.886661529541016
 31
-0.2000049352645874
  0
LINE
  8
0
 10
57.676734924316406
 20
-35.802242279052734
 30
-0.2000051587820053
 11
57.73076629638672
 21
-35.712093353271484
 31
-0.20000454783439636
  0
LINE
  8
0
 10
55.76134490966797
 20
-35.518123626708984
 30
-0.20000451803207397
 11
55.735816955566406
 21
-35.416168212890625
 31
-0.2000053972005844
  0
LINE
  8
0
 10
57.77570343017578
 20
-34.79737091064453
 30
-0.20000514388084412
 11
57.811119079589844
 21
-34.896331787109375
 31
-0.2000051736831665
  0
LINE
  8
0
 10
57.77570343017578
 20
-34.79737091064453
 30
-0.20000514388084412
 11
57.73076629638672
 21
-34.702362060546875
 31
-0.20000529289245605
  0
LINE
  8
0
 10
55.72039031982422
 20
-35.10224914550781
 30
-0.20000465214252472
 11
55.735816955566406
 21
-34.99828338623047
 31
-0.20000553131103516
  0
LINE
  8
0
 10
56.28136444091797
 20
-34.262691497802734
 30
-0.20000427961349487
 11
56.19121551513672
 21
-34.31672286987305
 31
-0.20000500977039337
  0
LINE
  8
0
 10
-46.064186096191406
 20
-22.100635528564453
 30
-0.20000708103179932
 11
-46.019248962402344
 21
-22.195646286010742
 31
-0.20000600814819336
  0
LINE
  8
0
 10
-46.90375518798828
 20
-21.539657592773438
 30
-0.20000743865966797
 11
-47.00872802734375
 21
-21.53449821472168
 31
-0.20000600814819336
  0
LINE
  8
0
 10
-47.953269958496094
 20
-22.100635528564453
 30
-0.20000708103179932
 11
-47.89923858642578
 21
-22.010482788085938
 31
-0.20000708103179932
  0
LINE
  8
0
 10
-47.953269958496094
 20
-22.100635528564453
 30
-0.20000708103179932
 11
-47.998207092285156
 21
-22.195646286010742
 31
-0.20000600814819336
  0
LINE
  8
0
 10
-47.68816375732422
 20
-21.777603149414062
 30
-0.2000066041946411
 11
-47.76604461669922
 21
-21.848188400268555
 31
-0.20000696182250977
  0
LINE
  8
0
 10
57.196083068847656
 20
-34.21775436401367
 30
-0.2000047266483307
 11
57.291099548339844
 21
-34.262691497802734
 31
-0.20000427961349487
  0
LINE
  8
0
 10
-2.7055702209472656
 20
13.190369606018066
 30
-0.20000839233398438
 11
-2.6901473999023438
 21
13.294330596923828
 31
-0.20000886917114258
  0
LINE
  8
0
 10
-2.467620849609375
 20
13.764822006225586
 30
-0.20000791549682617
 11
-2.530231475830078
 21
13.680408477783203
 31
-0.20000839233398438
  0
LINE
  8
0
 10
-2.14459228515625
 20
14.029922485351562
 30
-0.20000839233398438
 11
-2.2347412109375
 21
13.97588062286377
 31
-0.20000791549682617
  0
LINE
  8
0
 10
-2.14459228515625
 20
14.029922485351562
 30
-0.20000839233398438
 11
-2.0495834350585938
 21
14.07485294342041
 31
-0.20000839233398438
  0
LINE
  8
0
 10
-2.467620849609375
 20
13.764822006225586
 30
-0.20000791549682617
 11
-2.3970413208007812
 21
13.842693328857422
 31
-0.20000743865966797
  0
LINE
  8
0
 10
-1.3288345336914062
 20
14.11027717590332
 30
-0.20000791549682617
 11
-1.4307861328125
 21
14.135811805725098
 31
-0.20000839233398438
  0
LINE
  8
0
 10
30.166229248046875
 20
-8.740575790405273
 30
-0.20000648498535156
 11
30.256378173828125
 21
-8.794617652893066
 31
-0.20000600814819336
  0
LINE
  8
0
 10
29.69540023803711
 20
-7.7451019287109375
 30
-0.20000696182250977
 11
29.71082305908203
 21
-7.641130447387695
 31
-0.20000600814819336
  0
LINE
  8
0
 10
29.933349609375
 20
-7.170638084411621
 30
-0.20000696182250977
 11
29.870738983154297
 21
-7.255059242248535
 31
-0.20000696182250977
  0
LINE
  8
0
 10
30.166229248046875
 20
-8.740575790405273
 30
-0.20000648498535156
 11
30.081809997558594
 21
-8.677968978881836
 31
-0.20000648498535156
  0
LINE
  8
0
 10
30.656265258789062
 20
-6.784232139587402
 30
-0.20000648498535156
 11
30.55229949951172
 21
-6.799651145935059
 31
-0.20000743865966797
  0
LINE
  8
0
 10
29.933349609375
 20
-7.170638084411621
 30
-0.20000696182250977
 11
30.003929138183594
 21
-7.092764377593994
 31
-0.20000696182250977
  0
LINE
  8
0
 10
31.07213592529297
 20
-8.874959945678711
 30
-0.20000743865966797
 11
30.970184326171875
 21
-8.900497436523438
 31
-0.20000600814819336
  0
LINE
  8
0
 10
31.07213592529297
 20
-8.874959945678711
 30
-0.20000743865966797
 11
31.171096801757812
 21
-8.839546203613281
 31
-0.20000672340393066
  0
LINE
  8
0
 10
30.656265258789062
 20
-6.784232139587402
 30
-0.20000648498535156
 11
30.761241912841797
 21
-6.7790727615356445
 31
-0.20000648498535156
  0
LINE
  8
0
 10
6.254245758056641
 20
-44.13178634643555
 30
-0.2000035047531128
 11
6.358211517333984
 21
-44.14720916748047
 31
-0.2000049352645874
  0
LINE
  8
0
 10
7.039772033691406
 20
-44.60261535644531
 30
-0.2000046968460083
 11
6.977165222167969
 21
-44.518192291259766
 31
-0.2000042200088501
  0
LINE
  8
0
 10
7.039772033691406
 20
-44.60261535644531
 30
-0.2000046968460083
 11
7.093807220458984
 21
-44.69276428222656
 31
-0.20000553131103516
  0
LINE
  8
0
 10
5.098846435546875
 20
-45.40657424926758
 30
-0.2000044584274292
 11
5.124385833740234
 21
-45.50852584838867
 31
-0.2000046968460083
  0
LINE
  8
0
 10
7.039772033691406
 20
-45.79264450073242
 30
-0.2000032663345337
 11
6.977165222167969
 21
-45.8770637512207
 31
-0.2000042200088501
  0
LINE
  8
0
 10
6.559123992919922
 20
-46.187103271484375
 30
-0.20000529289245605
 11
6.654136657714844
 21
-46.14216613769531
 31
-0.20000386238098145
  0
LINE
  8
0
 10
6.559123992919922
 20
-46.187103271484375
 30
-0.20000529289245605
 11
6.460163116455078
 21
-46.22251510620117
 31
-0.20000457763671875
  0
LINE
  8
0
 10
5.4698333740234375
 20
-46.0255241394043
 30
-0.20000362396240234
 11
5.554256439208984
 21
-46.088134765625
 31
-0.20000410079956055
  0
LINE
  8
0
 10
-48.07972717285156
 20
-22.605499267578125
 30
-0.20000624656677246
 11
-48.07456970214844
 21
-22.50052261352539
 31
-0.20000672340393066
  0
LINE
  8
0
 10
-47.68816375732422
 20
-21.777603149414062
 30
-0.2000066041946411
 11
-47.60374450683594
 21
-21.714994430541992
 31
-0.20000720024108887
  0
LINE
  8
0
 10
-47.11370086669922
 20
-21.539657592773438
 30
-0.20000743865966797
 11
-47.217674255371094
 21
-21.555076599121094
 31
-0.20000720024108887
  0
LINE
  8
0
 10
-46.90375518798828
 20
-21.539657592773438
 30
-0.20000743865966797
 11
-46.79978942871094
 21
-21.555076599121094
 31
-0.20000720024108887
  0
LINE
  8
0
 10
-46.32929229736328
 20
-21.777603149414062
 30
-0.2000066041946411
 11
-46.413719177246094
 21
-21.714994430541992
 31
-0.20000720024108887
  0
LINE
  8
0
 10
-46.064186096191406
 20
-22.100635528564453
 30
-0.20000708103179932
 11
-46.11822509765625
 21
-22.010482788085938
 31
-0.20000708103179932
  0
LINE
  8
0
 10
-48.07972717285156
 20
-22.605499267578125
 30
-0.20000624656677246
 11
-48.07456970214844
 21
-22.710474014282227
 31
-0.2000066041946411
  0
LINE
  8
0
 10
6.254245758056641
 20
-44.13178634643555
 30
-0.2000035047531128
 11
6.149269104003906
 21
-44.12663269042969
 31
-0.20000290870666504
  0
LINE
  8
0
 10
5.083427429199219
 20
-45.30260467529297
 30
-0.2000044584274292
 11
5.098846435546875
 21
-45.40657424926758
 31
-0.2000044584274292
  0
LINE
  8
0
 10
-46.32929229736328
 20
-21.777603149414062
 30
-0.2000066041946411
 11
-46.25141906738281
 21
-21.848188400268555
 31
-0.20000696182250977
  0
LINE
  8
0
 10
56.02892303466797
 20
-35.96453857421875
 30
-0.20000502467155457
 11
55.958335876464844
 21
-35.886661529541016
 31
-0.2000049352645874
  0
LINE
  8
0
 10
55.735816955566406
 20
-34.99828338623047
 30
-0.20000553131103516
 11
55.76134490966797
 21
-34.896331787109375
 31
-0.2000051736831665
  0
LINE
  8
0
 10
-47.11370086669922
 20
-21.539657592773438
 30
-0.20000743865966797
 11
-47.00872802734375
 21
-21.53449821472168
 31
-0.20000600814819336
  0
LINE
  8
0
 10
-1.3288345336914062
 20
14.11027717590332
 30
-0.20000791549682617
 11
-1.2298736572265625
 21
14.07485294342041
 31
-0.20000839233398438
  0
LINE
  8
0
 10
-47.83662414550781
 20
-23.28493309020996
 30
-0.20000624656677246
 11
-47.89923858642578
 21
-23.200515747070312
 31
-0.20000696182250977
  0
LINE
  8
0
 10
57.381248474121094
 20
-34.31672286987305
 30
-0.20000500977039337
 11
57.465667724609375
 21
-34.37933349609375
 31
-0.2000054568052292
  0
LINE
  8
0
 10
57.381248474121094
 20
-34.31672286987305
 30
-0.20000500977039337
 11
57.291099548339844
 21
-34.262691497802734
 31
-0.20000427961349487
  0
LINE
  8
0
 10
-2.66461181640625
 20
13.396279335021973
 30
-0.20000743865966797
 11
-2.6901473999023438
 21
13.294330596923828
 31
-0.20000886917114258
  0
LINE
  8
0
 10
-2.66461181640625
 20
13.396279335021973
 30
-0.20000743865966797
 11
-2.6292037963867188
 21
13.495246887207031
 31
-0.20000839233398438
  0
LINE
  8
0
 10
-0.6148452758789062
 20
12.774495124816895
 30
-0.20000839233398438
 11
-0.5893058776855469
 21
12.876442909240723
 31
-0.20000839233398438
  0
LINE
  8
0
 10
-0.6148452758789062
 20
12.774495124816895
 30
-0.20000839233398438
 11
-0.6502532958984375
 21
12.675539016723633
 31
-0.20000839233398438
  0
LINE
  8
0
 10
29.71082305908203
 20
-8.0590181350708
 30
-0.20000743865966797
 11
29.736358642578125
 21
-8.160969734191895
 31
-0.20000600814819336
  0
LINE
  8
0
 10
30.256378173828125
 20
-6.9055328369140625
 30
-0.20000696182250977
 11
30.166229248046875
 21
-6.959570407867432
 31
-0.20000696182250977
  0
LINE
  8
0
 10
30.256378173828125
 20
-6.9055328369140625
 30
-0.20000696182250977
 11
30.35138702392578
 21
-6.860600471496582
 31
-0.20000648498535156
  0
LINE
  8
0
 10
31.07213592529297
 20
-6.825191974639893
 30
-0.20000648498535156
 11
30.970184326171875
 21
-6.799651145935059
 31
-0.20000743865966797
  0
LINE
  8
0
 10
31.07213592529297
 20
-6.825191974639893
 30
-0.20000648498535156
 11
31.171096801757812
 21
-6.860600471496582
 31
-0.20000648498535156
  0
LINE
  8
0
 10
5.083427429199219
 20
-45.092655181884766
 30
-0.20000362396240234
 11
5.098846435546875
 21
-44.98868942260742
 31
-0.2000035047531128
  0
LINE
  8
0
 10
5.644405364990234
 20
-44.25309371948242
 30
-0.20000433921813965
 11
5.739414215087891
 21
-44.208152770996094
 31
-0.2000049352645874
  0
LINE
  8
0
 10
5.644405364990234
 20
-44.25309371948242
 30
-0.20000433921813965
 11
5.554256439208984
 21
-44.307125091552734
 31
-0.20000410079956055
  0
LINE
  8
0
 10
7.220268249511719
 20
-45.1976318359375
 30
-0.200003981590271
 11
7.215110778808594
 21
-45.302608489990234
 31
-0.20000410079956055
  0
LINE
  8
0
 10
5.159793853759766
 20
-45.60748291015625
 30
-0.20000410079956055
 11
5.204734802246094
 21
-45.70249557495117
 31
-0.20000457763671875
  0
LINE
  8
0
 10
5.644405364990234
 20
-46.14216995239258
 30
-0.20000362396240234
 11
5.739414215087891
 21
-46.18710708618164
 31
-0.2000051736831665
  0
LINE
  8
0
 10
-48.07456970214844
 20
-22.710474014282227
 30
-0.2000066041946411
 11
-48.05915069580078
 21
-22.81443977355957
 31
-0.20000767707824707
  0
LINE
  8
0
 10
-47.51359558105469
 20
-23.55003547668457
 30
-0.20000684261322021
 11
-47.41858673095703
 21
-23.594972610473633
 31
-0.20000743865966797
  0
LINE
  8
0
 10
-47.83662414550781
 20
-23.28493309020996
 30
-0.20000624656677246
 11
-47.76604461669922
 21
-23.362808227539062
 31
-0.20000720024108887
  0
LINE
  8
0
 10
-46.697837829589844
 20
-23.630382537841797
 30
-0.20000755786895752
 11
-46.79978942871094
 21
-23.655921936035156
 31
-0.20000600814819336
  0
LINE
  8
0
 10
-46.697837829589844
 20
-23.630382537841797
 30
-0.20000755786895752
 11
-46.598876953125
 21
-23.594972610473633
 31
-0.20000743865966797
  0
LINE
  8
0
 10
-47.51359558105469
 20
-23.55003547668457
 30
-0.20000684261322021
 11
-47.60374450683594
 21
-23.496000289916992
 31
-0.20000624656677246
  0
LINE
  8
0
 10
5.644405364990234
 20
-46.14216995239258
 30
-0.20000362396240234
 11
5.554256439208984
 21
-46.088134765625
 31
-0.20000410079956055
  0
LINE
  8
0
 10
56.19121551513672
 20
-36.09773254394531
 30
-0.20000497996807098
 11
56.28136444091797
 21
-36.151763916015625
 31
-0.20000460743904114
  0
LINE
  8
0
 10
57.097129821777344
 20
-36.23210906982422
 30
-0.2000046819448471
 11
56.99517059326172
 21
-36.25764846801758
 31
-0.20000512897968292
  0
LINE
  8
0
 10
57.097129821777344
 20
-36.23210906982422
 30
-0.2000046819448471
 11
57.196083068847656
 21
-36.19670104980469
 31
-0.20000526309013367
  0
LINE
  8
0
 10
57.811119079589844
 20
-35.518123626708984
 30
-0.20000451803207397
 11
57.77570343017578
 21
-35.61708068847656
 31
-0.20000484585762024
  0
LINE
  8
0
 10
57.85723114013672
 20
-35.20722579956055
 30
-0.20000506937503815
 11
57.852073669433594
 21
-35.10224914550781
 31
-0.20000465214252472
  0
LINE
  8
0
 10
57.811119079589844
 20
-35.518123626708984
 30
-0.20000451803207397
 11
57.83665466308594
 21
-35.416168212890625
 31
-0.2000053972005844
  0
LINE
  8
0
 10
57.85723114013672
 20
-35.20722579956055
 30
-0.20000506937503815
 11
57.852073669433594
 21
-35.31220626831055
 31
-0.2000051885843277
  0
LINE
  8
0
 10
57.73076629638672
 20
-34.702362060546875
 30
-0.20000529289245605
 11
57.676734924316406
 21
-34.612213134765625
 31
-0.2000056356191635
  0
LINE
  8
0
 10
55.76134490966797
 20
-34.896331787109375
 30
-0.2000051736831665
 11
55.79676055908203
 21
-34.79737091064453
 31
-0.20000514388084412
  0
LINE
  8
0
 10
5.321376800537109
 20
-45.8770637512207
 30
-0.2000042200088501
 11
5.391956329345703
 21
-45.95494079589844
 31
-0.20000314712524414
  0
LINE
  8
0
 10
7.215110778808594
 20
-45.302608489990234
 30
-0.20000410079956055
 11
7.1996917724609375
 21
-45.40657424926758
 31
-0.2000044584274292
  0
LINE
  8
0
 10
-2.66461181640625
 20
12.774495124816895
 30
-0.20000839233398438
 11
-2.6901473999023438
 21
12.876442909240723
 31
-0.20000839233398438
  0
LINE
  8
0
 10
-2.66461181640625
 20
12.774495124816895
 30
-0.20000839233398438
 11
-2.6292037963867188
 21
12.675539016723633
 31
-0.20000839233398438
  0
LINE
  8
0
 10
-0.6148452758789062
 20
13.396279335021973
 30
-0.20000743865966797
 11
-0.5893058776855469
 21
13.294330596923828
 31
-0.20000886917114258
  0
LINE
  8
0
 10
-0.6148452758789062
 20
13.396279335021973
 30
-0.20000743865966797
 11
-0.6502532958984375
 21
13.495246887207031
 31
-0.20000839233398438
  0
LINE
  8
0
 10
29.736358642578125
 20
-7.539174556732178
 30
-0.20000648498535156
 11
29.771766662597656
 21
-7.440216064453125
 31
-0.20000696182250977
  0
LINE
  8
0
 10
29.736358642578125
 20
-7.539174556732178
 30
-0.20000648498535156
 11
29.71082305908203
 21
-7.641130447387695
 31
-0.20000600814819336
  0
LINE
  8
0
 10
31.78612518310547
 20
-8.160969734191895
 30
-0.20000600814819336
 11
31.750717163085938
 21
-8.259931564331055
 31
-0.20000648498535156
  0
LINE
  8
0
 10
5.204734802246094
 20
-44.69276428222656
 30
-0.20000529289245605
 11
5.159793853759766
 21
-44.787776947021484
 31
-0.20000410079956055
  0
LINE
  8
0
 10
5.838375091552734
 20
-44.17274475097656
 30
-0.2000037431716919
 11
5.739414215087891
 21
-44.208152770996094
 31
-0.2000049352645874
  0
LINE
  8
0
 10
5.204734802246094
 20
-44.69276428222656
 30
-0.20000529289245605
 11
5.258766174316406
 21
-44.60261535644531
 31
-0.20000481605529785
  0
LINE
  8
0
 10
5.838375091552734
 20
-44.17274475097656
 30
-0.2000037431716919
 11
5.940326690673828
 21
-44.14720916748047
 31
-0.2000049352645874
  0
LINE
  8
0
 10
6.460163116455078
 20
-44.17274475097656
 30
-0.2000056505203247
 11
6.559123992919922
 21
-44.208152770996094
 31
-0.2000049352645874
  0
LINE
  8
0
 10
7.138744354248047
 20
-44.787776947021484
 30
-0.20000410079956055
 11
7.174152374267578
 21
-44.88673400878906
 31
-0.20000529289245605
  0
LINE
  8
0
 10
7.138744354248047
 20
-44.787776947021484
 30
-0.20000410079956055
 11
7.093807220458984
 21
-44.69276428222656
 31
-0.20000553131103516
  0
LINE
  8
0
 10
6.977165222167969
 20
-45.8770637512207
 30
-0.2000042200088501
 11
6.906581878662109
 21
-45.95494079589844
 31
-0.20000314712524414
  0
LINE
  8
0
 10
-48.07456970214844
 20
-22.50052261352539
 30
-0.20000672340393066
 11
-48.05915069580078
 21
-22.39655876159668
 31
-0.200006365776062
  0
LINE
  8
0
 10
-47.83662414550781
 20
-21.926063537597656
 30
-0.20000720024108887
 11
-47.89923858642578
 21
-22.010482788085938
 31
-0.20000708103179932
  0
LINE
  8
0
 10
-47.51359558105469
 20
-21.660959243774414
 30
-0.20000648498535156
 11
-47.60374450683594
 21
-21.714994430541992
 31
-0.20000720024108887
  0
LINE
  8
0
 10
-47.51359558105469
 20
-21.660959243774414
 30
-0.20000648498535156
 11
-47.41858673095703
 21
-21.616024017333984
 31
-0.20000672340393066
  0
LINE
  8
0
 10
-47.83662414550781
 20
-21.926063537597656
 30
-0.20000720024108887
 11
-47.76604461669922
 21
-21.848188400268555
 31
-0.20000696182250977
  0
LINE
  8
0
 10
-46.697837829589844
 20
-21.580615997314453
 30
-0.20000743865966797
 11
-46.598876953125
 21
-21.616024017333984
 31
-0.20000672340393066
  0
LINE
  8
0
 10
57.73076629638672
 20
-35.712093353271484
 30
-0.20000454783439636
 11
57.77570343017578
 21
-35.61708068847656
 31
-0.20000484585762024
  0
LINE
  8
0
 10
56.99517059326172
 20
-36.25764846801758
 30
-0.20000512897968292
 11
56.891212463378906
 21
-36.2730712890625
 31
-0.20000457763671875
  0
LINE
  8
0
 10
31.78612518310547
 20
-8.160969734191895
 30
-0.20000600814819336
 11
31.811660766601562
 21
-8.0590181350708
 31
-0.20000743865966797
  0
LINE
  8
0
 10
57.852073669433594
 20
-35.10224914550781
 30
-0.20000465214252472
 11
57.83665466308594
 21
-34.99828338623047
 31
-0.20000553131103516
  0
LINE
  8
0
 10
55.72039031982422
 20
-35.31220626831055
 30
-0.2000051885843277
 11
55.715232849121094
 21
-35.20722579956055
 31
-0.20000506937503815
  0
LINE
  8
0
 10
55.79676055908203
 20
-34.79737091064453
 30
-0.20000514388084412
 11
55.841697692871094
 21
-34.702362060546875
 31
-0.20000529289245605
  0
LINE
  8
0
 10
-46.697837829589844
 20
-21.580615997314453
 30
-0.20000743865966797
 11
-46.79978942871094
 21
-21.555076599121094
 31
-0.20000720024108887
  0
LINE
  8
0
 10
56.577293395996094
 20
-34.15680694580078
 30
-0.2000047117471695
 11
56.475341796875
 21
-34.182342529296875
 31
-0.200005441904068
  0
LINE
  8
0
 10
56.577293395996094
 20
-34.15680694580078
 30
-0.2000047117471695
 11
56.681251525878906
 21
-34.14138412475586
 31
-0.2000044584274292
  0
LINE
  8
0
 10
6.460163116455078
 20
-44.17274475097656
 30
-0.2000056505203247
 11
6.358211517333984
 21
-44.14720916748047
 31
-0.2000049352645874
  0
LINE
  8
0
 10
-45.983848571777344
 20
-22.916393280029297
 30
-0.20000779628753662
 11
-45.95830535888672
 21
-22.81443977355957
 31
-0.20000767707824707
  0
LINE
  8
0
 10
56.28136444091797
 20
-36.151763916015625
 30
-0.20000460743904114
 11
56.376380920410156
 21
-36.19670104980469
 31
-0.20000526309013367
  0
LINE
  8
0
 10
57.381248474121094
 20
-36.09773254394531
 30
-0.20000497996807098
 11
57.291099548339844
 21
-36.151763916015625
 31
-0.20000460743904114
  0
LINE
  8
0
 10
57.381248474121094
 20
-36.09773254394531
 30
-0.20000497996807098
 11
57.465667724609375
 21
-36.03512191772461
 31
-0.20000532269477844
  0
LINE
  8
0
 10
57.83665466308594
 20
-35.416168212890625
 30
-0.2000053972005844
 11
57.852073669433594
 21
-35.31220626831055
 31
-0.2000051885843277
  0
LINE
  8
0
 10
57.676734924316406
 20
-34.612213134765625
 30
-0.2000056356191635
 11
57.61412811279297
 21
-34.52779006958008
 31
-0.20000503957271576
  0
LINE
  8
0
 10
55.841697692871094
 20
-34.702362060546875
 30
-0.20000529289245605
 11
55.895729064941406
 21
-34.612213134765625
 31
-0.2000056356191635
  0
LINE
  8
0
 10
56.475341796875
 20
-34.182342529296875
 30
-0.200005441904068
 11
56.376380920410156
 21
-34.21775436401367
 31
-0.2000047266483307
  0
LINE
  8
0
 10
-2.467620849609375
 20
12.405952453613281
 30
-0.20000839233398438
 11
-2.3970413208007812
 21
12.328069686889648
 31
-0.20000743865966797
  0
LINE
  8
0
 10
-2.0495834350585938
 20
12.09591007232666
 30
-0.20000743865966797
 11
-1.95062255859375
 21
12.060504913330078
 31
-0.20000886917114258
  0
LINE
  8
0
 10
-2.0495834350585938
 20
12.09591007232666
 30
-0.20000743865966797
 11
-2.14459228515625
 21
12.140844345092773
 31
-0.20000839233398438
  0
LINE
  8
0
 10
-1.1348609924316406
 20
12.140844345092773
 30
-0.20000839233398438
 11
-1.0447120666503906
 21
12.194877624511719
 31
-0.20000839233398438
  0
LINE
  8
0
 10
-1.1348609924316406
 20
12.140844345092773
 30
-0.20000839233398438
 11
-1.2298736572265625
 21
12.09591007232666
 31
-0.20000743865966797
  0
LINE
  8
0
 10
-0.5687294006347656
 20
13.085383415222168
 30
-0.20000839233398438
 11
-0.573883056640625
 21
13.190369606018066
 31
-0.20000839233398438
  0
LINE
  8
0
 10
-0.5687294006347656
 20
13.085383415222168
 30
-0.20000839233398438
 11
-0.573883056640625
 21
12.980416297912598
 31
-0.20000886917114258
  0
LINE
  8
0
 10
-0.8118324279785156
 20
12.405952453613281
 30
-0.20000839233398438
 11
-0.882415771484375
 21
12.328069686889648
 31
-0.20000743865966797
  0
LINE
  8
0
 10
29.736358642578125
 20
-8.160969734191895
 30
-0.20000600814819336
 11
29.771766662597656
 21
-8.259927749633789
 31
-0.20000696182250977
  0
LINE
  8
0
 10
29.933349609375
 20
-8.529508590698242
 30
-0.20000648498535156
 11
29.996871948242188
 21
-8.599592208862305
 31
-0.20000648498535156
  0
LINE
  8
0
 10
31.78612518310547
 20
-7.539174556732178
 30
-0.20000648498535156
 11
31.811660766601562
 21
-7.641130447387695
 31
-0.20000600814819336
  0
LINE
  8
0
 10
31.78612518310547
 20
-7.539174556732178
 30
-0.20000648498535156
 11
31.750717163085938
 21
-7.440216064453125
 31
-0.20000696182250977
  0
LINE
  8
0
 10
5.159793853759766
 20
-44.787776947021484
 30
-0.20000410079956055
 11
5.124385833740234
 21
-44.88673400878906
 31
-0.20000529289245605
  0
LINE
  8
0
 10
6.744285583496094
 20
-44.307125091552734
 30
-0.2000042200088501
 11
6.654136657714844
 21
-44.25309371948242
 31
-0.20000433921813965
  0
LINE
  8
0
 10
7.1996917724609375
 20
-44.98868942260742
 30
-0.2000035047531128
 11
7.174152374267578
 21
-44.88673400878906
 31
-0.20000529289245605
  0
LINE
  8
0
 10
6.744285583496094
 20
-44.307125091552734
 30
-0.2000042200088501
 11
6.828704833984375
 21
-44.36973571777344
 31
-0.20000433921813965
  0
LINE
  8
0
 10
7.1996917724609375
 20
-45.40657424926758
 30
-0.2000044584274292
 11
7.174152374267578
 21
-45.508522033691406
 31
-0.20000505447387695
  0
LINE
  8
0
 10
6.906581878662109
 20
-45.95494079589844
 30
-0.20000314712524414
 11
6.828704833984375
 21
-46.0255241394043
 31
-0.20000362396240234
  0
LINE
  8
0
 10
5.391956329345703
 20
-45.95494079589844
 30
-0.20000314712524414
 11
5.4698333740234375
 21
-46.0255241394043
 31
-0.20000362396240234
  0
LINE
  8
0
 10
5.940326690673828
 20
-46.248050689697266
 30
-0.2000032663345337
 11
5.838375091552734
 21
-46.22251510620117
 31
-0.20000457763671875
  0
LINE
  8
0
 10
5.940326690673828
 20
-46.248050689697266
 30
-0.2000032663345337
 11
6.044292449951172
 21
-46.26347351074219
 31
-0.20000457763671875
  0
LINE
  8
0
 10
-48.033607482910156
 20
-22.916393280029297
 30
-0.20000779628753662
 11
-48.05915069580078
 21
-22.81443977355957
 31
-0.20000767707824707
  0
LINE
  8
0
 10
-48.033607482910156
 20
-22.916393280029297
 30
-0.20000779628753662
 11
-47.998207092285156
 21
-23.015352249145508
 31
-0.20000708103179932
  0
LINE
  8
0
 10
7.1996917724609375
 20
-44.98868942260742
 30
-0.2000035047531128
 11
7.215110778808594
 21
-45.092655181884766
 31
-0.20000338554382324
  0
LINE
  8
0
 10
-45.983848571777344
 20
-22.916393280029297
 30
-0.20000779628753662
 11
-46.019248962402344
 21
-23.015352249145508
 31
-0.20000708103179932
  0
LINE
  8
0
 10
-0.8118324279785156
 20
12.405952453613281
 30
-0.20000839233398438
 11
-0.7492218017578125
 21
12.490373611450195
 31
-0.20000839233398438
  0
LINE
  8
0
 10
-48.033607482910156
 20
-22.294605255126953
 30
-0.200006365776062
 11
-47.998207092285156
 21
-22.195646286010742
 31
-0.20000600814819336
  0
LINE
  8
0
 10
56.376380920410156
 20
-36.19670104980469
 30
-0.20000526309013367
 11
56.475341796875
 21
-36.23210906982422
 31
-0.2000046819448471
  0
LINE
  8
0
 10
57.291099548339844
 20
-36.151763916015625
 30
-0.20000460743904114
 11
57.196083068847656
 21
-36.19670104980469
 31
-0.20000526309013367
  0
LINE
  8
0
 10
55.715232849121094
 20
-35.20722579956055
 30
-0.20000506937503815
 11
55.72039031982422
 21
-35.10224914550781
 31
-0.20000465214252472
  0
LINE
  8
0
 10
55.895729064941406
 20
-34.612213134765625
 30
-0.2000056356191635
 11
55.958335876464844
 21
-34.52779006958008
 31
-0.20000503957271576
  0
LINE
  8
0
 10
56.891212463378906
 20
-34.14138412475586
 30
-0.2000044584274292
 11
56.786231994628906
 21
-34.136226654052734
 31
-0.2000049501657486
  0
LINE
  8
0
 10
-45.983848571777344
 20
-22.294605255126953
 30
-0.200006365776062
 11
-45.95830535888672
 21
-22.39655876159668
 31
-0.200006365776062
  0
LINE
  8
0
 10
-0.573883056640625
 20
13.190369606018066
 30
-0.20000839233398438
 11
-0.5893058776855469
 21
13.294330596923828
 31
-0.20000886917114258
  0
LINE
  8
0
 10
-45.983848571777344
 20
-22.294605255126953
 30
-0.200006365776062
 11
-46.019248962402344
 21
-22.195646286010742
 31
-0.20000600814819336
  0
LINE
  8
0
 10
56.891212463378906
 20
-34.14138412475586
 30
-0.2000044584274292
 11
56.99517059326172
 21
-34.15680694580078
 31
-0.2000047117471695
  0
LINE
  8
0
 10
-1.95062255859375
 20
14.11027717590332
 30
-0.20000791549682617
 11
-1.8486709594726562
 21
14.135811805725098
 31
-0.20000839233398438
  0
LINE
  8
0
 10
-1.95062255859375
 20
14.11027717590332
 30
-0.20000791549682617
 11
-2.0495834350585938
 21
14.07485294342041
 31
-0.20000839233398438
  0
LINE
  8
0
 10
-1.1348609924316406
 20
14.029922485351562
 30
-0.20000839233398438
 11
-1.0447120666503906
 21
13.97588062286377
 31
-0.20000791549682617
  0
LINE
  8
0
 10
-1.1348609924316406
 20
14.029922485351562
 30
-0.20000839233398438
 11
-1.2298736572265625
 21
14.07485294342041
 31
-0.20000839233398438
  0
LINE
  8
0
 10
-0.8118324279785156
 20
13.764822006225586
 30
-0.20000791549682617
 11
-0.7492218017578125
 21
13.680408477783203
 31
-0.20000839233398438
  0
LINE
  8
0
 10
-0.8118324279785156
 20
13.764822006225586
 30
-0.20000791549682617
 11
-0.882415771484375
 21
13.842693328857422
 31
-0.20000743865966797
  0
LINE
  8
0
 10
30.35138702392578
 20
-8.839546203613281
 30
-0.20000672340393066
 11
30.256378173828125
 21
-8.794617652893066
 31
-0.20000600814819336
  0
LINE
  8
0
 10
30.35138702392578
 20
-8.839546203613281
 30
-0.20000672340393066
 11
30.450347900390625
 21
-8.874959945678711
 31
-0.20000743865966797
  0
LINE
  8
0
 10
31.266109466552734
 20
-8.794617652893066
 30
-0.20000600814819336
 11
31.356258392333984
 21
-8.740575790405273
 31
-0.20000648498535156
  0
LINE
  8
0
 10
31.266109466552734
 20
-8.794617652893066
 30
-0.20000600814819336
 11
31.171096801757812
 21
-8.839546203613281
 31
-0.20000672340393066
  0
LINE
  8
0
 10
31.832244873046875
 20
-7.850070476531982
 30
-0.20000791549682617
 11
31.82708740234375
 21
-7.955044746398926
 31
-0.20000743865966797
  0
LINE
  8
0
 10
5.124385833740234
 20
-44.88673400878906
 30
-0.20000529289245605
 11
5.098846435546875
 21
-44.98868942260742
 31
-0.2000035047531128
  0
LINE
  8
0
 10
6.654136657714844
 20
-44.25309371948242
 30
-0.20000433921813965
 11
6.559123992919922
 21
-44.208152770996094
 31
-0.2000049352645874
  0
LINE
  8
0
 10
7.174152374267578
 20
-45.508522033691406
 30
-0.20000505447387695
 11
7.138744354248047
 21
-45.607486724853516
 31
-0.2000037431716919
  0
LINE
  8
0
 10
5.204734802246094
 20
-45.70249557495117
 30
-0.20000457763671875
 11
5.258766174316406
 21
-45.79264831542969
 31
-0.20000314712524414
  0
LINE
  8
0
 10
6.175148010253906
 20
-46.267356872558594
 30
-0.20000505447387695
 11
6.254245758056641
 21
-46.26347351074219
 31
-0.20000457763671875
  0
LINE
  8
0
 10
6.175148010253906
 20
-46.267356872558594
 30
-0.20000505447387695
 11
6.149269104003906
 21
-46.26863098144531
 31
-0.2000049352645874
  0
LINE
  8
0
 10
5.838375091552734
 20
-46.22251510620117
 30
-0.20000457763671875
 11
5.739414215087891
 21
-46.18710708618164
 31
-0.2000051736831665
  0
LINE
  8
0
 10
-48.033607482910156
 20
-22.294605255126953
 30
-0.200006365776062
 11
-48.05915069580078
 21
-22.39655876159668
 31
-0.200006365776062
  0
LINE
  8
0
 10
31.58913803100586
 20
-8.529508590698242
 30
-0.20000648498535156
 11
31.5185546875
 21
-8.607379913330078
 31
-0.20000696182250977
  0
LINE
  8
0
 10
31.832244873046875
 20
-7.850070476531982
 30
-0.20000791549682617
 11
31.82708740234375
 21
-7.7451019287109375
 31
-0.20000696182250977
  0
LINE
  8
0
 10
31.58913803100586
 20
-8.529508590698242
 30
-0.20000648498535156
 11
31.651748657226562
 21
-8.445087432861328
 31
-0.20000743865966797
  0
LINE
  8
0
 10
-45.93772888183594
 20
-22.605499267578125
 30
-0.20000624656677246
 11
-45.942893981933594
 21
-22.50052261352539
 31
-0.20000672340393066
  0
LINE
  8
0
 10
56.577293395996094
 20
-36.25764846801758
 30
-0.20000512897968292
 11
56.681251525878906
 21
-36.2730712890625
 31
-0.20000457763671875
  0
LINE
  8
0
 10
56.577293395996094
 20
-36.25764846801758
 30
-0.20000512897968292
 11
56.475341796875
 21
-36.23210906982422
 31
-0.2000046819448471
  0
LINE
  8
0
 10
57.61412811279297
 20
-34.52779006958008
 30
-0.20000503957271576
 11
57.543540954589844
 21
-34.44991683959961
 31
-0.2000049650669098
  0
LINE
  8
0
 10
56.786231994628906
 20
-34.136226654052734
 30
-0.2000049501657486
 11
56.681251525878906
 21
-34.14138412475586
 31
-0.2000044584274292
  0
LINE
  8
0
 10
31.58913803100586
 20
-7.170638084411621
 30
-0.20000696182250977
 11
31.651748657226562
 21
-7.255059242248535
 31
-0.20000696182250977
  0
LINE
  8
0
 10
-2.3970413208007812
 20
12.328069686889648
 30
-0.20000743865966797
 11
-2.319164276123047
 21
12.257487297058105
 31
-0.20000791549682617
  0
LINE
  8
0
 10
-1.5347518920898438
 20
12.019539833068848
 30
-0.20000791549682617
 11
-1.4307861328125
 21
12.034961700439453
 31
-0.20000791549682617
  0
LINE
  8
0
 10
-0.6951904296875
 20
12.580520629882812
 30
-0.20000839233398438
 11
-0.7492218017578125
 21
12.490373611450195
 31
-0.20000839233398438
  0
LINE
  8
0
 10
-0.6951904296875
 20
12.580520629882812
 30
-0.20000839233398438
 11
-0.6502532958984375
 21
12.675539016723633
 31
-0.20000839233398438
  0
LINE
  8
0
 10
-1.5347518920898438
 20
12.019539833068848
 30
-0.20000791549682617
 11
-1.6397285461425781
 21
12.014389991760254
 31
-0.20000839233398438
  0
LINE
  8
0
 10
29.996871948242188
 20
-8.599592208862305
 30
-0.20000648498535156
 11
30.003929138183594
 21
-8.607379913330078
 31
-0.20000696182250977
  0
LINE
  8
0
 10
31.58913803100586
 20
-7.170638084411621
 30
-0.20000696182250977
 11
31.5185546875
 21
-7.092764377593994
 31
-0.20000696182250977
  0
LINE
  8
0
 10
6.744285583496094
 20
-46.088134765625
 30
-0.20000386238098145
 11
6.828704833984375
 21
-46.0255241394043
 31
-0.20000362396240234
  0
LINE
  8
0
 10
6.744285583496094
 20
-46.088134765625
 30
-0.20000386238098145
 11
6.654136657714844
 21
-46.14216613769531
 31
-0.20000386238098145
  0
LINE
  8
0
 10
6.044292449951172
 20
-46.26347351074219
 30
-0.20000457763671875
 11
6.149269104003906
 21
-46.26863098144531
 31
-0.2000049352645874
  0
LINE
  8
0
 10
-46.18083190917969
 20
-23.28493309020996
 30
-0.20000624656677246
 11
-46.11822509765625
 21
-23.200515747070312
 31
-0.20000696182250977
  0
LINE
  8
0
 10
-46.18083190917969
 20
-23.28493309020996
 30
-0.20000624656677246
 11
-46.25141906738281
 21
-23.362808227539062
 31
-0.20000720024108887
  0
LINE
  8
0
 10
57.83665466308594
 20
-34.99828338623047
 30
-0.20000553131103516
 11
57.811119079589844
 21
-34.896331787109375
 31
-0.2000051736831665
  0
LINE
  8
0
 10
55.958335876464844
 20
-34.52779006958008
 30
-0.20000503957271576
 11
56.02892303466797
 21
-34.44991683959961
 31
-0.2000049650669098
  0
LINE
  8
0
 10
-2.6292037963867188
 20
12.675539016723633
 30
-0.20000839233398438
 11
-2.5842628479003906
 21
12.580520629882812
 31
-0.20000839233398438
  0
LINE
  8
0
 10
-1.7447052001953125
 20
12.019539833068848
 30
-0.20000791549682617
 11
-1.8486709594726562
 21
12.034961700439453
 31
-0.20000791549682617
  0
LINE
  8
0
 10
-0.9602928161621094
 20
12.257487297058105
 30
-0.20000791549682617
 11
-1.0447120666503906
 21
12.194877624511719
 31
-0.20000839233398438
  0
LINE
  8
0
 10
-0.573883056640625
 20
12.980416297912598
 30
-0.20000886917114258
 11
-0.5893058776855469
 21
12.876442909240723
 31
-0.20000839233398438
  0
LINE
  8
0
 10
-0.9602928161621094
 20
12.257487297058105
 30
-0.20000791549682617
 11
-0.882415771484375
 21
12.328069686889648
 31
-0.20000743865966797
  0
LINE
  8
0
 10
-1.7447052001953125
 20
12.019539833068848
 30
-0.20000791549682617
 11
-1.6397285461425781
 21
12.014389991760254
 31
-0.20000839233398438
  0
LINE
  8
0
 10
29.771766662597656
 20
-8.259927749633789
 30
-0.20000696182250977
 11
29.81670379638672
 21
-8.354938507080078
 31
-0.20000600814819336
  0
LINE
  8
0
 10
30.450347900390625
 20
-6.825191974639893
 30
-0.20000648498535156
 11
30.55229949951172
 21
-6.799651145935059
 31
-0.20000743865966797
  0
LINE
  8
0
 10
30.450347900390625
 20
-6.825191974639893
 30
-0.20000648498535156
 11
30.35138702392578
 21
-6.860600471496582
 31
-0.20000648498535156
  0
LINE
  8
0
 10
31.266109466552734
 20
-6.9055328369140625
 30
-0.20000696182250977
 11
31.356258392333984
 21
-6.959570407867432
 31
-0.20000696182250977
  0
LINE
  8
0
 10
31.266109466552734
 20
-6.9055328369140625
 30
-0.20000696182250977
 11
31.171096801757812
 21
-6.860600471496582
 31
-0.20000648498535156
  0
LINE
  8
0
 10
31.82708740234375
 20
-7.7451019287109375
 30
-0.20000696182250977
 11
31.811660766601562
 21
-7.641130447387695
 31
-0.20000600814819336
  0
LINE
  8
0
 10
7.138744354248047
 20
-45.607486724853516
 30
-0.2000037431716919
 11
7.093807220458984
 21
-45.70249557495117
 31
-0.20000457763671875
  0
LINE
  8
0
 10
6.254245758056641
 20
-46.26347351074219
 30
-0.20000457763671875
 11
6.358211517333984
 21
-46.248050689697266
 31
-0.2000032663345337
  0
LINE
  8
0
 10
-47.31962585449219
 20
-23.630382537841797
 30
-0.20000755786895752
 11
-47.217674255371094
 21
-23.655921936035156
 31
-0.20000600814819336
  0
LINE
  8
0
 10
-47.31962585449219
 20
-23.630382537841797
 30
-0.20000755786895752
 11
-47.41858673095703
 21
-23.594972610473633
 31
-0.20000743865966797
  0
LINE
  8
0
 10
-46.503868103027344
 20
-23.55003547668457
 30
-0.20000684261322021
 11
-46.413719177246094
 21
-23.496000289916992
 31
-0.20000624656677246
  0
LINE
  8
0
 10
-46.503868103027344
 20
-23.55003547668457
 30
-0.20000684261322021
 11
-46.598876953125
 21
-23.594972610473633
 31
-0.20000743865966797
  0
LINE
  8
0
 10
-45.93772888183594
 20
-22.605499267578125
 30
-0.20000624656677246
 11
-45.942893981933594
 21
-22.710474014282227
 31
-0.2000066041946411
  0
LINE
  8
0
 10
55.895729064941406
 20
-35.802242279052734
 30
-0.2000051587820053
 11
55.958335876464844
 21
-35.886661529541016
 31
-0.2000049352645874
  0
LINE
  8
0
 10
56.786231994628906
 20
-36.278228759765625
 30
-0.20000503957271576
 11
56.681251525878906
 21
-36.2730712890625
 31
-0.20000457763671875
  0
LINE
  8
0
 10
57.543540954589844
 20
-35.96453857421875
 30
-0.20000502467155457
 11
57.61412811279297
 21
-35.886661529541016
 31
-0.2000049352645874
  0
LINE
  8
0
 10
57.543540954589844
 20
-35.96453857421875
 30
-0.20000502467155457
 11
57.465667724609375
 21
-36.03512191772461
 31
-0.20000532269477844
  0
LINE
  8
0
 10
56.786231994628906
 20
-36.278228759765625
 30
-0.20000503957271576
 11
56.891212463378906
 21
-36.2730712890625
 31
-0.20000457763671875
  0
LINE
  8
0
 10
55.79676055908203
 20
-35.61708068847656
 30
-0.20000484585762024
 11
55.76134490966797
 21
-35.518123626708984
 31
-0.20000451803207397
  0
LINE
  8
0
 10
55.79676055908203
 20
-35.61708068847656
 30
-0.20000484585762024
 11
55.841697692871094
 21
-35.712093353271484
 31
-0.20000454783439636
  0
LINE
  8
0
 10
55.735816955566406
 20
-35.416168212890625
 30
-0.2000053972005844
 11
55.72039031982422
 21
-35.31220626831055
 31
-0.2000051885843277
  0
LINE
  8
0
 10
56.10679626464844
 20
-34.37933349609375
 30
-0.2000054568052292
 11
56.19121551513672
 21
-34.31672286987305
 31
-0.20000500977039337
  0
LINE
  8
0
 10
56.10679626464844
 20
-34.37933349609375
 30
-0.2000054568052292
 11
56.02892303466797
 21
-34.44991683959961
 31
-0.2000049650669098
  0
LINE
  8
0
 10
30.86621856689453
 20
-8.915913581848145
 30
-0.20000696182250977
 11
30.761241912841797
 21
-8.921072006225586
 31
-0.20000767707824707
  0
LINE
  8
0
 10
55.895729064941406
 20
-35.802242279052734
 30
-0.2000051587820053
 11
55.841697692871094
 21
-35.712093353271484
 31
-0.20000454783439636
  0
LINE
  8
0
 10
5.321376800537109
 20
-44.51819610595703
 30
-0.20000410079956055
 11
5.258766174316406
 21
-44.60261535644531
 31
-0.20000481605529785
  0
LINE
  8
0
 10
6.460163116455078
 20
-46.22251510620117
 30
-0.20000457763671875
 11
6.358211517333984
 21
-46.248050689697266
 31
-0.2000032663345337
  0
LINE
  8
0
 10
-47.31962585449219
 20
-21.580615997314453
 30
-0.20000743865966797
 11
-47.41858673095703
 21
-21.616024017333984
 31
-0.20000672340393066
  0
LINE
  8
0
 10
-45.942893981933594
 20
-22.710474014282227
 30
-0.2000066041946411
 11
-45.95830535888672
 21
-22.81443977355957
 31
-0.20000767707824707
  0
LINE
  8
0
 10
-46.18083190917969
 20
-21.926063537597656
 30
-0.20000720024108887
 11
-46.25141906738281
 21
-21.848188400268555
 31
-0.20000696182250977
  0
LINE
  8
0
 10
57.543540954589844
 20
-34.44991683959961
 30
-0.2000049650669098
 11
57.465667724609375
 21
-34.37933349609375
 31
-0.2000054568052292
  0
LINE
  8
0
 10
-2.7107276916503906
 20
13.085383415222168
 30
-0.20000839233398438
 11
-2.7055702209472656
 21
12.980416297912598
 31
-0.20000886917114258
  0
LINE
  8
0
 10
-2.7107276916503906
 20
13.085383415222168
 30
-0.20000839233398438
 11
-2.7055702209472656
 21
13.190369606018066
 31
-0.20000839233398438
  0
LINE
  8
0
 10
-2.5842628479003906
 20
13.590250015258789
 30
-0.20000839233398438
 11
-2.530231475830078
 21
13.680408477783203
 31
-0.20000839233398438
  0
LINE
  8
0
 10
-2.5842628479003906
 20
13.590250015258789
 30
-0.20000839233398438
 11
-2.6292037963867188
 21
13.495246887207031
 31
-0.20000839233398438
  0
LINE
  8
0
 10
-2.319164276123047
 20
13.913275718688965
 30
-0.20000839233398438
 11
-2.2347412109375
 21
13.97588062286377
 31
-0.20000791549682617
  0
LINE
  8
0
 10
-1.8486709594726562
 20
12.034961700439453
 30
-0.20000791549682617
 11
-1.95062255859375
 21
12.060504913330078
 31
-0.20000886917114258
  0
LINE
  8
0
 10
-2.319164276123047
 20
13.913275718688965
 30
-0.20000839233398438
 11
-2.3970413208007812
 21
13.842693328857422
 31
-0.20000743865966797
  0
LINE
  8
0
 10
-1.5347518920898438
 20
14.151226997375488
 30
-0.20000791549682617
 11
-1.4307861328125
 21
14.135811805725098
 31
-0.20000839233398438
  0
LINE
  8
0
 10
-0.9602928161621094
 20
13.913275718688965
 30
-0.20000839233398438
 11
-1.0447120666503906
 21
13.97588062286377
 31
-0.20000791549682617
  0
LINE
  8
0
 10
-0.6951904296875
 20
13.590250015258789
 30
-0.20000839233398438
 11
-0.7492218017578125
 21
13.680408477783203
 31
-0.20000839233398438
  0
LINE
  8
0
 10
-0.6951904296875
 20
13.590250015258789
 30
-0.20000839233398438
 11
-0.6502532958984375
 21
13.495246887207031
 31
-0.20000839233398438
  0
LINE
  8
0
 10
-0.9602928161621094
 20
13.913275718688965
 30
-0.20000839233398438
 11
-0.882415771484375
 21
13.842693328857422
 31
-0.20000743865966797
  0
LINE
  8
0
 10
-1.5347518920898438
 20
14.151226997375488
 30
-0.20000791549682617
 11
-1.6397285461425781
 21
14.156384468078613
 31
-0.20000791549682617
  0
LINE
  8
0
 10
29.690242767333984
 20
-7.850070476531982
 30
-0.20000791549682617
 11
29.69540023803711
 21
-7.955044746398926
 31
-0.20000743865966797
  0
LINE
  8
0
 10
29.690242767333984
 20
-7.850070476531982
 30
-0.20000791549682617
 11
29.69540023803711
 21
-7.7451019287109375
 31
-0.20000696182250977
  0
LINE
  8
0
 10
29.81670379638672
 20
-7.345203399658203
 30
-0.20000696182250977
 11
29.870738983154297
 21
-7.255059242248535
 31
-0.20000696182250977
  0
LINE
  8
0
 10
29.81670379638672
 20
-7.345203399658203
 30
-0.20000696182250977
 11
29.771766662597656
 21
-7.440216064453125
 31
-0.20000696182250977
  0
LINE
  8
0
 10
30.003929138183594
 20
-8.607379913330078
 30
-0.20000696182250977
 11
30.081809997558594
 21
-8.677968978881836
 31
-0.20000648498535156
  0
LINE
  8
0
 10
30.656265258789062
 20
-8.915913581848145
 30
-0.20000696182250977
 11
30.55229949951172
 21
-8.900497436523438
 31
-0.20000600814819336
  0
LINE
  8
0
 10
30.86621856689453
 20
-8.915913581848145
 30
-0.20000696182250977
 11
30.970184326171875
 21
-8.900497436523438
 31
-0.20000600814819336
  0
LINE
  8
0
 10
31.440677642822266
 20
-8.677968978881836
 30
-0.20000648498535156
 11
31.356258392333984
 21
-8.740575790405273
 31
-0.20000648498535156
  0
LINE
  8
0
 10
31.705780029296875
 20
-8.354938507080078
 30
-0.20000600814819336
 11
31.651748657226562
 21
-8.445087432861328
 31
-0.20000743865966797
  0
LINE
  8
0
 10
31.82708740234375
 20
-7.955044746398926
 30
-0.20000743865966797
 11
31.811660766601562
 21
-8.0590181350708
 31
-0.20000743865966797
  0
LINE
  8
0
 10
31.705780029296875
 20
-8.354938507080078
 30
-0.20000600814819336
 11
31.750717163085938
 21
-8.259931564331055
 31
-0.20000648498535156
  0
LINE
  8
0
 10
31.440677642822266
 20
-8.677968978881836
 30
-0.20000648498535156
 11
31.5185546875
 21
-8.607379913330078
 31
-0.20000696182250977
  0
LINE
  8
0
 10
30.656265258789062
 20
-8.915913581848145
 30
-0.20000696182250977
 11
30.761241912841797
 21
-8.921072006225586
 31
-0.20000767707824707
  0
LINE
  8
0
 10
5.321376800537109
 20
-44.51819610595703
 30
-0.20000410079956055
 11
5.391956329345703
 21
-44.4403190612793
 31
-0.2000049352645874
  0
LINE
  8
0
 10
5.940326690673828
 20
-44.14720916748047
 30
-0.2000049352645874
 11
6.044292449951172
 21
-44.13178634643555
 31
-0.20000362396240234
  0
LINE
  8
0
 10
5.124385833740234
 20
-45.50852584838867
 30
-0.2000046968460083
 11
5.159793853759766
 21
-45.60748291015625
 31
-0.20000410079956055
  0
LINE
  8
0
 10
-47.31962585449219
 20
-21.580615997314453
 30
-0.20000743865966797
 11
-47.217674255371094
 21
-21.555076599121094
 31
-0.20000720024108887
  0
LINE
  8
0
 10
-46.503868103027344
 20
-21.660959243774414
 30
-0.20000648498535156
 11
-46.413719177246094
 21
-21.714994430541992
 31
-0.20000720024108887
  0
LINE
  8
0
 10
-46.503868103027344
 20
-21.660959243774414
 30
-0.20000648498535156
 11
-46.598876953125
 21
-21.616024017333984
 31
-0.20000672340393066
  0
LINE
  8
0
 10
-46.18083190917969
 20
-21.926063537597656
 30
-0.20000720024108887
 11
-46.11822509765625
 21
-22.010482788085938
 31
-0.20000708103179932
  0
LINE
  8
0
 10
-9.857009887695312
 20
-49.46006393432617
 30
-0.20000433921813965
 11
-9.450237274169922
 21
-49.480045318603516
 31
-0.20000481605529785
  0
LINE
  8
0
 10
-9.450237274169922
 20
-49.480045318603516
 30
-0.20000481605529785
 11
-9.047384262084961
 21
-49.53980255126953
 31
-0.20000314712524414
  0
LINE
  8
0
 10
-9.047384262084961
 20
-49.53980255126953
 30
-0.20000314712524414
 11
-8.652328491210938
 21
-49.63875961303711
 31
-0.20000481605529785
  0
LINE
  8
0
 10
-8.652328491210938
 20
-49.63875961303711
 30
-0.20000481605529785
 11
-8.268871307373047
 21
-49.775962829589844
 31
-0.20000410079956055
  0
LINE
  8
0
 10
-8.268871307373047
 20
-49.775962829589844
 30
-0.20000410079956055
 11
-7.9007110595703125
 21
-49.95009231567383
 31
-0.20000314712524414
  0
LINE
  8
0
 10
-7.9007110595703125
 20
-49.95009231567383
 30
-0.20000314712524414
 11
-7.5513916015625
 21
-50.15946578979492
 31
-0.20000529289245605
  0
LINE
  8
0
 10
-7.5513916015625
 20
-50.15946578979492
 30
-0.20000529289245605
 11
-7.224277496337891
 21
-50.40207290649414
 31
-0.20000386238098145
  0
LINE
  8
0
 10
-7.224277496337891
 20
-50.40207290649414
 30
-0.20000386238098145
 11
-6.922515869140625
 21
-50.67557144165039
 31
-0.20000529289245605
  0
LINE
  8
0
 10
-6.922515869140625
 20
-50.67557144165039
 30
-0.20000529289245605
 11
-6.649015426635742
 21
-50.977333068847656
 31
-0.20000386238098145
  0
LINE
  8
0
 10
-6.649015426635742
 20
-50.977333068847656
 30
-0.20000386238098145
 11
-6.406410217285156
 21
-51.304447174072266
 31
-0.20000410079956055
  0
LINE
  8
0
 10
-6.406410217285156
 20
-51.304447174072266
 30
-0.20000410079956055
 11
-6.1970367431640625
 21
-51.65376663208008
 31
-0.20000362396240234
  0
LINE
  8
0
 10
-6.1970367431640625
 20
-51.65376663208008
 30
-0.20000362396240234
 11
-6.022909164428711
 21
-52.02192687988281
 31
-0.20000457763671875
  0
LINE
  8
0
 10
-6.022909164428711
 20
-52.02192687988281
 30
-0.20000457763671875
 11
-5.885705947875977
 21
-52.4053840637207
 31
-0.20000362396240234
  0
LINE
  8
0
 10
-5.885705947875977
 20
-52.4053840637207
 30
-0.20000362396240234
 11
-5.786750793457031
 21
-52.80044174194336
 31
-0.20000457763671875
  0
LINE
  8
0
 10
-5.786750793457031
 20
-52.80044174194336
 30
-0.20000457763671875
 11
-5.726991653442383
 21
-53.20329284667969
 31
-0.20000314712524414
  0
LINE
  8
0
 10
-5.726991653442383
 20
-53.20329284667969
 30
-0.20000314712524414
 11
-5.707008361816406
 21
-53.61006164550781
 31
-0.20000243186950684
  0
LINE
  8
0
 10
-5.707008361816406
 20
-53.61006164550781
 30
-0.20000243186950684
 11
-5.726991653442383
 21
-54.0168342590332
 31
-0.20000553131103516
  0
LINE
  8
0
 10
-5.726991653442383
 20
-54.0168342590332
 30
-0.20000553131103516
 11
-5.786750793457031
 21
-54.4196891784668
 31
-0.20000338554382324
  0
LINE
  8
0
 10
-5.786750793457031
 20
-54.4196891784668
 30
-0.20000338554382324
 11
-5.885705947875977
 21
-54.81474304199219
 31
-0.20000314712524414
  0
LINE
  8
0
 10
-5.885705947875977
 20
-54.81474304199219
 30
-0.20000314712524414
 11
-6.022909164428711
 21
-55.19820022583008
 31
-0.20000386238098145
  0
LINE
  8
0
 10
-6.022909164428711
 20
-55.19820022583008
 30
-0.20000386238098145
 11
-6.1970367431640625
 21
-55.56636047363281
 31
-0.20000267028808594
  0
LINE
  8
0
 10
-6.1970367431640625
 20
-55.56636047363281
 30
-0.20000267028808594
 11
-6.406410217285156
 21
-55.91568374633789
 31
-0.20000386238098145
  0
LINE
  8
0
 10
-6.406410217285156
 20
-55.91568374633789
 30
-0.20000386238098145
 11
-6.649015426635742
 21
-56.242794036865234
 31
-0.20000481605529785
  0
LINE
  8
0
 10
-6.649015426635742
 20
-56.242794036865234
 30
-0.20000481605529785
 11
-6.922515869140625
 21
-56.5445556640625
 31
-0.20000338554382324
  0
LINE
  8
0
 10
-6.922515869140625
 20
-56.5445556640625
 30
-0.20000338554382324
 11
-7.224277496337891
 21
-56.818058013916016
 31
-0.20000243186950684
  0
LINE
  8
0
 10
-7.224277496337891
 20
-56.818058013916016
 30
-0.20000243186950684
 11
-7.5513916015625
 21
-57.06066131591797
 31
-0.20000290870666504
  0
LINE
  8
0
 10
-7.5513916015625
 20
-57.06066131591797
 30
-0.20000290870666504
 11
-7.9007110595703125
 21
-57.27003479003906
 31
-0.20000338554382324
  0
LINE
  8
0
 10
-7.9007110595703125
 20
-57.27003479003906
 30
-0.20000338554382324
 11
-8.268871307373047
 21
-57.44416427612305
 31
-0.20000457763671875
  0
LINE
  8
0
 10
-8.268871307373047
 20
-57.44416427612305
 30
-0.20000457763671875
 11
-8.652328491210938
 21
-57.58136749267578
 31
-0.20000386238098145
  0
LINE
  8
0
 10
-8.652328491210938
 20
-57.58136749267578
 30
-0.20000386238098145
 11
-9.047384262084961
 21
-57.68032455444336
 31
-0.20000314712524414
  0
LINE
  8
0
 10
-9.047384262084961
 20
-57.68032455444336
 30
-0.20000314712524414
 11
-9.450237274169922
 21
-57.740081787109375
 31
-0.20000386238098145
  0
LINE
  8
0
 10
-9.450237274169922
 20
-57.740081787109375
 30
-0.20000386238098145
 11
-9.857009887695312
 21
-57.76006317138672
 31
-0.20000410079956055
  0
LINE
  8
0
 10
-9.857009887695312
 20
-57.76006317138672
 30
-0.20000410079956055
 11
-10.263779640197754
 21
-57.740081787109375
 31
-0.20000386238098145
  0
LINE
  8
0
 10
-10.263779640197754
 20
-57.740081787109375
 30
-0.20000386238098145
 11
-10.666633605957031
 21
-57.68032455444336
 31
-0.20000314712524414
  0
LINE
  8
0
 10
-10.666633605957031
 20
-57.68032455444336
 30
-0.20000314712524414
 11
-11.061690330505371
 21
-57.58136749267578
 31
-0.20000386238098145
  0
LINE
  8
0
 10
-11.061690330505371
 20
-57.58136749267578
 30
-0.20000386238098145
 11
-11.445145606994629
 21
-57.44416427612305
 31
-0.20000457763671875
  0
LINE
  8
0
 10
-11.445145606994629
 20
-57.44416427612305
 30
-0.20000457763671875
 11
-11.813304901123047
 21
-57.27003479003906
 31
-0.20000338554382324
  0
LINE
  8
0
 10
-11.813304901123047
 20
-57.27003479003906
 30
-0.20000338554382324
 11
-12.162625312805176
 21
-57.06066131591797
 31
-0.20000290870666504
  0
LINE
  8
0
 10
-12.162625312805176
 20
-57.06066131591797
 30
-0.20000290870666504
 11
-12.489741325378418
 21
-56.818058013916016
 31
-0.20000243186950684
  0
LINE
  8
0
 10
-12.489741325378418
 20
-56.818058013916016
 30
-0.20000243186950684
 11
-12.791501998901367
 21
-56.5445556640625
 31
-0.20000338554382324
  0
LINE
  8
0
 10
-12.791501998901367
 20
-56.5445556640625
 30
-0.20000338554382324
 11
-13.06500244140625
 21
-56.242794036865234
 31
-0.20000481605529785
  0
LINE
  8
0
 10
-13.06500244140625
 20
-56.242794036865234
 30
-0.20000481605529785
 11
-13.307607650756836
 21
-55.91568374633789
 31
-0.20000386238098145
  0
LINE
  8
0
 10
-13.307607650756836
 20
-55.91568374633789
 30
-0.20000386238098145
 11
-13.516982078552246
 21
-55.56636047363281
 31
-0.20000267028808594
  0
LINE
  8
0
 10
-13.516982078552246
 20
-55.56636047363281
 30
-0.20000267028808594
 11
-13.691108703613281
 21
-55.19820022583008
 31
-0.20000386238098145
  0
LINE
  8
0
 10
-13.691108703613281
 20
-55.19820022583008
 30
-0.20000386238098145
 11
-13.8283109664917
 21
-54.81474304199219
 31
-0.20000314712524414
  0
LINE
  8
0
 10
-13.8283109664917
 20
-54.81474304199219
 30
-0.20000314712524414
 11
-13.927268028259277
 21
-54.4196891784668
 31
-0.20000338554382324
  0
LINE
  8
0
 10
-13.927268028259277
 20
-54.4196891784668
 30
-0.20000338554382324
 11
-13.987025260925293
 21
-54.0168342590332
 31
-0.20000553131103516
  0
LINE
  8
0
 10
-13.987025260925293
 20
-54.0168342590332
 30
-0.20000553131103516
 11
-14.00700855255127
 21
-53.61006164550781
 31
-0.20000243186950684
  0
LINE
  8
0
 10
-14.00700855255127
 20
-53.61006164550781
 30
-0.20000243186950684
 11
-13.987025260925293
 21
-53.20329284667969
 31
-0.20000314712524414
  0
LINE
  8
0
 10
-13.987025260925293
 20
-53.20329284667969
 30
-0.20000314712524414
 11
-13.927268028259277
 21
-52.80044174194336
 31
-0.20000457763671875
  0
LINE
  8
0
 10
-13.927268028259277
 20
-52.80044174194336
 30
-0.20000457763671875
 11
-13.8283109664917
 21
-52.4053840637207
 31
-0.20000362396240234
  0
LINE
  8
0
 10
-13.8283109664917
 20
-52.4053840637207
 30
-0.20000362396240234
 11
-13.691108703613281
 21
-52.02192687988281
 31
-0.20000457763671875
  0
LINE
  8
0
 10
-13.691108703613281
 20
-52.02192687988281
 30
-0.20000457763671875
 11
-13.516982078552246
 21
-51.65376663208008
 31
-0.20000362396240234
  0
LINE
  8
0
 10
-13.516982078552246
 20
-51.65376663208008
 30
-0.20000362396240234
 11
-13.307607650756836
 21
-51.304447174072266
 31
-0.20000410079956055
  0
LINE
  8
0
 10
-13.307607650756836
 20
-51.304447174072266
 30
-0.20000410079956055
 11
-13.06500244140625
 21
-50.977333068847656
 31
-0.20000386238098145
  0
LINE
  8
0
 10
-13.06500244140625
 20
-50.977333068847656
 30
-0.20000386238098145
 11
-12.791501998901367
 21
-50.67557144165039
 31
-0.20000529289245605
  0
LINE
  8
0
 10
-12.791501998901367
 20
-50.67557144165039
 30
-0.20000529289245605
 11
-12.489741325378418
 21
-50.40207290649414
 31
-0.20000386238098145
  0
LINE
  8
0
 10
-12.489741325378418
 20
-50.40207290649414
 30
-0.20000386238098145
 11
-12.162625312805176
 21
-50.15946578979492
 31
-0.20000529289245605
  0
LINE
  8
0
 10
-12.162625312805176
 20
-50.15946578979492
 30
-0.20000529289245605
 11
-11.813304901123047
 21
-49.95009231567383
 31
-0.20000314712524414
  0
LINE
  8
0
 10
-11.813304901123047
 20
-49.95009231567383
 30
-0.20000314712524414
 11
-11.445145606994629
 21
-49.775962829589844
 31
-0.20000410079956055
  0
LINE
  8
0
 10
-11.445145606994629
 20
-49.775962829589844
 30
-0.20000410079956055
 11
-11.061690330505371
 21
-49.63875961303711
 31
-0.20000481605529785
  0
LINE
  8
0
 10
-11.061690330505371
 20
-49.63875961303711
 30
-0.20000481605529785
 11
-10.666633605957031
 21
-49.53980255126953
 31
-0.20000314712524414
  0
LINE
  8
0
 10
-10.666633605957031
 20
-49.53980255126953
 30
-0.20000314712524414
 11
-10.263779640197754
 21
-49.480045318603516
 31
-0.20000481605529785
  0
LINE
  8
0
 10
-9.857009887695312
 20
-49.46006393432617
 30
-0.20000433921813965
 11
-10.263779640197754
 21
-49.480045318603516
 31
-0.20000481605529785
  0
LINE
  8
0
 10
38.139549255371094
 20
-36.525489807128906
 30
-0.20000526309013367
 11
38.54632568359375
 21
-36.54547119140625
 31
-0.2000047266483307
  0
LINE
  8
0
 10
38.54632568359375
 20
-36.54547119140625
 30
-0.2000047266483307
 11
38.949180603027344
 21
-36.605228424072266
 31
-0.20000514388084412
  0
LINE
  8
0
 10
38.949180603027344
 20
-36.605228424072266
 30
-0.20000514388084412
 11
39.34423065185547
 21
-36.704185485839844
 31
-0.20000478625297546
  0
LINE
  8
0
 10
39.34423065185547
 20
-36.704185485839844
 30
-0.20000478625297546
 11
39.727684020996094
 21
-36.84138870239258
 31
-0.2000052034854889
  0
LINE
  8
0
 10
39.727684020996094
 20
-36.84138870239258
 30
-0.2000052034854889
 11
40.095848083496094
 21
-37.0155143737793
 31
-0.20000511407852173
  0
LINE
  8
0
 10
40.095848083496094
 20
-37.0155143737793
 30
-0.20000511407852173
 11
40.445167541503906
 21
-37.22488784790039
 31
-0.2000047266483307
  0
LINE
  8
0
 10
40.445167541503906
 20
-37.22488784790039
 30
-0.2000047266483307
 11
40.77228546142578
 21
-37.46749496459961
 31
-0.2000049650669098
  0
LINE
  8
0
 10
40.77228546142578
 20
-37.46749496459961
 30
-0.2000049650669098
 11
41.07404327392578
 21
-37.74099349975586
 31
-0.20000523328781128
  0
LINE
  8
0
 10
41.07404327392578
 20
-37.74099349975586
 30
-0.20000523328781128
 11
41.34754180908203
 21
-38.042755126953125
 31
-0.2000046968460083
  0
LINE
  8
0
 10
41.34754180908203
 20
-38.042755126953125
 30
-0.2000046968460083
 11
41.59015655517578
 21
-38.369869232177734
 31
-0.20000547170639038
  0
LINE
  8
0
 10
41.59015655517578
 20
-38.369869232177734
 30
-0.20000547170639038
 11
41.799522399902344
 21
-38.71918869018555
 31
-0.20000487565994263
  0
LINE
  8
0
 10
41.799522399902344
 20
-38.71918869018555
 30
-0.20000487565994263
 11
41.973655700683594
 21
-39.08734893798828
 31
-0.20000475645065308
  0
LINE
  8
0
 10
41.973655700683594
 20
-39.08734893798828
 30
-0.20000475645065308
 11
42.11085510253906
 21
-39.47080612182617
 31
-0.2000046968460083
  0
LINE
  8
0
 10
42.11085510253906
 20
-39.47080612182617
 30
-0.2000046968460083
 11
42.209815979003906
 21
-39.86586380004883
 31
-0.20000487565994263
  0
LINE
  8
0
 10
42.209815979003906
 20
-39.86586380004883
 30
-0.20000487565994263
 11
42.269569396972656
 21
-40.268714904785156
 31
-0.20000499486923218
  0
LINE
  8
0
 10
42.269569396972656
 20
-40.268714904785156
 30
-0.20000499486923218
 11
42.28955841064453
 21
-40.67548751831055
 31
-0.2000044584274292
  0
LINE
  8
0
 10
42.28955841064453
 20
-40.67548751831055
 30
-0.2000044584274292
 11
42.269569396972656
 21
-41.08225631713867
 31
-0.20000582933425903
  0
LINE
  8
0
 10
42.269569396972656
 20
-41.08225631713867
 30
-0.20000582933425903
 11
42.209815979003906
 21
-41.485111236572266
 31
-0.2000058889389038
  0
LINE
  8
0
 10
42.209815979003906
 20
-41.485111236572266
 30
-0.2000058889389038
 11
42.11085510253906
 21
-41.88016891479492
 31
-0.2000051736831665
  0
LINE
  8
0
 10
42.11085510253906
 20
-41.88016891479492
 30
-0.2000051736831665
 11
41.973655700683594
 21
-42.26362228393555
 31
-0.20000600814819336
  0
LINE
  8
0
 10
41.973655700683594
 20
-42.26362228393555
 30
-0.20000600814819336
 11
41.799522399902344
 21
-42.63178634643555
 31
-0.2000049352645874
  0
LINE
  8
0
 10
41.799522399902344
 20
-42.63178634643555
 30
-0.2000049352645874
 11
41.59015655517578
 21
-42.981101989746094
 31
-0.2000044584274292
  0
LINE
  8
0
 10
41.59015655517578
 20
-42.981101989746094
 30
-0.2000044584274292
 11
41.34754180908203
 21
-43.30821990966797
 31
-0.2000049352645874
  0
LINE
  8
0
 10
41.34754180908203
 20
-43.30821990966797
 30
-0.2000049352645874
 11
41.07404327392578
 21
-43.609981536865234
 31
-0.20000362396240234
  0
LINE
  8
0
 10
41.07404327392578
 20
-43.609981536865234
 30
-0.20000362396240234
 11
40.77228546142578
 21
-43.883480072021484
 31
-0.2000044584274292
  0
LINE
  8
0
 10
40.77228546142578
 20
-43.883480072021484
 30
-0.2000044584274292
 11
40.445167541503906
 21
-44.1260871887207
 31
-0.2000051736831665
  0
LINE
  8
0
 10
40.445167541503906
 20
-44.1260871887207
 30
-0.2000051736831665
 11
40.095848083496094
 21
-44.3354606628418
 31
-0.20000529289245605
  0
LINE
  8
0
 10
40.095848083496094
 20
-44.3354606628418
 30
-0.20000529289245605
 11
39.727684020996094
 21
-44.509586334228516
 31
-0.20000457763671875
  0
LINE
  8
0
 10
39.727684020996094
 20
-44.509586334228516
 30
-0.20000457763671875
 11
39.34423065185547
 21
-44.64678955078125
 31
-0.2000037431716919
  0
LINE
  8
0
 10
39.34423065185547
 20
-44.64678955078125
 30
-0.2000037431716919
 11
38.949180603027344
 21
-44.74574661254883
 31
-0.20000338554382324
  0
LINE
  8
0
 10
38.949180603027344
 20
-44.74574661254883
 30
-0.20000338554382324
 11
38.54632568359375
 21
-44.805503845214844
 31
-0.2000037431716919
  0
LINE
  8
0
 10
38.54632568359375
 20
-44.805503845214844
 30
-0.2000037431716919
 11
38.139549255371094
 21
-44.82548904418945
 31
-0.2000042200088501
  0
LINE
  8
0
 10
38.139549255371094
 20
-44.82548904418945
 30
-0.2000042200088501
 11
37.73278045654297
 21
-44.805503845214844
 31
-0.2000037431716919
  0
LINE
  8
0
 10
37.73278045654297
 20
-44.805503845214844
 30
-0.2000037431716919
 11
37.32992935180664
 21
-44.74574661254883
 31
-0.20000338554382324
  0
LINE
  8
0
 10
37.32992935180664
 20
-44.74574661254883
 30
-0.20000338554382324
 11
36.934871673583984
 21
-44.64678955078125
 31
-0.2000037431716919
  0
LINE
  8
0
 10
36.934871673583984
 20
-44.64678955078125
 30
-0.2000037431716919
 11
36.55141830444336
 21
-44.509586334228516
 31
-0.20000457763671875
  0
LINE
  8
0
 10
36.55141830444336
 20
-44.509586334228516
 30
-0.20000457763671875
 11
36.183258056640625
 21
-44.3354606628418
 31
-0.20000529289245605
  0
LINE
  8
0
 10
36.183258056640625
 20
-44.3354606628418
 30
-0.20000529289245605
 11
35.83393478393555
 21
-44.1260871887207
 31
-0.2000051736831665
  0
LINE
  8
0
 10
35.83393478393555
 20
-44.1260871887207
 30
-0.2000051736831665
 11
35.50682067871094
 21
-43.883480072021484
 31
-0.2000044584274292
  0
LINE
  8
0
 10
35.50682067871094
 20
-43.883480072021484
 30
-0.2000044584274292
 11
35.20505905151367
 21
-43.609981536865234
 31
-0.20000362396240234
  0
LINE
  8
0
 10
35.20505905151367
 20
-43.609981536865234
 30
-0.20000362396240234
 11
34.93156051635742
 21
-43.30821990966797
 31
-0.2000049352645874
  0
LINE
  8
0
 10
34.93156051635742
 20
-43.30821990966797
 30
-0.2000049352645874
 11
34.6889533996582
 21
-42.981101989746094
 31
-0.2000044584274292
  0
LINE
  8
0
 10
34.6889533996582
 20
-42.981101989746094
 30
-0.2000044584274292
 11
34.47957992553711
 21
-42.63178634643555
 31
-0.2000049352645874
  0
LINE
  8
0
 10
34.47957992553711
 20
-42.63178634643555
 30
-0.2000049352645874
 11
34.30545425415039
 21
-42.26362228393555
 31
-0.20000600814819336
  0
LINE
  8
0
 10
34.30545425415039
 20
-42.26362228393555
 30
-0.20000600814819336
 11
34.168251037597656
 21
-41.88016891479492
 31
-0.2000051736831665
  0
LINE
  8
0
 10
34.168251037597656
 20
-41.88016891479492
 30
-0.2000051736831665
 11
34.06929397583008
 21
-41.485111236572266
 31
-0.2000058889389038
  0
LINE
  8
0
 10
34.06929397583008
 20
-41.485111236572266
 30
-0.2000058889389038
 11
34.00953674316406
 21
-41.08225631713867
 31
-0.20000582933425903
  0
LINE
  8
0
 10
34.00953674316406
 20
-41.08225631713867
 30
-0.20000582933425903
 11
33.98955154418945
 21
-40.67548751831055
 31
-0.2000044584274292
  0
LINE
  8
0
 10
33.98955154418945
 20
-40.67548751831055
 30
-0.2000044584274292
 11
34.00953674316406
 21
-40.268714904785156
 31
-0.20000499486923218
  0
LINE
  8
0
 10
34.00953674316406
 20
-40.268714904785156
 30
-0.20000499486923218
 11
34.06929397583008
 21
-39.86586380004883
 31
-0.20000487565994263
  0
LINE
  8
0
 10
34.06929397583008
 20
-39.86586380004883
 30
-0.20000487565994263
 11
34.168251037597656
 21
-39.47080612182617
 31
-0.2000046968460083
  0
LINE
  8
0
 10
34.168251037597656
 20
-39.47080612182617
 30
-0.2000046968460083
 11
34.30545425415039
 21
-39.08734893798828
 31
-0.20000475645065308
  0
LINE
  8
0
 10
34.30545425415039
 20
-39.08734893798828
 30
-0.20000475645065308
 11
34.47957992553711
 21
-38.71918869018555
 31
-0.20000487565994263
  0
LINE
  8
0
 10
34.47957992553711
 20
-38.71918869018555
 30
-0.20000487565994263
 11
34.6889533996582
 21
-38.369869232177734
 31
-0.20000547170639038
  0
LINE
  8
0
 10
34.6889533996582
 20
-38.369869232177734
 30
-0.20000547170639038
 11
34.93156051635742
 21
-38.042755126953125
 31
-0.2000046968460083
  0
LINE
  8
0
 10
34.93156051635742
 20
-38.042755126953125
 30
-0.2000046968460083
 11
35.20505905151367
 21
-37.74099349975586
 31
-0.20000523328781128
  0
LINE
  8
0
 10
35.20505905151367
 20
-37.74099349975586
 30
-0.20000523328781128
 11
35.50682067871094
 21
-37.46749496459961
 31
-0.2000049650669098
  0
LINE
  8
0
 10
35.50682067871094
 20
-37.46749496459961
 30
-0.2000049650669098
 11
35.83393478393555
 21
-37.22488784790039
 31
-0.2000047266483307
  0
LINE
  8
0
 10
35.83393478393555
 20
-37.22488784790039
 30
-0.2000047266483307
 11
36.183258056640625
 21
-37.0155143737793
 31
-0.20000511407852173
  0
LINE
  8
0
 10
36.183258056640625
 20
-37.0155143737793
 30
-0.20000511407852173
 11
36.55141830444336
 21
-36.84138870239258
 31
-0.2000052034854889
  0
LINE
  8
0
 10
36.55141830444336
 20
-36.84138870239258
 30
-0.2000052034854889
 11
36.934871673583984
 21
-36.704185485839844
 31
-0.20000478625297546
  0
LINE
  8
0
 10
36.934871673583984
 20
-36.704185485839844
 30
-0.20000478625297546
 11
37.32992935180664
 21
-36.605228424072266
 31
-0.20000514388084412
  0
LINE
  8
0
 10
37.32992935180664
 20
-36.605228424072266
 30
-0.20000514388084412
 11
37.73278045654297
 21
-36.54547119140625
 31
-0.2000047266483307
  0
LINE
  8
0
 10
38.139549255371094
 20
-36.525489807128906
 30
-0.20000526309013367
 11
37.73278045654297
 21
-36.54547119140625
 31
-0.2000047266483307
  0
LINE
  8
0
 10
59.069419860839844
 20
-10.592435836791992
 30
-0.20000624656677246
 11
59.47618865966797
 21
-10.612415313720703
 31
-0.20000720024108887
  0
LINE
  8
0
 10
59.47618865966797
 20
-10.612415313720703
 30
-0.20000720024108887
 11
59.87903594970703
 21
-10.672176361083984
 31
-0.20000624656677246
  0
LINE
  8
0
 10
59.87903594970703
 20
-10.672176361083984
 30
-0.20000624656677246
 11
60.27410125732422
 21
-10.771134376525879
 31
-0.20000648498535156
  0
LINE
  8
0
 10
60.27410125732422
 20
-10.771134376525879
 30
-0.20000648498535156
 11
60.657554626464844
 21
-10.908332824707031
 31
-0.20000648498535156
  0
LINE
  8
0
 10
60.657554626464844
 20
-10.908332824707031
 30
-0.20000648498535156
 11
61.025718688964844
 21
-11.082462310791016
 31
-0.20000696182250977
  0
LINE
  8
0
 10
61.025718688964844
 20
-11.082462310791016
 30
-0.20000696182250977
 11
61.375038146972656
 21
-11.291831016540527
 31
-0.20000743865966797
  0
LINE
  8
0
 10
61.375038146972656
 20
-11.291831016540527
 30
-0.20000743865966797
 11
61.70215606689453
 21
-11.534440994262695
 31
-0.20000696182250977
  0
LINE
  8
0
 10
61.70215606689453
 20
-11.534440994262695
 30
-0.20000696182250977
 11
62.00391387939453
 21
-11.807943344116211
 31
-0.20000600814819336
  0
LINE
  8
0
 10
62.00391387939453
 20
-11.807943344116211
 30
-0.20000600814819336
 11
62.27741241455078
 21
-12.109704971313477
 31
-0.20000648498535156
  0
LINE
  8
0
 10
62.27741241455078
 20
-12.109704971313477
 30
-0.20000648498535156
 11
62.52001190185547
 21
-12.43681526184082
 31
-0.20000696182250977
  0
LINE
  8
0
 10
62.52001190185547
 20
-12.43681526184082
 30
-0.20000696182250977
 11
62.729393005371094
 21
-12.786139488220215
 31
-0.20000648498535156
  0
LINE
  8
0
 10
62.729393005371094
 20
-12.786139488220215
 30
-0.20000648498535156
 11
62.90351104736328
 21
-13.154300689697266
 31
-0.20000624656677246
  0
LINE
  8
0
 10
62.90351104736328
 20
-13.154300689697266
 30
-0.20000624656677246
 11
63.04071807861328
 21
-13.53775405883789
 31
-0.20000624656677246
  0
LINE
  8
0
 10
63.04071807861328
 20
-13.53775405883789
 30
-0.20000624656677246
 11
63.139671325683594
 21
-13.932812690734863
 31
-0.20000553131103516
  0
LINE
  8
0
 10
63.139671325683594
 20
-13.932812690734863
 30
-0.20000553131103516
 11
63.199440002441406
 21
-14.335661888122559
 31
-0.20000720024108887
  0
LINE
  8
0
 10
63.199440002441406
 20
-14.335661888122559
 30
-0.20000720024108887
 11
63.21941375732422
 21
-14.742436408996582
 31
-0.20000624656677246
  0
LINE
  8
0
 10
63.21941375732422
 20
-14.742436408996582
 30
-0.20000624656677246
 11
63.199440002441406
 21
-15.149209022521973
 31
-0.20000648498535156
  0
LINE
  8
0
 10
63.199440002441406
 20
-15.149209022521973
 30
-0.20000648498535156
 11
63.139671325683594
 21
-15.552059173583984
 31
-0.20000672340393066
  0
LINE
  8
0
 10
63.139671325683594
 20
-15.552059173583984
 30
-0.20000672340393066
 11
63.04071807861328
 21
-15.947118759155273
 31
-0.20000600814819336
  0
LINE
  8
0
 10
63.04071807861328
 20
-15.947118759155273
 30
-0.20000600814819336
 11
62.90351104736328
 21
-16.330570220947266
 31
-0.20000624656677246
  0
LINE
  8
0
 10
62.90351104736328
 20
-16.330570220947266
 30
-0.20000624656677246
 11
62.729393005371094
 21
-16.69873046875
 31
-0.20000624656677246
  0
LINE
  8
0
 10
62.729393005371094
 20
-16.69873046875
 30
-0.20000624656677246
 11
62.52001190185547
 21
-17.048053741455078
 31
-0.20000600814819336
  0
LINE
  8
0
 10
62.52001190185547
 20
-17.048053741455078
 30
-0.20000600814819336
 11
62.27741241455078
 21
-17.375167846679688
 31
-0.20000576972961426
  0
LINE
  8
0
 10
62.27741241455078
 20
-17.375167846679688
 30
-0.20000576972961426
 11
62.00391387939453
 21
-17.67693328857422
 31
-0.20000648498535156
  0
LINE
  8
0
 10
62.00391387939453
 20
-17.67693328857422
 30
-0.20000648498535156
 11
61.70215606689453
 21
-17.950429916381836
 31
-0.20000648498535156
  0
LINE
  8
0
 10
61.70215606689453
 20
-17.950429916381836
 30
-0.20000648498535156
 11
61.375038146972656
 21
-18.193038940429688
 31
-0.20000648498535156
  0
LINE
  8
0
 10
61.375038146972656
 20
-18.193038940429688
 30
-0.20000648498535156
 11
61.025718688964844
 21
-18.402414321899414
 31
-0.20000648498535156
  0
LINE
  8
0
 10
61.025718688964844
 20
-18.402414321899414
 30
-0.20000648498535156
 11
60.657554626464844
 21
-18.576539993286133
 31
-0.20000672340393066
  0
LINE
  8
0
 10
60.657554626464844
 20
-18.576539993286133
 30
-0.20000672340393066
 11
60.27410125732422
 21
-18.713741302490234
 31
-0.20000624656677246
  0
LINE
  8
0
 10
60.27410125732422
 20
-18.713741302490234
 30
-0.20000624656677246
 11
59.87903594970703
 21
-18.812694549560547
 31
-0.20000529289245605
  0
LINE
  8
0
 10
59.87903594970703
 20
-18.812694549560547
 30
-0.20000529289245605
 11
59.47618865966797
 21
-18.87245750427246
 31
-0.20000600814819336
  0
LINE
  8
0
 10
59.47618865966797
 20
-18.87245750427246
 30
-0.20000600814819336
 11
59.069419860839844
 21
-18.892436981201172
 31
-0.20000600814819336
  0
LINE
  8
0
 10
59.069419860839844
 20
-18.892436981201172
 30
-0.20000600814819336
 11
58.66265106201172
 21
-18.87245750427246
 31
-0.20000600814819336
  0
LINE
  8
0
 10
58.66265106201172
 20
-18.87245750427246
 30
-0.20000600814819336
 11
58.259788513183594
 21
-18.812694549560547
 31
-0.20000529289245605
  0
LINE
  8
0
 10
58.259788513183594
 20
-18.812694549560547
 30
-0.20000529289245605
 11
57.86473846435547
 21
-18.713741302490234
 31
-0.20000624656677246
  0
LINE
  8
0
 10
57.86473846435547
 20
-18.713741302490234
 30
-0.20000624656677246
 11
57.481285095214844
 21
-18.576539993286133
 31
-0.20000672340393066
  0
LINE
  8
0
 10
57.481285095214844
 20
-18.576539993286133
 30
-0.20000672340393066
 11
57.113121032714844
 21
-18.402414321899414
 31
-0.20000648498535156
  0
LINE
  8
0
 10
57.113121032714844
 20
-18.402414321899414
 30
-0.20000648498535156
 11
56.76380157470703
 21
-18.193038940429688
 31
-0.20000648498535156
  0
LINE
  8
0
 10
56.76380157470703
 20
-18.193038940429688
 30
-0.20000648498535156
 11
56.436683654785156
 21
-17.950429916381836
 31
-0.20000648498535156
  0
LINE
  8
0
 10
56.436683654785156
 20
-17.950429916381836
 30
-0.20000648498535156
 11
56.134925842285156
 21
-17.67693328857422
 31
-0.20000648498535156
  0
LINE
  8
0
 10
56.134925842285156
 20
-17.67693328857422
 30
-0.20000648498535156
 11
55.861427307128906
 21
-17.375167846679688
 31
-0.20000576972961426
  0
LINE
  8
0
 10
55.861427307128906
 20
-17.375167846679688
 30
-0.20000576972961426
 11
55.618812561035156
 21
-17.048053741455078
 31
-0.20000600814819336
  0
LINE
  8
0
 10
55.618812561035156
 20
-17.048053741455078
 30
-0.20000600814819336
 11
55.409446716308594
 21
-16.69873046875
 31
-0.20000624656677246
  0
LINE
  8
0
 10
55.409446716308594
 20
-16.69873046875
 30
-0.20000624656677246
 11
55.235313415527344
 21
-16.330570220947266
 31
-0.20000624656677246
  0
LINE
  8
0
 10
55.235313415527344
 20
-16.330570220947266
 30
-0.20000624656677246
 11
55.098114013671875
 21
-15.947118759155273
 31
-0.20000600814819336
  0
LINE
  8
0
 10
55.098114013671875
 20
-15.947118759155273
 30
-0.20000600814819336
 11
54.99916076660156
 21
-15.552059173583984
 31
-0.20000672340393066
  0
LINE
  8
0
 10
54.99916076660156
 20
-15.552059173583984
 30
-0.20000672340393066
 11
54.93939971923828
 21
-15.149209022521973
 31
-0.20000648498535156
  0
LINE
  8
0
 10
54.93939971923828
 20
-15.149209022521973
 30
-0.20000648498535156
 11
54.91941833496094
 21
-14.742436408996582
 31
-0.20000624656677246
  0
LINE
  8
0
 10
54.91941833496094
 20
-14.742436408996582
 30
-0.20000624656677246
 11
54.93939971923828
 21
-14.335661888122559
 31
-0.20000720024108887
  0
LINE
  8
0
 10
54.93939971923828
 20
-14.335661888122559
 30
-0.20000720024108887
 11
54.99916076660156
 21
-13.932812690734863
 31
-0.20000553131103516
  0
LINE
  8
0
 10
54.99916076660156
 20
-13.932812690734863
 30
-0.20000553131103516
 11
55.098114013671875
 21
-13.53775405883789
 31
-0.20000624656677246
  0
LINE
  8
0
 10
55.098114013671875
 20
-13.53775405883789
 30
-0.20000624656677246
 11
55.235313415527344
 21
-13.154300689697266
 31
-0.20000624656677246
  0
LINE
  8
0
 10
55.235313415527344
 20
-13.154300689697266
 30
-0.20000624656677246
 11
55.409446716308594
 21
-12.786139488220215
 31
-0.20000648498535156
  0
LINE
  8
0
 10
55.409446716308594
 20
-12.786139488220215
 30
-0.20000648498535156
 11
55.618812561035156
 21
-12.43681526184082
 31
-0.20000696182250977
  0
LINE
  8
0
 10
55.618812561035156
 20
-12.43681526184082
 30
-0.20000696182250977
 11
55.861427307128906
 21
-12.109704971313477
 31
-0.20000648498535156
  0
LINE
  8
0
 10
55.861427307128906
 20
-12.109704971313477
 30
-0.20000648498535156
 11
56.134925842285156
 21
-11.807943344116211
 31
-0.20000600814819336
  0
LINE
  8
0
 10
56.134925842285156
 20
-11.807943344116211
 30
-0.20000600814819336
 11
56.436683654785156
 21
-11.534440994262695
 31
-0.20000696182250977
  0
LINE
  8
0
 10
56.436683654785156
 20
-11.534440994262695
 30
-0.20000696182250977
 11
56.76380157470703
 21
-11.291831016540527
 31
-0.20000743865966797
  0
LINE
  8
0
 10
56.76380157470703
 20
-11.291831016540527
 30
-0.20000743865966797
 11
57.113121032714844
 21
-11.082462310791016
 31
-0.20000696182250977
  0
LINE
  8
0
 10
57.113121032714844
 20
-11.082462310791016
 30
-0.20000696182250977
 11
57.481285095214844
 21
-10.908332824707031
 31
-0.20000648498535156
  0
LINE
  8
0
 10
57.481285095214844
 20
-10.908332824707031
 30
-0.20000648498535156
 11
57.86473846435547
 21
-10.771134376525879
 31
-0.20000648498535156
  0
LINE
  8
0
 10
57.86473846435547
 20
-10.771134376525879
 30
-0.20000648498535156
 11
58.259788513183594
 21
-10.672176361083984
 31
-0.20000624656677246
  0
LINE
  8
0
 10
58.259788513183594
 20
-10.672176361083984
 30
-0.20000624656677246
 11
58.66265106201172
 21
-10.612415313720703
 31
-0.20000720024108887
  0
LINE
  8
0
 10
59.069419860839844
 20
-10.592435836791992
 30
-0.20000624656677246
 11
58.66265106201172
 21
-10.612415313720703
 31
-0.20000720024108887
  0
LINE
  8
0
 10
-46.232540130615234
 20
-4.25860071182251
 30
-0.20000696182250977
 11
-45.825767517089844
 21
-4.278578758239746
 31
-0.20000696182250977
  0
LINE
  8
0
 10
-45.825767517089844
 20
-4.278578758239746
 30
-0.20000696182250977
 11
-45.422916412353516
 21
-4.338339328765869
 31
-0.20000696182250977
  0
LINE
  8
0
 10
-45.422916412353516
 20
-4.338339328765869
 30
-0.20000696182250977
 11
-45.02785873413086
 21
-4.437297821044922
 31
-0.20000743865966797
  0
LINE
  8
0
 10
-45.02785873413086
 20
-4.437297821044922
 30
-0.20000743865966797
 11
-44.644405364990234
 21
-4.574497699737549
 31
-0.20000743865966797
  0
LINE
  8
0
 10
-44.644405364990234
 20
-4.574497699737549
 30
-0.20000743865966797
 11
-44.2762451171875
 21
-4.748627662658691
 31
-0.20000696182250977
  0
LINE
  8
0
 10
-44.2762451171875
 20
-4.748627662658691
 30
-0.20000696182250977
 11
-43.92692184448242
 21
-4.957995414733887
 31
-0.20000743865966797
  0
LINE
  8
0
 10
-43.92692184448242
 20
-4.957995414733887
 30
-0.20000743865966797
 11
-43.59980773925781
 21
-5.200606346130371
 31
-0.20000696182250977
  0
LINE
  8
0
 10
-43.59980773925781
 20
-5.200606346130371
 30
-0.20000696182250977
 11
-43.29804611206055
 21
-5.474102973937988
 31
-0.20000743865966797
  0
LINE
  8
0
 10
-43.29804611206055
 20
-5.474102973937988
 30
-0.20000743865966797
 11
-43.0245475769043
 21
-5.77586555480957
 31
-0.20000696182250977
  0
LINE
  8
0
 10
-43.0245475769043
 20
-5.77586555480957
 30
-0.20000696182250977
 11
-42.78194046020508
 21
-6.1029815673828125
 31
-0.20000648498535156
  0
LINE
  8
0
 10
-42.78194046020508
 20
-6.1029815673828125
 30
-0.20000648498535156
 11
-42.572566986083984
 21
-6.452302932739258
 31
-0.20000743865966797
  0
LINE
  8
0
 10
-42.572566986083984
 20
-6.452302932739258
 30
-0.20000743865966797
 11
-42.398441314697266
 21
-6.820464134216309
 31
-0.20000648498535156
  0
LINE
  8
0
 10
-42.398441314697266
 20
-6.820464134216309
 30
-0.20000648498535156
 11
-42.26123809814453
 21
-7.203919410705566
 31
-0.20000648498535156
  0
LINE
  8
0
 10
-42.26123809814453
 20
-7.203919410705566
 30
-0.20000648498535156
 11
-42.16228103637695
 21
-7.598976135253906
 31
-0.20000743865966797
  0
LINE
  8
0
 10
-42.16228103637695
 20
-7.598976135253906
 30
-0.20000743865966797
 11
-42.10252380371094
 21
-8.001825332641602
 31
-0.20000743865966797
  0
LINE
  8
0
 10
-42.10252380371094
 20
-8.001825332641602
 30
-0.20000743865966797
 11
-42.082542419433594
 21
-8.408600807189941
 31
-0.20000696182250977
  0
LINE
  8
0
 10
-42.082542419433594
 20
-8.408600807189941
 30
-0.20000696182250977
 11
-42.10252380371094
 21
-8.8153715133667
 31
-0.20000624656677246
  0
LINE
  8
0
 10
-42.10252380371094
 20
-8.8153715133667
 30
-0.20000624656677246
 11
-42.16228103637695
 21
-9.21822452545166
 31
-0.20000672340393066
  0
LINE
  8
0
 10
-42.16228103637695
 20
-9.21822452545166
 30
-0.20000672340393066
 11
-42.26123809814453
 21
-9.61328125
 31
-0.20000672340393066
  0
LINE
  8
0
 10
-42.26123809814453
 20
-9.61328125
 30
-0.20000672340393066
 11
-42.398441314697266
 21
-9.99673080444336
 31
-0.20000672340393066
  0
LINE
  8
0
 10
-42.398441314697266
 20
-9.99673080444336
 30
-0.20000672340393066
 11
-42.572566986083984
 21
-10.364895820617676
 31
-0.20000600814819336
  0
LINE
  8
0
 10
-42.572566986083984
 20
-10.364895820617676
 30
-0.20000600814819336
 11
-42.78194046020508
 21
-10.714221000671387
 31
-0.20000648498535156
  0
LINE
  8
0
 10
-42.78194046020508
 20
-10.714221000671387
 30
-0.20000648498535156
 11
-43.0245475769043
 21
-11.041333198547363
 31
-0.20000648498535156
  0
LINE
  8
0
 10
-43.0245475769043
 20
-11.041333198547363
 30
-0.20000648498535156
 11
-43.29804611206055
 21
-11.343093872070312
 31
-0.20000600814819336
  0
LINE
  8
0
 10
-43.29804611206055
 20
-11.343093872070312
 30
-0.20000600814819336
 11
-43.59980773925781
 21
-11.616592407226562
 31
-0.20000672340393066
  0
LINE
  8
0
 10
-43.59980773925781
 20
-11.616592407226562
 30
-0.20000672340393066
 11
-43.92692184448242
 21
-11.859198570251465
 31
-0.20000600814819336
  0
LINE
  8
0
 10
-43.92692184448242
 20
-11.859198570251465
 30
-0.20000600814819336
 11
-44.2762451171875
 21
-12.068574905395508
 31
-0.20000600814819336
  0
LINE
  8
0
 10
-44.2762451171875
 20
-12.068574905395508
 30
-0.20000600814819336
 11
-44.644405364990234
 21
-12.242698669433594
 31
-0.20000648498535156
  0
LINE
  8
0
 10
-44.644405364990234
 20
-12.242698669433594
 30
-0.20000648498535156
 11
-45.02785873413086
 21
-12.379900932312012
 31
-0.20000672340393066
  0
LINE
  8
0
 10
-45.02785873413086
 20
-12.379900932312012
 30
-0.20000672340393066
 11
-45.422916412353516
 21
-12.47885513305664
 31
-0.20000767707824707
  0
LINE
  8
0
 10
-45.422916412353516
 20
-12.47885513305664
 30
-0.20000767707824707
 11
-45.825767517089844
 21
-12.538616180419922
 31
-0.20000672340393066
  0
LINE
  8
0
 10
-45.825767517089844
 20
-12.538616180419922
 30
-0.20000672340393066
 11
-46.232540130615234
 21
-12.558601379394531
 31
-0.20000696182250977
  0
LINE
  8
0
 10
-46.232540130615234
 20
-12.558601379394531
 30
-0.20000696182250977
 11
-46.639312744140625
 21
-12.538616180419922
 31
-0.20000672340393066
  0
LINE
  8
0
 10
-46.639312744140625
 20
-12.538616180419922
 30
-0.20000672340393066
 11
-47.04216384887695
 21
-12.47885513305664
 31
-0.20000767707824707
  0
LINE
  8
0
 10
-47.04216384887695
 20
-12.47885513305664
 30
-0.20000767707824707
 11
-47.43722152709961
 21
-12.379900932312012
 31
-0.20000672340393066
  0
LINE
  8
0
 10
-47.43722152709961
 20
-12.379900932312012
 30
-0.20000672340393066
 11
-47.820674896240234
 21
-12.242698669433594
 31
-0.20000648498535156
  0
LINE
  8
0
 10
-47.820674896240234
 20
-12.242698669433594
 30
-0.20000648498535156
 11
-48.18883514404297
 21
-12.068574905395508
 31
-0.20000600814819336
  0
LINE
  8
0
 10
-48.18883514404297
 20
-12.068574905395508
 30
-0.20000600814819336
 11
-48.53815841674805
 21
-11.859198570251465
 31
-0.20000600814819336
  0
LINE
  8
0
 10
-48.53815841674805
 20
-11.859198570251465
 30
-0.20000600814819336
 11
-48.865272521972656
 21
-11.616592407226562
 31
-0.20000672340393066
  0
LINE
  8
0
 10
-48.865272521972656
 20
-11.616592407226562
 30
-0.20000672340393066
 11
-49.16703414916992
 21
-11.343093872070312
 31
-0.20000600814819336
  0
LINE
  8
0
 10
-49.16703414916992
 20
-11.343093872070312
 30
-0.20000600814819336
 11
-49.44053268432617
 21
-11.041333198547363
 31
-0.20000648498535156
  0
LINE
  8
0
 10
-49.44053268432617
 20
-11.041333198547363
 30
-0.20000648498535156
 11
-49.68313980102539
 21
-10.714221000671387
 31
-0.20000648498535156
  0
LINE
  8
0
 10
-49.68313980102539
 20
-10.714221000671387
 30
-0.20000648498535156
 11
-49.892513275146484
 21
-10.364895820617676
 31
-0.20000600814819336
  0
LINE
  8
0
 10
-49.892513275146484
 20
-10.364895820617676
 30
-0.20000600814819336
 11
-50.0666389465332
 21
-9.99673080444336
 31
-0.20000672340393066
  0
LINE
  8
0
 10
-50.0666389465332
 20
-9.99673080444336
 30
-0.20000672340393066
 11
-50.20384216308594
 21
-9.61328125
 31
-0.20000672340393066
  0
LINE
  8
0
 10
-50.20384216308594
 20
-9.61328125
 30
-0.20000672340393066
 11
-50.302799224853516
 21
-9.21822452545166
 31
-0.20000672340393066
  0
LINE
  8
0
 10
-50.302799224853516
 20
-9.21822452545166
 30
-0.20000672340393066
 11
-50.36255645751953
 21
-8.8153715133667
 31
-0.20000624656677246
  0
LINE
  8
0
 10
-50.36255645751953
 20
-8.8153715133667
 30
-0.20000624656677246
 11
-50.38254165649414
 21
-8.408600807189941
 31
-0.20000696182250977
  0
LINE
  8
0
 10
-50.38254165649414
 20
-8.408600807189941
 30
-0.20000696182250977
 11
-50.36255645751953
 21
-8.001825332641602
 31
-0.20000743865966797
  0
LINE
  8
0
 10
-50.36255645751953
 20
-8.001825332641602
 30
-0.20000743865966797
 11
-50.302799224853516
 21
-7.598976135253906
 31
-0.20000743865966797
  0
LINE
  8
0
 10
-50.302799224853516
 20
-7.598976135253906
 30
-0.20000743865966797
 11
-50.20384216308594
 21
-7.203919410705566
 31
-0.20000648498535156
  0
LINE
  8
0
 10
-50.20384216308594
 20
-7.203919410705566
 30
-0.20000648498535156
 11
-50.0666389465332
 21
-6.820464134216309
 31
-0.20000648498535156
  0
LINE
  8
0
 10
-50.0666389465332
 20
-6.820464134216309
 30
-0.20000648498535156
 11
-49.892513275146484
 21
-6.452302932739258
 31
-0.20000743865966797
  0
LINE
  8
0
 10
-49.892513275146484
 20
-6.452302932739258
 30
-0.20000743865966797
 11
-49.68313980102539
 21
-6.1029815673828125
 31
-0.20000648498535156
  0
LINE
  8
0
 10
-49.68313980102539
 20
-6.1029815673828125
 30
-0.20000648498535156
 11
-49.44053268432617
 21
-5.77586555480957
 31
-0.20000696182250977
  0
LINE
  8
0
 10
-49.44053268432617
 20
-5.77586555480957
 30
-0.20000696182250977
 11
-49.16703414916992
 21
-5.474102973937988
 31
-0.20000743865966797
  0
LINE
  8
0
 10
-49.16703414916992
 20
-5.474102973937988
 30
-0.20000743865966797
 11
-48.865272521972656
 21
-5.200606346130371
 31
-0.20000696182250977
  0
LINE
  8
0
 10
-48.865272521972656
 20
-5.200606346130371
 30
-0.20000696182250977
 11
-48.53815841674805
 21
-4.957995414733887
 31
-0.20000743865966797
  0
LINE
  8
0
 10
-48.53815841674805
 20
-4.957995414733887
 30
-0.20000743865966797
 11
-48.18883514404297
 21
-4.748627662658691
 31
-0.20000696182250977
  0
LINE
  8
0
 10
-48.18883514404297
 20
-4.748627662658691
 30
-0.20000696182250977
 11
-47.820674896240234
 21
-4.574497699737549
 31
-0.20000743865966797
  0
LINE
  8
0
 10
-47.820674896240234
 20
-4.574497699737549
 30
-0.20000743865966797
 11
-47.43722152709961
 21
-4.437297821044922
 31
-0.20000743865966797
  0
LINE
  8
0
 10
-47.43722152709961
 20
-4.437297821044922
 30
-0.20000743865966797
 11
-47.04216384887695
 21
-4.338339328765869
 31
-0.20000696182250977
  0
LINE
  8
0
 10
-47.04216384887695
 20
-4.338339328765869
 30
-0.20000696182250977
 11
-46.639312744140625
 21
-4.278578758239746
 31
-0.20000696182250977
  0
LINE
  8
0
 10
-46.232540130615234
 20
-4.25860071182251
 30
-0.20000696182250977
 11
-46.639312744140625
 21
-4.278578758239746
 31
-0.20000696182250977
  0
LINE
  8
0
 10
7.574634552001953
 20
14.643697738647461
 30
-0.20000886917114258
 11
7.981407165527344
 21
14.62370777130127
 31
-0.20000743865966797
  0
LINE
  8
0
 10
7.981407165527344
 20
14.62370777130127
 30
-0.20000743865966797
 11
8.384262084960938
 21
14.563953399658203
 31
-0.20000839233398438
  0
LINE
  8
0
 10
8.384262084960938
 20
14.563953399658203
 30
-0.20000839233398438
 11
8.779315948486328
 21
14.46499252319336
 31
-0.20000743865966797
  0
LINE
  8
0
 10
8.779315948486328
 20
14.46499252319336
 30
-0.20000743865966797
 11
9.162773132324219
 21
14.32779312133789
 31
-0.20000791549682617
  0
LINE
  8
0
 10
9.162773132324219
 20
14.32779312133789
 30
-0.20000791549682617
 11
9.530933380126953
 21
14.153671264648438
 31
-0.20000791549682617
  0
LINE
  8
0
 10
9.530933380126953
 20
14.153671264648438
 30
-0.20000791549682617
 11
9.880252838134766
 21
13.94428539276123
 31
-0.20000791549682617
  0
LINE
  8
0
 10
9.880252838134766
 20
13.94428539276123
 30
-0.20000791549682617
 11
10.207366943359375
 21
13.701687812805176
 31
-0.20000839233398438
  0
LINE
  8
0
 10
10.207366943359375
 20
13.701687812805176
 30
-0.20000839233398438
 11
10.50912857055664
 21
13.428179740905762
 31
-0.20000743865966797
  0
LINE
  8
0
 10
10.50912857055664
 20
13.428179740905762
 30
-0.20000743865966797
 11
10.78262710571289
 21
13.126422882080078
 31
-0.20000791549682617
  0
LINE
  8
0
 10
10.78262710571289
 20
13.126422882080078
 30
-0.20000791549682617
 11
11.02523422241211
 21
12.799306869506836
 31
-0.20000791549682617
  0
LINE
  8
0
 10
11.02523422241211
 20
12.799306869506836
 30
-0.20000791549682617
 11
11.234607696533203
 21
12.449991226196289
 31
-0.20000743865966797
  0
LINE
  8
0
 10
11.234607696533203
 20
12.449991226196289
 30
-0.20000743865966797
 11
11.408737182617188
 21
12.08182430267334
 31
-0.20000791549682617
  0
LINE
  8
0
 10
11.408737182617188
 20
12.08182430267334
 30
-0.20000791549682617
 11
11.545936584472656
 21
11.698375701904297
 31
-0.20000791549682617
  0
LINE
  8
0
 10
11.545936584472656
 20
11.698375701904297
 30
-0.20000791549682617
 11
11.644893646240234
 21
11.303316116333008
 31
-0.20000839233398438
  0
LINE
  8
0
 10
11.644893646240234
 20
11.303316116333008
 30
-0.20000839233398438
 11
11.70465087890625
 21
10.900464057922363
 31
-0.20000743865966797
  0
LINE
  8
0
 10
11.70465087890625
 20
10.900464057922363
 30
-0.20000743865966797
 11
11.72463607788086
 21
10.493693351745605
 31
-0.20000743865966797
  0
LINE
  8
0
 10
11.72463607788086
 20
10.493693351745605
 30
-0.20000743865966797
 11
11.70465087890625
 21
10.086915016174316
 31
-0.20000839233398438
  0
LINE
  8
0
 10
11.70465087890625
 20
10.086915016174316
 30
-0.20000839233398438
 11
11.644893646240234
 21
9.684069633483887
 31
-0.20000839233398438
  0
LINE
  8
0
 10
11.644893646240234
 20
9.684069633483887
 30
-0.20000839233398438
 11
11.545936584472656
 21
9.289011001586914
 31
-0.20000839233398438
  0
LINE
  8
0
 10
11.545936584472656
 20
9.289011001586914
 30
-0.20000839233398438
 11
11.408737182617188
 21
8.905553817749023
 31
-0.20000743865966797
  0
LINE
  8
0
 10
11.408737182617188
 20
8.905553817749023
 30
-0.20000743865966797
 11
11.234607696533203
 21
8.537394523620605
 31
-0.20000791549682617
  0
LINE
  8
0
 10
11.234607696533203
 20
8.537394523620605
 30
-0.20000791549682617
 11
11.02523422241211
 21
8.188072204589844
 31
-0.20000696182250977
  0
LINE
  8
0
 10
11.02523422241211
 20
8.188072204589844
 30
-0.20000696182250977
 11
10.78262710571289
 21
7.860955715179443
 31
-0.20000648498535156
  0
LINE
  8
0
 10
10.78262710571289
 20
7.860955715179443
 30
-0.20000648498535156
 11
10.50912857055664
 21
7.559194564819336
 31
-0.20000791549682617
  0
LINE
  8
0
 10
10.50912857055664
 20
7.559194564819336
 30
-0.20000791549682617
 11
10.207366943359375
 21
7.285697937011719
 31
-0.20000743865966797
  0
LINE
  8
0
 10
10.207366943359375
 20
7.285697937011719
 30
-0.20000743865966797
 11
9.880252838134766
 21
7.043089389801025
 31
-0.20000791549682617
  0
LINE
  8
0
 10
9.880252838134766
 20
7.043089389801025
 30
-0.20000791549682617
 11
9.530933380126953
 21
6.833723068237305
 31
-0.20000839233398438
  0
LINE
  8
0
 10
9.530933380126953
 20
6.833723068237305
 30
-0.20000839233398438
 11
9.162773132324219
 21
6.65959358215332
 31
-0.20000696182250977
  0
LINE
  8
0
 10
9.162773132324219
 20
6.65959358215332
 30
-0.20000696182250977
 11
8.779315948486328
 21
6.5223894119262695
 31
-0.20000696182250977
  0
LINE
  8
0
 10
8.779315948486328
 20
6.5223894119262695
 30
-0.20000696182250977
 11
8.384262084960938
 21
6.423429489135742
 31
-0.20000743865966797
  0
LINE
  8
0
 10
8.384262084960938
 20
6.423429489135742
 30
-0.20000743865966797
 11
7.981407165527344
 21
6.363674640655518
 31
-0.20000791549682617
  0
LINE
  8
0
 10
7.981407165527344
 20
6.363674640655518
 30
-0.20000791549682617
 11
7.574634552001953
 21
6.343692302703857
 31
-0.20000743865966797
  0
LINE
  8
0
 10
7.574634552001953
 20
6.343692302703857
 30
-0.20000743865966797
 11
7.167865753173828
 21
6.363674640655518
 31
-0.20000791549682617
  0
LINE
  8
0
 10
7.167865753173828
 20
6.363674640655518
 30
-0.20000791549682617
 11
6.765010833740234
 21
6.423429489135742
 31
-0.20000743865966797
  0
LINE
  8
0
 10
6.765010833740234
 20
6.423429489135742
 30
-0.20000743865966797
 11
6.369953155517578
 21
6.5223894119262695
 31
-0.20000696182250977
  0
LINE
  8
0
 10
6.369953155517578
 20
6.5223894119262695
 30
-0.20000696182250977
 11
5.986499786376953
 21
6.65959358215332
 31
-0.20000696182250977
  0
LINE
  8
0
 10
5.986499786376953
 20
6.65959358215332
 30
-0.20000696182250977
 11
5.618339538574219
 21
6.833723068237305
 31
-0.20000839233398438
  0
LINE
  8
0
 10
5.618339538574219
 20
6.833723068237305
 30
-0.20000839233398438
 11
5.269020080566406
 21
7.043089389801025
 31
-0.20000791549682617
  0
LINE
  8
0
 10
5.269020080566406
 20
7.043089389801025
 30
-0.20000791549682617
 11
4.941904067993164
 21
7.285697937011719
 31
-0.20000743865966797
  0
LINE
  8
0
 10
4.941904067993164
 20
7.285697937011719
 30
-0.20000743865966797
 11
4.640142440795898
 21
7.559194564819336
 31
-0.20000791549682617
  0
LINE
  8
0
 10
4.640142440795898
 20
7.559194564819336
 30
-0.20000791549682617
 11
4.366641998291016
 21
7.860955715179443
 31
-0.20000648498535156
  0
LINE
  8
0
 10
4.366641998291016
 20
7.860955715179443
 30
-0.20000648498535156
 11
4.12403678894043
 21
8.188072204589844
 31
-0.20000696182250977
  0
LINE
  8
0
 10
4.12403678894043
 20
8.188072204589844
 30
-0.20000696182250977
 11
3.914663314819336
 21
8.537394523620605
 31
-0.20000791549682617
  0
LINE
  8
0
 10
3.914663314819336
 20
8.537394523620605
 30
-0.20000791549682617
 11
3.7405357360839844
 21
8.905553817749023
 31
-0.20000743865966797
  0
LINE
  8
0
 10
3.7405357360839844
 20
8.905553817749023
 30
-0.20000743865966797
 11
3.603334426879883
 21
9.289011001586914
 31
-0.20000839233398438
  0
LINE
  8
0
 10
3.603334426879883
 20
9.289011001586914
 30
-0.20000839233398438
 11
3.5043773651123047
 21
9.684069633483887
 31
-0.20000839233398438
  0
LINE
  8
0
 10
3.5043773651123047
 20
9.684069633483887
 30
-0.20000839233398438
 11
3.444620132446289
 21
10.086915016174316
 31
-0.20000839233398438
  0
LINE
  8
0
 10
3.444620132446289
 20
10.086915016174316
 30
-0.20000839233398438
 11
3.4246368408203125
 21
10.493693351745605
 31
-0.20000743865966797
  0
LINE
  8
0
 10
3.4246368408203125
 20
10.493693351745605
 30
-0.20000743865966797
 11
3.444620132446289
 21
10.900464057922363
 31
-0.20000743865966797
  0
LINE
  8
0
 10
3.444620132446289
 20
10.900464057922363
 30
-0.20000743865966797
 11
3.5043773651123047
 21
11.303316116333008
 31
-0.20000839233398438
  0
LINE
  8
0
 10
3.5043773651123047
 20
11.303316116333008
 30
-0.20000839233398438
 11
3.603334426879883
 21
11.698375701904297
 31
-0.20000791549682617
  0
LINE
  8
0
 10
3.603334426879883
 20
11.698375701904297
 30
-0.20000791549682617
 11
3.7405357360839844
 21
12.08182430267334
 31
-0.20000791549682617
  0
LINE
  8
0
 10
3.7405357360839844
 20
12.08182430267334
 30
-0.20000791549682617
 11
3.914663314819336
 21
12.449991226196289
 31
-0.20000743865966797
  0
LINE
  8
0
 10
3.914663314819336
 20
12.449991226196289
 30
-0.20000743865966797
 11
4.12403678894043
 21
12.799306869506836
 31
-0.20000791549682617
  0
LINE
  8
0
 10
4.12403678894043
 20
12.799306869506836
 30
-0.20000791549682617
 11
4.366641998291016
 21
13.126422882080078
 31
-0.20000791549682617
  0
LINE
  8
0
 10
4.366641998291016
 20
13.126422882080078
 30
-0.20000791549682617
 11
4.640142440795898
 21
13.428179740905762
 31
-0.20000743865966797
  0
LINE
  8
0
 10
4.640142440795898
 20
13.428179740905762
 30
-0.20000743865966797
 11
4.941904067993164
 21
13.701687812805176
 31
-0.20000839233398438
  0
LINE
  8
0
 10
4.941904067993164
 20
13.701687812805176
 30
-0.20000839233398438
 11
5.269020080566406
 21
13.94428539276123
 31
-0.20000791549682617
  0
LINE
  8
0
 10
5.269020080566406
 20
13.94428539276123
 30
-0.20000791549682617
 11
5.618339538574219
 21
14.153671264648438
 31
-0.20000791549682617
  0
LINE
  8
0
 10
5.618339538574219
 20
14.153671264648438
 30
-0.20000791549682617
 11
5.986499786376953
 21
14.32779312133789
 31
-0.20000791549682617
  0
LINE
  8
0
 10
5.986499786376953
 20
14.32779312133789
 30
-0.20000791549682617
 11
6.369953155517578
 21
14.46499252319336
 31
-0.20000743865966797
  0
LINE
  8
0
 10
6.369953155517578
 20
14.46499252319336
 30
-0.20000743865966797
 11
6.765010833740234
 21
14.563953399658203
 31
-0.20000839233398438
  0
LINE
  8
0
 10
6.765010833740234
 20
14.563953399658203
 30
-0.20000839233398438
 11
7.167865753173828
 21
14.62370777130127
 31
-0.20000743865966797
  0
LINE
  8
0
 10
7.574634552001953
 20
14.643697738647461
 30
-0.20000886917114258
 11
7.167865753173828
 21
14.62370777130127
 31
-0.20000743865966797
  0
ENDSEC
  0
EOF
