  0
SECTION
  2
HEADER
  9
$ACADVER
  1
AC1009
  9
$INSBASE
 10
0.0
 20
0.0
 30
0.0
  9
$EXTMIN
 10
0.0
 20
0.0
 30
0.0
  9
$EXTMAX
 10
0.0
 20
0.0
 30
0.0
  0
ENDSEC
  0
SECTION
  2
TABLES
  0
TABLE
  2
VPORT
 70
1
  0
VPORT
  2
*ACTIVE
 70
0
 10
0.0
 20
0.0
 11
1.0
 21
1.0
 12
-5.0
 22
1.0
 13
0.0
 23
0.0
 14
0.1
 24
0.1
 15
0.1
 25
0.1
 16
0.0
 26
0.0
 36
1.0
 17
0.0
 27
0.0
 37
0.0
 40
10.0
 41
1.0
 42
50.0
 43
0.0
 44
0.0
 50
0.0
 51
0.0
 71
0
 72
100
 73
1
 74
1
 75
0
 76
0
 77
0
 78
0
  0
ENDTAB
  0
TABLE
  2
LTYPE
 70
8
  0
LTYPE
  2
CONTINUOUS
 70
0
  3
Solid line
 72
65
 73
0
 40
0.0
  0
LTYPE
  2
DOT
 70
0
  3
. . . . . . .
 72
65
 73
2
 40
0.25
 49
0.0
 49
-0.25
  0
LTYPE
  2
DASHED
 70
0
  3
__ __ __ __ __
 72
65
 73
2
 40
0.8
 49
0.5
 49
-0.3
  0
LTYPE
  2
DASHDOT
 70
0
  3
__ . __ . __ .
 72
65
 73
4
 40
1.0
 49
0.5
 49
-0.25
 49
0.0
 49
-0.25
  0
LTYPE
  2
DIVIDE
 70
0
  3
____ . . ____ . . 
 72
65
 73
6
 40
1.25
 49
0.5
 49
-0.25
 49
0.0
 49
-0.25
 49
0.0
 49
-0.25
  0
LTYPE
  2
BORDER
 70
0
  3
__ __ . __ __ . 
 72
65
 73
6
 40
1.75
 49
0.5
 49
-0.25
 49
0.5
 49
-0.25
 49
0.0
 49
-0.25
  0
LTYPE
  2
HIDDEN
 70
0
  3
__ __ __ __ __
 72
65
 73
2
 40
0.4
 49
0.25
 49
-0.25
  0
LTYPE
  2
CENTER
 70
0
  3
____ _ ____ _ __
 72
65
 73
4
 40
2.0
 49
1.25
 49
-0.25
 49
0.25
 49
-0.25
  0
ENDTAB
  0
TABLE
  2
LAYER
 70
1
  0
LAYER
  2
PYDXF
 70
64
 62
7
  6
continuous
  0
ENDTAB
  0
TABLE
  2
STYLE
 70
1
  0
STYLE
  2
STANDARD
 70
0
 40
0
 41
1.0
 50
0.0
 71
0
 42
1
 3
ARIAL.TTF
 4

  0
ENDTAB
  0
TABLE
  2
VIEW
 70
1
  0
VIEW
  2
BF_TOPVIEW
 70
0
 40
120.0
 10
0.0
 20
0.0
 41
200.0
 11
0.0
 21
0.0
 31
1.0
 12
0.0
 22
0.0
 32
0.0
 42
50.0
 43
0.0
 44
0.0
 50
0.0
 71
0
  0
ENDTAB
  0
ENDSEC
  0
SECTION
  2
BLOCKS
  0
ENDSEC
  0
SECTION
  2
ENTITIES
  0
LINE
  8
0
 10
-8.517303466796875
 20
13.986212730407715
 30
-0.20000553131103516
 11
-8.398338317871094
 21
14.190890312194824
 31
-0.20000648498535156
  0
LINE
  8
0
 10
14.780277252197266
 20
-47.4234733581543
 30
-0.20000529289245605
 11
15.34561538696289
 21
-47.284942626953125
 31
-0.20000684261322021
  0
LINE
  8
0
 10
13.933868408203125
 20
14.976679801940918
 30
-0.20000553131103516
 11
10.57806396484375
 21
16.05238151550293
 31
-0.20000505447387695
  0
LINE
  8
0
 10
43.21368408203125
 20
-9.43317985534668
 30
-0.20000505447387695
 11
41.80738067626953
 21
-8.62530517578125
 31
-0.20000600814819336
  0
LINE
  8
0
 10
-53.5159912109375
 20
-13.5792818069458
 30
-0.20000576972961426
 11
-53.473777770996094
 21
-12.378015518188477
 31
-0.20000553131103516
  0
LINE
  8
0
 10
19.27289581298828
 20
-46.51154708862305
 30
-0.20000553131103516
 11
19.825584411621094
 21
-46.429908752441406
 31
-0.200006365776062
  0
LINE
  8
0
 10
-11.686901092529297
 20
-61.6121940612793
 30
-0.20000696182250977
 11
-11.998188018798828
 21
-61.72477340698242
 31
-0.20000696182250977
  0
LINE
  8
0
 10
10.57806396484375
 20
16.05238151550293
 30
-0.20000505447387695
 11
7.572666168212891
 21
16.88039779663086
 31
-0.20000648498535156
  0
LINE
  8
0
 10
43.21368408203125
 20
-9.43317985534668
 30
-0.20000505447387695
 11
44.61033630371094
 21
-10.254483222961426
 31
-0.20000553131103516
  0
LINE
  8
0
 10
13.933868408203125
 20
14.976679801940918
 30
-0.20000553131103516
 11
17.546199798583984
 21
13.701180458068848
 31
-0.20000648498535156
  0
LINE
  8
0
 10
-5.607536315917969
 20
16.752498626708984
 30
-0.20000457763671875
 11
-5.358783721923828
 21
16.877466201782227
 31
-0.20000553131103516
  0
LINE
  8
0
 10
-6.948692321777344
 20
15.862555503845215
 30
-0.20000553131103516
 11
-6.744384765625
 21
16.02721405029297
 31
-0.20000505447387695
  0
LINE
  8
0
 10
-5.607536315917969
 20
16.752498626708984
 30
-0.20000457763671875
 11
-5.849433898925781
 21
16.62088966369629
 31
-0.20000553131103516
  0
LINE
  8
0
 10
-2.5081405639648438
 20
17.786060333251953
 30
-0.20000553131103516
 11
-2.1847457885742188
 21
17.839269638061523
 31
-0.20000696182250977
  0
LINE
  8
0
 10
5.045619964599609
 20
17.43348503112793
 30
-0.20000648498535156
 11
6.281166076660156
 21
17.171960830688477
 31
-0.20000600814819336
  0
LINE
  8
0
 10
-3.434123992919922
 20
17.58046531677246
 30
-0.20000505447387695
 11
-3.728717803955078
 21
17.498044967651367
 31
-0.20000457763671875
  0
LINE
  8
0
 10
-37.49225616455078
 20
7.543135166168213
 30
-0.20000600814819336
 11
-36.78070068359375
 21
7.798213958740234
 31
-0.20000648498535156
  0
LINE
  8
0
 10
-9.243011474609375
 20
11.539453506469727
 30
-0.20000553131103516
 11
-9.172462463378906
 21
11.96628475189209
 31
-0.20000553131103516
  0
LINE
  8
0
 10
-4.826438903808594
 20
-57.61630630493164
 30
-0.20000600814819336
 11
-4.614398956298828
 21
-57.424076080322266
 31
-0.20000600814819336
  0
LINE
  8
0
 10
-4.826438903808594
 20
-57.61630630493164
 30
-0.20000600814819336
 11
-5.050449371337891
 21
-57.81038284301758
 31
-0.20000743865966797
  0
LINE
  8
0
 10
-41.48933410644531
 20
-33.47603225708008
 30
-0.20000620186328888
 11
-40.08216094970703
 21
-34.238380432128906
 31
-0.200005441904068
  0
LINE
  8
0
 10
-9.0972900390625
 20
-60.45777893066406
 30
-0.20000600814819336
 11
-9.423370361328125
 21
-60.62357711791992
 31
-0.20000696182250977
  0
LINE
  8
0
 10
55.50880432128906
 20
-39.999576568603516
 30
-0.20000648498535156
 11
55.78032684326172
 21
-40.07667541503906
 31
-0.20000576972961426
  0
LINE
  8
0
 10
55.50880432128906
 20
-39.999576568603516
 30
-0.20000648498535156
 11
55.207740783691406
 21
-39.89144515991211
 31
-0.20000553131103516
  0
LINE
  8
0
 10
-4.414833068847656
 20
-57.234153747558594
 30
-0.20000672340393066
 11
-4.093128204345703
 21
-56.92606735229492
 31
-0.20000672340393066
  0
LINE
  8
0
 10
50.94090270996094
 20
-37.490596771240234
 30
-0.2000068724155426
 11
52.219886779785156
 21
-38.26875305175781
 31
-0.200006365776062
  0
LINE
  8
0
 10
-1.5361137390136719
 20
-54.809329986572266
 30
-0.20000553131103516
 11
-1.1298828125
 21
-54.51482009887695
 31
-0.20000433921813965
  0
LINE
  8
0
 10
1.9661521911621094
 20
-52.53322219848633
 30
-0.20000433921813965
 11
2.4412994384765625
 21
-52.263607025146484
 31
-0.20000767707824707
  0
LINE
  8
0
 10
5.957374572753906
 20
-50.49329376220703
 30
-0.20000529289245605
 11
6.483180999755859
 21
-50.258934020996094
 31
-0.20000696182250977
  0
LINE
  8
0
 10
61.21417236328125
 20
-8.130224227905273
 30
-0.20000600814819336
 11
61.393409729003906
 21
-8.146915435791016
 31
-0.20000553131103516
  0
LINE
  8
0
 10
10.284175872802734
 20
-48.7679443359375
 30
-0.20000624656677246
 11
10.840435028076172
 21
-48.57784652709961
 31
-0.20000457763671875
  0
LINE
  8
0
 10
62.469886779785156
 20
-8.4251708984375
 30
-0.20000648498535156
 11
62.291908264160156
 21
-8.351380348205566
 31
-0.20000648498535156
  0
LINE
  8
0
 10
65.30689239501953
 20
-25.333045959472656
 30
-0.20000576972961426
 11
65.38861846923828
 21
-24.716278076171875
 31
-0.200006365776062
  0
LINE
  8
0
 10
65.6470718383789
 20
-19.73255157470703
 30
-0.20000553131103516
 11
65.64928436279297
 21
-20.358821868896484
 31
-0.20000624656677246
  0
LINE
  8
0
 10
65.6470718383789
 20
-19.73255157470703
 30
-0.20000553131103516
 11
65.63745880126953
 21
-19.105785369873047
 31
-0.20000529289245605
  0
LINE
  8
0
 10
23.589385986328125
 20
-46.06721496582031
 30
-0.20000576972961426
 11
24.108184814453125
 21
-46.04560470581055
 31
-0.2000051736831665
  0
LINE
  8
0
 10
63.535621643066406
 20
-32.569786071777344
 30
-0.20000621676445007
 11
63.75579071044922
 21
-31.987316131591797
 31
-0.20000606775283813
  0
LINE
  8
0
 10
64.35350036621094
 20
-10.615965843200684
 30
-0.20000624656677246
 11
64.5137710571289
 21
-11.027704238891602
 31
-0.20000576972961426
  0
LINE
  8
0
 10
64.35350036621094
 20
-10.615965843200684
 30
-0.20000624656677246
 11
64.21078491210938
 21
-10.293159484863281
 31
-0.20000529289245605
  0
LINE
  8
0
 10
63.631141662597656
 20
-9.326607704162598
 30
-0.20000600814819336
 11
63.47565460205078
 21
-9.153569221496582
 31
-0.20000600814819336
  0
LINE
  8
0
 10
-43.77911376953125
 20
4.331425189971924
 30
-0.20000648498535156
 11
-43.114662170410156
 21
4.794888496398926
 31
-0.20000553131103516
  0
LINE
  8
0
 10
61.123939514160156
 20
-37.595577239990234
 30
-0.20000672340393066
 11
61.295806884765625
 21
-37.33857727050781
 31
-0.20000657439231873
  0
LINE
  8
0
 10
59.98370361328125
 20
-8.215425491333008
 30
-0.20000553131103516
 11
60.232810974121094
 21
-8.174495697021484
 31
-0.20000505447387695
  0
LINE
  8
0
 10
61.21417236328125
 20
-8.130224227905273
 30
-0.20000600814819336
 11
61.03361511230469
 21
-8.12129020690918
 31
-0.20000648498535156
  0
LINE
  8
0
 10
-41.48933410644531
 20
-33.47603225708008
 30
-0.20000620186328888
 11
-42.81986999511719
 21
-32.6658935546875
 31
-0.20000606775283813
  0
LINE
  8
0
 10
-40.73448944091797
 20
6.17753267288208
 30
-0.20000553131103516
 11
-41.31134796142578
 21
5.876225471496582
 31
-0.20000600814819336
  0
LINE
  8
0
 10
-46.32502746582031
 20
-29.968835830688477
 30
-0.2000061273574829
 11
-45.239830017089844
 21
-30.908248901367188
 31
-0.20000606775283813
  0
LINE
  8
0
 10
-6.613758087158203
 20
-58.98711395263672
 30
-0.20000457763671875
 11
-6.9049835205078125
 21
-59.180877685546875
 31
-0.20000600814819336
  0
LINE
  8
0
 10
-26.4581298828125
 20
-38.89685821533203
 30
-0.20000654458999634
 11
-28.339157104492188
 21
-38.52252960205078
 31
-0.200006365776062
  0
LINE
  8
0
 10
-5.358783721923828
 20
16.877466201782227
 30
-0.20000553131103516
 11
-5.103343963623047
 21
16.995943069458008
 31
-0.20000553131103516
  0
LINE
  8
0
 10
-53.001853942871094
 20
-18.229869842529297
 30
-0.20000600814819336
 11
-53.20081329345703
 21
-17.082275390625
 31
-0.20000624656677246
  0
LINE
  8
0
 10
15.34561538696289
 20
-47.284942626953125
 30
-0.20000684261322021
 11
15.91055679321289
 21
-47.15327453613281
 31
-0.20000684261322021
  0
LINE
  8
0
 10
-9.172462463378906
 20
11.96628475189209
 30
-0.20000553131103516
 11
-9.096443176269531
 21
12.34956169128418
 31
-0.20000648498535156
  0
LINE
  8
0
 10
-0.814117431640625
 20
17.969219207763672
 30
-0.20000553131103516
 11
-0.4513397216796875
 21
17.9815731048584
 31
-0.20000505447387695
  0
LINE
  8
0
 10
-30.076675415039062
 20
9.594675064086914
 30
-0.20000553131103516
 11
-29.387855529785156
 21
9.727420806884766
 31
-0.20000505447387695
  0
LINE
  8
0
 10
-49.88798522949219
 20
-25.940860748291016
 30
-0.2000051736831665
 11
-50.5748291015625
 21
-24.881988525390625
 31
-0.2000061273574829
  0
LINE
  8
0
 10
-53.147705078125
 20
-9.917436599731445
 30
-0.20000672340393066
 11
-52.84403991699219
 21
-8.656648635864258
 31
-0.20000505447387695
  0
LINE
  8
0
 10
33.17652893066406
 20
-4.109137058258057
 30
-0.20000600814819336
 11
34.638336181640625
 21
-4.8241658210754395
 31
-0.20000553131103516
  0
LINE
  8
0
 10
47.38220977783203
 20
-11.92357349395752
 30
-0.20000672340393066
 11
45.99871063232422
 21
-11.086145401000977
 31
-0.20000576972961426
  0
LINE
  8
0
 10
-6.744384765625
 20
16.02721405029297
 30
-0.20000505447387695
 11
-6.532024383544922
 21
16.185588836669922
 31
-0.20000553131103516
  0
LINE
  8
0
 10
-9.096443176269531
 20
12.34956169128418
 30
-0.20000648498535156
 11
-9.014568328857422
 21
12.69458293914795
 31
-0.20000553131103516
  0
LINE
  8
0
 10
-0.814117431640625
 20
17.969219207763672
 30
-0.20000553131103516
 11
-1.1684112548828125
 21
17.949010848999023
 31
-0.20000553131103516
  0
LINE
  8
0
 10
1.3394813537597656
 20
17.933815002441406
 30
-0.20000505447387695
 11
0.7937850952148438
 21
17.9636173248291
 31
-0.20000505447387695
  0
LINE
  8
0
 10
-4.297954559326172
 20
17.314748764038086
 30
-0.20000553131103516
 11
-4.016609191894531
 21
17.409364700317383
 31
-0.20000457763671875
  0
LINE
  8
0
 10
6.483180999755859
 20
-50.258934020996094
 30
-0.20000696182250977
 11
7.013935089111328
 21
-50.02964782714844
 31
-0.20000457763671875
  0
LINE
  8
0
 10
-11.998188018798828
 20
-61.72477340698242
 30
-0.20000696182250977
 11
-12.304161071777344
 21
-61.82929992675781
 31
-0.20000648498535156
  0
LINE
  8
0
 10
1.3394813537597656
 20
17.933815002441406
 30
-0.20000505447387695
 11
1.948760986328125
 21
17.895090103149414
 31
-0.20000457763671875
  0
LINE
  8
0
 10
33.17652893066406
 20
-4.109137058258057
 30
-0.20000600814819336
 11
31.706451416015625
 21
-3.4044649600982666
 31
-0.20000553131103516
  0
LINE
  8
0
 10
-4.093128204345703
 20
-56.92606735229492
 30
-0.20000672340393066
 11
-3.760112762451172
 21
-56.61903381347656
 31
-0.20000791549682617
  0
LINE
  8
0
 10
19.825584411621094
 20
-46.429908752441406
 30
-0.200006365776062
 11
20.37517547607422
 21
-46.355648040771484
 31
-0.20000553131103516
  0
LINE
  8
0
 10
63.75579071044922
 20
-31.987316131591797
 30
-0.20000606775283813
 11
63.957298278808594
 21
-31.398651123046875
 31
-0.20000529289245605
  0
LINE
  8
0
 10
63.957298278808594
 20
-31.398651123046875
 30
-0.20000529289245605
 11
64.13116455078125
 21
-30.801502227783203
 31
-0.20000553131103516
  0
LINE
  8
0
 10
64.99453735351562
 20
-27.17180824279785
 30
-0.200006365776062
 11
65.10950469970703
 21
-26.560876846313477
 31
-0.2000058889389038
  0
LINE
  8
0
 10
62.989158630371094
 20
-8.719648361206055
 30
-0.20000600814819336
 11
63.155242919921875
 21
-8.84818172454834
 31
-0.20000600814819336
  0
LINE
  8
0
 10
61.295806884765625
 20
-37.33857727050781
 30
-0.20000657439231873
 11
61.465057373046875
 21
-37.06277847290039
 31
-0.2000059187412262
  0
LINE
  8
0
 10
60.232810974121094
 20
-8.174495697021484
 30
-0.20000505447387695
 11
60.45477294921875
 21
-8.146055221557617
 31
-0.20000600814819336
  0
LINE
  8
0
 10
-53.001853942871094
 20
-18.229869842529297
 30
-0.20000600814819336
 11
-52.779075622558594
 21
-19.372512817382812
 31
-0.20000576972961426
  0
LINE
  8
0
 10
-1.1298828125
 20
-54.51482009887695
 30
-0.20000433921813965
 11
-0.7141227722167969
 21
-54.22282028198242
 31
-0.20000624656677246
  0
LINE
  8
0
 10
-30.076675415039062
 20
9.594675064086914
 30
-0.20000553131103516
 11
-30.787864685058594
 21
9.448973655700684
 31
-0.20000648498535156
  0
LINE
  8
0
 10
-38.85954284667969
 20
7.011274814605713
 30
-0.20000648498535156
 11
-38.185707092285156
 21
7.280442714691162
 31
-0.20000648498535156
  0
LINE
  8
0
 10
-35.42896270751953
 20
-36.27714538574219
 30
-0.20000597834587097
 11
-37.04924011230469
 21
-35.632869720458984
 31
-0.2000056803226471
  0
LINE
  8
0
 10
-53.147705078125
 20
-9.917436599731445
 30
-0.20000672340393066
 11
-53.35298156738281
 21
-11.157693862915039
 31
-0.20000505447387695
  0
LINE
  8
0
 10
-36.78070068359375
 20
7.798213958740234
 30
-0.20000648498535156
 11
-36.05278015136719
 21
8.044740676879883
 31
-0.20000600814819336
  0
LINE
  8
0
 10
24.108184814453125
 20
-46.04560470581055
 30
-0.2000051736831665
 11
24.62131118774414
 21
-46.03160095214844
 31
-0.2000056505203247
  0
LINE
  8
0
 10
2.4412994384765625
 20
-52.263607025146484
 30
-0.20000767707824707
 11
2.923828125
 21
-51.997859954833984
 31
-0.20000696182250977
  0
LINE
  8
0
 10
10.840435028076172
 20
-48.57784652709961
 30
-0.20000457763671875
 11
11.399017333984375
 21
-48.39383316040039
 31
-0.20000529289245605
  0
LINE
  8
0
 10
-8.398338317871094
 20
14.190890312194824
 30
-0.20000648498535156
 11
-8.271644592285156
 21
14.389073371887207
 31
-0.20000505447387695
  0
LINE
  8
0
 10
-40.08216094970703
 20
-34.238380432128906
 30
-0.200005441904068
 11
-38.60124969482422
 21
-34.955440521240234
 31
-0.20000505447387695
  0
LINE
  8
0
 10
-6.9049835205078125
 20
-59.180877685546875
 30
-0.20000600814819336
 11
-7.203174591064453
 21
-59.37270736694336
 31
-0.20000505447387695
  0
LINE
  8
0
 10
47.38220977783203
 20
-11.92357349395752
 30
-0.20000672340393066
 11
51.55242156982422
 21
-10.575571060180664
 31
-0.20000672340393066
  0
LINE
  8
0
 10
-9.423370361328125
 20
-60.62357711791992
 30
-0.20000696182250977
 11
-9.75033950805664
 21
-60.78396224975586
 31
-0.20000600814819336
  0
LINE
  8
0
 10
55.78032684326172
 20
-40.07667541503906
 30
-0.20000576972961426
 11
56.03404998779297
 21
-40.12974166870117
 31
-0.20000684261322021
  0
LINE
  8
0
 10
-4.614398956298828
 20
-57.424076080322266
 30
-0.20000600814819336
 11
-4.414833068847656
 21
-57.234153747558594
 31
-0.20000672340393066
  0
LINE
  8
0
 10
52.219886779785156
 20
-38.26875305175781
 30
-0.200006365776062
 11
53.16234588623047
 21
-38.82543182373047
 31
-0.20000654458999634
  0
LINE
  8
0
 10
51.55242156982422
 20
-10.575571060180664
 30
-0.20000672340393066
 11
54.51630401611328
 21
-9.655374526977539
 31
-0.20000529289245605
  0
LINE
  8
0
 10
58.35327911376953
 20
-39.98032760620117
 30
-0.20000594854354858
 11
58.11920928955078
 21
-40.048580169677734
 31
-0.200006365776062
  0
LINE
  8
0
 10
58.35327911376953
 20
-39.98032760620117
 30
-0.20000594854354858
 11
58.59266662597656
 21
-39.88848114013672
 31
-0.20000582933425903
  0
LINE
  8
0
 10
56.516883850097656
 20
-40.18904113769531
 30
-0.20000553131103516
 11
56.752471923828125
 21
-40.2038459777832
 31
-0.2000051736831665
  0
LINE
  8
0
 10
61.393409729003906
 20
-8.146915435791016
 30
-0.20000553131103516
 11
61.572486877441406
 21
-8.171202659606934
 31
-0.20000600814819336
  0
LINE
  8
0
 10
62.989158630371094
 20
-8.719648361206055
 30
-0.20000600814819336
 11
62.81939697265625
 21
-8.606225967407227
 31
-0.20000600814819336
  0
LINE
  8
0
 10
61.572486877441406
 20
-8.171202659606934
 30
-0.20000600814819336
 11
61.751930236816406
 21
-8.20308780670166
 31
-0.20000505447387695
  0
LINE
  8
0
 10
65.38861846923828
 20
-24.716278076171875
 30
-0.200006365776062
 11
65.4588851928711
 21
-24.097766876220703
 31
-0.20000696182250977
  0
LINE
  8
0
 10
15.91055679321289
 20
-47.15327453613281
 30
-0.20000684261322021
 11
16.474761962890625
 21
-47.02854919433594
 31
-0.20000600814819336
  0
LINE
  8
0
 10
34.638336181640625
 20
-4.8241658210754395
 30
-0.20000553131103516
 11
36.090484619140625
 21
-5.552632808685303
 31
-0.20000648498535156
  0
LINE
  8
0
 10
-5.050449371337891
 20
-57.81038284301758
 30
-0.20000743865966797
 11
-5.285888671875
 21
-58.00582504272461
 31
-0.20000481605529785
  0
LINE
  8
0
 10
-7.203174591064453
 20
-59.37270736694336
 30
-0.20000505447387695
 11
-7.507606506347656
 21
-59.5621452331543
 31
-0.20000696182250977
  0
LINE
  8
0
 10
65.48438262939453
 20
-16.024808883666992
 30
-0.20000553131103516
 11
65.43695831298828
 21
-15.619614601135254
 31
-0.20000553131103516
  0
LINE
  8
0
 10
56.03404998779297
 20
-40.12974166870117
 30
-0.20000684261322021
 11
56.276885986328125
 21
-40.16276168823242
 31
-0.2000064253807068
  0
LINE
  8
0
 10
-3.760112762451172
 20
-56.61903381347656
 30
-0.20000791549682617
 11
-3.4159812927246094
 21
-56.31324768066406
 31
-0.20000600814819336
  0
LINE
  8
0
 10
-0.7141227722167969
 20
-54.22282028198242
 30
-0.20000624656677246
 11
-0.2890815734863281
 21
-53.93350601196289
 31
-0.20000529289245605
  0
LINE
  8
0
 10
56.752471923828125
 20
-40.2038459777832
 30
-0.2000051736831665
 11
56.98375701904297
 21
-40.205230712890625
 31
-0.20000582933425903
  0
LINE
  8
0
 10
7.013935089111328
 20
-50.02964782714844
 30
-0.20000457763671875
 11
7.549312591552734
 21
-49.805572509765625
 31
-0.20000600814819336
  0
LINE
  8
0
 10
11.399017333984375
 20
-48.39383316040039
 30
-0.20000529289245605
 11
11.959579467773438
 21
-48.21601486206055
 31
-0.20000600814819336
  0
LINE
  8
0
 10
-8.271644592285156
 20
14.389073371887207
 30
-0.20000505447387695
 11
-8.136810302734375
 21
14.583379745483398
 31
-0.20000553131103516
  0
LINE
  8
0
 10
65.4588851928711
 20
-24.097766876220703
 30
-0.20000696182250977
 11
65.51763916015625
 21
-23.47764778137207
 31
-0.20000576972961426
  0
LINE
  8
0
 10
20.37517547607422
 20
-46.355648040771484
 30
-0.20000553131103516
 11
20.921348571777344
 21
-46.28881072998047
 31
-0.200006365776062
  0
LINE
  8
0
 10
65.48438262939453
 20
-16.024808883666992
 30
-0.20000553131103516
 11
65.53958892822266
 21
-16.59609603881836
 31
-0.20000505447387695
  0
LINE
  8
0
 10
24.62131118774414
 20
-46.03160095214844
 30
-0.2000056505203247
 11
25.12845230102539
 21
-46.02521896362305
 31
-0.2000058889389038
  0
LINE
  8
0
 10
63.78162384033203
 20
-9.52369213104248
 30
-0.20000576972961426
 11
63.92646026611328
 21
-9.759316444396973
 31
-0.20000553131103516
  0
LINE
  8
0
 10
63.631141662597656
 20
-9.326607704162598
 30
-0.20000600814819336
 11
63.78162384033203
 21
-9.52369213104248
 31
-0.20000576972961426
  0
LINE
  8
0
 10
59.96229553222656
 20
-38.966712951660156
 30
-0.20000606775283813
 11
60.17076110839844
 21
-38.759578704833984
 31
-0.20000571012496948
  0
LINE
  8
0
 10
61.465057373046875
 20
-37.06277847290039
 30
-0.2000059187412262
 11
61.640541076660156
 21
-36.75064468383789
 31
-0.20000645518302917
  0
LINE
  8
0
 10
60.45477294921875
 20
-8.146055221557617
 30
-0.20000600814819336
 11
60.658180236816406
 21
-8.128458023071289
 31
-0.20000505447387695
  0
LINE
  8
0
 10
65.63745880126953
 20
-19.105785369873047
 30
-0.20000529289245605
 11
65.62158203125
 21
-18.478641510009766
 31
-0.20000624656677246
  0
LINE
  8
0
 10
-53.20081329345703
 20
-17.082275390625
 30
-0.20000624656677246
 11
-53.37596130371094
 21
-15.92973804473877
 31
-0.20000624656677246
  0
LINE
  8
0
 10
-39.51478576660156
 20
6.735956192016602
 30
-0.20000600814819336
 11
-38.85954284667969
 21
7.011274814605713
 31
-0.20000648498535156
  0
LINE
  8
0
 10
-29.387855529785156
 20
9.727420806884766
 30
-0.20000505447387695
 11
-28.69293212890625
 21
9.848682403564453
 31
-0.20000553131103516
  0
LINE
  8
0
 10
-26.97954559326172
 20
10.055827140808105
 30
-0.20000648498535156
 11
-27.909759521484375
 21
9.958067893981934
 31
-0.20000553131103516
  0
LINE
  8
0
 10
-49.06810760498047
 20
-0.9926352500915527
 30
-0.20000600814819336
 11
-48.1368408203125
 21
0.2065213918685913
 31
-0.20000648498535156
  0
LINE
  8
0
 10
-49.06810760498047
 20
-0.9926352500915527
 30
-0.20000600814819336
 11
-49.925498962402344
 21
-2.24031400680542
 31
-0.20000553131103516
  0
LINE
  8
0
 10
-52.84403991699219
 20
-8.656648635864258
 30
-0.20000505447387695
 11
-52.44950866699219
 21
-7.380801200866699
 31
-0.20000600814819336
  0
LINE
  8
0
 10
-9.75033950805664
 20
-60.78396224975586
 30
-0.20000600814819336
 11
-10.077415466308594
 21
-60.938560485839844
 31
-0.20000696182250977
  0
LINE
  8
0
 10
-12.304161071777344
 20
-61.82929992675781
 30
-0.20000648498535156
 11
-12.60409164428711
 21
-61.92551803588867
 31
-0.20000600814819336
  0
LINE
  8
0
 10
44.61033630371094
 20
-10.254483222961426
 30
-0.20000553131103516
 11
45.99871063232422
 21
-11.086145401000977
 31
-0.20000576972961426
  0
LINE
  8
0
 10
-5.103343963623047
 20
16.995943069458008
 30
-0.20000553131103516
 11
-4.841339111328125
 21
17.10816764831543
 31
-0.20000600814819336
  0
LINE
  8
0
 10
-6.532024383544922
 20
16.185588836669922
 30
-0.20000553131103516
 11
-6.3119049072265625
 21
16.337421417236328
 31
-0.20000553131103516
  0
LINE
  8
0
 10
-2.1847457885742188
 20
17.839269638061523
 30
-0.20000696182250977
 11
-1.8537063598632812
 21
17.88420867919922
 31
-0.20000553131103516
  0
LINE
  8
0
 10
7.572666168212891
 20
16.88039779663086
 30
-0.20000648498535156
 11
6.281166076660156
 21
17.171960830688477
 31
-0.20000600814819336
  0
LINE
  8
0
 10
-3.728717803955078
 20
17.498044967651367
 30
-0.20000457763671875
 11
-4.016609191894531
 21
17.409364700317383
 31
-0.20000457763671875
  0
LINE
  8
0
 10
2.923828125
 20
-51.997859954833984
 30
-0.20000696182250977
 11
3.4134483337402344
 21
-51.73613357543945
 31
-0.20000648498535156
  0
LINE
  8
0
 10
-45.300621032714844
 20
3.1265006065368652
 30
-0.20000648498535156
 11
-46.175994873046875
 21
2.3506908416748047
 31
-0.20000600814819336
  0
LINE
  8
0
 10
-37.04924011230469
 20
-35.632869720458984
 30
-0.2000056803226471
 11
-38.60124969482422
 21
-34.955440521240234
 31
-0.20000505447387695
  0
LINE
  8
0
 10
-33.029701232910156
 20
8.92737102508545
 30
-0.20000600814819336
 11
-32.27033996582031
 21
9.113536834716797
 31
-0.20000600814819336
  0
LINE
  8
0
 10
-48.26969909667969
 20
-28.0035343170166
 30
-0.20000624656677246
 11
-49.119956970214844
 21
-26.98250961303711
 31
-0.2000066041946411
  0
LINE
  8
0
 10
-7.507606506347656
 20
-59.5621452331543
 30
-0.20000696182250977
 11
-7.817543029785156
 21
-59.748741149902344
 31
-0.20000600814819336
  0
LINE
  8
0
 10
-10.077415466308594
 20
-60.938560485839844
 30
-0.20000696182250977
 11
-10.403812408447266
 21
-61.08699417114258
 31
-0.20000696182250977
  0
LINE
  8
0
 10
-8.136810302734375
 20
14.583379745483398
 30
-0.20000553131103516
 11
-7.993499755859375
 21
14.7750244140625
 31
-0.20000600814819336
  0
LINE
  8
0
 10
-51.17057800292969
 20
-23.806522369384766
 30
-0.2000066041946411
 11
-51.685585021972656
 21
-22.717641830444336
 31
-0.20000624656677246
  0
LINE
  8
0
 10
-3.4159812927246094
 20
-56.31324768066406
 30
-0.20000600814819336
 11
-3.0609474182128906
 21
-56.008880615234375
 31
-0.20000720024108887
  0
LINE
  8
0
 10
65.60090637207031
 20
-17.85123062133789
 30
-0.20000600814819336
 11
65.576904296875
 21
-17.223648071289062
 31
-0.20000600814819336
  0
LINE
  8
0
 10
64.13116455078125
 20
-30.801502227783203
 30
-0.20000553131103516
 11
64.28935241699219
 21
-30.19969367980957
 31
-0.20000606775283813
  0
LINE
  8
0
 10
65.23504638671875
 20
-14.089016914367676
 30
-0.20000648498535156
 11
65.14482879638672
 21
-13.463048934936523
 31
-0.20000600814819336
  0
LINE
  8
0
 10
63.92646026611328
 20
-9.759316444396973
 30
-0.20000553131103516
 11
64.06910705566406
 21
-10.019001007080078
 31
-0.20000481605529785
  0
LINE
  8
0
 10
60.17076110839844
 20
-38.759578704833984
 30
-0.20000571012496948
 11
60.37322998046875
 21
-38.54247283935547
 31
-0.2000054121017456
  0
LINE
  8
0
 10
61.640541076660156
 20
-36.75064468383789
 30
-0.20000645518302917
 11
61.83103942871094
 21
-36.388465881347656
 31
-0.20000553131103516
  0
LINE
  8
0
 10
62.30216979980469
 20
-35.425601959228516
 30
-0.20000605285167694
 11
62.035118103027344
 21
-35.98743438720703
 31
-0.2000053972005844
  0
LINE
  8
0
 10
60.658180236816406
 20
-8.128458023071289
 30
-0.20000505447387695
 11
60.84947967529297
 21
-8.120491027832031
 31
-0.20000600814819336
  0
LINE
  8
0
 10
20.921348571777344
 20
-46.28881072998047
 30
-0.200006365776062
 11
21.463760375976562
 21
-46.229434967041016
 31
-0.20000600814819336
  0
LINE
  8
0
 10
65.62158203125
 20
-18.478641510009766
 30
-0.20000624656677246
 11
65.60090637207031
 21
-17.85123062133789
 31
-0.20000600814819336
  0
LINE
  8
0
 10
-0.2890815734863281
 20
-53.93350601196289
 30
-0.20000529289245605
 11
0.14498138427734375
 21
-53.64704513549805
 31
-0.20000767707824707
  0
LINE
  8
0
 10
-23.79650115966797
 20
10.31509780883789
 30
-0.20000553131103516
 11
-24.86724090576172
 21
10.227380752563477
 31
-0.20000553131103516
  0
LINE
  8
0
 10
-48.26969909667969
 20
-28.0035343170166
 30
-0.20000624656677246
 11
-47.33732604980469
 21
-29.000137329101562
 31
-0.20000571012496948
  0
LINE
  8
0
 10
-48.1368408203125
 20
0.2065213918685913
 30
-0.20000648498535156
 11
-47.159759521484375
 21
1.3310561180114746
 31
-0.20000600814819336
  0
LINE
  8
0
 10
25.12845230102539
 20
-46.02521896362305
 30
-0.2000058889389038
 11
25.62930679321289
 21
-46.026458740234375
 31
-0.20000696182250977
  0
LINE
  8
0
 10
11.959579467773438
 20
-48.21601486206055
 30
-0.20000600814819336
 11
12.521785736083984
 21
-48.04450225830078
 31
-0.20000600814819336
  0
LINE
  8
0
 10
45.082252502441406
 20
-33.66598892211914
 30
-0.20000572502613068
 11
43.87401580810547
 21
-47.297428131103516
 31
-0.20000624656677246
  0
LINE
  8
0
 10
-5.285888671875
 20
-58.00582504272461
 30
-0.20000481605529785
 11
-5.532188415527344
 21
-58.202171325683594
 31
-0.20000600814819336
  0
LINE
  8
0
 10
-12.60409164428711
 20
-61.92551803588867
 30
-0.20000600814819336
 11
-12.89725112915039
 21
-62.0131950378418
 31
-0.20000696182250977
  0
LINE
  8
0
 10
54.51630401611328
 20
-9.655374526977539
 30
-0.20000529289245605
 11
55.83729553222656
 21
-9.278385162353516
 31
-0.20000600814819336
  0
LINE
  8
0
 10
58.59266662597656
 20
-39.88848114013672
 30
-0.20000582933425903
 11
58.83172607421875
 21
-39.78040313720703
 31
-0.2000056505203247
  0
LINE
  8
0
 10
58.83172607421875
 20
-39.78040313720703
 30
-0.2000056505203247
 11
59.06819152832031
 21
-39.65388107299805
 31
-0.2000061273574829
  0
LINE
  8
0
 10
56.516883850097656
 20
-40.18904113769531
 30
-0.20000553131103516
 11
56.276885986328125
 21
-40.16276168823242
 31
-0.2000064253807068
  0
LINE
  8
0
 10
3.4134483337402344
 20
-51.73613357543945
 30
-0.20000648498535156
 11
3.9098548889160156
 21
-51.47858810424805
 31
-0.20000624656677246
  0
LINE
  8
0
 10
62.30216979980469
 20
-35.425601959228516
 30
-0.20000605285167694
 11
62.56404113769531
 21
-34.86131286621094
 31
-0.20000602304935455
  0
LINE
  8
0
 10
61.751930236816406
 20
-8.20308780670166
 30
-0.20000505447387695
 11
61.93186950683594
 21
-8.242753028869629
 31
-0.20000648498535156
  0
LINE
  8
0
 10
61.93186950683594
 20
-8.242753028869629
 30
-0.20000648498535156
 11
62.11211395263672
 21
-8.29059886932373
 31
-0.20000696182250977
  0
LINE
  8
0
 10
65.51763916015625
 20
-23.47764778137207
 30
-0.20000576972961426
 11
65.56510162353516
 21
-22.85609245300293
 31
-0.200006365776062
  0
LINE
  8
0
 10
61.83103942871094
 20
-36.388465881347656
 30
-0.20000553131103516
 11
62.035118103027344
 21
-35.98743438720703
 31
-0.2000053972005844
  0
LINE
  8
0
 10
34.535736083984375
 20
6.742673873901367
 30
-0.20000648498535156
 11
30.23149871826172
 21
-2.705556869506836
 31
-0.20000553131103516
  0
LINE
  8
0
 10
34.535736083984375
 20
6.742673873901367
 30
-0.20000648498535156
 11
29.940662384033203
 21
8.73275375366211
 31
-0.20000696182250977
  0
LINE
  8
0
 10
-6.3119049072265625
 20
16.337421417236328
 30
-0.20000553131103516
 11
-6.084293365478516
 21
16.4825439453125
 31
-0.20000600814819336
  0
LINE
  8
0
 10
-23.79650115966797
 20
10.31509780883789
 30
-0.20000553131103516
 11
-9.363685607910156
 21
10.616256713867188
 31
-0.20000553131103516
  0
LINE
  8
0
 10
-9.014568328857422
 20
12.69458293914795
 30
-0.20000553131103516
 11
-8.926864624023438
 21
13.005521774291992
 31
-0.20000553131103516
  0
LINE
  8
0
 10
-1.8537063598632812
 20
17.88420867919922
 30
-0.20000553131103516
 11
-1.5149307250976562
 21
17.92076301574707
 31
-0.20000553131103516
  0
LINE
  8
0
 10
-41.89231872558594
 20
5.557098388671875
 30
-0.20000553131103516
 11
-42.48835754394531
 21
5.201940536499023
 31
-0.20000600814819336
  0
LINE
  8
0
 10
0.7937850952148438
 20
17.9636173248291
 30
-0.20000505447387695
 11
0.3298377990722656
 21
17.980623245239258
 31
-0.20000553131103516
  0
LINE
  8
0
 10
45.082252502441406
 20
-33.66598892211914
 30
-0.20000572502613068
 11
49.406959533691406
 21
-36.54505920410156
 31
-0.20000618696212769
  0
LINE
  8
0
 10
7.549312591552734
 20
-49.805572509765625
 30
-0.20000600814819336
 11
8.0889892578125
 21
-49.58683776855469
 31
-0.20000600814819336
  0
LINE
  8
0
 10
16.474761962890625
 20
-47.02854919433594
 30
-0.20000600814819336
 11
17.03789520263672
 21
-46.91084289550781
 31
-0.200006365776062
  0
LINE
  8
0
 10
-42.81986999511719
 20
-32.6658935546875
 30
-0.20000606775283813
 11
-44.07086181640625
 21
-31.808847427368164
 31
-0.20000550150871277
  0
LINE
  8
0
 10
-51.17057800292969
 20
-23.806522369384766
 30
-0.2000066041946411
 11
-50.5748291015625
 21
-24.881988525390625
 31
-0.2000061273574829
  0
LINE
  8
0
 10
37.53306198120117
 20
-6.296328544616699
 30
-0.20000553131103516
 11
36.090484619140625
 21
-5.552632808685303
 31
-0.20000648498535156
  0
LINE
  8
0
 10
37.53306198120117
 20
-6.296328544616699
 30
-0.20000553131103516
 11
38.966644287109375
 21
-7.056232929229736
 31
-0.20000553131103516
  0
LINE
  8
0
 10
-5.849433898925781
 20
16.62088966369629
 30
-0.20000553131103516
 11
-6.084293365478516
 21
16.4825439453125
 31
-0.20000600814819336
  0
LINE
  8
0
 10
-1.1684112548828125
 20
17.949010848999023
 30
-0.20000553131103516
 11
-1.5149307250976562
 21
17.92076301574707
 31
-0.20000553131103516
  0
LINE
  8
0
 10
-8.926864624023438
 20
13.005521774291992
 30
-0.20000553131103516
 11
-8.833457946777344
 21
13.285771369934082
 31
-0.20000553131103516
  0
LINE
  8
0
 10
-0.4513397216796875
 20
17.9815731048584
 30
-0.20000505447387695
 11
-0.07535552978515625
 21
17.98583221435547
 31
-0.20000600814819336
  0
LINE
  8
0
 10
-7.6805572509765625
 20
15.151450157165527
 30
-0.20000600814819336
 11
-7.510746002197266
 21
15.335614204406738
 31
-0.20000600814819336
  0
LINE
  8
0
 10
-7.817543029785156
 20
-59.748741149902344
 30
-0.20000600814819336
 11
-8.132247924804688
 21
-59.932037353515625
 31
-0.20000553131103516
  0
LINE
  8
0
 10
-10.403812408447266
 20
-61.08699417114258
 30
-0.20000696182250977
 11
-10.728736877441406
 21
-61.228912353515625
 31
-0.20000600814819336
  0
LINE
  8
0
 10
53.846160888671875
 20
-39.21065902709961
 30
-0.2000058889389038
 11
54.379486083984375
 21
-39.49422073364258
 31
-0.2000054121017456
  0
LINE
  8
0
 10
53.16234588623047
 20
-38.82543182373047
 30
-0.20000654458999634
 11
53.846160888671875
 21
-39.21065902709961
 31
-0.2000058889389038
  0
LINE
  8
0
 10
-3.0609474182128906
 20
-56.008880615234375
 30
-0.20000720024108887
 11
-2.6952171325683594
 21
-55.70612716674805
 31
-0.20000600814819336
  0
LINE
  8
0
 10
0.14498138427734375
 20
-53.64704513549805
 30
-0.20000767707824707
 11
0.5878028869628906
 21
-53.36362075805664
 31
-0.20000672340393066
  0
LINE
  8
0
 10
55.83729553222656
 20
-9.278385162353516
 30
-0.20000600814819336
 11
56.96106719970703
 21
-8.961965560913086
 31
-0.20000624656677246
  0
LINE
  8
0
 10
56.96106719970703
 20
-8.961965560913086
 30
-0.20000624656677246
 11
57.81726837158203
 21
-8.727964401245117
 31
-0.20000600814819336
  0
LINE
  8
0
 10
62.56404113769531
 20
-34.86131286621094
 30
-0.20000602304935455
 11
62.819244384765625
 21
-34.29389572143555
 31
-0.2000053972005844
  0
LINE
  8
0
 10
12.521785736083984
 20
-48.04450225830078
 30
-0.20000600814819336
 11
13.08530044555664
 21
-47.879390716552734
 31
-0.20000600814819336
  0
LINE
  8
0
 10
65.56510162353516
 20
-22.85609245300293
 30
-0.200006365776062
 11
65.60148620605469
 21
-22.233261108398438
 31
-0.2000058889389038
  0
LINE
  8
0
 10
65.53958892822266
 20
-16.59609603881836
 30
-0.20000505447387695
 11
65.576904296875
 21
-17.223648071289062
 31
-0.20000600814819336
  0
LINE
  8
0
 10
65.43695831298828
 20
-15.619614601135254
 30
-0.20000553131103516
 11
65.40353393554688
 21
-15.341812133789062
 31
-0.20000529289245605
  0
LINE
  8
0
 10
25.62930679321289
 20
-46.026458740234375
 30
-0.20000696182250977
 11
26.12356948852539
 21
-46.035316467285156
 31
-0.20000755786895752
  0
LINE
  8
0
 10
64.28935241699219
 20
-30.19969367980957
 30
-0.20000606775283813
 11
64.44384765625
 21
-29.59703826904297
 31
-0.2000066041946411
  0
LINE
  8
0
 10
65.14482879638672
 20
-13.463048934936523
 30
-0.20000600814819336
 11
65.03376770019531
 21
-12.841248512268066
 31
-0.20000553131103516
  0
LINE
  8
0
 10
65.03376770019531
 20
-12.841248512268066
 30
-0.20000553131103516
 11
64.884521484375
 21
-12.227521896362305
 31
-0.20000576972961426
  0
LINE
  8
0
 10
64.21078491210938
 20
-10.293159484863281
 30
-0.20000529289245605
 11
64.06910705566406
 21
-10.019001007080078
 31
-0.20000481605529785
  0
LINE
  8
0
 10
-5.532188415527344
 20
-58.202171325683594
 30
-0.20000600814819336
 11
-5.788749694824219
 21
-58.398948669433594
 31
-0.20000553131103516
  0
LINE
  8
0
 10
60.37322998046875
 20
-38.54247283935547
 30
-0.2000054121017456
 11
60.56988525390625
 21
-38.316749572753906
 31
-0.20000600814819336
  0
LINE
  8
0
 10
60.56988525390625
 20
-38.316749572753906
 30
-0.20000600814819336
 11
60.76080322265625
 21
-38.08339309692383
 31
-0.2000058889389038
  0
LINE
  8
0
 10
61.03361511230469
 20
-8.12129020690918
 30
-0.20000648498535156
 11
60.84947967529297
 21
-8.120491027832031
 31
-0.20000600814819336
  0
LINE
  8
0
 10
-51.685585021972656
 20
-22.717641830444336
 30
-0.20000624656677246
 11
-52.12401580810547
 21
-21.616024017333984
 31
-0.20000648498535156
  0
LINE
  8
0
 10
-41.31134796142578
 20
5.876225471496582
 30
-0.20000600814819336
 11
-41.89231872558594
 21
5.557098388671875
 31
-0.20000553131103516
  0
LINE
  8
0
 10
-46.175994873046875
 20
2.3506908416748047
 30
-0.20000600814819336
 11
-47.159759521484375
 21
1.3310561180114746
 31
-0.20000600814819336
  0
LINE
  8
0
 10
-32.27033996582031
 20
9.113536834716797
 30
-0.20000600814819336
 11
-31.520599365234375
 21
9.28870677947998
 31
-0.20000553131103516
  0
LINE
  8
0
 10
-42.48835754394531
 20
5.201940536499023
 30
-0.20000600814819336
 11
-43.114662170410156
 21
4.794888496398926
 31
-0.20000553131103516
  0
LINE
  8
0
 10
-30.787864685058594
 20
9.448973655700684
 30
-0.20000648498535156
 11
-31.520599365234375
 21
9.28870677947998
 31
-0.20000553131103516
  0
LINE
  8
0
 10
-12.89725112915039
 20
-62.0131950378418
 30
-0.20000696182250977
 11
-13.182933807373047
 21
-62.09211730957031
 31
-0.20000648498535156
  0
LINE
  8
0
 10
-49.119956970214844
 20
-26.98250961303711
 30
-0.2000066041946411
 11
-49.88798522949219
 21
-25.940860748291016
 31
-0.2000051736831665
  0
LINE
  8
0
 10
-7.6805572509765625
 20
15.151450157165527
 30
-0.20000600814819336
 11
-7.841461181640625
 21
14.96441650390625
 31
-0.20000648498535156
  0
LINE
  8
0
 10
-7.993499755859375
 20
14.7750244140625
 30
-0.20000600814819336
 11
-7.841461181640625
 21
14.96441650390625
 31
-0.20000648498535156
  0
LINE
  8
0
 10
3.9098548889160156
 20
-51.47858810424805
 30
-0.20000624656677246
 11
4.412754058837891
 21
-51.225379943847656
 31
-0.20000720024108887
  0
LINE
  8
0
 10
30.23149871826172
 20
-2.705556869506836
 30
-0.20000553131103516
 11
31.706451416015625
 21
-3.4044649600982666
 31
-0.20000553131103516
  0
LINE
  8
0
 10
17.03789520263672
 20
-46.91084289550781
 30
-0.200006365776062
 11
17.599609375
 21
-46.80022430419922
 31
-0.20000576972961426
  0
LINE
  8
0
 10
21.463760375976562
 20
-46.229434967041016
 30
-0.20000600814819336
 11
22.002098083496094
 21
-46.17755889892578
 31
-0.20000672340393066
  0
LINE
  8
0
 10
8.0889892578125
 20
-49.58683776855469
 30
-0.20000600814819336
 11
8.632644653320312
 21
-49.37358093261719
 31
-0.20000624656677246
  0
LINE
  8
0
 10
-8.833457946777344
 20
13.285771369934082
 30
-0.20000553131103516
 11
-8.734306335449219
 21
13.539212226867676
 31
-0.20000648498535156
  0
LINE
  8
0
 10
0.3298377990722656
 20
17.980623245239258
 30
-0.20000553131103516
 11
-0.07535552978515625
 21
17.98583221435547
 31
-0.20000600814819336
  0
LINE
  8
0
 10
8.632644653320312
 20
-49.37358093261719
 30
-0.20000624656677246
 11
9.179946899414062
 21
-49.165931701660156
 31
-0.20000624656677246
  0
LINE
  8
0
 10
-13.182933807373047
 20
-62.09211730957031
 30
-0.20000648498535156
 11
-13.460453033447266
 21
-62.16210174560547
 31
-0.20000600814819336
  0
LINE
  8
0
 10
-2.6952171325683594
 20
-55.70612716674805
 30
-0.20000600814819336
 11
-2.319019317626953
 21
-55.4051628112793
 31
-0.20000600814819336
  0
LINE
  8
0
 10
65.40353393554688
 20
-15.341812133789062
 30
-0.20000529289245605
 11
65.3218002319336
 21
-14.715588569641113
 31
-0.20000553131103516
  0
LINE
  8
0
 10
64.44384765625
 20
-29.59703826904297
 30
-0.2000066041946411
 11
64.59304809570312
 21
-28.993200302124023
 31
-0.20000571012496948
  0
LINE
  8
0
 10
64.59304809570312
 20
-28.993200302124023
 30
-0.20000571012496948
 11
64.7353515625
 21
-28.387847900390625
 31
-0.20000600814819336
  0
LINE
  8
0
 10
65.23504638671875
 20
-14.089016914367676
 30
-0.20000648498535156
 11
65.3218002319336
 21
-14.715588569641113
 31
-0.20000553131103516
  0
LINE
  8
0
 10
22.002098083496094
 20
-46.17755889892578
 30
-0.20000672340393066
 11
22.536026000976562
 21
-46.13321304321289
 31
-0.20000720024108887
  0
LINE
  8
0
 10
0.5878028869628906
 20
-53.36362075805664
 30
-0.20000672340393066
 11
1.03912353515625
 21
-53.08339309692383
 31
-0.20000720024108887
  0
LINE
  8
0
 10
-33.74433898925781
 20
-36.891815185546875
 30
-0.2000058889389038
 11
-35.42896270751953
 21
-36.27714538574219
 31
-0.20000597834587097
  0
LINE
  8
0
 10
-38.185707092285156
 20
7.280442714691162
 30
-0.20000648498535156
 11
-37.49225616455078
 21
7.543135166168213
 31
-0.20000600814819336
  0
LINE
  8
0
 10
-34.556739807128906
 20
8.508634567260742
 30
-0.20000553131103516
 11
-35.310577392578125
 21
8.28184700012207
 31
-0.20000600814819336
  0
LINE
  8
0
 10
-53.48280334472656
 20
-14.762742042541504
 30
-0.20000576972961426
 11
-53.5159912109375
 21
-13.5792818069458
 31
-0.20000576972961426
  0
LINE
  8
0
 10
-53.37596130371094
 20
-15.92973804473877
 30
-0.20000624656677246
 11
-53.48280334472656
 21
-14.762742042541504
 31
-0.20000576972961426
  0
LINE
  8
0
 10
26.12356948852539
 20
-46.035316467285156
 30
-0.20000755786895752
 11
26.610946655273438
 21
-46.05179214477539
 31
-0.20000624656677246
  0
LINE
  8
0
 10
13.08530044555664
 20
-47.879390716552734
 30
-0.20000600814819336
 11
13.6497802734375
 21
-47.720787048339844
 31
-0.20000600814819336
  0
LINE
  8
0
 10
-5.788749694824219
 20
-58.398948669433594
 30
-0.20000553131103516
 11
-6.054965972900391
 21
-58.595680236816406
 31
-0.20000624656677246
  0
LINE
  8
0
 10
-8.132247924804688
 20
-59.932037353515625
 30
-0.20000553131103516
 11
-8.450950622558594
 21
-60.11159896850586
 31
-0.20000624656677246
  0
LINE
  8
0
 10
-10.728736877441406
 20
-61.228912353515625
 30
-0.20000600814819336
 11
-11.051410675048828
 21
-61.36396026611328
 31
-0.20000457763671875
  0
LINE
  8
0
 10
54.379486083984375
 20
-39.49422073364258
 30
-0.2000054121017456
 11
54.82512664794922
 21
-39.71613311767578
 31
-0.2000061273574829
  0
LINE
  8
0
 10
57.43833923339844
 20
-40.17222595214844
 30
-0.20000606775283813
 11
57.21192169189453
 21
-40.193790435791016
 31
-0.20000624656677246
  0
LINE
  8
0
 10
57.43833923339844
 20
-40.17222595214844
 30
-0.20000606775283813
 11
57.66404724121094
 21
-40.145023345947266
 31
-0.2000064253807068
  0
LINE
  8
0
 10
59.06819152832031
 20
-39.65388107299805
 30
-0.2000061273574829
 11
59.30030822753906
 21
-39.507938385009766
 31
-0.20000594854354858
  0
LINE
  8
0
 10
4.412754058837891
 20
-51.225379943847656
 30
-0.20000720024108887
 11
4.921848297119141
 21
-50.976661682128906
 31
-0.20000505447387695
  0
LINE
  8
0
 10
57.81726837158203
 20
-8.727964401245117
 30
-0.20000600814819336
 11
58.455101013183594
 21
-8.56148910522461
 31
-0.20000505447387695
  0
LINE
  8
0
 10
62.819244384765625
 20
-34.29389572143555
 30
-0.2000053972005844
 11
63.066810607910156
 21
-33.72301483154297
 31
-0.20000584423542023
  0
LINE
  8
0
 10
62.291908264160156
 20
-8.351380348205566
 30
-0.20000648498535156
 11
62.11211395263672
 21
-8.29059886932373
 31
-0.20000696182250977
  0
LINE
  8
0
 10
65.60148620605469
 20
-22.233261108398438
 30
-0.2000058889389038
 11
65.62728118896484
 21
-21.60932731628418
 31
-0.20000576972961426
  0
LINE
  8
0
 10
-7.510746002197266
 20
15.335614204406738
 30
-0.20000600814819336
 11
-7.3320770263671875
 21
15.516090393066406
 31
-0.20000505447387695
  0
LINE
  8
0
 10
-53.473777770996094
 20
-12.378015518188477
 30
-0.20000553131103516
 11
-53.35298156738281
 21
-11.157693862915039
 31
-0.20000505447387695
  0
LINE
  8
0
 10
17.599609375
 20
-46.80022430419922
 30
-0.20000576972961426
 11
18.159576416015625
 21
-46.69676208496094
 31
-0.200006365776062
  0
LINE
  8
0
 10
-52.779075622558594
 20
-19.372512817382812
 30
-0.20000576972961426
 11
-52.48810577392578
 21
-20.501266479492188
 31
-0.20000600814819336
  0
LINE
  8
0
 10
-33.74433898925781
 20
-36.891815185546875
 30
-0.2000058889389038
 11
-31.999671936035156
 21
-37.475341796875
 31
-0.20000582933425903
  0
LINE
  8
0
 10
-30.196868896484375
 20
-38.021636962890625
 30
-0.20000606775283813
 11
-28.339157104492188
 21
-38.52252960205078
 31
-0.200006365776062
  0
LINE
  8
0
 10
-34.556739807128906
 20
8.508634567260742
 30
-0.20000553131103516
 11
-33.794822692871094
 21
8.724166870117188
 31
-0.20000600814819336
  0
LINE
  8
0
 10
-6.054965972900391
 20
-58.595680236816406
 30
-0.20000624656677246
 11
-6.330188751220703
 21
-58.791893005371094
 31
-0.20000696182250977
  0
LINE
  8
0
 10
-52.12401580810547
 20
-21.616024017333984
 30
-0.20000648498535156
 11
-52.48810577392578
 21
-20.501266479492188
 31
-0.20000600814819336
  0
LINE
  8
0
 10
-11.051410675048828
 20
-61.36396026611328
 30
-0.20000457763671875
 11
-11.371055603027344
 21
-61.491825103759766
 31
-0.20000648498535156
  0
LINE
  8
0
 10
55.207740783691406
 20
-39.89144515991211
 30
-0.20000553131103516
 11
54.82512664794922
 21
-39.71613311767578
 31
-0.2000061273574829
  0
LINE
  8
0
 10
-2.319019317626953
 20
-55.4051628112793
 30
-0.20000600814819336
 11
-1.9325714111328125
 21
-55.106170654296875
 31
-0.20000529289245605
  0
LINE
  8
0
 10
59.30030822753906
 20
-39.507938385009766
 30
-0.20000594854354858
 11
59.52698516845703
 21
-39.34331512451172
 31
-0.20000535249710083
  0
LINE
  8
0
 10
4.921848297119141
 20
-50.976661682128906
 30
-0.20000505447387695
 11
5.436824798583984
 21
-50.73258590698242
 31
-0.20000672340393066
  0
LINE
  8
0
 10
13.6497802734375
 20
-47.720787048339844
 30
-0.20000600814819336
 11
14.214885711669922
 21
-47.568782806396484
 31
-0.20000481605529785
  0
LINE
  8
0
 10
65.62728118896484
 20
-21.60932731628418
 30
-0.20000576972961426
 11
65.6429443359375
 21
-20.984466552734375
 31
-0.20000600814819336
  0
LINE
  8
0
 10
63.066810607910156
 20
-33.72301483154297
 30
-0.20000584423542023
 11
63.3057861328125
 21
-33.14833068847656
 31
-0.20000582933425903
  0
LINE
  8
0
 10
63.155242919921875
 20
-8.84818172454834
 30
-0.20000600814819336
 11
63.317420959472656
 21
-8.992554664611816
 31
-0.20000624656677246
  0
LINE
  8
0
 10
63.47565460205078
 20
-9.153569221496582
 30
-0.20000600814819336
 11
63.317420959472656
 21
-8.992554664611816
 31
-0.20000624656677246
  0
LINE
  8
0
 10
59.35759735107422
 20
-8.34424114227295
 30
-0.20000600814819336
 11
59.69635772705078
 21
-8.271072387695312
 31
-0.20000553131103516
  0
LINE
  8
0
 10
-51.96000671386719
 20
-6.094290256500244
 30
-0.20000553131103516
 11
-51.37348175048828
 21
-4.803387641906738
 31
-0.20000600814819336
  0
LINE
  8
0
 10
-28.69293212890625
 20
9.848682403564453
 30
-0.20000553131103516
 11
-27.909759521484375
 21
9.958067893981934
 31
-0.20000553131103516
  0
LINE
  8
0
 10
-33.794822692871094
 20
8.724166870117188
 30
-0.20000600814819336
 11
-33.029701232910156
 21
8.92737102508545
 31
-0.20000600814819336
  0
LINE
  8
0
 10
-51.96000671386719
 20
-6.094290256500244
 30
-0.20000553131103516
 11
-52.44950866699219
 21
-7.380801200866699
 31
-0.20000600814819336
  0
LINE
  8
0
 10
1.03912353515625
 20
-53.08339309692383
 30
-0.20000720024108887
 11
1.4986648559570312
 21
-52.806541442871094
 31
-0.20000529289245605
  0
LINE
  8
0
 10
41.80738067626953
 20
-8.62530517578125
 30
-0.20000600814819336
 11
40.391510009765625
 21
-7.832668304443359
 31
-0.20000505447387695
  0
LINE
  8
0
 10
-9.363685607910156
 20
10.616256713867188
 30
-0.20000553131103516
 11
-9.309001922607422
 21
11.065674781799316
 31
-0.20000553131103516
  0
LINE
  8
0
 10
-3.13262939453125
 20
17.65623664855957
 30
-0.20000505447387695
 11
-2.82403564453125
 21
17.724918365478516
 31
-0.20000696182250977
  0
LINE
  8
0
 10
-3.434123992919922
 20
17.58046531677246
 30
-0.20000505447387695
 11
-3.13262939453125
 21
17.65623664855957
 31
-0.20000505447387695
  0
LINE
  8
0
 10
9.179946899414062
 20
-49.165931701660156
 30
-0.20000624656677246
 11
9.730567932128906
 21
-48.964012145996094
 31
-0.20000457763671875
  0
LINE
  8
0
 10
26.610946655273438
 20
-46.05179214477539
 30
-0.20000624656677246
 11
27.091140747070312
 21
-46.07587814331055
 31
-0.200006365776062
  0
LINE
  8
0
 10
-8.450950622558594
 20
-60.11159896850586
 30
-0.20000624656677246
 11
-8.77288818359375
 21
-60.2869873046875
 31
-0.20000696182250977
  0
LINE
  8
0
 10
-13.460453033447266
 20
-62.16210174560547
 30
-0.20000600814819336
 11
-13.729141235351562
 21
-62.22297668457031
 31
-0.20000553131103516
  0
LINE
  8
0
 10
50.94090270996094
 20
-37.490596771240234
 30
-0.2000068724155426
 11
49.406959533691406
 21
-36.54505920410156
 31
-0.20000618696212769
  0
LINE
  8
0
 10
56.98375701904297
 20
-40.205230712890625
 30
-0.20000582933425903
 11
57.21192169189453
 21
-40.193790435791016
 31
-0.20000624656677246
  0
LINE
  8
0
 10
58.455101013183594
 20
-8.56148910522461
 30
-0.20000505447387695
 11
58.95197296142578
 21
-8.438693046569824
 31
-0.20000553131103516
  0
LINE
  8
0
 10
18.159576416015625
 20
-46.69676208496094
 30
-0.200006365776062
 11
18.717453002929688
 21
-46.60051727294922
 31
-0.20000529289245605
  0
LINE
  8
0
 10
64.884521484375
 20
-12.227521896362305
 30
-0.20000576972961426
 11
64.7076644897461
 21
-11.622723579406738
 31
-0.20000553131103516
  0
LINE
  8
0
 10
60.76080322265625
 20
-38.08339309692383
 30
-0.2000058889389038
 11
60.9456787109375
 21
-37.843017578125
 31
-0.20000582933425903
  0
LINE
  8
0
 10
59.35759735107422
 20
-8.34424114227295
 30
-0.20000600814819336
 11
58.95197296142578
 21
-8.438693046569824
 31
-0.20000553131103516
  0
LINE
  8
0
 10
-31.999671936035156
 20
-37.475341796875
 30
-0.20000582933425903
 11
-30.196868896484375
 21
-38.021636962890625
 31
-0.20000606775283813
  0
LINE
  8
0
 10
38.966644287109375
 20
-7.056232929229736
 30
-0.20000553131103516
 11
40.391510009765625
 21
-7.832668304443359
 31
-0.20000505447387695
  0
LINE
  8
0
 10
25.56975555419922
 20
10.562973976135254
 30
-0.20000696182250977
 11
21.412113189697266
 21
12.23867416381836
 31
-0.20000600814819336
  0
LINE
  8
0
 10
-7.3320770263671875
 20
15.516090393066406
 30
-0.20000505447387695
 11
-7.1446685791015625
 21
15.691991806030273
 31
-0.20000600814819336
  0
LINE
  8
0
 10
-8.734306335449219
 20
13.539212226867676
 30
-0.20000648498535156
 11
-8.629096984863281
 21
13.770804405212402
 31
-0.20000648498535156
  0
LINE
  8
0
 10
2.8948440551757812
 20
17.785661697387695
 30
-0.20000553131103516
 11
3.9219894409179688
 21
17.634923934936523
 31
-0.20000600814819336
  0
LINE
  8
0
 10
1.948760986328125
 20
17.895090103149414
 30
-0.20000457763671875
 11
2.8948440551757812
 21
17.785661697387695
 31
-0.20000553131103516
  0
LINE
  8
0
 10
22.536026000976562
 20
-46.13321304321289
 30
-0.20000720024108887
 11
23.065231323242188
 21
-46.0964241027832
 31
-0.2000054121017456
  0
LINE
  8
0
 10
18.717453002929688
 20
-46.60051727294922
 30
-0.20000529289245605
 11
19.27289581298828
 21
-46.51154708862305
 31
-0.20000553131103516
  0
LINE
  8
0
 10
65.64928436279297
 20
-20.358821868896484
 30
-0.20000624656677246
 11
65.6429443359375
 21
-20.984466552734375
 31
-0.20000600814819336
  0
LINE
  8
0
 10
63.535621643066406
 20
-32.569786071777344
 30
-0.20000621676445007
 11
63.3057861328125
 21
-33.14833068847656
 31
-0.20000582933425903
  0
LINE
  8
0
 10
64.99453735351562
 20
-27.17180824279785
 30
-0.200006365776062
 11
64.86957550048828
 21
-27.780784606933594
 31
-0.20000576972961426
  0
LINE
  8
0
 10
65.10950469970703
 20
-26.560876846313477
 30
-0.2000058889389038
 11
65.21373748779297
 21
-25.947933197021484
 31
-0.2000061273574829
  0
LINE
  8
0
 10
64.5137710571289
 20
-11.027704238891602
 30
-0.20000576972961426
 11
64.7076644897461
 21
-11.622723579406738
 31
-0.20000553131103516
  0
LINE
  8
0
 10
59.96229553222656
 20
-38.966712951660156
 30
-0.20000606775283813
 11
59.747703552246094
 21
-39.16206359863281
 31
-0.20000654458999634
  0
LINE
  8
0
 10
61.123939514160156
 20
-37.595577239990234
 30
-0.20000672340393066
 11
60.9456787109375
 21
-37.843017578125
 31
-0.20000582933425903
  0
LINE
  8
0
 10
23.065231323242188
 20
-46.0964241027832
 30
-0.2000054121017456
 11
23.589385986328125
 21
-46.06721496582031
 31
-0.20000576972961426
  0
LINE
  8
0
 10
59.98370361328125
 20
-8.215425491333008
 30
-0.20000553131103516
 11
59.69635772705078
 21
-8.271072387695312
 31
-0.20000553131103516
  0
LINE
  8
0
 10
-25.943862915039062
 20
10.145461082458496
 30
-0.20000648498535156
 11
-26.97954559326172
 21
10.055827140808105
 31
-0.20000648498535156
  0
LINE
  8
0
 10
64.7353515625
 20
-28.387847900390625
 30
-0.20000600814819336
 11
64.86957550048828
 21
-27.780784606933594
 31
-0.20000576972961426
  0
LINE
  8
0
 10
-44.07086181640625
 20
-31.808847427368164
 30
-0.20000550150871277
 11
-45.239830017089844
 21
-30.908248901367188
 31
-0.20000606775283813
  0
LINE
  8
0
 10
-35.310577392578125
 20
8.28184700012207
 30
-0.20000600814819336
 11
-36.05278015136719
 21
8.044740676879883
 31
-0.20000600814819336
  0
LINE
  8
0
 10
27.091140747070312
 20
-46.07587814331055
 30
-0.200006365776062
 11
27.563865661621094
 21
-46.10755157470703
 31
-0.20000684261322021
  0
LINE
  8
0
 10
-1.9325714111328125
 20
-55.106170654296875
 30
-0.20000529289245605
 11
-1.5361137390136719
 21
-54.809329986572266
 31
-0.20000553131103516
  0
LINE
  8
0
 10
14.214885711669922
 20
-47.568782806396484
 30
-0.20000481605529785
 11
14.780277252197266
 21
-47.4234733581543
 31
-0.20000529289245605
  0
LINE
  8
0
 10
9.730567932128906
 20
-48.964012145996094
 30
-0.20000457763671875
 11
10.284175872802734
 21
-48.7679443359375
 31
-0.20000624656677246
  0
LINE
  8
0
 10
-6.330188751220703
 20
-58.791893005371094
 30
-0.20000696182250977
 11
-6.613758087158203
 21
-58.98711395263672
 31
-0.20000457763671875
  0
LINE
  8
0
 10
-11.371055603027344
 20
-61.491825103759766
 30
-0.20000648498535156
 11
-11.686901092529297
 21
-61.6121940612793
 31
-0.20000696182250977
  0
LINE
  8
0
 10
-14.2781982421875
 20
-62.339969635009766
 30
-0.20000696182250977
 11
-13.729141235351562
 21
-62.22297668457031
 31
-0.20000553131103516
  0
LINE
  8
0
 10
57.66404724121094
 20
-40.145023345947266
 30
-0.2000064253807068
 11
57.890045166015625
 21
-40.10346221923828
 31
-0.2000056505203247
  0
LINE
  8
0
 10
58.11920928955078
 20
-40.048580169677734
 30
-0.200006365776062
 11
57.890045166015625
 21
-40.10346221923828
 31
-0.2000056505203247
  0
LINE
  8
0
 10
59.52698516845703
 20
-39.34331512451172
 30
-0.20000535249710083
 11
59.747703552246094
 21
-39.16206359863281
 31
-0.20000654458999634
  0
LINE
  8
0
 10
5.436824798583984
 20
-50.73258590698242
 30
-0.20000672340393066
 11
5.957374572753906
 21
-50.49329376220703
 31
-0.20000529289245605
  0
LINE
  8
0
 10
62.469886779785156
 20
-8.4251708984375
 30
-0.20000648498535156
 11
62.64612579345703
 21
-8.508376121520996
 31
-0.20000600814819336
  0
LINE
  8
0
 10
62.81939697265625
 20
-8.606225967407227
 30
-0.20000600814819336
 11
62.64612579345703
 21
-8.508376121520996
 31
-0.20000600814819336
  0
LINE
  8
0
 10
65.30689239501953
 20
-25.333045959472656
 30
-0.20000576972961426
 11
65.21373748779297
 21
-25.947933197021484
 31
-0.2000061273574829
  0
LINE
  8
0
 10
-40.142982482910156
 20
6.459272384643555
 30
-0.20000600814819336
 11
-40.73448944091797
 21
6.17753267288208
 31
-0.20000553131103516
  0
LINE
  8
0
 10
29.940662384033203
 20
8.73275375366211
 30
-0.20000696182250977
 11
25.56975555419922
 21
10.562973976135254
 31
-0.20000696182250977
  0
LINE
  8
0
 10
-26.22899627685547
 20
-44.5528450012207
 30
-0.20000684261322021
 11
-18.119991302490234
 21
-44.2657585144043
 31
-0.20000481605529785
  0
LINE
  8
0
 10
-4.841339111328125
 20
17.10816764831543
 30
-0.20000600814819336
 11
-4.572856903076172
 21
17.214370727539062
 31
-0.20000600814819336
  0
LINE
  8
0
 10
-50.691978454589844
 20
-3.515979528427124
 30
-0.20000553131103516
 11
-49.925498962402344
 21
-2.24031400680542
 31
-0.20000553131103516
  0
LINE
  8
0
 10
-2.5081405639648438
 20
17.786060333251953
 30
-0.20000553131103516
 11
-2.82403564453125
 21
17.724918365478516
 31
-0.20000696182250977
  0
LINE
  8
0
 10
5.045619964599609
 20
17.43348503112793
 30
-0.20000648498535156
 11
3.9219894409179688
 21
17.634923934936523
 31
-0.20000600814819336
  0
LINE
  8
0
 10
-4.297954559326172
 20
17.314748764038086
 30
-0.20000553131103516
 11
-4.572856903076172
 21
17.214370727539062
 31
-0.20000600814819336
  0
LINE
  8
0
 10
-26.22899627685547
 20
-44.5528450012207
 30
-0.20000684261322021
 11
-26.4581298828125
 21
-38.89685821533203
 31
-0.20000654458999634
  0
LINE
  8
0
 10
1.4986648559570312
 20
-52.806541442871094
 30
-0.20000529289245605
 11
1.9661521911621094
 21
-52.53322219848633
 31
-0.20000433921813965
  0
LINE
  8
0
 10
-25.943862915039062
 20
10.145461082458496
 30
-0.20000648498535156
 11
-24.86724090576172
 21
10.227380752563477
 31
-0.20000553131103516
  0
LINE
  8
0
 10
-51.37348175048828
 20
-4.803387641906738
 30
-0.20000600814819336
 11
-50.691978454589844
 21
-3.515979528427124
 31
-0.20000553131103516
  0
LINE
  8
0
 10
21.412113189697266
 20
12.23867416381836
 30
-0.20000600814819336
 11
17.546199798583984
 21
13.701180458068848
 31
-0.20000648498535156
  0
LINE
  8
0
 10
-9.243011474609375
 20
11.539453506469727
 30
-0.20000553131103516
 11
-9.309001922607422
 21
11.065674781799316
 31
-0.20000553131103516
  0
LINE
  8
0
 10
-47.33732604980469
 20
-29.000137329101562
 30
-0.20000571012496948
 11
-46.32502746582031
 21
-29.968835830688477
 31
-0.2000061273574829
  0
LINE
  8
0
 10
-44.47111511230469
 20
3.8294677734375
 30
-0.20000553131103516
 11
-43.77911376953125
 21
4.331425189971924
 31
-0.20000648498535156
  0
LINE
  8
0
 10
-44.47111511230469
 20
3.8294677734375
 30
-0.20000553131103516
 11
-45.300621032714844
 21
3.1265006065368652
 31
-0.20000648498535156
  0
LINE
  8
0
 10
43.87401580810547
 20
-47.297428131103516
 30
-0.20000624656677246
 11
27.563865661621094
 21
-46.10755157470703
 31
-0.20000684261322021
  0
LINE
  8
0
 10
-6.948692321777344
 20
15.862555503845215
 30
-0.20000553131103516
 11
-7.1446685791015625
 21
15.691991806030273
 31
-0.20000600814819336
  0
LINE
  8
0
 10
-8.77288818359375
 20
-60.2869873046875
 30
-0.20000696182250977
 11
-9.0972900390625
 21
-60.45777893066406
 31
-0.20000600814819336
  0
LINE
  8
0
 10
-8.517303466796875
 20
13.986212730407715
 30
-0.20000553131103516
 11
-8.629096984863281
 21
13.770804405212402
 31
-0.20000648498535156
  0
LINE
  8
0
 10
-40.142982482910156
 20
6.459272384643555
 30
-0.20000600814819336
 11
-39.51478576660156
 21
6.735956192016602
 31
-0.20000600814819336
  0
LINE
  8
0
 10
-18.119991302490234
 20
-44.2657585144043
 30
-0.20000481605529785
 11
-17.396873474121094
 21
-47.667762756347656
 31
-0.20000457763671875
  0
LINE
  8
0
 10
-14.2781982421875
 20
-62.339969635009766
 30
-0.20000696182250977
 11
-17.396873474121094
 21
-47.667762756347656
 31
-0.20000457763671875
  0
LINE
  8
0
 10
57.097129821777344
 20
-34.182342529296875
 30
-0.2000063806772232
 11
57.196083068847656
 21
-34.217750549316406
 31
-0.2000056505203247
  0
LINE
  8
0
 10
57.097129821777344
 20
-34.182342529296875
 30
-0.2000063806772232
 11
56.99517059326172
 21
-34.15680694580078
 31
-0.2000056356191635
  0
LINE
  8
0
 10
56.28136444091797
 20
-34.26268768310547
 30
-0.2000052034854889
 11
56.376380920410156
 21
-34.217750549316406
 31
-0.2000056505203247
  0
LINE
  8
0
 10
-2.7055702209472656
 20
12.98042106628418
 30
-0.20000696182250977
 11
-2.6901473999023438
 21
12.876447677612305
 31
-0.20000600814819336
  0
LINE
  8
0
 10
-2.530231475830078
 20
12.490378379821777
 30
-0.20000600814819336
 11
-2.5842628479003906
 21
12.580520629882812
 31
-0.20000600814819336
  0
LINE
  8
0
 10
-2.530231475830078
 20
12.490378379821777
 30
-0.20000600814819336
 11
-2.467620849609375
 21
12.405957221984863
 31
-0.20000648498535156
  0
LINE
  8
0
 10
-2.2347412109375
 20
12.194881439208984
 30
-0.20000600814819336
 11
-2.319164276123047
 21
12.257491111755371
 31
-0.20000553131103516
  0
LINE
  8
0
 10
-1.7447052001953125
 20
14.151226997375488
 30
-0.20000553131103516
 11
-1.8486709594726562
 21
14.135812759399414
 31
-0.20000600814819336
  0
LINE
  8
0
 10
-2.2347412109375
 20
12.194881439208984
 30
-0.20000600814819336
 11
-2.14459228515625
 21
12.140848159790039
 31
-0.20000600814819336
  0
LINE
  8
0
 10
-1.3288345336914062
 20
12.060508728027344
 30
-0.20000648498535156
 11
-1.4307861328125
 21
12.03496265411377
 31
-0.20000553131103516
  0
LINE
  8
0
 10
-1.3288345336914062
 20
12.060508728027344
 30
-0.20000648498535156
 11
-1.2298736572265625
 21
12.095913887023926
 31
-0.20000505447387695
  0
LINE
  8
0
 10
-1.7447052001953125
 20
14.151226997375488
 30
-0.20000553131103516
 11
-1.6397285461425781
 21
14.156389236450195
 31
-0.20000553131103516
  0
LINE
  8
0
 10
29.69540023803711
 20
-7.955043792724609
 30
-0.20000553131103516
 11
29.71082305908203
 21
-8.059015274047852
 31
-0.20000600814819336
  0
LINE
  8
0
 10
29.870738983154297
 20
-8.445084571838379
 30
-0.20000696182250977
 11
29.81670379638672
 21
-8.354936599731445
 31
-0.20000553131103516
  0
LINE
  8
0
 10
29.870738983154297
 20
-8.445084571838379
 30
-0.20000696182250977
 11
29.933349609375
 21
-8.529505729675293
 31
-0.20000553131103516
  0
LINE
  8
0
 10
30.081809997558594
 20
-7.022175312042236
 30
-0.20000648498535156
 11
30.166229248046875
 21
-6.959568023681641
 31
-0.20000648498535156
  0
LINE
  8
0
 10
30.55229949951172
 20
-8.900494575500488
 30
-0.20000553131103516
 11
30.450347900390625
 21
-8.874958038330078
 31
-0.20000576972961426
  0
LINE
  8
0
 10
30.081809997558594
 20
-7.022175312042236
 30
-0.20000648498535156
 11
30.003929138183594
 21
-7.092761993408203
 31
-0.20000648498535156
  0
LINE
  8
0
 10
31.440677642822266
 20
-7.022175312042236
 30
-0.20000648498535156
 11
31.356258392333984
 21
-6.959568023681641
 31
-0.20000648498535156
  0
LINE
  8
0
 10
31.705780029296875
 20
-7.345202922821045
 30
-0.20000648498535156
 11
31.651748657226562
 21
-7.255056858062744
 31
-0.20000600814819336
  0
LINE
  8
0
 10
7.093807220458984
 20
-45.70249557495117
 30
-0.20000708103179932
 11
7.039772033691406
 21
-45.79264450073242
 31
-0.2000058889389038
  0
LINE
  8
0
 10
31.705780029296875
 20
-7.345202922821045
 30
-0.20000648498535156
 11
31.750717163085938
 21
-7.440213680267334
 31
-0.20000648498535156
  0
LINE
  8
0
 10
31.440677642822266
 20
-7.022175312042236
 30
-0.20000648498535156
 11
31.5185546875
 21
-7.092761993408203
 31
-0.20000648498535156
  0
LINE
  8
0
 10
30.86621856689453
 20
-6.784229755401611
 30
-0.20000553131103516
 11
30.761241912841797
 21
-6.779069900512695
 31
-0.20000553131103516
  0
LINE
  8
0
 10
5.078269958496094
 20
-45.197628021240234
 30
-0.20000672340393066
 11
5.083427429199219
 21
-45.30260467529297
 31
-0.20000696182250977
  0
LINE
  8
0
 10
5.078269958496094
 20
-45.197628021240234
 30
-0.20000672340393066
 11
5.083427429199219
 21
-45.092655181884766
 31
-0.2000061273574829
  0
LINE
  8
0
 10
5.4698333740234375
 20
-44.36973571777344
 30
-0.20000684261322021
 11
5.391956329345703
 21
-44.4403190612793
 31
-0.20000553131103516
  0
LINE
  8
0
 10
5.4698333740234375
 20
-44.36973571777344
 30
-0.20000684261322021
 11
5.554256439208984
 21
-44.307125091552734
 31
-0.2000066041946411
  0
LINE
  8
0
 10
6.044292449951172
 20
-44.13178634643555
 30
-0.2000061273574829
 11
6.149269104003906
 21
-44.12662887573242
 31
-0.2000054121017456
  0
LINE
  8
0
 10
6.906581878662109
 20
-44.4403190612793
 30
-0.20000553131103516
 11
6.977165222167969
 21
-44.518192291259766
 31
-0.20000672340393066
  0
LINE
  8
0
 10
6.906581878662109
 20
-44.4403190612793
 30
-0.20000553131103516
 11
6.828704833984375
 21
-44.36973571777344
 31
-0.20000684261322021
  0
LINE
  8
0
 10
7.215110778808594
 20
-45.092655181884766
 30
-0.20000600814819336
 11
7.220268249511719
 21
-45.1976318359375
 31
-0.20000648498535156
  0
LINE
  8
0
 10
5.258766174316406
 20
-45.79264450073242
 30
-0.2000056505203247
 11
5.321376800537109
 21
-45.8770637512207
 31
-0.20000481605529785
  0
LINE
  8
0
 10
-48.784175872802734
 20
-20.912145614624023
 30
-0.20000576972961426
 11
-48.8291130065918
 21
-20.817134857177734
 31
-0.20000600814819336
  0
LINE
  8
0
 10
-48.51906967163086
 20
-21.23517417907715
 30
-0.20000576972961426
 11
-48.43465042114258
 21
-21.29778289794922
 31
-0.20000529289245605
  0
LINE
  8
0
 10
-47.94460678100586
 20
-21.47312355041504
 30
-0.20000553131103516
 11
-48.048580169677734
 21
-21.45770263671875
 31
-0.20000481605529785
  0
LINE
  8
0
 10
-47.16019821166992
 20
-21.23517417907715
 30
-0.20000576972961426
 11
-47.08232498168945
 21
-21.164592742919922
 31
-0.20000600814819336
  0
LINE
  8
0
 10
-48.51906967163086
 20
-21.23517417907715
 30
-0.20000576972961426
 11
-48.59695053100586
 21
-21.164592742919922
 31
-0.20000600814819336
  0
LINE
  8
0
 10
-47.16019821166992
 20
-21.23517417907715
 30
-0.20000576972961426
 11
-47.244625091552734
 21
-21.29778289794922
 31
-0.20000529289245605
  0
LINE
  8
0
 10
-46.89509201049805
 20
-20.912145614624023
 30
-0.20000576972961426
 11
-46.94913101196289
 21
-21.00229835510254
 31
-0.20000576972961426
  0
LINE
  8
0
 10
-46.89509201049805
 20
-20.912145614624023
 30
-0.20000576972961426
 11
-46.850154876708984
 21
-20.817134857177734
 31
-0.20000600814819336
  0
LINE
  8
0
 10
-48.784175872802734
 20
-20.912145614624023
 30
-0.20000576972961426
 11
-48.73014450073242
 21
-21.00229835510254
 31
-0.20000576972961426
  0
LINE
  8
0
 10
-47.94460678100586
 20
-21.47312355041504
 30
-0.20000553131103516
 11
-47.83963394165039
 21
-21.47827911376953
 31
-0.20000624656677246
  0
LINE
  8
0
 10
-47.73466110229492
 20
-21.47312355041504
 30
-0.20000553131103516
 11
-47.63069534301758
 21
-21.45770263671875
 31
-0.20000481605529785
  0
LINE
  8
0
 10
-47.73466110229492
 20
-21.47312355041504
 30
-0.20000553131103516
 11
-47.83963394165039
 21
-21.47827911376953
 31
-0.20000624656677246
  0
LINE
  8
0
 10
-46.773799896240234
 20
-20.302303314208984
 30
-0.20000648498535156
 11
-46.78921127319336
 21
-20.198341369628906
 31
-0.20000624656677246
  0
LINE
  8
0
 10
30.86621856689453
 20
-6.784229755401611
 30
-0.20000553131103516
 11
30.970184326171875
 21
-6.799648761749268
 31
-0.20000696182250977
  0
LINE
  8
0
 10
56.10679626464844
 20
-36.03512191772461
 30
-0.200006365776062
 11
56.02892303466797
 21
-35.96453857421875
 31
-0.20000509917736053
  0
LINE
  8
0
 10
56.10679626464844
 20
-36.03512191772461
 30
-0.200006365776062
 11
56.19121551513672
 21
-36.09772872924805
 31
-0.20000505447387695
  0
LINE
  8
0
 10
57.676734924316406
 20
-35.802242279052734
 30
-0.2000061720609665
 11
57.61412811279297
 21
-35.886661529541016
 31
-0.20000596344470978
  0
LINE
  8
0
 10
57.676734924316406
 20
-35.802242279052734
 30
-0.2000061720609665
 11
57.73076629638672
 21
-35.712093353271484
 31
-0.20000556111335754
  0
LINE
  8
0
 10
55.76134490966797
 20
-35.518123626708984
 30
-0.20000551640987396
 11
55.735816955566406
 21
-35.416168212890625
 31
-0.2000063955783844
  0
LINE
  8
0
 10
57.77570343017578
 20
-34.79737091064453
 30
-0.20000609755516052
 11
57.811119079589844
 21
-34.896331787109375
 31
-0.2000061273574829
  0
LINE
  8
0
 10
57.77570343017578
 20
-34.79737091064453
 30
-0.20000609755516052
 11
57.73076629638672
 21
-34.702362060546875
 31
-0.20000529289245605
  0
LINE
  8
0
 10
55.72039031982422
 20
-35.10224914550781
 30
-0.20000562071800232
 11
55.735816955566406
 21
-34.99828338623047
 31
-0.20000651478767395
  0
LINE
  8
0
 10
56.28136444091797
 20
-34.26268768310547
 30
-0.2000052034854889
 11
56.19121551513672
 21
-34.31672286987305
 31
-0.20000594854354858
  0
LINE
  8
0
 10
-46.89509201049805
 20
-19.902416229248047
 30
-0.20000600814819336
 11
-46.850154876708984
 21
-19.99742889404297
 31
-0.20000481605529785
  0
LINE
  8
0
 10
-47.73466110229492
 20
-19.34143829345703
 30
-0.20000624656677246
 11
-47.83963394165039
 21
-19.336280822753906
 31
-0.20000576972961426
  0
LINE
  8
0
 10
-48.784175872802734
 20
-19.902416229248047
 30
-0.20000600814819336
 11
-48.73014450073242
 21
-19.812265396118164
 31
-0.20000600814819336
  0
LINE
  8
0
 10
-48.784175872802734
 20
-19.902416229248047
 30
-0.20000600814819336
 11
-48.8291130065918
 21
-19.99742889404297
 31
-0.20000481605529785
  0
LINE
  8
0
 10
-48.51906967163086
 20
-19.57938575744629
 30
-0.20000648498535156
 11
-48.59695053100586
 21
-19.64997100830078
 31
-0.20000576972961426
  0
LINE
  8
0
 10
57.196083068847656
 20
-34.217750549316406
 30
-0.2000056505203247
 11
57.291099548339844
 21
-34.26268768310547
 31
-0.2000052034854889
  0
LINE
  8
0
 10
-2.7055702209472656
 20
13.190369606018066
 30
-0.20000600814819336
 11
-2.6901473999023438
 21
13.29433536529541
 31
-0.20000648498535156
  0
LINE
  8
0
 10
-2.467620849609375
 20
13.764825820922852
 30
-0.20000553131103516
 11
-2.530231475830078
 21
13.680412292480469
 31
-0.20000600814819336
  0
LINE
  8
0
 10
-2.14459228515625
 20
14.029927253723145
 30
-0.20000600814819336
 11
-2.2347412109375
 21
13.975881576538086
 31
-0.20000553131103516
  0
LINE
  8
0
 10
-2.14459228515625
 20
14.029927253723145
 30
-0.20000600814819336
 11
-2.0495834350585938
 21
14.074857711791992
 31
-0.20000600814819336
  0
LINE
  8
0
 10
-2.467620849609375
 20
13.764825820922852
 30
-0.20000553131103516
 11
-2.3970413208007812
 21
13.842697143554688
 31
-0.20000505447387695
  0
LINE
  8
0
 10
-1.3288345336914062
 20
14.110281944274902
 30
-0.20000553131103516
 11
-1.4307861328125
 21
14.135812759399414
 31
-0.20000600814819336
  0
LINE
  8
0
 10
30.166229248046875
 20
-8.740574836730957
 30
-0.20000553131103516
 11
30.256378173828125
 21
-8.794614791870117
 31
-0.20000553131103516
  0
LINE
  8
0
 10
29.69540023803711
 20
-7.745099067687988
 30
-0.20000553131103516
 11
29.71082305908203
 21
-7.641127586364746
 31
-0.20000553131103516
  0
LINE
  8
0
 10
29.933349609375
 20
-7.170635223388672
 30
-0.20000553131103516
 11
29.870738983154297
 21
-7.255056858062744
 31
-0.20000600814819336
  0
LINE
  8
0
 10
30.166229248046875
 20
-8.740574836730957
 30
-0.20000553131103516
 11
30.081809997558594
 21
-8.67796802520752
 31
-0.20000505447387695
  0
LINE
  8
0
 10
30.656265258789062
 20
-6.784229755401611
 30
-0.20000553131103516
 11
30.55229949951172
 21
-6.799648761749268
 31
-0.20000696182250977
  0
LINE
  8
0
 10
29.933349609375
 20
-7.170635223388672
 30
-0.20000553131103516
 11
30.003929138183594
 21
-7.092761993408203
 31
-0.20000648498535156
  0
LINE
  8
0
 10
31.07213592529297
 20
-8.874958038330078
 30
-0.20000576972961426
 11
30.970184326171875
 21
-8.900494575500488
 31
-0.20000553131103516
  0
LINE
  8
0
 10
31.07213592529297
 20
-8.874958038330078
 30
-0.20000576972961426
 11
31.171096801757812
 21
-8.839545249938965
 31
-0.20000624656677246
  0
LINE
  8
0
 10
30.656265258789062
 20
-6.784229755401611
 30
-0.20000553131103516
 11
30.761241912841797
 21
-6.779069900512695
 31
-0.20000553131103516
  0
LINE
  8
0
 10
6.254245758056641
 20
-44.13178634643555
 30
-0.20000600814819336
 11
6.358211517333984
 21
-44.14720916748047
 31
-0.2000054121017456
  0
LINE
  8
0
 10
7.039772033691406
 20
-44.60261535644531
 30
-0.20000529289245605
 11
6.977165222167969
 21
-44.518192291259766
 31
-0.20000672340393066
  0
LINE
  8
0
 10
7.039772033691406
 20
-44.60261535644531
 30
-0.20000529289245605
 11
7.093807220458984
 21
-44.69276428222656
 31
-0.20000600814819336
  0
LINE
  8
0
 10
5.098846435546875
 20
-45.40657043457031
 30
-0.20000696182250977
 11
5.124385833740234
 21
-45.50852584838867
 31
-0.20000720024108887
  0
LINE
  8
0
 10
7.039772033691406
 20
-45.79264450073242
 30
-0.2000058889389038
 11
6.977165222167969
 21
-45.8770637512207
 31
-0.20000481605529785
  0
LINE
  8
0
 10
6.559123992919922
 20
-46.187103271484375
 30
-0.20000600814819336
 11
6.654136657714844
 21
-46.14216613769531
 31
-0.200006365776062
  0
LINE
  8
0
 10
6.559123992919922
 20
-46.187103271484375
 30
-0.20000600814819336
 11
6.460163116455078
 21
-46.22251510620117
 31
-0.20000720024108887
  0
LINE
  8
0
 10
5.4698333740234375
 20
-46.0255241394043
 30
-0.2000061273574829
 11
5.554256439208984
 21
-46.088134765625
 31
-0.2000046968460083
  0
LINE
  8
0
 10
-48.9106330871582
 20
-20.40727996826172
 30
-0.20000600814819336
 11
-48.90547561645508
 21
-20.302303314208984
 31
-0.20000648498535156
  0
LINE
  8
0
 10
-48.51906967163086
 20
-19.57938575744629
 30
-0.20000648498535156
 11
-48.43465042114258
 21
-19.51677703857422
 31
-0.20000600814819336
  0
LINE
  8
0
 10
-47.94460678100586
 20
-19.34143829345703
 30
-0.20000624656677246
 11
-48.048580169677734
 21
-19.35685920715332
 31
-0.20000600814819336
  0
LINE
  8
0
 10
-47.73466110229492
 20
-19.34143829345703
 30
-0.20000624656677246
 11
-47.63069534301758
 21
-19.35685920715332
 31
-0.20000600814819336
  0
LINE
  8
0
 10
-47.16019821166992
 20
-19.57938575744629
 30
-0.20000648498535156
 11
-47.244625091552734
 21
-19.51677703857422
 31
-0.20000600814819336
  0
LINE
  8
0
 10
-46.89509201049805
 20
-19.902416229248047
 30
-0.20000600814819336
 11
-46.94913101196289
 21
-19.812265396118164
 31
-0.20000600814819336
  0
LINE
  8
0
 10
-48.9106330871582
 20
-20.40727996826172
 30
-0.20000600814819336
 11
-48.90547561645508
 21
-20.512256622314453
 31
-0.20000648498535156
  0
LINE
  8
0
 10
6.254245758056641
 20
-44.13178634643555
 30
-0.20000600814819336
 11
6.149269104003906
 21
-44.12662887573242
 31
-0.2000054121017456
  0
LINE
  8
0
 10
5.083427429199219
 20
-45.30260467529297
 30
-0.20000696182250977
 11
5.098846435546875
 21
-45.40657043457031
 31
-0.20000696182250977
  0
LINE
  8
0
 10
-47.16019821166992
 20
-19.57938575744629
 30
-0.20000648498535156
 11
-47.08232498168945
 21
-19.64997100830078
 31
-0.20000576972961426
  0
LINE
  8
0
 10
56.02892303466797
 20
-35.96453857421875
 30
-0.20000509917736053
 11
55.958335876464844
 21
-35.886661529541016
 31
-0.20000596344470978
  0
LINE
  8
0
 10
55.735816955566406
 20
-34.99828338623047
 30
-0.20000651478767395
 11
55.76134490966797
 21
-34.896331787109375
 31
-0.2000061273574829
  0
LINE
  8
0
 10
-47.94460678100586
 20
-19.34143829345703
 30
-0.20000624656677246
 11
-47.83963394165039
 21
-19.336280822753906
 31
-0.20000576972961426
  0
LINE
  8
0
 10
-1.3288345336914062
 20
14.110281944274902
 30
-0.20000553131103516
 11
-1.2298736572265625
 21
14.074857711791992
 31
-0.20000600814819336
  0
LINE
  8
0
 10
-48.66753005981445
 20
-21.086715698242188
 30
-0.20000600814819336
 11
-48.73014450073242
 21
-21.00229835510254
 31
-0.20000576972961426
  0
LINE
  8
0
 10
57.381248474121094
 20
-34.31672286987305
 30
-0.20000594854354858
 11
57.465667724609375
 21
-34.37933349609375
 31
-0.2000063955783844
  0
LINE
  8
0
 10
57.381248474121094
 20
-34.31672286987305
 30
-0.20000594854354858
 11
57.291099548339844
 21
-34.26268768310547
 31
-0.2000052034854889
  0
LINE
  8
0
 10
-2.66461181640625
 20
13.396283149719238
 30
-0.20000505447387695
 11
-2.6901473999023438
 21
13.29433536529541
 31
-0.20000648498535156
  0
LINE
  8
0
 10
-2.66461181640625
 20
13.396283149719238
 30
-0.20000505447387695
 11
-2.6292037963867188
 21
13.495247840881348
 31
-0.20000600814819336
  0
LINE
  8
0
 10
-0.6148452758789062
 20
12.774499893188477
 30
-0.20000600814819336
 11
-0.5893058776855469
 21
12.876447677612305
 31
-0.20000600814819336
  0
LINE
  8
0
 10
-0.6148452758789062
 20
12.774499893188477
 30
-0.20000600814819336
 11
-0.6502532958984375
 21
12.675539016723633
 31
-0.20000648498535156
  0
LINE
  8
0
 10
29.71082305908203
 20
-8.059015274047852
 30
-0.20000600814819336
 11
29.736358642578125
 21
-8.160966873168945
 31
-0.20000410079956055
  0
LINE
  8
0
 10
30.256378173828125
 20
-6.905532360076904
 30
-0.20000600814819336
 11
30.166229248046875
 21
-6.959568023681641
 31
-0.20000648498535156
  0
LINE
  8
0
 10
30.256378173828125
 20
-6.905532360076904
 30
-0.20000600814819336
 11
30.35138702392578
 21
-6.860597610473633
 31
-0.20000505447387695
  0
LINE
  8
0
 10
31.07213592529297
 20
-6.825189113616943
 30
-0.20000600814819336
 11
30.970184326171875
 21
-6.799648761749268
 31
-0.20000696182250977
  0
LINE
  8
0
 10
31.07213592529297
 20
-6.825189113616943
 30
-0.20000600814819336
 11
31.171096801757812
 21
-6.860597610473633
 31
-0.20000505447387695
  0
LINE
  8
0
 10
5.083427429199219
 20
-45.092655181884766
 30
-0.2000061273574829
 11
5.098846435546875
 21
-44.98868942260742
 31
-0.20000600814819336
  0
LINE
  8
0
 10
5.644405364990234
 20
-44.25309371948242
 30
-0.20000481605529785
 11
5.739414215087891
 21
-44.208152770996094
 31
-0.20000731945037842
  0
LINE
  8
0
 10
5.644405364990234
 20
-44.25309371948242
 30
-0.20000481605529785
 11
5.554256439208984
 21
-44.307125091552734
 31
-0.2000066041946411
  0
LINE
  8
0
 10
7.220268249511719
 20
-45.1976318359375
 30
-0.20000648498535156
 11
7.215110778808594
 21
-45.302608489990234
 31
-0.2000066041946411
  0
LINE
  8
0
 10
5.159793853759766
 20
-45.60748291015625
 30
-0.2000066041946411
 11
5.204734802246094
 21
-45.70249557495117
 31
-0.20000708103179932
  0
LINE
  8
0
 10
5.644405364990234
 20
-46.14216995239258
 30
-0.20000624656677246
 11
5.739414215087891
 21
-46.18710708618164
 31
-0.20000576972961426
  0
LINE
  8
0
 10
-48.90547561645508
 20
-20.512256622314453
 30
-0.20000648498535156
 11
-48.89005661010742
 21
-20.616222381591797
 31
-0.20000648498535156
  0
LINE
  8
0
 10
-48.34450149536133
 20
-21.351818084716797
 30
-0.20000576972961426
 11
-48.24949264526367
 21
-21.39675521850586
 31
-0.20000624656677246
  0
LINE
  8
0
 10
-48.66753005981445
 20
-21.086715698242188
 30
-0.20000600814819336
 11
-48.59695053100586
 21
-21.164592742919922
 31
-0.20000600814819336
  0
LINE
  8
0
 10
-47.528743743896484
 20
-21.432165145874023
 30
-0.20000648498535156
 11
-47.63069534301758
 21
-21.45770263671875
 31
-0.20000481605529785
  0
LINE
  8
0
 10
-47.528743743896484
 20
-21.432165145874023
 30
-0.20000648498535156
 11
-47.42978286743164
 21
-21.39675521850586
 31
-0.20000624656677246
  0
LINE
  8
0
 10
-48.34450149536133
 20
-21.351818084716797
 30
-0.20000576972961426
 11
-48.43465042114258
 21
-21.29778289794922
 31
-0.20000529289245605
  0
LINE
  8
0
 10
5.644405364990234
 20
-46.14216995239258
 30
-0.20000624656677246
 11
5.554256439208984
 21
-46.088134765625
 31
-0.2000046968460083
  0
LINE
  8
0
 10
56.19121551513672
 20
-36.09772872924805
 30
-0.20000505447387695
 11
56.28136444091797
 21
-36.151763916015625
 31
-0.2000056505203247
  0
LINE
  8
0
 10
57.097129821777344
 20
-36.23210906982422
 30
-0.20000572502613068
 11
56.99517059326172
 21
-36.25764846801758
 31
-0.2000061720609665
  0
LINE
  8
0
 10
57.097129821777344
 20
-36.23210906982422
 30
-0.20000572502613068
 11
57.196083068847656
 21
-36.19670104980469
 31
-0.20000630617141724
  0
LINE
  8
0
 10
57.811119079589844
 20
-35.518123626708984
 30
-0.20000551640987396
 11
57.77570343017578
 21
-35.61708068847656
 31
-0.20000584423542023
  0
LINE
  8
0
 10
57.85723114013672
 20
-35.20722579956055
 30
-0.20000605285167694
 11
57.852073669433594
 21
-35.10224914550781
 31
-0.20000562071800232
  0
LINE
  8
0
 10
57.811119079589844
 20
-35.518123626708984
 30
-0.20000551640987396
 11
57.83665466308594
 21
-35.416168212890625
 31
-0.2000063955783844
  0
LINE
  8
0
 10
57.85723114013672
 20
-35.20722579956055
 30
-0.20000605285167694
 11
57.852073669433594
 21
-35.31220245361328
 31
-0.20000618696212769
  0
LINE
  8
0
 10
57.73076629638672
 20
-34.702362060546875
 30
-0.20000529289245605
 11
57.676734924316406
 21
-34.612213134765625
 31
-0.20000658929347992
  0
LINE
  8
0
 10
55.76134490966797
 20
-34.896331787109375
 30
-0.2000061273574829
 11
55.79676055908203
 21
-34.79737091064453
 31
-0.20000609755516052
  0
LINE
  8
0
 10
5.321376800537109
 20
-45.8770637512207
 30
-0.20000481605529785
 11
5.391956329345703
 21
-45.95494079589844
 31
-0.20000576972961426
  0
LINE
  8
0
 10
7.215110778808594
 20
-45.302608489990234
 30
-0.2000066041946411
 11
7.1996917724609375
 21
-45.40657043457031
 31
-0.20000696182250977
  0
LINE
  8
0
 10
-2.66461181640625
 20
12.774499893188477
 30
-0.20000600814819336
 11
-2.6901473999023438
 21
12.876447677612305
 31
-0.20000600814819336
  0
LINE
  8
0
 10
-2.66461181640625
 20
12.774499893188477
 30
-0.20000600814819336
 11
-2.6292037963867188
 21
12.675539016723633
 31
-0.20000648498535156
  0
LINE
  8
0
 10
-0.6148452758789062
 20
13.396283149719238
 30
-0.20000505447387695
 11
-0.5893058776855469
 21
13.29433536529541
 31
-0.20000648498535156
  0
LINE
  8
0
 10
-0.6148452758789062
 20
13.396283149719238
 30
-0.20000505447387695
 11
-0.6502532958984375
 21
13.495247840881348
 31
-0.20000600814819336
  0
LINE
  8
0
 10
29.736358642578125
 20
-7.539172172546387
 30
-0.20000553131103516
 11
29.771766662597656
 21
-7.440213680267334
 31
-0.20000648498535156
  0
LINE
  8
0
 10
29.736358642578125
 20
-7.539172172546387
 30
-0.20000553131103516
 11
29.71082305908203
 21
-7.641127586364746
 31
-0.20000553131103516
  0
LINE
  8
0
 10
31.78612518310547
 20
-8.160966873168945
 30
-0.20000410079956055
 11
31.750717163085938
 21
-8.259929656982422
 31
-0.20000505447387695
  0
LINE
  8
0
 10
5.204734802246094
 20
-44.69276428222656
 30
-0.2000058889389038
 11
5.159793853759766
 21
-44.787776947021484
 31
-0.2000046968460083
  0
LINE
  8
0
 10
5.838375091552734
 20
-44.17274475097656
 30
-0.20000433921813965
 11
5.739414215087891
 21
-44.208152770996094
 31
-0.20000731945037842
  0
LINE
  8
0
 10
5.204734802246094
 20
-44.69276428222656
 30
-0.2000058889389038
 11
5.258766174316406
 21
-44.60261535644531
 31
-0.2000054121017456
  0
LINE
  8
0
 10
5.838375091552734
 20
-44.17274475097656
 30
-0.20000433921813965
 11
5.940326690673828
 21
-44.14720916748047
 31
-0.2000054121017456
  0
LINE
  8
0
 10
6.460163116455078
 20
-44.17274475097656
 30
-0.20000624656677246
 11
6.559123992919922
 21
-44.208152770996094
 31
-0.20000731945037842
  0
LINE
  8
0
 10
7.138744354248047
 20
-44.787776947021484
 30
-0.2000046968460083
 11
7.174152374267578
 21
-44.88673400878906
 31
-0.20000600814819336
  0
LINE
  8
0
 10
7.138744354248047
 20
-44.787776947021484
 30
-0.2000046968460083
 11
7.093807220458984
 21
-44.69276428222656
 31
-0.20000600814819336
  0
LINE
  8
0
 10
6.977165222167969
 20
-45.8770637512207
 30
-0.20000481605529785
 11
6.906581878662109
 21
-45.95494079589844
 31
-0.20000576972961426
  0
LINE
  8
0
 10
-48.90547561645508
 20
-20.302303314208984
 30
-0.20000648498535156
 11
-48.89005661010742
 21
-20.198341369628906
 31
-0.20000624656677246
  0
LINE
  8
0
 10
-48.66753005981445
 20
-19.72784423828125
 30
-0.20000600814819336
 11
-48.73014450073242
 21
-19.812265396118164
 31
-0.20000600814819336
  0
LINE
  8
0
 10
-48.34450149536133
 20
-19.46274185180664
 30
-0.20000529289245605
 11
-48.43465042114258
 21
-19.51677703857422
 31
-0.20000600814819336
  0
LINE
  8
0
 10
-48.34450149536133
 20
-19.46274185180664
 30
-0.20000529289245605
 11
-48.24949264526367
 21
-19.41780662536621
 31
-0.20000553131103516
  0
LINE
  8
0
 10
-48.66753005981445
 20
-19.72784423828125
 30
-0.20000600814819336
 11
-48.59695053100586
 21
-19.64997100830078
 31
-0.20000576972961426
  0
LINE
  8
0
 10
-47.528743743896484
 20
-19.38239860534668
 30
-0.20000624656677246
 11
-47.42978286743164
 21
-19.41780662536621
 31
-0.20000553131103516
  0
LINE
  8
0
 10
57.73076629638672
 20
-35.712093353271484
 30
-0.20000556111335754
 11
57.77570343017578
 21
-35.61708068847656
 31
-0.20000584423542023
  0
LINE
  8
0
 10
56.99517059326172
 20
-36.25764846801758
 30
-0.2000061720609665
 11
56.891212463378906
 21
-36.273067474365234
 31
-0.20000562071800232
  0
LINE
  8
0
 10
31.78612518310547
 20
-8.160966873168945
 30
-0.20000410079956055
 11
31.811660766601562
 21
-8.059015274047852
 31
-0.20000600814819336
  0
LINE
  8
0
 10
57.852073669433594
 20
-35.10224914550781
 30
-0.20000562071800232
 11
57.83665466308594
 21
-34.99828338623047
 31
-0.20000651478767395
  0
LINE
  8
0
 10
55.72039031982422
 20
-35.31220245361328
 30
-0.20000618696212769
 11
55.715232849121094
 21
-35.20722579956055
 31
-0.20000605285167694
  0
LINE
  8
0
 10
55.79676055908203
 20
-34.79737091064453
 30
-0.20000609755516052
 11
55.841697692871094
 21
-34.702362060546875
 31
-0.20000529289245605
  0
LINE
  8
0
 10
-47.528743743896484
 20
-19.38239860534668
 30
-0.20000624656677246
 11
-47.63069534301758
 21
-19.35685920715332
 31
-0.20000600814819336
  0
LINE
  8
0
 10
56.577293395996094
 20
-34.15680694580078
 30
-0.2000056356191635
 11
56.475341796875
 21
-34.182342529296875
 31
-0.2000063806772232
  0
LINE
  8
0
 10
56.577293395996094
 20
-34.15680694580078
 30
-0.2000056356191635
 11
56.681251525878906
 21
-34.14138412475586
 31
-0.20000538229942322
  0
LINE
  8
0
 10
6.460163116455078
 20
-44.17274475097656
 30
-0.20000624656677246
 11
6.358211517333984
 21
-44.14720916748047
 31
-0.2000054121017456
  0
LINE
  8
0
 10
-46.814754486083984
 20
-20.718175888061523
 30
-0.20000672340393066
 11
-46.78921127319336
 21
-20.616222381591797
 31
-0.20000648498535156
  0
LINE
  8
0
 10
56.28136444091797
 20
-36.151763916015625
 30
-0.2000056505203247
 11
56.376380920410156
 21
-36.19670104980469
 31
-0.20000630617141724
  0
LINE
  8
0
 10
57.381248474121094
 20
-36.09772872924805
 30
-0.20000505447387695
 11
57.291099548339844
 21
-36.151763916015625
 31
-0.2000056505203247
  0
LINE
  8
0
 10
57.381248474121094
 20
-36.09772872924805
 30
-0.20000505447387695
 11
57.465667724609375
 21
-36.03512191772461
 31
-0.200006365776062
  0
LINE
  8
0
 10
57.83665466308594
 20
-35.416168212890625
 30
-0.2000063955783844
 11
57.852073669433594
 21
-35.31220245361328
 31
-0.20000618696212769
  0
LINE
  8
0
 10
57.676734924316406
 20
-34.612213134765625
 30
-0.20000658929347992
 11
57.61412811279297
 21
-34.52779006958008
 31
-0.20000599324703217
  0
LINE
  8
0
 10
55.841697692871094
 20
-34.702362060546875
 30
-0.20000529289245605
 11
55.895729064941406
 21
-34.612213134765625
 31
-0.20000658929347992
  0
LINE
  8
0
 10
56.475341796875
 20
-34.182342529296875
 30
-0.2000063806772232
 11
56.376380920410156
 21
-34.217750549316406
 31
-0.2000056505203247
  0
LINE
  8
0
 10
-2.467620849609375
 20
12.405957221984863
 30
-0.20000648498535156
 11
-2.3970413208007812
 21
12.328073501586914
 31
-0.20000553131103516
  0
LINE
  8
0
 10
-2.0495834350585938
 20
12.095913887023926
 30
-0.20000505447387695
 11
-1.95062255859375
 21
12.060508728027344
 31
-0.20000648498535156
  0
LINE
  8
0
 10
-2.0495834350585938
 20
12.095913887023926
 30
-0.20000505447387695
 11
-2.14459228515625
 21
12.140848159790039
 31
-0.20000600814819336
  0
LINE
  8
0
 10
-1.1348609924316406
 20
12.140848159790039
 30
-0.20000600814819336
 11
-1.0447120666503906
 21
12.194881439208984
 31
-0.20000600814819336
  0
LINE
  8
0
 10
-1.1348609924316406
 20
12.140848159790039
 30
-0.20000600814819336
 11
-1.2298736572265625
 21
12.095913887023926
 31
-0.20000505447387695
  0
LINE
  8
0
 10
-0.5687294006347656
 20
13.085387229919434
 30
-0.20000600814819336
 11
-0.573883056640625
 21
13.190369606018066
 31
-0.20000600814819336
  0
LINE
  8
0
 10
-0.5687294006347656
 20
13.085387229919434
 30
-0.20000600814819336
 11
-0.573883056640625
 21
12.98042106628418
 31
-0.20000696182250977
  0
LINE
  8
0
 10
-0.8118324279785156
 20
12.405957221984863
 30
-0.20000648498535156
 11
-0.882415771484375
 21
12.328073501586914
 31
-0.20000553131103516
  0
LINE
  8
0
 10
29.736358642578125
 20
-8.160966873168945
 30
-0.20000410079956055
 11
29.771766662597656
 21
-8.259925842285156
 31
-0.20000553131103516
  0
LINE
  8
0
 10
29.933349609375
 20
-8.529505729675293
 30
-0.20000553131103516
 11
29.996871948242188
 21
-8.599590301513672
 31
-0.20000600814819336
  0
LINE
  8
0
 10
31.78612518310547
 20
-7.539172172546387
 30
-0.20000553131103516
 11
31.811660766601562
 21
-7.641127586364746
 31
-0.20000553131103516
  0
LINE
  8
0
 10
31.78612518310547
 20
-7.539172172546387
 30
-0.20000553131103516
 11
31.750717163085938
 21
-7.440213680267334
 31
-0.20000648498535156
  0
LINE
  8
0
 10
5.159793853759766
 20
-44.787776947021484
 30
-0.2000046968460083
 11
5.124385833740234
 21
-44.88673400878906
 31
-0.20000600814819336
  0
LINE
  8
0
 10
6.744285583496094
 20
-44.307125091552734
 30
-0.20000672340393066
 11
6.654136657714844
 21
-44.25309371948242
 31
-0.20000481605529785
  0
LINE
  8
0
 10
7.1996917724609375
 20
-44.98868942260742
 30
-0.20000600814819336
 11
7.174152374267578
 21
-44.88673400878906
 31
-0.20000600814819336
  0
LINE
  8
0
 10
6.744285583496094
 20
-44.307125091552734
 30
-0.20000672340393066
 11
6.828704833984375
 21
-44.36973571777344
 31
-0.20000684261322021
  0
LINE
  8
0
 10
7.1996917724609375
 20
-45.40657043457031
 30
-0.20000696182250977
 11
7.174152374267578
 21
-45.508522033691406
 31
-0.20000755786895752
  0
LINE
  8
0
 10
6.906581878662109
 20
-45.95494079589844
 30
-0.20000576972961426
 11
6.828704833984375
 21
-46.0255241394043
 31
-0.2000061273574829
  0
LINE
  8
0
 10
5.391956329345703
 20
-45.95494079589844
 30
-0.20000576972961426
 11
5.4698333740234375
 21
-46.0255241394043
 31
-0.2000061273574829
  0
LINE
  8
0
 10
5.940326690673828
 20
-46.248050689697266
 30
-0.2000058889389038
 11
5.838375091552734
 21
-46.22251510620117
 31
-0.20000720024108887
  0
LINE
  8
0
 10
5.940326690673828
 20
-46.248050689697266
 30
-0.2000058889389038
 11
6.044292449951172
 21
-46.26347351074219
 31
-0.20000529289245605
  0
LINE
  8
0
 10
-48.8645133972168
 20
-20.718175888061523
 30
-0.20000672340393066
 11
-48.89005661010742
 21
-20.616222381591797
 31
-0.20000648498535156
  0
LINE
  8
0
 10
-48.8645133972168
 20
-20.718175888061523
 30
-0.20000672340393066
 11
-48.8291130065918
 21
-20.817134857177734
 31
-0.20000600814819336
  0
LINE
  8
0
 10
7.1996917724609375
 20
-44.98868942260742
 30
-0.20000600814819336
 11
7.215110778808594
 21
-45.092655181884766
 31
-0.20000600814819336
  0
LINE
  8
0
 10
-46.814754486083984
 20
-20.718175888061523
 30
-0.20000672340393066
 11
-46.850154876708984
 21
-20.817134857177734
 31
-0.20000600814819336
  0
LINE
  8
0
 10
-0.8118324279785156
 20
12.405957221984863
 30
-0.20000648498535156
 11
-0.7492218017578125
 21
12.490378379821777
 31
-0.20000600814819336
  0
LINE
  8
0
 10
-48.8645133972168
 20
-20.096385955810547
 30
-0.20000624656677246
 11
-48.8291130065918
 21
-19.99742889404297
 31
-0.20000481605529785
  0
LINE
  8
0
 10
56.376380920410156
 20
-36.19670104980469
 30
-0.20000630617141724
 11
56.475341796875
 21
-36.23210906982422
 31
-0.20000572502613068
  0
LINE
  8
0
 10
57.291099548339844
 20
-36.151763916015625
 30
-0.2000056505203247
 11
57.196083068847656
 21
-36.19670104980469
 31
-0.20000630617141724
  0
LINE
  8
0
 10
55.715232849121094
 20
-35.20722579956055
 30
-0.20000605285167694
 11
55.72039031982422
 21
-35.10224914550781
 31
-0.20000562071800232
  0
LINE
  8
0
 10
55.895729064941406
 20
-34.612213134765625
 30
-0.20000658929347992
 11
55.958335876464844
 21
-34.52779006958008
 31
-0.20000599324703217
  0
LINE
  8
0
 10
56.891212463378906
 20
-34.14138412475586
 30
-0.20000538229942322
 11
56.786231994628906
 21
-34.136226654052734
 31
-0.20000585913658142
  0
LINE
  8
0
 10
-46.814754486083984
 20
-20.096385955810547
 30
-0.20000624656677246
 11
-46.78921127319336
 21
-20.198341369628906
 31
-0.20000624656677246
  0
LINE
  8
0
 10
-0.573883056640625
 20
13.190369606018066
 30
-0.20000600814819336
 11
-0.5893058776855469
 21
13.29433536529541
 31
-0.20000648498535156
  0
LINE
  8
0
 10
-46.814754486083984
 20
-20.096385955810547
 30
-0.20000624656677246
 11
-46.850154876708984
 21
-19.99742889404297
 31
-0.20000481605529785
  0
LINE
  8
0
 10
56.891212463378906
 20
-34.14138412475586
 30
-0.20000538229942322
 11
56.99517059326172
 21
-34.15680694580078
 31
-0.2000056356191635
  0
LINE
  8
0
 10
-1.95062255859375
 20
14.110281944274902
 30
-0.20000553131103516
 11
-1.8486709594726562
 21
14.135812759399414
 31
-0.20000600814819336
  0
LINE
  8
0
 10
-1.95062255859375
 20
14.110281944274902
 30
-0.20000553131103516
 11
-2.0495834350585938
 21
14.074857711791992
 31
-0.20000600814819336
  0
LINE
  8
0
 10
-1.1348609924316406
 20
14.029927253723145
 30
-0.20000600814819336
 11
-1.0447120666503906
 21
13.975881576538086
 31
-0.20000553131103516
  0
LINE
  8
0
 10
-1.1348609924316406
 20
14.029927253723145
 30
-0.20000600814819336
 11
-1.2298736572265625
 21
14.074857711791992
 31
-0.20000600814819336
  0
LINE
  8
0
 10
-0.8118324279785156
 20
13.764825820922852
 30
-0.20000553131103516
 11
-0.7492218017578125
 21
13.680412292480469
 31
-0.20000600814819336
  0
LINE
  8
0
 10
-0.8118324279785156
 20
13.764825820922852
 30
-0.20000553131103516
 11
-0.882415771484375
 21
13.842697143554688
 31
-0.20000505447387695
  0
LINE
  8
0
 10
30.35138702392578
 20
-8.839545249938965
 30
-0.20000624656677246
 11
30.256378173828125
 21
-8.794614791870117
 31
-0.20000553131103516
  0
LINE
  8
0
 10
30.35138702392578
 20
-8.839545249938965
 30
-0.20000624656677246
 11
30.450347900390625
 21
-8.874958038330078
 31
-0.20000576972961426
  0
LINE
  8
0
 10
31.266109466552734
 20
-8.794614791870117
 30
-0.20000553131103516
 11
31.356258392333984
 21
-8.740574836730957
 31
-0.20000553131103516
  0
LINE
  8
0
 10
31.266109466552734
 20
-8.794614791870117
 30
-0.20000553131103516
 11
31.171096801757812
 21
-8.839545249938965
 31
-0.20000624656677246
  0
LINE
  8
0
 10
31.832244873046875
 20
-7.850067615509033
 30
-0.20000600814819336
 11
31.82708740234375
 21
-7.955043792724609
 31
-0.20000553131103516
  0
LINE
  8
0
 10
5.124385833740234
 20
-44.88673400878906
 30
-0.20000600814819336
 11
5.098846435546875
 21
-44.98868942260742
 31
-0.20000600814819336
  0
LINE
  8
0
 10
6.654136657714844
 20
-44.25309371948242
 30
-0.20000481605529785
 11
6.559123992919922
 21
-44.208152770996094
 31
-0.20000731945037842
  0
LINE
  8
0
 10
7.174152374267578
 20
-45.508522033691406
 30
-0.20000755786895752
 11
7.138744354248047
 21
-45.607486724853516
 31
-0.200006365776062
  0
LINE
  8
0
 10
5.204734802246094
 20
-45.70249557495117
 30
-0.20000708103179932
 11
5.258766174316406
 21
-45.79264450073242
 31
-0.2000056505203247
  0
LINE
  8
0
 10
6.175148010253906
 20
-46.267356872558594
 30
-0.20000576972961426
 11
6.254245758056641
 21
-46.26347351074219
 31
-0.20000529289245605
  0
LINE
  8
0
 10
6.175148010253906
 20
-46.267356872558594
 30
-0.20000576972961426
 11
6.149269104003906
 21
-46.26863098144531
 31
-0.2000056505203247
  0
LINE
  8
0
 10
5.838375091552734
 20
-46.22251510620117
 30
-0.20000720024108887
 11
5.739414215087891
 21
-46.18710708618164
 31
-0.20000576972961426
  0
LINE
  8
0
 10
-48.8645133972168
 20
-20.096385955810547
 30
-0.20000624656677246
 11
-48.89005661010742
 21
-20.198341369628906
 31
-0.20000624656677246
  0
LINE
  8
0
 10
31.58913803100586
 20
-8.529505729675293
 30
-0.20000553131103516
 11
31.5185546875
 21
-8.607378005981445
 31
-0.20000648498535156
  0
LINE
  8
0
 10
31.832244873046875
 20
-7.850067615509033
 30
-0.20000600814819336
 11
31.82708740234375
 21
-7.745099067687988
 31
-0.20000553131103516
  0
LINE
  8
0
 10
31.58913803100586
 20
-8.529505729675293
 30
-0.20000553131103516
 11
31.651748657226562
 21
-8.445084571838379
 31
-0.20000696182250977
  0
LINE
  8
0
 10
-46.76863479614258
 20
-20.40727996826172
 30
-0.20000600814819336
 11
-46.773799896240234
 21
-20.302303314208984
 31
-0.20000648498535156
  0
LINE
  8
0
 10
56.577293395996094
 20
-36.25764846801758
 30
-0.2000061720609665
 11
56.681251525878906
 21
-36.273067474365234
 31
-0.20000562071800232
  0
LINE
  8
0
 10
56.577293395996094
 20
-36.25764846801758
 30
-0.2000061720609665
 11
56.475341796875
 21
-36.23210906982422
 31
-0.20000572502613068
  0
LINE
  8
0
 10
57.61412811279297
 20
-34.52779006958008
 30
-0.20000599324703217
 11
57.543540954589844
 21
-34.44991683959961
 31
-0.200005903840065
  0
LINE
  8
0
 10
56.786231994628906
 20
-34.136226654052734
 30
-0.20000585913658142
 11
56.681251525878906
 21
-34.14138412475586
 31
-0.20000538229942322
  0
LINE
  8
0
 10
31.58913803100586
 20
-7.170635223388672
 30
-0.20000553131103516
 11
31.651748657226562
 21
-7.255056858062744
 31
-0.20000600814819336
  0
LINE
  8
0
 10
-2.3970413208007812
 20
12.328073501586914
 30
-0.20000553131103516
 11
-2.319164276123047
 21
12.257491111755371
 31
-0.20000553131103516
  0
LINE
  8
0
 10
-1.5347518920898438
 20
12.019539833068848
 30
-0.20000600814819336
 11
-1.4307861328125
 21
12.03496265411377
 31
-0.20000553131103516
  0
LINE
  8
0
 10
-0.6951904296875
 20
12.580520629882812
 30
-0.20000600814819336
 11
-0.7492218017578125
 21
12.490378379821777
 31
-0.20000600814819336
  0
LINE
  8
0
 10
-0.6951904296875
 20
12.580520629882812
 30
-0.20000600814819336
 11
-0.6502532958984375
 21
12.675539016723633
 31
-0.20000648498535156
  0
LINE
  8
0
 10
-1.5347518920898438
 20
12.019539833068848
 30
-0.20000600814819336
 11
-1.6397285461425781
 21
12.01439380645752
 31
-0.20000600814819336
  0
LINE
  8
0
 10
29.996871948242188
 20
-8.599590301513672
 30
-0.20000600814819336
 11
30.003929138183594
 21
-8.607378005981445
 31
-0.20000648498535156
  0
LINE
  8
0
 10
31.58913803100586
 20
-7.170635223388672
 30
-0.20000553131103516
 11
31.5185546875
 21
-7.092761993408203
 31
-0.20000648498535156
  0
LINE
  8
0
 10
6.744285583496094
 20
-46.088134765625
 30
-0.20000457763671875
 11
6.828704833984375
 21
-46.0255241394043
 31
-0.2000061273574829
  0
LINE
  8
0
 10
6.744285583496094
 20
-46.088134765625
 30
-0.20000457763671875
 11
6.654136657714844
 21
-46.14216613769531
 31
-0.200006365776062
  0
LINE
  8
0
 10
6.044292449951172
 20
-46.26347351074219
 30
-0.20000529289245605
 11
6.149269104003906
 21
-46.26863098144531
 31
-0.2000056505203247
  0
LINE
  8
0
 10
-47.01173782348633
 20
-21.086715698242188
 30
-0.20000600814819336
 11
-46.94913101196289
 21
-21.00229835510254
 31
-0.20000576972961426
  0
LINE
  8
0
 10
-47.01173782348633
 20
-21.086715698242188
 30
-0.20000600814819336
 11
-47.08232498168945
 21
-21.164592742919922
 31
-0.20000600814819336
  0
LINE
  8
0
 10
57.83665466308594
 20
-34.99828338623047
 30
-0.20000651478767395
 11
57.811119079589844
 21
-34.896331787109375
 31
-0.2000061273574829
  0
LINE
  8
0
 10
55.958335876464844
 20
-34.52779006958008
 30
-0.20000599324703217
 11
56.02892303466797
 21
-34.44991683959961
 31
-0.200005903840065
  0
LINE
  8
0
 10
-2.6292037963867188
 20
12.675539016723633
 30
-0.20000648498535156
 11
-2.5842628479003906
 21
12.580520629882812
 31
-0.20000600814819336
  0
LINE
  8
0
 10
-1.7447052001953125
 20
12.019539833068848
 30
-0.20000600814819336
 11
-1.8486709594726562
 21
12.03496265411377
 31
-0.20000553131103516
  0
LINE
  8
0
 10
-0.9602928161621094
 20
12.257491111755371
 30
-0.20000553131103516
 11
-1.0447120666503906
 21
12.194881439208984
 31
-0.20000600814819336
  0
LINE
  8
0
 10
-0.573883056640625
 20
12.98042106628418
 30
-0.20000696182250977
 11
-0.5893058776855469
 21
12.876447677612305
 31
-0.20000600814819336
  0
LINE
  8
0
 10
-0.9602928161621094
 20
12.257491111755371
 30
-0.20000553131103516
 11
-0.882415771484375
 21
12.328073501586914
 31
-0.20000553131103516
  0
LINE
  8
0
 10
-1.7447052001953125
 20
12.019539833068848
 30
-0.20000600814819336
 11
-1.6397285461425781
 21
12.01439380645752
 31
-0.20000600814819336
  0
LINE
  8
0
 10
29.771766662597656
 20
-8.259925842285156
 30
-0.20000553131103516
 11
29.81670379638672
 21
-8.354936599731445
 31
-0.20000553131103516
  0
LINE
  8
0
 10
30.450347900390625
 20
-6.825189113616943
 30
-0.20000600814819336
 11
30.55229949951172
 21
-6.799648761749268
 31
-0.20000696182250977
  0
LINE
  8
0
 10
30.450347900390625
 20
-6.825189113616943
 30
-0.20000600814819336
 11
30.35138702392578
 21
-6.860597610473633
 31
-0.20000505447387695
  0
LINE
  8
0
 10
31.266109466552734
 20
-6.905532360076904
 30
-0.20000600814819336
 11
31.356258392333984
 21
-6.959568023681641
 31
-0.20000648498535156
  0
LINE
  8
0
 10
31.266109466552734
 20
-6.905532360076904
 30
-0.20000600814819336
 11
31.171096801757812
 21
-6.860597610473633
 31
-0.20000505447387695
  0
LINE
  8
0
 10
31.82708740234375
 20
-7.745099067687988
 30
-0.20000553131103516
 11
31.811660766601562
 21
-7.641127586364746
 31
-0.20000553131103516
  0
LINE
  8
0
 10
7.138744354248047
 20
-45.607486724853516
 30
-0.200006365776062
 11
7.093807220458984
 21
-45.70249557495117
 31
-0.20000708103179932
  0
LINE
  8
0
 10
6.254245758056641
 20
-46.26347351074219
 30
-0.20000529289245605
 11
6.358211517333984
 21
-46.248050689697266
 31
-0.2000058889389038
  0
LINE
  8
0
 10
-48.15053176879883
 20
-21.432165145874023
 30
-0.20000648498535156
 11
-48.048580169677734
 21
-21.45770263671875
 31
-0.20000481605529785
  0
LINE
  8
0
 10
-48.15053176879883
 20
-21.432165145874023
 30
-0.20000648498535156
 11
-48.24949264526367
 21
-21.39675521850586
 31
-0.20000624656677246
  0
LINE
  8
0
 10
-47.334774017333984
 20
-21.351818084716797
 30
-0.20000576972961426
 11
-47.244625091552734
 21
-21.29778289794922
 31
-0.20000529289245605
  0
LINE
  8
0
 10
-47.334774017333984
 20
-21.351818084716797
 30
-0.20000576972961426
 11
-47.42978286743164
 21
-21.39675521850586
 31
-0.20000624656677246
  0
LINE
  8
0
 10
-46.76863479614258
 20
-20.40727996826172
 30
-0.20000600814819336
 11
-46.773799896240234
 21
-20.512256622314453
 31
-0.20000648498535156
  0
LINE
  8
0
 10
55.895729064941406
 20
-35.802242279052734
 30
-0.2000061720609665
 11
55.958335876464844
 21
-35.886661529541016
 31
-0.20000596344470978
  0
LINE
  8
0
 10
56.786231994628906
 20
-36.27822494506836
 30
-0.20000608265399933
 11
56.681251525878906
 21
-36.273067474365234
 31
-0.20000562071800232
  0
LINE
  8
0
 10
57.543540954589844
 20
-35.96453857421875
 30
-0.20000509917736053
 11
57.61412811279297
 21
-35.886661529541016
 31
-0.20000596344470978
  0
LINE
  8
0
 10
57.543540954589844
 20
-35.96453857421875
 30
-0.20000509917736053
 11
57.465667724609375
 21
-36.03512191772461
 31
-0.200006365776062
  0
LINE
  8
0
 10
56.786231994628906
 20
-36.27822494506836
 30
-0.20000608265399933
 11
56.891212463378906
 21
-36.273067474365234
 31
-0.20000562071800232
  0
LINE
  8
0
 10
55.79676055908203
 20
-35.61708068847656
 30
-0.20000584423542023
 11
55.76134490966797
 21
-35.518123626708984
 31
-0.20000551640987396
  0
LINE
  8
0
 10
55.79676055908203
 20
-35.61708068847656
 30
-0.20000584423542023
 11
55.841697692871094
 21
-35.712093353271484
 31
-0.20000556111335754
  0
LINE
  8
0
 10
55.735816955566406
 20
-35.416168212890625
 30
-0.2000063955783844
 11
55.72039031982422
 21
-35.31220245361328
 31
-0.20000618696212769
  0
LINE
  8
0
 10
56.10679626464844
 20
-34.37933349609375
 30
-0.2000063955783844
 11
56.19121551513672
 21
-34.31672286987305
 31
-0.20000594854354858
  0
LINE
  8
0
 10
56.10679626464844
 20
-34.37933349609375
 30
-0.2000063955783844
 11
56.02892303466797
 21
-34.44991683959961
 31
-0.200005903840065
  0
LINE
  8
0
 10
30.86621856689453
 20
-8.915913581848145
 30
-0.20000648498535156
 11
30.761241912841797
 21
-8.921069145202637
 31
-0.20000600814819336
  0
LINE
  8
0
 10
55.895729064941406
 20
-35.802242279052734
 30
-0.2000061720609665
 11
55.841697692871094
 21
-35.712093353271484
 31
-0.20000556111335754
  0
LINE
  8
0
 10
5.321376800537109
 20
-44.51819610595703
 30
-0.2000066041946411
 11
5.258766174316406
 21
-44.60261535644531
 31
-0.2000054121017456
  0
LINE
  8
0
 10
6.460163116455078
 20
-46.22251510620117
 30
-0.20000720024108887
 11
6.358211517333984
 21
-46.248050689697266
 31
-0.2000058889389038
  0
LINE
  8
0
 10
-48.15053176879883
 20
-19.38239860534668
 30
-0.20000624656677246
 11
-48.24949264526367
 21
-19.41780662536621
 31
-0.20000553131103516
  0
LINE
  8
0
 10
-46.773799896240234
 20
-20.512256622314453
 30
-0.20000648498535156
 11
-46.78921127319336
 21
-20.616222381591797
 31
-0.20000648498535156
  0
LINE
  8
0
 10
-47.01173782348633
 20
-19.72784423828125
 30
-0.20000600814819336
 11
-47.08232498168945
 21
-19.64997100830078
 31
-0.20000576972961426
  0
LINE
  8
0
 10
57.543540954589844
 20
-34.44991683959961
 30
-0.200005903840065
 11
57.465667724609375
 21
-34.37933349609375
 31
-0.2000063955783844
  0
LINE
  8
0
 10
-2.7107276916503906
 20
13.085387229919434
 30
-0.20000600814819336
 11
-2.7055702209472656
 21
12.98042106628418
 31
-0.20000696182250977
  0
LINE
  8
0
 10
-2.7107276916503906
 20
13.085387229919434
 30
-0.20000600814819336
 11
-2.7055702209472656
 21
13.190369606018066
 31
-0.20000600814819336
  0
LINE
  8
0
 10
-2.5842628479003906
 20
13.590253829956055
 30
-0.20000600814819336
 11
-2.530231475830078
 21
13.680412292480469
 31
-0.20000600814819336
  0
LINE
  8
0
 10
-2.5842628479003906
 20
13.590253829956055
 30
-0.20000600814819336
 11
-2.6292037963867188
 21
13.495247840881348
 31
-0.20000600814819336
  0
LINE
  8
0
 10
-2.319164276123047
 20
13.91327953338623
 30
-0.20000553131103516
 11
-2.2347412109375
 21
13.975881576538086
 31
-0.20000553131103516
  0
LINE
  8
0
 10
-1.8486709594726562
 20
12.03496265411377
 30
-0.20000553131103516
 11
-1.95062255859375
 21
12.060508728027344
 31
-0.20000648498535156
  0
LINE
  8
0
 10
-2.319164276123047
 20
13.91327953338623
 30
-0.20000553131103516
 11
-2.3970413208007812
 21
13.842697143554688
 31
-0.20000505447387695
  0
LINE
  8
0
 10
-1.5347518920898438
 20
14.151226997375488
 30
-0.20000553131103516
 11
-1.4307861328125
 21
14.135812759399414
 31
-0.20000600814819336
  0
LINE
  8
0
 10
-0.9602928161621094
 20
13.91327953338623
 30
-0.20000553131103516
 11
-1.0447120666503906
 21
13.975881576538086
 31
-0.20000553131103516
  0
LINE
  8
0
 10
-0.6951904296875
 20
13.590253829956055
 30
-0.20000600814819336
 11
-0.7492218017578125
 21
13.680412292480469
 31
-0.20000600814819336
  0
LINE
  8
0
 10
-0.6951904296875
 20
13.590253829956055
 30
-0.20000600814819336
 11
-0.6502532958984375
 21
13.495247840881348
 31
-0.20000600814819336
  0
LINE
  8
0
 10
-0.9602928161621094
 20
13.91327953338623
 30
-0.20000553131103516
 11
-0.882415771484375
 21
13.842697143554688
 31
-0.20000505447387695
  0
LINE
  8
0
 10
-1.5347518920898438
 20
14.151226997375488
 30
-0.20000553131103516
 11
-1.6397285461425781
 21
14.156389236450195
 31
-0.20000553131103516
  0
LINE
  8
0
 10
29.690242767333984
 20
-7.850067615509033
 30
-0.20000600814819336
 11
29.69540023803711
 21
-7.955043792724609
 31
-0.20000553131103516
  0
LINE
  8
0
 10
29.690242767333984
 20
-7.850067615509033
 30
-0.20000600814819336
 11
29.69540023803711
 21
-7.745099067687988
 31
-0.20000553131103516
  0
LINE
  8
0
 10
29.81670379638672
 20
-7.345202922821045
 30
-0.20000648498535156
 11
29.870738983154297
 21
-7.255056858062744
 31
-0.20000600814819336
  0
LINE
  8
0
 10
29.81670379638672
 20
-7.345202922821045
 30
-0.20000648498535156
 11
29.771766662597656
 21
-7.440213680267334
 31
-0.20000648498535156
  0
LINE
  8
0
 10
30.003929138183594
 20
-8.607378005981445
 30
-0.20000648498535156
 11
30.081809997558594
 21
-8.67796802520752
 31
-0.20000505447387695
  0
LINE
  8
0
 10
30.656265258789062
 20
-8.915913581848145
 30
-0.20000648498535156
 11
30.55229949951172
 21
-8.900494575500488
 31
-0.20000553131103516
  0
LINE
  8
0
 10
30.86621856689453
 20
-8.915913581848145
 30
-0.20000648498535156
 11
30.970184326171875
 21
-8.900494575500488
 31
-0.20000553131103516
  0
LINE
  8
0
 10
31.440677642822266
 20
-8.67796802520752
 30
-0.20000505447387695
 11
31.356258392333984
 21
-8.740574836730957
 31
-0.20000553131103516
  0
LINE
  8
0
 10
31.705780029296875
 20
-8.354936599731445
 30
-0.20000553131103516
 11
31.651748657226562
 21
-8.445084571838379
 31
-0.20000696182250977
  0
LINE
  8
0
 10
31.82708740234375
 20
-7.955043792724609
 30
-0.20000553131103516
 11
31.811660766601562
 21
-8.059015274047852
 31
-0.20000600814819336
  0
LINE
  8
0
 10
31.705780029296875
 20
-8.354936599731445
 30
-0.20000553131103516
 11
31.750717163085938
 21
-8.259929656982422
 31
-0.20000505447387695
  0
LINE
  8
0
 10
31.440677642822266
 20
-8.67796802520752
 30
-0.20000505447387695
 11
31.5185546875
 21
-8.607378005981445
 31
-0.20000648498535156
  0
LINE
  8
0
 10
30.656265258789062
 20
-8.915913581848145
 30
-0.20000648498535156
 11
30.761241912841797
 21
-8.921069145202637
 31
-0.20000600814819336
  0
LINE
  8
0
 10
5.321376800537109
 20
-44.51819610595703
 30
-0.2000066041946411
 11
5.391956329345703
 21
-44.4403190612793
 31
-0.20000553131103516
  0
LINE
  8
0
 10
5.940326690673828
 20
-44.14720916748047
 30
-0.2000054121017456
 11
6.044292449951172
 21
-44.13178634643555
 31
-0.2000061273574829
  0
LINE
  8
0
 10
5.124385833740234
 20
-45.50852584838867
 30
-0.20000720024108887
 11
5.159793853759766
 21
-45.60748291015625
 31
-0.2000066041946411
  0
LINE
  8
0
 10
-48.15053176879883
 20
-19.38239860534668
 30
-0.20000624656677246
 11
-48.048580169677734
 21
-19.35685920715332
 31
-0.20000600814819336
  0
LINE
  8
0
 10
-47.334774017333984
 20
-19.46274185180664
 30
-0.20000529289245605
 11
-47.244625091552734
 21
-19.51677703857422
 31
-0.20000600814819336
  0
LINE
  8
0
 10
-47.334774017333984
 20
-19.46274185180664
 30
-0.20000529289245605
 11
-47.42978286743164
 21
-19.41780662536621
 31
-0.20000553131103516
  0
LINE
  8
0
 10
-47.01173782348633
 20
-19.72784423828125
 30
-0.20000600814819336
 11
-46.94913101196289
 21
-19.812265396118164
 31
-0.20000600814819336
  0
LINE
  8
0
 10
-9.857009887695312
 20
-49.46006393432617
 30
-0.20000529289245605
 11
-9.450237274169922
 21
-49.480045318603516
 31
-0.20000576972961426
  0
LINE
  8
0
 10
-9.450237274169922
 20
-49.480045318603516
 30
-0.20000576972961426
 11
-9.047384262084961
 21
-49.53980255126953
 31
-0.20000600814819336
  0
LINE
  8
0
 10
-9.047384262084961
 20
-49.53980255126953
 30
-0.20000600814819336
 11
-8.652328491210938
 21
-49.63875961303711
 31
-0.20000576972961426
  0
LINE
  8
0
 10
-8.652328491210938
 20
-49.63875961303711
 30
-0.20000576972961426
 11
-8.268871307373047
 21
-49.775962829589844
 31
-0.20000696182250977
  0
LINE
  8
0
 10
-8.268871307373047
 20
-49.775962829589844
 30
-0.20000696182250977
 11
-7.9007110595703125
 21
-49.95009231567383
 31
-0.20000576972961426
  0
LINE
  8
0
 10
-7.9007110595703125
 20
-49.95009231567383
 30
-0.20000576972961426
 11
-7.5513916015625
 21
-50.15946578979492
 31
-0.20000624656677246
  0
LINE
  8
0
 10
-7.5513916015625
 20
-50.15946578979492
 30
-0.20000624656677246
 11
-7.224277496337891
 21
-50.40207290649414
 31
-0.20000481605529785
  0
LINE
  8
0
 10
-7.224277496337891
 20
-50.40207290649414
 30
-0.20000481605529785
 11
-6.922515869140625
 21
-50.67557144165039
 31
-0.20000624656677246
  0
LINE
  8
0
 10
-6.922515869140625
 20
-50.67557144165039
 30
-0.20000624656677246
 11
-6.649015426635742
 21
-50.977333068847656
 31
-0.20000481605529785
  0
LINE
  8
0
 10
-6.649015426635742
 20
-50.977333068847656
 30
-0.20000481605529785
 11
-6.406410217285156
 21
-51.304447174072266
 31
-0.20000529289245605
  0
LINE
  8
0
 10
-6.406410217285156
 20
-51.304447174072266
 30
-0.20000529289245605
 11
-6.1970367431640625
 21
-51.65376663208008
 31
-0.20000457763671875
  0
LINE
  8
0
 10
-6.1970367431640625
 20
-51.65376663208008
 30
-0.20000457763671875
 11
-6.022909164428711
 21
-52.02192687988281
 31
-0.20000767707824707
  0
LINE
  8
0
 10
-6.022909164428711
 20
-52.02192687988281
 30
-0.20000767707824707
 11
-5.885705947875977
 21
-52.40538024902344
 31
-0.20000457763671875
  0
LINE
  8
0
 10
-5.885705947875977
 20
-52.40538024902344
 30
-0.20000457763671875
 11
-5.786750793457031
 21
-52.800437927246094
 31
-0.20000767707824707
  0
LINE
  8
0
 10
-5.786750793457031
 20
-52.800437927246094
 30
-0.20000767707824707
 11
-5.726991653442383
 21
-53.20329284667969
 31
-0.20000600814819336
  0
LINE
  8
0
 10
-5.726991653442383
 20
-53.20329284667969
 30
-0.20000600814819336
 11
-5.707008361816406
 21
-53.61006164550781
 31
-0.20000553131103516
  0
LINE
  8
0
 10
-5.707008361816406
 20
-53.61006164550781
 30
-0.20000553131103516
 11
-5.726991653442383
 21
-54.0168342590332
 31
-0.20000672340393066
  0
LINE
  8
0
 10
-5.726991653442383
 20
-54.0168342590332
 30
-0.20000672340393066
 11
-5.786750793457031
 21
-54.4196891784668
 31
-0.20000457763671875
  0
LINE
  8
0
 10
-5.786750793457031
 20
-54.4196891784668
 30
-0.20000457763671875
 11
-5.885705947875977
 21
-54.81474304199219
 31
-0.20000624656677246
  0
LINE
  8
0
 10
-5.885705947875977
 20
-54.81474304199219
 30
-0.20000624656677246
 11
-6.022909164428711
 21
-55.19820022583008
 31
-0.20000505447387695
  0
LINE
  8
0
 10
-6.022909164428711
 20
-55.19820022583008
 30
-0.20000505447387695
 11
-6.1970367431640625
 21
-55.56636047363281
 31
-0.20000600814819336
  0
LINE
  8
0
 10
-6.1970367431640625
 20
-55.56636047363281
 30
-0.20000600814819336
 11
-6.406410217285156
 21
-55.91568374633789
 31
-0.20000696182250977
  0
LINE
  8
0
 10
-6.406410217285156
 20
-55.91568374633789
 30
-0.20000696182250977
 11
-6.649015426635742
 21
-56.242794036865234
 31
-0.20000815391540527
  0
LINE
  8
0
 10
-6.649015426635742
 20
-56.242794036865234
 30
-0.20000815391540527
 11
-6.922515869140625
 21
-56.5445556640625
 31
-0.20000648498535156
  0
LINE
  8
0
 10
-6.922515869140625
 20
-56.5445556640625
 30
-0.20000648498535156
 11
-7.224277496337891
 21
-56.818058013916016
 31
-0.20000553131103516
  0
LINE
  8
0
 10
-7.224277496337891
 20
-56.818058013916016
 30
-0.20000553131103516
 11
-7.5513916015625
 21
-57.060665130615234
 31
-0.20000624656677246
  0
LINE
  8
0
 10
-7.5513916015625
 20
-57.060665130615234
 30
-0.20000624656677246
 11
-7.9007110595703125
 21
-57.27003860473633
 31
-0.20000481605529785
  0
LINE
  8
0
 10
-7.9007110595703125
 20
-57.27003860473633
 30
-0.20000481605529785
 11
-8.268871307373047
 21
-57.44416427612305
 31
-0.20000576972961426
  0
LINE
  8
0
 10
-8.268871307373047
 20
-57.44416427612305
 30
-0.20000576972961426
 11
-8.652328491210938
 21
-57.58136749267578
 31
-0.20000720024108887
  0
LINE
  8
0
 10
-8.652328491210938
 20
-57.58136749267578
 30
-0.20000720024108887
 11
-9.047384262084961
 21
-57.68032455444336
 31
-0.20000648498535156
  0
LINE
  8
0
 10
-9.047384262084961
 20
-57.68032455444336
 30
-0.20000648498535156
 11
-9.450237274169922
 21
-57.740081787109375
 31
-0.20000696182250977
  0
LINE
  8
0
 10
-9.450237274169922
 20
-57.740081787109375
 30
-0.20000696182250977
 11
-9.857009887695312
 21
-57.76006317138672
 31
-0.20000553131103516
  0
LINE
  8
0
 10
-9.857009887695312
 20
-57.76006317138672
 30
-0.20000553131103516
 11
-10.263779640197754
 21
-57.740081787109375
 31
-0.20000696182250977
  0
LINE
  8
0
 10
-10.263779640197754
 20
-57.740081787109375
 30
-0.20000696182250977
 11
-10.666633605957031
 21
-57.68032455444336
 31
-0.20000648498535156
  0
LINE
  8
0
 10
-10.666633605957031
 20
-57.68032455444336
 30
-0.20000648498535156
 11
-11.061690330505371
 21
-57.58136749267578
 31
-0.20000720024108887
  0
LINE
  8
0
 10
-11.061690330505371
 20
-57.58136749267578
 30
-0.20000720024108887
 11
-11.445145606994629
 21
-57.44416427612305
 31
-0.20000576972961426
  0
LINE
  8
0
 10
-11.445145606994629
 20
-57.44416427612305
 30
-0.20000576972961426
 11
-11.813304901123047
 21
-57.27003860473633
 31
-0.20000481605529785
  0
LINE
  8
0
 10
-11.813304901123047
 20
-57.27003860473633
 30
-0.20000481605529785
 11
-12.162625312805176
 21
-57.060665130615234
 31
-0.20000624656677246
  0
LINE
  8
0
 10
-12.162625312805176
 20
-57.060665130615234
 30
-0.20000624656677246
 11
-12.489741325378418
 21
-56.818058013916016
 31
-0.20000553131103516
  0
LINE
  8
0
 10
-12.489741325378418
 20
-56.818058013916016
 30
-0.20000553131103516
 11
-12.791501998901367
 21
-56.5445556640625
 31
-0.20000648498535156
  0
LINE
  8
0
 10
-12.791501998901367
 20
-56.5445556640625
 30
-0.20000648498535156
 11
-13.06500244140625
 21
-56.242794036865234
 31
-0.20000815391540527
  0
LINE
  8
0
 10
-13.06500244140625
 20
-56.242794036865234
 30
-0.20000815391540527
 11
-13.307607650756836
 21
-55.91568374633789
 31
-0.20000696182250977
  0
LINE
  8
0
 10
-13.307607650756836
 20
-55.91568374633789
 30
-0.20000696182250977
 11
-13.516982078552246
 21
-55.56636047363281
 31
-0.20000600814819336
  0
LINE
  8
0
 10
-13.516982078552246
 20
-55.56636047363281
 30
-0.20000600814819336
 11
-13.691108703613281
 21
-55.19820022583008
 31
-0.20000505447387695
  0
LINE
  8
0
 10
-13.691108703613281
 20
-55.19820022583008
 30
-0.20000505447387695
 11
-13.8283109664917
 21
-54.81474304199219
 31
-0.20000624656677246
  0
LINE
  8
0
 10
-13.8283109664917
 20
-54.81474304199219
 30
-0.20000624656677246
 11
-13.927268028259277
 21
-54.4196891784668
 31
-0.20000457763671875
  0
LINE
  8
0
 10
-13.927268028259277
 20
-54.4196891784668
 30
-0.20000457763671875
 11
-13.987025260925293
 21
-54.0168342590332
 31
-0.20000672340393066
  0
LINE
  8
0
 10
-13.987025260925293
 20
-54.0168342590332
 30
-0.20000672340393066
 11
-14.00700855255127
 21
-53.61006164550781
 31
-0.20000553131103516
  0
LINE
  8
0
 10
-14.00700855255127
 20
-53.61006164550781
 30
-0.20000553131103516
 11
-13.987025260925293
 21
-53.20329284667969
 31
-0.20000600814819336
  0
LINE
  8
0
 10
-13.987025260925293
 20
-53.20329284667969
 30
-0.20000600814819336
 11
-13.927268028259277
 21
-52.800437927246094
 31
-0.20000767707824707
  0
LINE
  8
0
 10
-13.927268028259277
 20
-52.800437927246094
 30
-0.20000767707824707
 11
-13.8283109664917
 21
-52.40538024902344
 31
-0.20000457763671875
  0
LINE
  8
0
 10
-13.8283109664917
 20
-52.40538024902344
 30
-0.20000457763671875
 11
-13.691108703613281
 21
-52.02192687988281
 31
-0.20000767707824707
  0
LINE
  8
0
 10
-13.691108703613281
 20
-52.02192687988281
 30
-0.20000767707824707
 11
-13.516982078552246
 21
-51.65376663208008
 31
-0.20000457763671875
  0
LINE
  8
0
 10
-13.516982078552246
 20
-51.65376663208008
 30
-0.20000457763671875
 11
-13.307607650756836
 21
-51.304447174072266
 31
-0.20000529289245605
  0
LINE
  8
0
 10
-13.307607650756836
 20
-51.304447174072266
 30
-0.20000529289245605
 11
-13.06500244140625
 21
-50.977333068847656
 31
-0.20000481605529785
  0
LINE
  8
0
 10
-13.06500244140625
 20
-50.977333068847656
 30
-0.20000481605529785
 11
-12.791501998901367
 21
-50.67557144165039
 31
-0.20000624656677246
  0
LINE
  8
0
 10
-12.791501998901367
 20
-50.67557144165039
 30
-0.20000624656677246
 11
-12.489741325378418
 21
-50.40207290649414
 31
-0.20000481605529785
  0
LINE
  8
0
 10
-12.489741325378418
 20
-50.40207290649414
 30
-0.20000481605529785
 11
-12.162625312805176
 21
-50.15946578979492
 31
-0.20000624656677246
  0
LINE
  8
0
 10
-12.162625312805176
 20
-50.15946578979492
 30
-0.20000624656677246
 11
-11.813304901123047
 21
-49.95009231567383
 31
-0.20000576972961426
  0
LINE
  8
0
 10
-11.813304901123047
 20
-49.95009231567383
 30
-0.20000576972961426
 11
-11.445145606994629
 21
-49.775962829589844
 31
-0.20000696182250977
  0
LINE
  8
0
 10
-11.445145606994629
 20
-49.775962829589844
 30
-0.20000696182250977
 11
-11.061690330505371
 21
-49.63875961303711
 31
-0.20000576972961426
  0
LINE
  8
0
 10
-11.061690330505371
 20
-49.63875961303711
 30
-0.20000576972961426
 11
-10.666633605957031
 21
-49.53980255126953
 31
-0.20000600814819336
  0
LINE
  8
0
 10
-10.666633605957031
 20
-49.53980255126953
 30
-0.20000600814819336
 11
-10.263779640197754
 21
-49.480045318603516
 31
-0.20000576972961426
  0
LINE
  8
0
 10
-9.857009887695312
 20
-49.46006393432617
 30
-0.20000529289245605
 11
-10.263779640197754
 21
-49.480045318603516
 31
-0.20000576972961426
  0
LINE
  8
0
 10
38.139549255371094
 20
-36.52548599243164
 30
-0.20000633597373962
 11
38.54632568359375
 21
-36.54547119140625
 31
-0.20000579953193665
  0
LINE
  8
0
 10
38.54632568359375
 20
-36.54547119140625
 30
-0.20000579953193665
 11
38.949180603027344
 21
-36.605228424072266
 31
-0.20000618696212769
  0
LINE
  8
0
 10
38.949180603027344
 20
-36.605228424072266
 30
-0.20000618696212769
 11
39.34423065185547
 21
-36.704185485839844
 31
-0.20000585913658142
  0
LINE
  8
0
 10
39.34423065185547
 20
-36.704185485839844
 30
-0.20000585913658142
 11
39.727684020996094
 21
-36.84138488769531
 31
-0.20000630617141724
  0
LINE
  8
0
 10
39.727684020996094
 20
-36.84138488769531
 30
-0.20000630617141724
 11
40.095848083496094
 21
-37.0155143737793
 31
-0.20000621676445007
  0
LINE
  8
0
 10
40.095848083496094
 20
-37.0155143737793
 30
-0.20000621676445007
 11
40.445167541503906
 21
-37.22488784790039
 31
-0.20000582933425903
  0
LINE
  8
0
 10
40.445167541503906
 20
-37.22488784790039
 30
-0.20000582933425903
 11
40.77228546142578
 21
-37.46749496459961
 31
-0.20000609755516052
  0
LINE
  8
0
 10
40.77228546142578
 20
-37.46749496459961
 30
-0.20000609755516052
 11
41.07404327392578
 21
-37.74099349975586
 31
-0.2000063955783844
  0
LINE
  8
0
 10
41.07404327392578
 20
-37.74099349975586
 30
-0.2000063955783844
 11
41.34754180908203
 21
-38.042755126953125
 31
-0.2000058889389038
  0
LINE
  8
0
 10
41.34754180908203
 20
-38.042755126953125
 30
-0.2000058889389038
 11
41.59015655517578
 21
-38.369869232177734
 31
-0.2000066637992859
  0
LINE
  8
0
 10
41.59015655517578
 20
-38.369869232177734
 30
-0.2000066637992859
 11
41.799522399902344
 21
-38.71918869018555
 31
-0.20000606775283813
  0
LINE
  8
0
 10
41.799522399902344
 20
-38.71918869018555
 30
-0.20000606775283813
 11
41.973655700683594
 21
-39.08734893798828
 31
-0.20000600814819336
  0
LINE
  8
0
 10
41.973655700683594
 20
-39.08734893798828
 30
-0.20000600814819336
 11
42.11085510253906
 21
-39.47080612182617
 31
-0.20000594854354858
  0
LINE
  8
0
 10
42.11085510253906
 20
-39.47080612182617
 30
-0.20000594854354858
 11
42.209815979003906
 21
-39.86586380004883
 31
-0.20000618696212769
  0
LINE
  8
0
 10
42.209815979003906
 20
-39.86586380004883
 30
-0.20000618696212769
 11
42.269569396972656
 21
-40.268714904785156
 31
-0.20000624656677246
  0
LINE
  8
0
 10
42.269569396972656
 20
-40.268714904785156
 30
-0.20000624656677246
 11
42.28955841064453
 21
-40.67548751831055
 31
-0.20000672340393066
  0
LINE
  8
0
 10
42.28955841064453
 20
-40.67548751831055
 30
-0.20000672340393066
 11
42.269569396972656
 21
-41.08225631713867
 31
-0.20000618696212769
  0
LINE
  8
0
 10
42.269569396972656
 20
-41.08225631713867
 30
-0.20000618696212769
 11
42.209815979003906
 21
-41.485111236572266
 31
-0.20000624656677246
  0
LINE
  8
0
 10
42.209815979003906
 20
-41.485111236572266
 30
-0.20000624656677246
 11
42.11085510253906
 21
-41.88016891479492
 31
-0.2000056505203247
  0
LINE
  8
0
 10
42.11085510253906
 20
-41.88016891479492
 30
-0.2000056505203247
 11
41.973655700683594
 21
-42.26362228393555
 31
-0.20000648498535156
  0
LINE
  8
0
 10
41.973655700683594
 20
-42.26362228393555
 30
-0.20000648498535156
 11
41.799522399902344
 21
-42.63178253173828
 31
-0.2000054121017456
  0
LINE
  8
0
 10
41.799522399902344
 20
-42.63178253173828
 30
-0.2000054121017456
 11
41.59015655517578
 21
-42.981101989746094
 31
-0.20000684261322021
  0
LINE
  8
0
 10
41.59015655517578
 20
-42.981101989746094
 30
-0.20000684261322021
 11
41.34754180908203
 21
-43.30821990966797
 31
-0.2000054121017456
  0
LINE
  8
0
 10
41.34754180908203
 20
-43.30821990966797
 30
-0.2000054121017456
 11
41.07404327392578
 21
-43.609981536865234
 31
-0.20000600814819336
  0
LINE
  8
0
 10
41.07404327392578
 20
-43.609981536865234
 30
-0.20000600814819336
 11
40.77228546142578
 21
-43.883480072021484
 31
-0.20000696182250977
  0
LINE
  8
0
 10
40.77228546142578
 20
-43.883480072021484
 30
-0.20000696182250977
 11
40.445167541503906
 21
-44.12608337402344
 31
-0.20000767707824707
  0
LINE
  8
0
 10
40.445167541503906
 20
-44.12608337402344
 30
-0.20000767707824707
 11
40.095848083496094
 21
-44.3354606628418
 31
-0.2000058889389038
  0
LINE
  8
0
 10
40.095848083496094
 20
-44.3354606628418
 30
-0.2000058889389038
 11
39.727684020996094
 21
-44.509586334228516
 31
-0.2000051736831665
  0
LINE
  8
0
 10
39.727684020996094
 20
-44.509586334228516
 30
-0.2000051736831665
 11
39.34423065185547
 21
-44.64678955078125
 31
-0.20000624656677246
  0
LINE
  8
0
 10
39.34423065185547
 20
-44.64678955078125
 30
-0.20000624656677246
 11
38.949180603027344
 21
-44.74574661254883
 31
-0.2000058889389038
  0
LINE
  8
0
 10
38.949180603027344
 20
-44.74574661254883
 30
-0.2000058889389038
 11
38.54632568359375
 21
-44.805503845214844
 31
-0.20000433921813965
  0
LINE
  8
0
 10
38.54632568359375
 20
-44.805503845214844
 30
-0.20000433921813965
 11
38.139549255371094
 21
-44.82548904418945
 31
-0.20000481605529785
  0
LINE
  8
0
 10
38.139549255371094
 20
-44.82548904418945
 30
-0.20000481605529785
 11
37.73278045654297
 21
-44.805503845214844
 31
-0.20000433921813965
  0
LINE
  8
0
 10
37.73278045654297
 20
-44.805503845214844
 30
-0.20000433921813965
 11
37.32992935180664
 21
-44.74574661254883
 31
-0.2000058889389038
  0
LINE
  8
0
 10
37.32992935180664
 20
-44.74574661254883
 30
-0.2000058889389038
 11
36.934871673583984
 21
-44.64678955078125
 31
-0.20000624656677246
  0
LINE
  8
0
 10
36.934871673583984
 20
-44.64678955078125
 30
-0.20000624656677246
 11
36.55141830444336
 21
-44.509586334228516
 31
-0.2000051736831665
  0
LINE
  8
0
 10
36.55141830444336
 20
-44.509586334228516
 30
-0.2000051736831665
 11
36.183258056640625
 21
-44.3354606628418
 31
-0.2000058889389038
  0
LINE
  8
0
 10
36.183258056640625
 20
-44.3354606628418
 30
-0.2000058889389038
 11
35.83393478393555
 21
-44.12608337402344
 31
-0.20000767707824707
  0
LINE
  8
0
 10
35.83393478393555
 20
-44.12608337402344
 30
-0.20000767707824707
 11
35.50682067871094
 21
-43.883480072021484
 31
-0.20000696182250977
  0
LINE
  8
0
 10
35.50682067871094
 20
-43.883480072021484
 30
-0.20000696182250977
 11
35.20505905151367
 21
-43.609981536865234
 31
-0.20000600814819336
  0
LINE
  8
0
 10
35.20505905151367
 20
-43.609981536865234
 30
-0.20000600814819336
 11
34.93156051635742
 21
-43.30821990966797
 31
-0.2000054121017456
  0
LINE
  8
0
 10
34.93156051635742
 20
-43.30821990966797
 30
-0.2000054121017456
 11
34.6889533996582
 21
-42.981101989746094
 31
-0.20000684261322021
  0
LINE
  8
0
 10
34.6889533996582
 20
-42.981101989746094
 30
-0.20000684261322021
 11
34.47957992553711
 21
-42.63178253173828
 31
-0.2000054121017456
  0
LINE
  8
0
 10
34.47957992553711
 20
-42.63178253173828
 30
-0.2000054121017456
 11
34.30545425415039
 21
-42.26362228393555
 31
-0.20000648498535156
  0
LINE
  8
0
 10
34.30545425415039
 20
-42.26362228393555
 30
-0.20000648498535156
 11
34.168251037597656
 21
-41.88016891479492
 31
-0.2000056505203247
  0
LINE
  8
0
 10
34.168251037597656
 20
-41.88016891479492
 30
-0.2000056505203247
 11
34.06929397583008
 21
-41.485111236572266
 31
-0.20000624656677246
  0
LINE
  8
0
 10
34.06929397583008
 20
-41.485111236572266
 30
-0.20000624656677246
 11
34.00953674316406
 21
-41.08225631713867
 31
-0.20000618696212769
  0
LINE
  8
0
 10
34.00953674316406
 20
-41.08225631713867
 30
-0.20000618696212769
 11
33.98955154418945
 21
-40.67548751831055
 31
-0.20000672340393066
  0
LINE
  8
0
 10
33.98955154418945
 20
-40.67548751831055
 30
-0.20000672340393066
 11
34.00953674316406
 21
-40.268714904785156
 31
-0.20000624656677246
  0
LINE
  8
0
 10
34.00953674316406
 20
-40.268714904785156
 30
-0.20000624656677246
 11
34.06929397583008
 21
-39.86586380004883
 31
-0.20000618696212769
  0
LINE
  8
0
 10
34.06929397583008
 20
-39.86586380004883
 30
-0.20000618696212769
 11
34.168251037597656
 21
-39.47080612182617
 31
-0.20000594854354858
  0
LINE
  8
0
 10
34.168251037597656
 20
-39.47080612182617
 30
-0.20000594854354858
 11
34.30545425415039
 21
-39.08734893798828
 31
-0.20000600814819336
  0
LINE
  8
0
 10
34.30545425415039
 20
-39.08734893798828
 30
-0.20000600814819336
 11
34.47957992553711
 21
-38.71918869018555
 31
-0.20000606775283813
  0
LINE
  8
0
 10
34.47957992553711
 20
-38.71918869018555
 30
-0.20000606775283813
 11
34.6889533996582
 21
-38.369869232177734
 31
-0.2000066637992859
  0
LINE
  8
0
 10
34.6889533996582
 20
-38.369869232177734
 30
-0.2000066637992859
 11
34.93156051635742
 21
-38.042755126953125
 31
-0.2000058889389038
  0
LINE
  8
0
 10
34.93156051635742
 20
-38.042755126953125
 30
-0.2000058889389038
 11
35.20505905151367
 21
-37.74099349975586
 31
-0.2000063955783844
  0
LINE
  8
0
 10
35.20505905151367
 20
-37.74099349975586
 30
-0.2000063955783844
 11
35.50682067871094
 21
-37.46749496459961
 31
-0.20000609755516052
  0
LINE
  8
0
 10
35.50682067871094
 20
-37.46749496459961
 30
-0.20000609755516052
 11
35.83393478393555
 21
-37.22488784790039
 31
-0.20000582933425903
  0
LINE
  8
0
 10
35.83393478393555
 20
-37.22488784790039
 30
-0.20000582933425903
 11
36.183258056640625
 21
-37.0155143737793
 31
-0.20000621676445007
  0
LINE
  8
0
 10
36.183258056640625
 20
-37.0155143737793
 30
-0.20000621676445007
 11
36.55141830444336
 21
-36.84138488769531
 31
-0.20000630617141724
  0
LINE
  8
0
 10
36.55141830444336
 20
-36.84138488769531
 30
-0.20000630617141724
 11
36.934871673583984
 21
-36.704185485839844
 31
-0.20000585913658142
  0
LINE
  8
0
 10
36.934871673583984
 20
-36.704185485839844
 30
-0.20000585913658142
 11
37.32992935180664
 21
-36.605228424072266
 31
-0.20000618696212769
  0
LINE
  8
0
 10
37.32992935180664
 20
-36.605228424072266
 30
-0.20000618696212769
 11
37.73278045654297
 21
-36.54547119140625
 31
-0.20000579953193665
  0
LINE
  8
0
 10
38.139549255371094
 20
-36.52548599243164
 30
-0.20000633597373962
 11
37.73278045654297
 21
-36.54547119140625
 31
-0.20000579953193665
  0
LINE
  8
0
 10
59.069419860839844
 20
-10.592432975769043
 30
-0.20000576972961426
 11
59.47618865966797
 21
-10.61241340637207
 31
-0.20000672340393066
  0
LINE
  8
0
 10
59.47618865966797
 20
-10.61241340637207
 30
-0.20000672340393066
 11
59.87903594970703
 21
-10.672173500061035
 31
-0.20000576972961426
  0
LINE
  8
0
 10
59.87903594970703
 20
-10.672173500061035
 30
-0.20000576972961426
 11
60.27410125732422
 21
-10.77113151550293
 31
-0.20000624656677246
  0
LINE
  8
0
 10
60.27410125732422
 20
-10.77113151550293
 30
-0.20000624656677246
 11
60.657554626464844
 21
-10.908329963684082
 31
-0.20000600814819336
  0
LINE
  8
0
 10
60.657554626464844
 20
-10.908329963684082
 30
-0.20000600814819336
 11
61.025718688964844
 21
-11.082459449768066
 31
-0.20000576972961426
  0
LINE
  8
0
 10
61.025718688964844
 20
-11.082459449768066
 30
-0.20000576972961426
 11
61.375038146972656
 21
-11.291828155517578
 31
-0.20000696182250977
  0
LINE
  8
0
 10
61.375038146972656
 20
-11.291828155517578
 30
-0.20000696182250977
 11
61.70215606689453
 21
-11.534440040588379
 31
-0.20000672340393066
  0
LINE
  8
0
 10
61.70215606689453
 20
-11.534440040588379
 30
-0.20000672340393066
 11
62.00391387939453
 21
-11.807941436767578
 31
-0.20000576972961426
  0
LINE
  8
0
 10
62.00391387939453
 20
-11.807941436767578
 30
-0.20000576972961426
 11
62.27741241455078
 21
-12.109702110290527
 31
-0.20000624656677246
  0
LINE
  8
0
 10
62.27741241455078
 20
-12.109702110290527
 30
-0.20000624656677246
 11
62.52001190185547
 21
-12.436814308166504
 31
-0.20000648498535156
  0
LINE
  8
0
 10
62.52001190185547
 20
-12.436814308166504
 30
-0.20000648498535156
 11
62.729393005371094
 21
-12.786138534545898
 31
-0.20000600814819336
  0
LINE
  8
0
 10
62.729393005371094
 20
-12.786138534545898
 30
-0.20000600814819336
 11
62.90351104736328
 21
-13.154298782348633
 31
-0.20000600814819336
  0
LINE
  8
0
 10
62.90351104736328
 20
-13.154298782348633
 30
-0.20000600814819336
 11
63.04071807861328
 21
-13.537753105163574
 31
-0.20000600814819336
  0
LINE
  8
0
 10
63.04071807861328
 20
-13.537753105163574
 30
-0.20000600814819336
 11
63.139671325683594
 21
-13.93281078338623
 31
-0.20000529289245605
  0
LINE
  8
0
 10
63.139671325683594
 20
-13.93281078338623
 30
-0.20000529289245605
 11
63.199440002441406
 21
-14.335660934448242
 31
-0.20000600814819336
  0
LINE
  8
0
 10
63.199440002441406
 20
-14.335660934448242
 30
-0.20000600814819336
 11
63.21941375732422
 21
-14.742433547973633
 31
-0.20000600814819336
  0
LINE
  8
0
 10
63.21941375732422
 20
-14.742433547973633
 30
-0.20000600814819336
 11
63.199440002441406
 21
-15.149206161499023
 31
-0.20000529289245605
  0
LINE
  8
0
 10
63.199440002441406
 20
-15.149206161499023
 30
-0.20000529289245605
 11
63.139671325683594
 21
-15.552059173583984
 31
-0.20000648498535156
  0
LINE
  8
0
 10
63.139671325683594
 20
-15.552059173583984
 30
-0.20000648498535156
 11
63.04071807861328
 21
-15.947115898132324
 31
-0.20000576972961426
  0
LINE
  8
0
 10
63.04071807861328
 20
-15.947115898132324
 30
-0.20000576972961426
 11
62.90351104736328
 21
-16.33056640625
 31
-0.20000624656677246
  0
LINE
  8
0
 10
62.90351104736328
 20
-16.33056640625
 30
-0.20000624656677246
 11
62.729393005371094
 21
-16.698728561401367
 31
-0.20000600814819336
  0
LINE
  8
0
 10
62.729393005371094
 20
-16.698728561401367
 30
-0.20000600814819336
 11
62.52001190185547
 21
-17.048051834106445
 31
-0.20000576972961426
  0
LINE
  8
0
 10
62.52001190185547
 20
-17.048051834106445
 30
-0.20000576972961426
 11
62.27741241455078
 21
-17.375167846679688
 31
-0.20000576972961426
  0
LINE
  8
0
 10
62.27741241455078
 20
-17.375167846679688
 30
-0.20000576972961426
 11
62.00391387939453
 21
-17.676931381225586
 31
-0.20000648498535156
  0
LINE
  8
0
 10
62.00391387939453
 20
-17.676931381225586
 30
-0.20000648498535156
 11
61.70215606689453
 21
-17.95042610168457
 31
-0.20000553131103516
  0
LINE
  8
0
 10
61.70215606689453
 20
-17.95042610168457
 30
-0.20000553131103516
 11
61.375038146972656
 21
-18.193037033081055
 31
-0.20000553131103516
  0
LINE
  8
0
 10
61.375038146972656
 20
-18.193037033081055
 30
-0.20000553131103516
 11
61.025718688964844
 21
-18.40241241455078
 31
-0.20000648498535156
  0
LINE
  8
0
 10
61.025718688964844
 20
-18.40241241455078
 30
-0.20000648498535156
 11
60.657554626464844
 21
-18.5765380859375
 31
-0.20000672340393066
  0
LINE
  8
0
 10
60.657554626464844
 20
-18.5765380859375
 30
-0.20000672340393066
 11
60.27410125732422
 21
-18.7137393951416
 31
-0.20000624656677246
  0
LINE
  8
0
 10
60.27410125732422
 20
-18.7137393951416
 30
-0.20000624656677246
 11
59.87903594970703
 21
-18.812692642211914
 31
-0.20000529289245605
  0
LINE
  8
0
 10
59.87903594970703
 20
-18.812692642211914
 30
-0.20000529289245605
 11
59.47618865966797
 21
-18.872455596923828
 31
-0.20000600814819336
  0
LINE
  8
0
 10
59.47618865966797
 20
-18.872455596923828
 30
-0.20000600814819336
 11
59.069419860839844
 21
-18.89243507385254
 31
-0.20000600814819336
  0
LINE
  8
0
 10
59.069419860839844
 20
-18.89243507385254
 30
-0.20000600814819336
 11
58.66265106201172
 21
-18.872455596923828
 31
-0.20000600814819336
  0
LINE
  8
0
 10
58.66265106201172
 20
-18.872455596923828
 30
-0.20000600814819336
 11
58.259788513183594
 21
-18.812692642211914
 31
-0.20000529289245605
  0
LINE
  8
0
 10
58.259788513183594
 20
-18.812692642211914
 30
-0.20000529289245605
 11
57.86473846435547
 21
-18.7137393951416
 31
-0.20000624656677246
  0
LINE
  8
0
 10
57.86473846435547
 20
-18.7137393951416
 30
-0.20000624656677246
 11
57.481285095214844
 21
-18.5765380859375
 31
-0.20000672340393066
  0
LINE
  8
0
 10
57.481285095214844
 20
-18.5765380859375
 30
-0.20000672340393066
 11
57.113121032714844
 21
-18.40241241455078
 31
-0.20000648498535156
  0
LINE
  8
0
 10
57.113121032714844
 20
-18.40241241455078
 30
-0.20000648498535156
 11
56.76380157470703
 21
-18.193037033081055
 31
-0.20000553131103516
  0
LINE
  8
0
 10
56.76380157470703
 20
-18.193037033081055
 30
-0.20000553131103516
 11
56.436683654785156
 21
-17.95042610168457
 31
-0.20000553131103516
  0
LINE
  8
0
 10
56.436683654785156
 20
-17.95042610168457
 30
-0.20000553131103516
 11
56.134925842285156
 21
-17.676931381225586
 31
-0.20000648498535156
  0
LINE
  8
0
 10
56.134925842285156
 20
-17.676931381225586
 30
-0.20000648498535156
 11
55.861427307128906
 21
-17.375167846679688
 31
-0.20000576972961426
  0
LINE
  8
0
 10
55.861427307128906
 20
-17.375167846679688
 30
-0.20000576972961426
 11
55.618812561035156
 21
-17.048051834106445
 31
-0.20000576972961426
  0
LINE
  8
0
 10
55.618812561035156
 20
-17.048051834106445
 30
-0.20000576972961426
 11
55.409446716308594
 21
-16.698728561401367
 31
-0.20000600814819336
  0
LINE
  8
0
 10
55.409446716308594
 20
-16.698728561401367
 30
-0.20000600814819336
 11
55.235313415527344
 21
-16.33056640625
 31
-0.20000624656677246
  0
LINE
  8
0
 10
55.235313415527344
 20
-16.33056640625
 30
-0.20000624656677246
 11
55.098114013671875
 21
-15.947115898132324
 31
-0.20000576972961426
  0
LINE
  8
0
 10
55.098114013671875
 20
-15.947115898132324
 30
-0.20000576972961426
 11
54.99916076660156
 21
-15.552059173583984
 31
-0.20000648498535156
  0
LINE
  8
0
 10
54.99916076660156
 20
-15.552059173583984
 30
-0.20000648498535156
 11
54.93939971923828
 21
-15.149206161499023
 31
-0.20000529289245605
  0
LINE
  8
0
 10
54.93939971923828
 20
-15.149206161499023
 30
-0.20000529289245605
 11
54.91941833496094
 21
-14.742433547973633
 31
-0.20000600814819336
  0
LINE
  8
0
 10
54.91941833496094
 20
-14.742433547973633
 30
-0.20000600814819336
 11
54.93939971923828
 21
-14.335660934448242
 31
-0.20000600814819336
  0
LINE
  8
0
 10
54.93939971923828
 20
-14.335660934448242
 30
-0.20000600814819336
 11
54.99916076660156
 21
-13.93281078338623
 31
-0.20000529289245605
  0
LINE
  8
0
 10
54.99916076660156
 20
-13.93281078338623
 30
-0.20000529289245605
 11
55.098114013671875
 21
-13.537753105163574
 31
-0.20000600814819336
  0
LINE
  8
0
 10
55.098114013671875
 20
-13.537753105163574
 30
-0.20000600814819336
 11
55.235313415527344
 21
-13.154298782348633
 31
-0.20000600814819336
  0
LINE
  8
0
 10
55.235313415527344
 20
-13.154298782348633
 30
-0.20000600814819336
 11
55.409446716308594
 21
-12.786138534545898
 31
-0.20000600814819336
  0
LINE
  8
0
 10
55.409446716308594
 20
-12.786138534545898
 30
-0.20000600814819336
 11
55.618812561035156
 21
-12.436814308166504
 31
-0.20000648498535156
  0
LINE
  8
0
 10
55.618812561035156
 20
-12.436814308166504
 30
-0.20000648498535156
 11
55.861427307128906
 21
-12.109702110290527
 31
-0.20000624656677246
  0
LINE
  8
0
 10
55.861427307128906
 20
-12.109702110290527
 30
-0.20000624656677246
 11
56.134925842285156
 21
-11.807941436767578
 31
-0.20000576972961426
  0
LINE
  8
0
 10
56.134925842285156
 20
-11.807941436767578
 30
-0.20000576972961426
 11
56.436683654785156
 21
-11.534440040588379
 31
-0.20000672340393066
  0
LINE
  8
0
 10
56.436683654785156
 20
-11.534440040588379
 30
-0.20000672340393066
 11
56.76380157470703
 21
-11.291828155517578
 31
-0.20000696182250977
  0
LINE
  8
0
 10
56.76380157470703
 20
-11.291828155517578
 30
-0.20000696182250977
 11
57.113121032714844
 21
-11.082459449768066
 31
-0.20000576972961426
  0
LINE
  8
0
 10
57.113121032714844
 20
-11.082459449768066
 30
-0.20000576972961426
 11
57.481285095214844
 21
-10.908329963684082
 31
-0.20000600814819336
  0
LINE
  8
0
 10
57.481285095214844
 20
-10.908329963684082
 30
-0.20000600814819336
 11
57.86473846435547
 21
-10.77113151550293
 31
-0.20000624656677246
  0
LINE
  8
0
 10
57.86473846435547
 20
-10.77113151550293
 30
-0.20000624656677246
 11
58.259788513183594
 21
-10.672173500061035
 31
-0.20000576972961426
  0
LINE
  8
0
 10
58.259788513183594
 20
-10.672173500061035
 30
-0.20000576972961426
 11
58.66265106201172
 21
-10.61241340637207
 31
-0.20000672340393066
  0
LINE
  8
0
 10
59.069419860839844
 20
-10.592432975769043
 30
-0.20000576972961426
 11
58.66265106201172
 21
-10.61241340637207
 31
-0.20000672340393066
  0
LINE
  8
0
 10
-46.232540130615234
 20
-4.2585978507995605
 30
-0.20000553131103516
 11
-45.825767517089844
 21
-4.278576374053955
 31
-0.20000648498535156
  0
LINE
  8
0
 10
-45.825767517089844
 20
-4.278576374053955
 30
-0.20000648498535156
 11
-45.422916412353516
 21
-4.338336944580078
 31
-0.20000553131103516
  0
LINE
  8
0
 10
-45.422916412353516
 20
-4.338336944580078
 30
-0.20000553131103516
 11
-45.02785873413086
 21
-4.4372968673706055
 31
-0.20000553131103516
  0
LINE
  8
0
 10
-45.02785873413086
 20
-4.4372968673706055
 30
-0.20000553131103516
 11
-44.644405364990234
 21
-4.574495315551758
 31
-0.20000553131103516
  0
LINE
  8
0
 10
-44.644405364990234
 20
-4.574495315551758
 30
-0.20000553131103516
 11
-44.2762451171875
 21
-4.748624801635742
 31
-0.20000600814819336
  0
LINE
  8
0
 10
-44.2762451171875
 20
-4.748624801635742
 30
-0.20000600814819336
 11
-43.92692184448242
 21
-4.957993030548096
 31
-0.20000648498535156
  0
LINE
  8
0
 10
-43.92692184448242
 20
-4.957993030548096
 30
-0.20000648498535156
 11
-43.59980773925781
 21
-5.200603485107422
 31
-0.20000600814819336
  0
LINE
  8
0
 10
-43.59980773925781
 20
-5.200603485107422
 30
-0.20000600814819336
 11
-43.29804611206055
 21
-5.474102020263672
 31
-0.20000696182250977
  0
LINE
  8
0
 10
-43.29804611206055
 20
-5.474102020263672
 30
-0.20000696182250977
 11
-43.0245475769043
 21
-5.775863170623779
 31
-0.20000648498535156
  0
LINE
  8
0
 10
-43.0245475769043
 20
-5.775863170623779
 30
-0.20000648498535156
 11
-42.78194046020508
 21
-6.1029791831970215
 31
-0.20000600814819336
  0
LINE
  8
0
 10
-42.78194046020508
 20
-6.1029791831970215
 30
-0.20000600814819336
 11
-42.572566986083984
 21
-6.452300548553467
 31
-0.20000696182250977
  0
LINE
  8
0
 10
-42.572566986083984
 20
-6.452300548553467
 30
-0.20000696182250977
 11
-42.398441314697266
 21
-6.820461273193359
 31
-0.20000553131103516
  0
LINE
  8
0
 10
-42.398441314697266
 20
-6.820461273193359
 30
-0.20000553131103516
 11
-42.26123809814453
 21
-7.203916549682617
 31
-0.20000553131103516
  0
LINE
  8
0
 10
-42.26123809814453
 20
-7.203916549682617
 30
-0.20000553131103516
 11
-42.16228103637695
 21
-7.598975658416748
 31
-0.20000553131103516
  0
LINE
  8
0
 10
-42.16228103637695
 20
-7.598975658416748
 30
-0.20000553131103516
 11
-42.10252380371094
 21
-8.001822471618652
 31
-0.20000648498535156
  0
LINE
  8
0
 10
-42.10252380371094
 20
-8.001822471618652
 30
-0.20000648498535156
 11
-42.082542419433594
 21
-8.408598899841309
 31
-0.20000553131103516
  0
LINE
  8
0
 10
-42.082542419433594
 20
-8.408598899841309
 30
-0.20000553131103516
 11
-42.10252380371094
 21
-8.8153715133667
 31
-0.20000576972961426
  0
LINE
  8
0
 10
-42.10252380371094
 20
-8.8153715133667
 30
-0.20000576972961426
 11
-42.16228103637695
 21
-9.218221664428711
 31
-0.20000505447387695
  0
LINE
  8
0
 10
-42.16228103637695
 20
-9.218221664428711
 30
-0.20000505447387695
 11
-42.26123809814453
 21
-9.613280296325684
 31
-0.20000529289245605
  0
LINE
  8
0
 10
-42.26123809814453
 20
-9.613280296325684
 30
-0.20000529289245605
 11
-42.398441314697266
 21
-9.99672794342041
 31
-0.20000624656677246
  0
LINE
  8
0
 10
-42.398441314697266
 20
-9.99672794342041
 30
-0.20000624656677246
 11
-42.572566986083984
 21
-10.364892959594727
 31
-0.20000457763671875
  0
LINE
  8
0
 10
-42.572566986083984
 20
-10.364892959594727
 30
-0.20000457763671875
 11
-42.78194046020508
 21
-10.714218139648438
 31
-0.20000600814819336
  0
LINE
  8
0
 10
-42.78194046020508
 20
-10.714218139648438
 30
-0.20000600814819336
 11
-43.0245475769043
 21
-11.041330337524414
 31
-0.20000529289245605
  0
LINE
  8
0
 10
-43.0245475769043
 20
-11.041330337524414
 30
-0.20000529289245605
 11
-43.29804611206055
 21
-11.343092918395996
 31
-0.20000553131103516
  0
LINE
  8
0
 10
-43.29804611206055
 20
-11.343092918395996
 30
-0.20000553131103516
 11
-43.59980773925781
 21
-11.616589546203613
 31
-0.20000624656677246
  0
LINE
  8
0
 10
-43.59980773925781
 20
-11.616589546203613
 30
-0.20000624656677246
 11
-43.92692184448242
 21
-11.859196662902832
 31
-0.20000553131103516
  0
LINE
  8
0
 10
-43.92692184448242
 20
-11.859196662902832
 30
-0.20000553131103516
 11
-44.2762451171875
 21
-12.068572044372559
 31
-0.20000576972961426
  0
LINE
  8
0
 10
-44.2762451171875
 20
-12.068572044372559
 30
-0.20000576972961426
 11
-44.644405364990234
 21
-12.242696762084961
 31
-0.20000624656677246
  0
LINE
  8
0
 10
-44.644405364990234
 20
-12.242696762084961
 30
-0.20000624656677246
 11
-45.02785873413086
 21
-12.379898071289062
 31
-0.20000648498535156
  0
LINE
  8
0
 10
-45.02785873413086
 20
-12.379898071289062
 30
-0.20000648498535156
 11
-45.422916412353516
 21
-12.47885513305664
 31
-0.20000648498535156
  0
LINE
  8
0
 10
-45.422916412353516
 20
-12.47885513305664
 30
-0.20000648498535156
 11
-45.825767517089844
 21
-12.538615226745605
 31
-0.20000648498535156
  0
LINE
  8
0
 10
-45.825767517089844
 20
-12.538615226745605
 30
-0.20000648498535156
 11
-46.232540130615234
 21
-12.558599472045898
 31
-0.20000553131103516
  0
LINE
  8
0
 10
-46.232540130615234
 20
-12.558599472045898
 30
-0.20000553131103516
 11
-46.639312744140625
 21
-12.538615226745605
 31
-0.20000648498535156
  0
LINE
  8
0
 10
-46.639312744140625
 20
-12.538615226745605
 30
-0.20000648498535156
 11
-47.04216384887695
 21
-12.47885513305664
 31
-0.20000648498535156
  0
LINE
  8
0
 10
-47.04216384887695
 20
-12.47885513305664
 30
-0.20000648498535156
 11
-47.43722152709961
 21
-12.379898071289062
 31
-0.20000648498535156
  0
LINE
  8
0
 10
-47.43722152709961
 20
-12.379898071289062
 30
-0.20000648498535156
 11
-47.820674896240234
 21
-12.242696762084961
 31
-0.20000624656677246
  0
LINE
  8
0
 10
-47.820674896240234
 20
-12.242696762084961
 30
-0.20000624656677246
 11
-48.18883514404297
 21
-12.068572044372559
 31
-0.20000576972961426
  0
LINE
  8
0
 10
-48.18883514404297
 20
-12.068572044372559
 30
-0.20000576972961426
 11
-48.53815841674805
 21
-11.859196662902832
 31
-0.20000553131103516
  0
LINE
  8
0
 10
-48.53815841674805
 20
-11.859196662902832
 30
-0.20000553131103516
 11
-48.865272521972656
 21
-11.616589546203613
 31
-0.20000624656677246
  0
LINE
  8
0
 10
-48.865272521972656
 20
-11.616589546203613
 30
-0.20000624656677246
 11
-49.16703414916992
 21
-11.343092918395996
 31
-0.20000553131103516
  0
LINE
  8
0
 10
-49.16703414916992
 20
-11.343092918395996
 30
-0.20000553131103516
 11
-49.44053268432617
 21
-11.041330337524414
 31
-0.20000529289245605
  0
LINE
  8
0
 10
-49.44053268432617
 20
-11.041330337524414
 30
-0.20000529289245605
 11
-49.68313980102539
 21
-10.714218139648438
 31
-0.20000600814819336
  0
LINE
  8
0
 10
-49.68313980102539
 20
-10.714218139648438
 30
-0.20000600814819336
 11
-49.892513275146484
 21
-10.364892959594727
 31
-0.20000457763671875
  0
LINE
  8
0
 10
-49.892513275146484
 20
-10.364892959594727
 30
-0.20000457763671875
 11
-50.0666389465332
 21
-9.99672794342041
 31
-0.20000624656677246
  0
LINE
  8
0
 10
-50.0666389465332
 20
-9.99672794342041
 30
-0.20000624656677246
 11
-50.20384216308594
 21
-9.613280296325684
 31
-0.20000529289245605
  0
LINE
  8
0
 10
-50.20384216308594
 20
-9.613280296325684
 30
-0.20000529289245605
 11
-50.302799224853516
 21
-9.218221664428711
 31
-0.20000505447387695
  0
LINE
  8
0
 10
-50.302799224853516
 20
-9.218221664428711
 30
-0.20000505447387695
 11
-50.36255645751953
 21
-8.8153715133667
 31
-0.20000576972961426
  0
LINE
  8
0
 10
-50.36255645751953
 20
-8.8153715133667
 30
-0.20000576972961426
 11
-50.38254165649414
 21
-8.408598899841309
 31
-0.20000553131103516
  0
LINE
  8
0
 10
-50.38254165649414
 20
-8.408598899841309
 30
-0.20000553131103516
 11
-50.36255645751953
 21
-8.001822471618652
 31
-0.20000648498535156
  0
LINE
  8
0
 10
-50.36255645751953
 20
-8.001822471618652
 30
-0.20000648498535156
 11
-50.302799224853516
 21
-7.598975658416748
 31
-0.20000553131103516
  0
LINE
  8
0
 10
-50.302799224853516
 20
-7.598975658416748
 30
-0.20000553131103516
 11
-50.20384216308594
 21
-7.203916549682617
 31
-0.20000553131103516
  0
LINE
  8
0
 10
-50.20384216308594
 20
-7.203916549682617
 30
-0.20000553131103516
 11
-50.0666389465332
 21
-6.820461273193359
 31
-0.20000553131103516
  0
LINE
  8
0
 10
-50.0666389465332
 20
-6.820461273193359
 30
-0.20000553131103516
 11
-49.892513275146484
 21
-6.452300548553467
 31
-0.20000696182250977
  0
LINE
  8
0
 10
-49.892513275146484
 20
-6.452300548553467
 30
-0.20000696182250977
 11
-49.68313980102539
 21
-6.1029791831970215
 31
-0.20000600814819336
  0
LINE
  8
0
 10
-49.68313980102539
 20
-6.1029791831970215
 30
-0.20000600814819336
 11
-49.44053268432617
 21
-5.775863170623779
 31
-0.20000648498535156
  0
LINE
  8
0
 10
-49.44053268432617
 20
-5.775863170623779
 30
-0.20000648498535156
 11
-49.16703414916992
 21
-5.474102020263672
 31
-0.20000696182250977
  0
LINE
  8
0
 10
-49.16703414916992
 20
-5.474102020263672
 30
-0.20000696182250977
 11
-48.865272521972656
 21
-5.200603485107422
 31
-0.20000600814819336
  0
LINE
  8
0
 10
-48.865272521972656
 20
-5.200603485107422
 30
-0.20000600814819336
 11
-48.53815841674805
 21
-4.957993030548096
 31
-0.20000648498535156
  0
LINE
  8
0
 10
-48.53815841674805
 20
-4.957993030548096
 30
-0.20000648498535156
 11
-48.18883514404297
 21
-4.748624801635742
 31
-0.20000600814819336
  0
LINE
  8
0
 10
-48.18883514404297
 20
-4.748624801635742
 30
-0.20000600814819336
 11
-47.820674896240234
 21
-4.574495315551758
 31
-0.20000553131103516
  0
LINE
  8
0
 10
-47.820674896240234
 20
-4.574495315551758
 30
-0.20000553131103516
 11
-47.43722152709961
 21
-4.4372968673706055
 31
-0.20000553131103516
  0
LINE
  8
0
 10
-47.43722152709961
 20
-4.4372968673706055
 30
-0.20000553131103516
 11
-47.04216384887695
 21
-4.338336944580078
 31
-0.20000553131103516
  0
LINE
  8
0
 10
-47.04216384887695
 20
-4.338336944580078
 30
-0.20000553131103516
 11
-46.639312744140625
 21
-4.278576374053955
 31
-0.20000648498535156
  0
LINE
  8
0
 10
-46.232540130615234
 20
-4.2585978507995605
 30
-0.20000553131103516
 11
-46.639312744140625
 21
-4.278576374053955
 31
-0.20000648498535156
  0
LINE
  8
0
 10
7.574634552001953
 20
14.643697738647461
 30
-0.20000648498535156
 11
7.981407165527344
 21
14.623712539672852
 31
-0.20000457763671875
  0
LINE
  8
0
 10
7.981407165527344
 20
14.623712539672852
 30
-0.20000457763671875
 11
8.384262084960938
 21
14.563957214355469
 31
-0.20000600814819336
  0
LINE
  8
0
 10
8.384262084960938
 20
14.563957214355469
 30
-0.20000600814819336
 11
8.779315948486328
 21
14.464997291564941
 31
-0.20000505447387695
  0
LINE
  8
0
 10
8.779315948486328
 20
14.464997291564941
 30
-0.20000505447387695
 11
9.162773132324219
 21
14.32779312133789
 31
-0.20000553131103516
  0
LINE
  8
0
 10
9.162773132324219
 20
14.32779312133789
 30
-0.20000553131103516
 11
9.530933380126953
 21
14.153675079345703
 31
-0.20000553131103516
  0
LINE
  8
0
 10
9.530933380126953
 20
14.153675079345703
 30
-0.20000553131103516
 11
9.880252838134766
 21
13.944289207458496
 31
-0.20000553131103516
  0
LINE
  8
0
 10
9.880252838134766
 20
13.944289207458496
 30
-0.20000553131103516
 11
10.207366943359375
 21
13.701688766479492
 31
-0.20000600814819336
  0
LINE
  8
0
 10
10.207366943359375
 20
13.701688766479492
 30
-0.20000600814819336
 11
10.50912857055664
 21
13.428184509277344
 31
-0.20000505447387695
  0
LINE
  8
0
 10
10.50912857055664
 20
13.428184509277344
 30
-0.20000505447387695
 11
10.78262710571289
 21
13.126426696777344
 31
-0.20000553131103516
  0
LINE
  8
0
 10
10.78262710571289
 20
13.126426696777344
 30
-0.20000553131103516
 11
11.02523422241211
 21
12.799310684204102
 31
-0.20000553131103516
  0
LINE
  8
0
 10
11.02523422241211
 20
12.799310684204102
 30
-0.20000553131103516
 11
11.234607696533203
 21
12.449992179870605
 31
-0.20000505447387695
  0
LINE
  8
0
 10
11.234607696533203
 20
12.449992179870605
 30
-0.20000505447387695
 11
11.408737182617188
 21
12.081829071044922
 31
-0.20000553131103516
  0
LINE
  8
0
 10
11.408737182617188
 20
12.081829071044922
 30
-0.20000553131103516
 11
11.545936584472656
 21
11.698375701904297
 31
-0.20000553131103516
  0
LINE
  8
0
 10
11.545936584472656
 20
11.698375701904297
 30
-0.20000553131103516
 11
11.644893646240234
 21
11.303319931030273
 31
-0.20000600814819336
  0
LINE
  8
0
 10
11.644893646240234
 20
11.303319931030273
 30
-0.20000600814819336
 11
11.70465087890625
 21
10.900467872619629
 31
-0.20000457763671875
  0
LINE
  8
0
 10
11.70465087890625
 20
10.900467872619629
 30
-0.20000457763671875
 11
11.72463607788086
 21
10.493693351745605
 31
-0.20000600814819336
  0
LINE
  8
0
 10
11.72463607788086
 20
10.493693351745605
 30
-0.20000600814819336
 11
11.70465087890625
 21
10.086918830871582
 31
-0.20000553131103516
  0
LINE
  8
0
 10
11.70465087890625
 20
10.086918830871582
 30
-0.20000553131103516
 11
11.644893646240234
 21
9.684070587158203
 31
-0.20000648498535156
  0
LINE
  8
0
 10
11.644893646240234
 20
9.684070587158203
 30
-0.20000648498535156
 11
11.545936584472656
 21
9.28901481628418
 31
-0.20000696182250977
  0
LINE
  8
0
 10
11.545936584472656
 20
9.28901481628418
 30
-0.20000696182250977
 11
11.408737182617188
 21
8.905558586120605
 31
-0.20000553131103516
  0
LINE
  8
0
 10
11.408737182617188
 20
8.905558586120605
 30
-0.20000553131103516
 11
11.234607696533203
 21
8.537395477294922
 31
-0.20000553131103516
  0
LINE
  8
0
 10
11.234607696533203
 20
8.537395477294922
 30
-0.20000553131103516
 11
11.02523422241211
 21
8.18807601928711
 31
-0.20000553131103516
  0
LINE
  8
0
 10
11.02523422241211
 20
8.18807601928711
 30
-0.20000553131103516
 11
10.78262710571289
 21
7.860960006713867
 31
-0.20000505447387695
  0
LINE
  8
0
 10
10.78262710571289
 20
7.860960006713867
 30
-0.20000505447387695
 11
10.50912857055664
 21
7.55919885635376
 31
-0.20000648498535156
  0
LINE
  8
0
 10
10.50912857055664
 20
7.55919885635376
 30
-0.20000648498535156
 11
10.207366943359375
 21
7.285698413848877
 31
-0.20000505447387695
  0
LINE
  8
0
 10
10.207366943359375
 20
7.285698413848877
 30
-0.20000505447387695
 11
9.880252838134766
 21
7.043093681335449
 31
-0.20000553131103516
  0
LINE
  8
0
 10
9.880252838134766
 20
7.043093681335449
 30
-0.20000553131103516
 11
9.530933380126953
 21
6.833723545074463
 31
-0.20000600814819336
  0
LINE
  8
0
 10
9.530933380126953
 20
6.833723545074463
 30
-0.20000600814819336
 11
9.162773132324219
 21
6.6595940589904785
 31
-0.20000553131103516
  0
LINE
  8
0
 10
9.162773132324219
 20
6.6595940589904785
 30
-0.20000553131103516
 11
8.779315948486328
 21
6.522394180297852
 31
-0.20000553131103516
  0
LINE
  8
0
 10
8.779315948486328
 20
6.522394180297852
 30
-0.20000553131103516
 11
8.384262084960938
 21
6.423433780670166
 31
-0.20000600814819336
  0
LINE
  8
0
 10
8.384262084960938
 20
6.423433780670166
 30
-0.20000600814819336
 11
7.981407165527344
 21
6.363678932189941
 31
-0.20000553131103516
  0
LINE
  8
0
 10
7.981407165527344
 20
6.363678932189941
 30
-0.20000553131103516
 11
7.574634552001953
 21
6.343692779541016
 31
-0.20000600814819336
  0
LINE
  8
0
 10
7.574634552001953
 20
6.343692779541016
 30
-0.20000600814819336
 11
7.167865753173828
 21
6.363678932189941
 31
-0.20000553131103516
  0
LINE
  8
0
 10
7.167865753173828
 20
6.363678932189941
 30
-0.20000553131103516
 11
6.765010833740234
 21
6.423433780670166
 31
-0.20000600814819336
  0
LINE
  8
0
 10
6.765010833740234
 20
6.423433780670166
 30
-0.20000600814819336
 11
6.369953155517578
 21
6.522394180297852
 31
-0.20000553131103516
  0
LINE
  8
0
 10
6.369953155517578
 20
6.522394180297852
 30
-0.20000553131103516
 11
5.986499786376953
 21
6.6595940589904785
 31
-0.20000553131103516
  0
LINE
  8
0
 10
5.986499786376953
 20
6.6595940589904785
 30
-0.20000553131103516
 11
5.618339538574219
 21
6.833723545074463
 31
-0.20000600814819336
  0
LINE
  8
0
 10
5.618339538574219
 20
6.833723545074463
 30
-0.20000600814819336
 11
5.269020080566406
 21
7.043093681335449
 31
-0.20000553131103516
  0
LINE
  8
0
 10
5.269020080566406
 20
7.043093681335449
 30
-0.20000553131103516
 11
4.941904067993164
 21
7.285698413848877
 31
-0.20000505447387695
  0
LINE
  8
0
 10
4.941904067993164
 20
7.285698413848877
 30
-0.20000505447387695
 11
4.640142440795898
 21
7.55919885635376
 31
-0.20000648498535156
  0
LINE
  8
0
 10
4.640142440795898
 20
7.55919885635376
 30
-0.20000648498535156
 11
4.366641998291016
 21
7.860960006713867
 31
-0.20000505447387695
  0
LINE
  8
0
 10
4.366641998291016
 20
7.860960006713867
 30
-0.20000505447387695
 11
4.12403678894043
 21
8.18807601928711
 31
-0.20000553131103516
  0
LINE
  8
0
 10
4.12403678894043
 20
8.18807601928711
 30
-0.20000553131103516
 11
3.914663314819336
 21
8.537395477294922
 31
-0.20000553131103516
  0
LINE
  8
0
 10
3.914663314819336
 20
8.537395477294922
 30
-0.20000553131103516
 11
3.7405357360839844
 21
8.905558586120605
 31
-0.20000553131103516
  0
LINE
  8
0
 10
3.7405357360839844
 20
8.905558586120605
 30
-0.20000553131103516
 11
3.603334426879883
 21
9.28901481628418
 31
-0.20000696182250977
  0
LINE
  8
0
 10
3.603334426879883
 20
9.28901481628418
 30
-0.20000696182250977
 11
3.5043773651123047
 21
9.684070587158203
 31
-0.20000648498535156
  0
LINE
  8
0
 10
3.5043773651123047
 20
9.684070587158203
 30
-0.20000648498535156
 11
3.444620132446289
 21
10.086918830871582
 31
-0.20000553131103516
  0
LINE
  8
0
 10
3.444620132446289
 20
10.086918830871582
 30
-0.20000553131103516
 11
3.4246368408203125
 21
10.493693351745605
 31
-0.20000600814819336
  0
LINE
  8
0
 10
3.4246368408203125
 20
10.493693351745605
 30
-0.20000600814819336
 11
3.444620132446289
 21
10.900467872619629
 31
-0.20000457763671875
  0
LINE
  8
0
 10
3.444620132446289
 20
10.900467872619629
 30
-0.20000457763671875
 11
3.5043773651123047
 21
11.303319931030273
 31
-0.20000600814819336
  0
LINE
  8
0
 10
3.5043773651123047
 20
11.303319931030273
 30
-0.20000600814819336
 11
3.603334426879883
 21
11.698375701904297
 31
-0.20000553131103516
  0
LINE
  8
0
 10
3.603334426879883
 20
11.698375701904297
 30
-0.20000553131103516
 11
3.7405357360839844
 21
12.081829071044922
 31
-0.20000553131103516
  0
LINE
  8
0
 10
3.7405357360839844
 20
12.081829071044922
 30
-0.20000553131103516
 11
3.914663314819336
 21
12.449992179870605
 31
-0.20000505447387695
  0
LINE
  8
0
 10
3.914663314819336
 20
12.449992179870605
 30
-0.20000505447387695
 11
4.12403678894043
 21
12.799310684204102
 31
-0.20000553131103516
  0
LINE
  8
0
 10
4.12403678894043
 20
12.799310684204102
 30
-0.20000553131103516
 11
4.366641998291016
 21
13.126426696777344
 31
-0.20000553131103516
  0
LINE
  8
0
 10
4.366641998291016
 20
13.126426696777344
 30
-0.20000553131103516
 11
4.640142440795898
 21
13.428184509277344
 31
-0.20000505447387695
  0
LINE
  8
0
 10
4.640142440795898
 20
13.428184509277344
 30
-0.20000505447387695
 11
4.941904067993164
 21
13.701688766479492
 31
-0.20000600814819336
  0
LINE
  8
0
 10
4.941904067993164
 20
13.701688766479492
 30
-0.20000600814819336
 11
5.269020080566406
 21
13.944289207458496
 31
-0.20000553131103516
  0
LINE
  8
0
 10
5.269020080566406
 20
13.944289207458496
 30
-0.20000553131103516
 11
5.618339538574219
 21
14.153675079345703
 31
-0.20000553131103516
  0
LINE
  8
0
 10
5.618339538574219
 20
14.153675079345703
 30
-0.20000553131103516
 11
5.986499786376953
 21
14.32779312133789
 31
-0.20000553131103516
  0
LINE
  8
0
 10
5.986499786376953
 20
14.32779312133789
 30
-0.20000553131103516
 11
6.369953155517578
 21
14.464997291564941
 31
-0.20000505447387695
  0
LINE
  8
0
 10
6.369953155517578
 20
14.464997291564941
 30
-0.20000505447387695
 11
6.765010833740234
 21
14.563957214355469
 31
-0.20000600814819336
  0
LINE
  8
0
 10
6.765010833740234
 20
14.563957214355469
 30
-0.20000600814819336
 11
7.167865753173828
 21
14.623712539672852
 31
-0.20000457763671875
  0
LINE
  8
0
 10
7.574634552001953
 20
14.643697738647461
 30
-0.20000648498535156
 11
7.167865753173828
 21
14.623712539672852
 31
-0.20000457763671875
  0
ENDSEC
  0
EOF
