<?xml version="1.0" encoding="UTF-8" standalone="no"?><!DOCTYPE svg PUBLIC "-//W3C//DTD SVG 1.1//EN" "http://www.w3.org/Graphics/SVG/1.1/DTD/svg11.dtd"><svg width="100%" height="100%" viewBox="0 0 40 40" version="1.1" xmlns="http://www.w3.org/2000/svg" xmlns:xlink="http://www.w3.org/1999/xlink" xml:space="preserve" xmlns:serif="http://www.serif.com/" style="fill-rule:evenodd;clip-rule:evenodd;stroke-linejoin:round;stroke-miterlimit:2;"><g id="文字"><g><path d="M9.974,27.97c4.397,-0 7.674,-3.108 7.674,-7.864c-0,-4.588 -3.277,-7.906 -7.674,-7.906c-4.397,-0 -7.674,3.318 -7.674,7.906c0,4.756 3.277,7.864 7.674,7.864Z" style="fill-rule:nonzero;"/><path d="M27.59,27.61c0.486,0 0.761,-0.338 0.761,-0.676c-0,-0.339 -0.254,-0.656 -0.782,-0.656c-2.709,0 -4.42,-2.544 -2.794,-4.71c0.368,-0.49 0.883,-1.166 1.263,-1.663c1.086,-1.422 1.552,-2.669 1.552,-3.789c-0,-1.987 -1.586,-3.763 -4.228,-3.763c-3.102,0 -4.42,2.495 -4.42,3.171c-0,0.435 0.296,0.664 0.634,0.684c2.243,0.131 5.031,3.445 1.719,7.208c-0.589,0.67 -1.68,1.723 -2.374,2.284c-0.373,0.302 -0.529,0.642 -0.529,0.959c0,0.55 0.423,0.951 1.184,0.951l0.042,0c0.656,-0.021 2.178,-0.021 3.679,-0.021c1.522,0 3.638,0 4.272,0.021l0.021,0Z" style="fill-rule:nonzero;"/><path d="M34.677,27.209c-0,-1.376 1.161,-2.805 2.517,-3.087c0.305,-0.063 0.506,-0.28 0.506,-0.592c-0,-4.402 -7.129,-4.114 -2.537,-10.062c0.129,-0.167 0.19,-0.338 0.19,-0.486c0,-0.381 -0.338,-0.656 -0.676,-0.656c-0.191,0 -0.402,0.085 -0.55,0.296c-1.543,2.157 -5.094,7.167 -6.363,9.006c-0.338,0.486 -0.486,0.93 -0.486,1.332c-0,0.59 0.482,1.162 1.073,1.162c2.701,0 5.04,1.301 5.04,3.087c-0,0.326 0.325,0.613 0.652,0.613c0.317,-0 0.634,-0.296 0.634,-0.613Z" style="fill-rule:nonzero;"/></g></g></svg>