<?xml version="1.0" encoding="UTF-8" standalone="no"?><!DOCTYPE svg PUBLIC "-//W3C//DTD SVG 1.1//EN" "http://www.w3.org/Graphics/SVG/1.1/DTD/svg11.dtd"><svg width="100%" height="100%" viewBox="0 0 40 40" version="1.1" xmlns="http://www.w3.org/2000/svg" xmlns:xlink="http://www.w3.org/1999/xlink" xml:space="preserve" xmlns:serif="http://www.serif.com/" style="fill-rule:evenodd;clip-rule:evenodd;stroke-linejoin:round;stroke-miterlimit:2;"><g id="文字"><g><path d="M8.343,28.931c3.705,0 6.466,-2.618 6.466,-6.626c-0,-3.865 -2.761,-6.661 -6.466,-6.661c-3.704,-0 -6.465,2.796 -6.465,6.661c-0,4.008 2.761,6.626 6.465,6.626Z" style="fill-rule:nonzero;"/><path d="M26.468,28.688c0.56,-0 0.877,-0.39 0.877,-0.78c-0,-0.39 -0.292,-0.756 -0.902,-0.756c-3.122,0 -5.095,-2.933 -3.22,-5.429c0.424,-0.566 1.018,-1.345 1.455,-1.918c1.252,-1.639 1.79,-3.076 1.79,-4.368c-0,-2.291 -1.828,-4.338 -4.874,-4.338c-3.577,0 -5.096,2.876 -5.096,3.656c0,0.501 0.342,0.766 0.731,0.788c2.586,0.151 5.8,3.972 1.983,8.31c-0.68,0.772 -1.938,1.986 -2.738,2.633c-0.43,0.347 -0.609,0.739 -0.609,1.105c-0,0.634 0.487,1.097 1.364,1.097l0.049,-0c0.756,-0.025 2.51,-0.025 4.24,-0.025c1.755,0 4.194,0 4.925,0.025l0.025,-0Z" style="fill-rule:nonzero;"/><path d="M34.637,28.225c0,-1.586 1.339,-3.233 2.902,-3.558c0.352,-0.073 0.583,-0.324 0.583,-0.683c0,-5.075 -8.217,-4.742 -2.924,-11.599c0.149,-0.193 0.219,-0.39 0.219,-0.561c0,-0.439 -0.39,-0.755 -0.78,-0.755c-0.219,-0 -0.463,0.097 -0.633,0.341c-1.779,2.486 -5.873,8.261 -7.335,10.381c-0.39,0.561 -0.561,1.072 -0.561,1.535c0,0.681 0.556,1.341 1.237,1.341c3.114,-0 5.81,1.5 5.81,3.558c-0,0.376 0.374,0.706 0.751,0.706c0.366,0 0.731,-0.341 0.731,-0.706Z" style="fill-rule:nonzero;"/></g></g></svg>